<svg width="185" height="186" viewBox="0 0 185 186" fill="none" xmlns="http://www.w3.org/2000/svg">
<ellipse opacity="0.03" cx="92.5732" cy="93.1973" rx="61.9209" ry="62.3028" stroke="#2A3070" stroke-width="60"/>
<path d="M56.1152 37.1262C60.0918 37.1262 64.0294 37.9142 67.7032 39.4454C71.377 40.9765 74.7152 43.2207 77.527 46.0499C80.3388 48.8791 82.5693 52.2378 84.0911 55.9343C85.6128 59.6308 86.3961 63.5927 86.3961 67.5937" stroke="#2A3070" stroke-linecap="round" stroke-dasharray="1 5"/>
<path d="M133.881 26.047C128.549 26.047 123.269 27.1217 118.342 29.2096C113.416 31.2975 108.94 34.3578 105.17 38.2158C101.399 42.0738 98.4083 46.6538 96.3678 51.6945C94.3273 56.7352 93.277 62.1378 93.277 67.5937" stroke="#2A3070" stroke-linecap="round" stroke-dasharray="1 5"/>
<path d="M44.0723 55.8222C45.5635 55.8222 47.0401 56.1267 48.4178 56.7182C49.7954 57.3098 51.0472 58.1769 52.1017 59.27C53.1561 60.3631 53.9925 61.6608 54.5632 63.089C55.1339 64.5172 55.4276 66.0479 55.4276 67.5937" stroke="#2A3070" stroke-linecap="round" stroke-dasharray="1 5"/>
<path d="M12.9785 70.6134C15.8416 70.6134 18.6767 71.198 21.3219 72.3339C23.967 73.4697 26.3705 75.1345 28.395 77.2332C30.4195 79.332 32.0254 81.8235 33.1211 84.5657C34.2168 87.3078 34.7807 90.2468 34.7807 93.2148" stroke="#2A3070" stroke-linecap="round" stroke-dasharray="1 5"/>
<path d="M47.8528 80.438V67.7539L36.8223 80.438H47.8528Z" fill="#2A3070" stroke="#2A3070" stroke-linecap="round" stroke-linejoin="round"/>
<path d="M117.187 80.438V67.7539L127.43 80.438H117.187Z" fill="#2A3070" stroke="#2A3070" stroke-linecap="round" stroke-linejoin="round"/>
<rect width="32.1128" height="20.6972" rx="4" transform="matrix(0.965333 -0.26103 0.256623 0.966514 89.6133 42.0469)" fill="#1EBE8E"/>
<rect width="4.58916" height="4.60139" rx="1" transform="matrix(0.965327 -0.261054 0.2566 0.96652 96.2109 48.9902)" fill="#FACF35"/>
<ellipse rx="2.29458" ry="2.30069" transform="matrix(0.965327 -0.261054 0.2566 0.96652 113.319 41.986)" fill="#2A3070"/>
<path d="M117.264 40.9218C117.52 41.8842 116.95 42.8723 115.994 43.1307C115.038 43.3891 114.055 42.8212 113.8 41.8588C113.544 40.8964 114.114 39.9083 115.07 39.6499C116.025 39.3915 117.009 39.9594 117.264 40.9218Z" stroke="#FCA081"/>
<line x1="1" y1="-1" x2="18.096" y2="-1" transform="matrix(0.965526 -0.260308 0.257338 0.966322 98.582 57.8887)" stroke="#2A3070" stroke-width="2" stroke-linecap="round"/>
<path d="M48.6426 67.7539H117.19V126.174C117.19 128.936 114.951 131.174 112.19 131.174H53.6426C50.8812 131.174 48.6426 128.936 48.6426 126.174V67.7539Z" stroke="#2A3070" stroke-width="1.3"/>
<mask id="path-14-inside-1_2488_70132" fill="white">
<path d="M143.503 114.348C143.944 111.98 146.01 110.264 148.418 110.264H153.106C154.734 110.264 156.26 111.056 157.197 112.388L165.591 124.331C166.183 125.173 166.5 126.177 166.5 127.206V129.783C166.5 132.544 164.262 134.783 161.5 134.783H145.712C142.584 134.783 140.224 131.942 140.797 128.867L143.503 114.348Z"/>
</mask>
<path d="M165.591 124.331L164.773 124.906L165.591 124.331ZM140.797 128.867L141.78 129.05L140.797 128.867ZM157.197 112.388L158.015 111.813L157.197 112.388ZM143.503 114.348L142.52 114.164L143.503 114.348ZM148.418 111.264H153.106V109.264H148.418V111.264ZM161.5 133.783H145.712V135.783H161.5V133.783ZM141.78 129.05L144.486 114.531L142.52 114.164L139.814 128.684L141.78 129.05ZM156.378 112.964L164.773 124.906L166.409 123.756L158.015 111.813L156.378 112.964ZM165.5 127.206V129.783H167.5V127.206H165.5ZM164.773 124.906C165.246 125.58 165.5 126.383 165.5 127.206H167.5C167.5 125.971 167.119 124.767 166.409 123.756L164.773 124.906ZM145.712 133.783C143.21 133.783 141.322 131.51 141.78 129.05L139.814 128.684C139.126 132.374 141.958 135.783 145.712 135.783V133.783ZM161.5 135.783C164.814 135.783 167.5 133.097 167.5 129.783H165.5C165.5 131.992 163.709 133.783 161.5 133.783V135.783ZM153.106 111.264C154.409 111.264 155.629 111.898 156.378 112.964L158.015 111.813C156.891 110.215 155.06 109.264 153.106 109.264V111.264ZM148.418 109.264C145.528 109.264 143.049 111.324 142.52 114.164L144.486 114.531C144.839 112.637 146.492 111.264 148.418 111.264V109.264Z" fill="#2A3070" mask="url(#path-14-inside-1_2488_70132)"/>
<path d="M98.8641 106.157C99.2244 104.272 100.873 102.908 102.793 102.908H139.73C142.241 102.908 144.131 105.194 143.659 107.659L139.096 131.534C138.736 133.419 137.087 134.783 135.167 134.783H98.2298C95.7195 134.783 93.8296 132.498 94.3009 130.032L98.8641 106.157Z" fill="#6672F8"/>
<path d="M154.217 134.827C154.217 137.618 152.166 139.799 149.731 139.799C147.297 139.799 145.246 137.618 145.246 134.827C145.246 132.037 147.297 129.855 149.731 129.855C152.166 129.855 154.217 132.037 154.217 134.827Z" fill="white" stroke="#2A3070"/>
<path d="M112.383 134.827C112.383 137.618 110.332 139.799 107.897 139.799C105.463 139.799 103.412 137.618 103.412 134.827C103.412 132.037 105.463 129.855 107.897 129.855C110.332 129.855 112.383 132.037 112.383 134.827Z" fill="white" stroke="#2A3070"/>
<path opacity="0.6" d="M145.439 116.413C145.657 114.941 146.919 113.852 148.407 113.852H154.319C156.151 113.852 157.555 115.479 157.287 117.29L156.556 122.234C156.338 123.706 155.075 124.796 153.588 124.796H147.676C145.844 124.796 144.44 123.169 144.708 121.357L145.439 116.413Z" fill="#6672F8"/>
<path d="M20.4791 104.005V93.6465L12.7578 104.005H20.4791Z" fill="#DDB011" stroke="#DDB011" stroke-linecap="round" stroke-linejoin="round"/>
<path d="M63.3764 103.573V93.2148L71.0977 103.573H63.3764Z" fill="#DDB011" stroke="#DDB011" stroke-linecap="round" stroke-linejoin="round"/>
<path d="M20.9082 93.2148H62.9464V127.059C62.9464 129.821 60.7078 132.059 57.9464 132.059H25.9082C23.1468 132.059 20.9082 129.821 20.9082 127.059V93.2148Z" fill="#FACF35" stroke="#FACF35"/>
<path d="M63.9113 113.205C63.8209 113.095 63.7754 113.099 63.7354 113.106L63.7354 113.106C63.6921 113.114 63.546 113.179 63.3359 113.516C63.1384 113.833 62.9407 114.303 62.7537 114.912C62.3813 116.126 62.0802 117.797 61.8783 119.674C61.4998 123.19 61.4786 127.335 61.9447 130.372C61.9879 130.589 62.0234 130.798 62.0503 131L61.063 131.157C61.0261 130.957 60.9915 130.752 60.9591 130.543C60.4647 128.093 58.8577 124.54 57.228 121.7C56.3486 120.167 55.4849 118.88 54.8185 118.115C54.5755 117.836 54.384 117.656 54.2477 117.554C53.4181 119.86 53.997 122.378 55.3402 124.693C55.382 124.765 55.4236 124.837 55.4649 124.908C56.5626 126.8 57.5092 128.431 58.5524 129.611C59.6191 130.818 60.7338 131.492 62.1509 131.492C66.5132 131.492 69.3222 128.386 70.9793 124.95C71.8036 123.241 72.3238 121.484 72.5938 120.067C72.7288 119.359 72.7996 118.744 72.8164 118.27C72.8233 118.075 72.8208 117.909 72.8112 117.773C72.5945 117.914 72.303 118.153 71.946 118.493C71.1382 119.26 70.086 120.451 68.9695 121.868C66.7334 124.707 64.2966 128.382 63.0864 131.26L62.1588 130.886C64.03 126.021 64.8264 120.957 64.5162 115.929L64.5162 115.929C64.4806 115.351 64.4044 114.532 64.2199 113.89C64.1262 113.564 64.0184 113.335 63.9113 113.205ZM54.0807 117.455C54.0808 117.455 54.082 117.456 54.0845 117.456C54.0819 117.455 54.0807 117.455 54.0807 117.455ZM54.3243 117.342C54.3247 117.341 54.3249 117.341 54.3249 117.341L54.3243 117.342Z" fill="#1EBE8E" stroke="#1EBE8E"/>
<line x1="0.5" y1="-0.5" x2="2.83401" y2="-0.5" transform="matrix(-0.688083 -0.725632 0.721389 -0.692531 83.1855 87.7773)" stroke="#2A3070" stroke-linecap="round"/>
<line x1="0.5" y1="-0.5" x2="2.83401" y2="-0.5" transform="matrix(-0.688086 -0.72563 0.721391 -0.692528 86.748 84.3574)" stroke="#2A3070" stroke-linecap="round"/>
<path d="M82.0876 89.1396L87.778 83.6768L89.3466 85.331C90.8454 86.9116 90.7866 89.4158 89.2152 90.9243C87.6438 92.4328 85.1549 92.3744 83.6561 90.7938L82.0876 89.1396Z" stroke="#2A3070"/>
<path d="M96.633 118.608C77.3632 112.722 100.074 99.9119 89.0627 90.9102" stroke="#2A3070"/>
<path d="M43.2988 105.541C46.5759 105.541 49.2325 108.43 49.2325 111.994C49.2325 114.311 48.1089 116.344 46.4218 117.482" stroke="white" stroke-linecap="round" stroke-linejoin="round"/>
<path d="M49.2324 117.481L46.2656 117.481L46.2656 114.496" stroke="white" stroke-linecap="round"/>
<path d="M40.332 118.975C37.055 118.975 34.3984 116.086 34.3984 112.522C34.3984 110.204 35.5219 108.172 37.209 107.034" stroke="white" stroke-linecap="round" stroke-linejoin="round"/>
<path d="M34.3984 107.034L37.3653 107.034L37.3653 110.02" stroke="white" stroke-linecap="round"/>
<mask id="path-32-inside-2_2488_70132" fill="white">
<path fill-rule="evenodd" clip-rule="evenodd" d="M7.49486 75.0608C8.65473 73.8752 10.3608 72.1313 10.3608 70.5066C10.3608 68.8515 9.04882 67.5098 7.4304 67.5098C5.81199 67.5098 4.5 68.8515 4.5 70.5066C4.5 72.1315 6.32408 73.9959 7.37272 75.0677C7.39222 75.0876 7.41145 75.1073 7.4304 75.1267C7.45169 75.1049 7.47318 75.0829 7.49486 75.0608ZM7.37025 71.6471C8.04126 71.6471 8.58522 71.0998 8.58522 70.4247C8.58522 69.7495 8.04126 69.2022 7.37025 69.2022C6.69924 69.2022 6.15528 69.7495 6.15528 70.4247C6.15528 71.0998 6.69924 71.6471 7.37025 71.6471Z"/>
</mask>
<path fill-rule="evenodd" clip-rule="evenodd" d="M7.49486 75.0608C8.65473 73.8752 10.3608 72.1313 10.3608 70.5066C10.3608 68.8515 9.04882 67.5098 7.4304 67.5098C5.81199 67.5098 4.5 68.8515 4.5 70.5066C4.5 72.1315 6.32408 73.9959 7.37272 75.0677C7.39222 75.0876 7.41145 75.1073 7.4304 75.1267C7.45169 75.1049 7.47318 75.0829 7.49486 75.0608ZM7.37025 71.6471C8.04126 71.6471 8.58522 71.0998 8.58522 70.4247C8.58522 69.7495 8.04126 69.2022 7.37025 69.2022C6.69924 69.2022 6.15528 69.7495 6.15528 70.4247C6.15528 71.0998 6.69924 71.6471 7.37025 71.6471Z" fill="#2A3070"/>
<path d="M7.49486 75.0608L6.78004 74.3615L6.78004 74.3615L7.49486 75.0608ZM7.37272 75.0677L6.65793 75.767L6.65793 75.767L7.37272 75.0677ZM7.4304 75.1267L6.71541 75.8258L7.43039 76.557L8.14538 75.8258L7.4304 75.1267ZM9.3608 70.5066C9.3608 70.9941 9.09096 71.6206 8.55353 72.3609C8.03219 73.0791 7.36813 73.7603 6.78004 74.3615L8.20967 75.7601C8.78146 75.1756 9.55037 74.3922 10.172 73.5358C10.7776 72.7016 11.3608 71.6438 11.3608 70.5066H9.3608ZM7.4304 68.5098C8.47553 68.5098 9.3608 69.3825 9.3608 70.5066H11.3608C11.3608 68.3204 9.62211 66.5098 7.4304 66.5098V68.5098ZM5.5 70.5066C5.5 69.3825 6.38528 68.5098 7.4304 68.5098V66.5098C5.23869 66.5098 3.5 68.3204 3.5 70.5066H5.5ZM8.08752 74.3684C7.55709 73.8262 6.88882 73.141 6.35044 72.4044C5.78888 71.6362 5.5 70.9844 5.5 70.5066H3.5C3.5 71.6536 4.12316 72.7465 4.7358 73.5846C5.37162 74.4545 6.13972 75.2374 6.65793 75.767L8.08752 74.3684ZM8.14539 74.4275C8.12633 74.408 8.107 74.3883 8.08752 74.3684L6.65793 75.767C6.67745 75.787 6.69658 75.8065 6.71541 75.8258L8.14539 74.4275ZM6.78004 74.3615C6.75838 74.3836 6.7368 74.4057 6.71542 74.4275L8.14538 75.8258C8.16657 75.8041 8.18798 75.7823 8.20967 75.7601L6.78004 74.3615ZM7.58522 70.4247C7.58522 70.5533 7.48319 70.6471 7.37025 70.6471V72.6471C8.59934 72.6471 9.58522 71.6463 9.58522 70.4247H7.58522ZM7.37025 70.2022C7.48319 70.2022 7.58522 70.296 7.58522 70.4247H9.58522C9.58522 69.203 8.59934 68.2022 7.37025 68.2022V70.2022ZM7.15528 70.4247C7.15528 70.296 7.25732 70.2022 7.37025 70.2022V68.2022C6.14117 68.2022 5.15528 69.203 5.15528 70.4247H7.15528ZM7.37025 70.6471C7.25732 70.6471 7.15528 70.5533 7.15528 70.4247H5.15528C5.15528 71.6463 6.14117 72.6471 7.37025 72.6471V70.6471Z" fill="#2A3070" mask="url(#path-32-inside-2_2488_70132)"/>
<mask id="path-34-inside-3_2488_70132" fill="white">
<path fill-rule="evenodd" clip-rule="evenodd" d="M38.4636 58.4416C39.6235 57.2561 41.3296 55.5122 41.3296 53.8874C41.3296 52.2323 40.0176 50.8906 38.3992 50.8906C36.7807 50.8906 35.4688 52.2323 35.4688 53.8874C35.4688 55.5123 37.2928 57.3767 38.3415 58.4486C38.361 58.4685 38.3802 58.4881 38.3992 58.5075C38.4204 58.4858 38.4419 58.4638 38.4636 58.4416ZM38.339 55.028C39.01 55.028 39.554 54.4807 39.554 53.8055C39.554 53.1304 39.01 52.5831 38.339 52.5831C37.668 52.5831 37.124 53.1304 37.124 53.8055C37.124 54.4807 37.668 55.028 38.339 55.028Z"/>
</mask>
<path fill-rule="evenodd" clip-rule="evenodd" d="M38.4636 58.4416C39.6235 57.2561 41.3296 55.5122 41.3296 53.8874C41.3296 52.2323 40.0176 50.8906 38.3992 50.8906C36.7807 50.8906 35.4688 52.2323 35.4688 53.8874C35.4688 55.5123 37.2928 57.3767 38.3415 58.4486C38.361 58.4685 38.3802 58.4881 38.3992 58.5075C38.4204 58.4858 38.4419 58.4638 38.4636 58.4416ZM38.339 55.028C39.01 55.028 39.554 54.4807 39.554 53.8055C39.554 53.1304 39.01 52.5831 38.339 52.5831C37.668 52.5831 37.124 53.1304 37.124 53.8055C37.124 54.4807 37.668 55.028 38.339 55.028Z" fill="#6672F8"/>
<path d="M38.4636 58.4416L37.7488 57.7423L37.7488 57.7423L38.4636 58.4416ZM38.3415 58.4486L39.0563 57.7492L39.0563 57.7492L38.3415 58.4486ZM38.3992 58.5075L37.6842 59.2067L38.3992 59.9379L39.1141 59.2067L38.3992 58.5075ZM40.3296 53.8874C40.3296 54.3749 40.0597 55.0014 39.5223 55.7417C39.0009 56.4599 38.3369 57.1412 37.7488 57.7423L39.1784 59.1409C39.7502 58.5565 40.5191 57.773 41.1408 56.9167C41.7464 56.0825 42.3296 55.0247 42.3296 53.8874H40.3296ZM38.3992 51.8906C39.4443 51.8906 40.3296 52.7634 40.3296 53.8874H42.3296C42.3296 51.7013 40.5909 49.8906 38.3992 49.8906V51.8906ZM36.4688 53.8874C36.4688 52.7634 37.354 51.8906 38.3992 51.8906V49.8906C36.2074 49.8906 34.4688 51.7013 34.4688 53.8874H36.4688ZM39.0563 57.7492C38.5258 57.2071 37.8576 56.5218 37.3192 55.7853C36.7576 55.017 36.4688 54.3653 36.4688 53.8874H34.4688C34.4688 55.0345 35.0919 56.1274 35.7046 56.9655C36.3404 57.8354 37.1085 58.6182 37.6267 59.1479L39.0563 57.7492ZM39.1141 57.8084C39.0951 57.7889 39.0758 57.7691 39.0563 57.7492L37.6267 59.1479C37.6462 59.1678 37.6653 59.1874 37.6842 59.2067L39.1141 57.8084ZM37.7488 57.7423C37.7271 57.7645 37.7055 57.7865 37.6842 57.8084L39.1141 59.2067C39.1353 59.185 39.1567 59.1631 39.1784 59.1409L37.7488 57.7423ZM38.554 53.8055C38.554 53.9342 38.4519 54.028 38.339 54.028V56.028C39.5681 56.028 40.554 55.0272 40.554 53.8055H38.554ZM38.339 53.5831C38.4519 53.5831 38.554 53.6769 38.554 53.8055H40.554C40.554 52.5839 39.5681 51.5831 38.339 51.5831V53.5831ZM38.124 53.8055C38.124 53.6769 38.2261 53.5831 38.339 53.5831V51.5831C37.1099 51.5831 36.124 52.5839 36.124 53.8055H38.124ZM38.339 54.028C38.2261 54.028 38.124 53.9342 38.124 53.8055H36.124C36.124 55.0272 37.1099 56.028 38.339 56.028V54.028Z" fill="#6672F8" mask="url(#path-34-inside-3_2488_70132)"/>
<mask id="path-36-inside-4_2488_70132" fill="white">
<path fill-rule="evenodd" clip-rule="evenodd" d="M50.1628 39.7444C51.3227 38.5588 53.0288 36.8149 53.0288 35.1902C53.0288 33.5351 51.7168 32.1934 50.0984 32.1934C48.48 32.1934 47.168 33.5351 47.168 35.1902C47.168 36.815 48.9921 38.6795 50.0407 39.7513C50.0602 39.7712 50.0794 39.7909 50.0984 39.8103C50.1197 39.7885 50.1411 39.7665 50.1628 39.7444ZM50.0382 36.3307C50.7092 36.3307 51.2532 35.7834 51.2532 35.1083C51.2532 34.4331 50.7092 33.8858 50.0382 33.8858C49.3672 33.8858 48.8232 34.4331 48.8232 35.1083C48.8232 35.7834 49.3672 36.3307 50.0382 36.3307Z"/>
</mask>
<path fill-rule="evenodd" clip-rule="evenodd" d="M50.1628 39.7444C51.3227 38.5588 53.0288 36.8149 53.0288 35.1902C53.0288 33.5351 51.7168 32.1934 50.0984 32.1934C48.48 32.1934 47.168 33.5351 47.168 35.1902C47.168 36.815 48.9921 38.6795 50.0407 39.7513C50.0602 39.7712 50.0794 39.7909 50.0984 39.8103C50.1197 39.7885 50.1411 39.7665 50.1628 39.7444ZM50.0382 36.3307C50.7092 36.3307 51.2532 35.7834 51.2532 35.1083C51.2532 34.4331 50.7092 33.8858 50.0382 33.8858C49.3672 33.8858 48.8232 34.4331 48.8232 35.1083C48.8232 35.7834 49.3672 36.3307 50.0382 36.3307Z" fill="#FCA081"/>
<path d="M50.1628 39.7444L49.448 39.045L49.448 39.045L50.1628 39.7444ZM50.0407 39.7513L50.7555 39.052L50.7555 39.052L50.0407 39.7513ZM50.0984 39.8103L49.3834 40.5094L50.0984 41.2406L50.8134 40.5094L50.0984 39.8103ZM52.0288 35.1902C52.0288 35.6777 51.7589 36.3042 51.2215 37.0445C50.7002 37.7626 50.0361 38.4439 49.448 39.045L50.8776 40.4437C51.4494 39.8592 52.2183 39.0758 52.84 38.2194C53.4456 37.3852 54.0288 36.3274 54.0288 35.1902H52.0288ZM50.0984 33.1934C51.1435 33.1934 52.0288 34.0661 52.0288 35.1902H54.0288C54.0288 33.004 52.2901 31.1934 50.0984 31.1934V33.1934ZM48.168 35.1902C48.168 34.0661 49.0532 33.1934 50.0984 33.1934V31.1934C47.9067 31.1934 46.168 33.004 46.168 35.1902H48.168ZM50.7555 39.052C50.2251 38.5098 49.5568 37.8246 49.0184 37.088C48.4568 36.3198 48.168 35.668 48.168 35.1902H46.168C46.168 36.3372 46.7911 37.4301 47.4038 38.2682C48.0396 39.1381 48.8077 39.921 49.3259 40.4506L50.7555 39.052ZM50.8134 39.1111C50.7943 39.0916 50.775 39.0719 50.7555 39.052L49.3259 40.4506C49.3454 40.4706 49.3645 40.4901 49.3834 40.5094L50.8134 39.1111ZM49.448 39.045C49.4263 39.0672 49.4048 39.0892 49.3834 39.1111L50.8134 40.5094C50.8345 40.4877 50.8559 40.4659 50.8776 40.4437L49.448 39.045ZM50.2532 35.1083C50.2532 35.2369 50.1512 35.3307 50.0382 35.3307V37.3307C51.2673 37.3307 52.2532 36.3299 52.2532 35.1083H50.2532ZM50.0382 34.8858C50.1512 34.8858 50.2532 34.9796 50.2532 35.1083H52.2532C52.2532 33.8866 51.2673 32.8858 50.0382 32.8858V34.8858ZM49.8232 35.1083C49.8232 34.9796 49.9253 34.8858 50.0382 34.8858V32.8858C48.8091 32.8858 47.8232 33.8866 47.8232 35.1083H49.8232ZM50.0382 35.3307C49.9253 35.3307 49.8232 35.2369 49.8232 35.1083H47.8232C47.8232 36.3299 48.8091 37.3307 50.0382 37.3307V35.3307Z" fill="#FCA081" mask="url(#path-36-inside-4_2488_70132)"/>
<mask id="path-38-inside-5_2488_70132" fill="white">
<path fill-rule="evenodd" clip-rule="evenodd" d="M139.63 30.051C140.789 28.8654 142.496 27.1215 142.496 25.4968C142.496 23.8417 141.184 22.5 139.565 22.5C137.947 22.5 136.635 23.8417 136.635 25.4968C136.635 27.1217 138.459 28.9861 139.507 30.0579C139.527 30.0779 139.546 30.0975 139.565 30.1169C139.586 30.0951 139.608 30.0732 139.63 30.051ZM139.505 26.6374C140.176 26.6374 140.72 26.0901 140.72 25.4149C140.72 24.7398 140.176 24.1924 139.505 24.1924C138.834 24.1924 138.29 24.7398 138.29 25.4149C138.29 26.0901 138.834 26.6374 139.505 26.6374Z"/>
</mask>
<path fill-rule="evenodd" clip-rule="evenodd" d="M139.63 30.051C140.789 28.8654 142.496 27.1215 142.496 25.4968C142.496 23.8417 141.184 22.5 139.565 22.5C137.947 22.5 136.635 23.8417 136.635 25.4968C136.635 27.1217 138.459 28.9861 139.507 30.0579C139.527 30.0779 139.546 30.0975 139.565 30.1169C139.586 30.0951 139.608 30.0732 139.63 30.051ZM139.505 26.6374C140.176 26.6374 140.72 26.0901 140.72 25.4149C140.72 24.7398 140.176 24.1924 139.505 24.1924C138.834 24.1924 138.29 24.7398 138.29 25.4149C138.29 26.0901 138.834 26.6374 139.505 26.6374Z" fill="#FACF35"/>
<path d="M139.63 30.051L140.344 30.7503L140.344 30.7503L139.63 30.051ZM139.507 30.0579L140.222 29.3586L140.222 29.3586L139.507 30.0579ZM139.565 30.1169L138.85 30.816L139.565 31.5472L140.28 30.816L139.565 30.1169ZM141.496 25.4968C141.496 25.9843 141.226 26.6108 140.688 27.3511C140.167 28.0693 139.503 28.7506 138.915 29.3517L140.344 30.7503C140.916 30.1659 141.685 29.3824 142.307 28.5261C142.912 27.6919 143.496 26.6341 143.496 25.4968H141.496ZM139.565 23.5C140.61 23.5 141.496 24.3728 141.496 25.4968H143.496C143.496 23.3107 141.757 21.5 139.565 21.5V23.5ZM137.635 25.4968C137.635 24.3728 138.52 23.5 139.565 23.5V21.5C137.373 21.5 135.635 23.3107 135.635 25.4968H137.635ZM140.222 29.3586C139.692 28.8164 139.024 28.1312 138.485 27.3946C137.924 26.6264 137.635 25.9747 137.635 25.4968H135.635C135.635 26.6438 136.258 27.7367 136.871 28.5749C137.506 29.4447 138.274 30.2276 138.793 30.7573L140.222 29.3586ZM140.28 29.4178C140.261 29.3983 140.242 29.3785 140.222 29.3586L138.793 30.7573C138.812 30.7772 138.831 30.7968 138.85 30.816L140.28 29.4178ZM138.915 29.3517C138.893 29.3738 138.872 29.3959 138.85 29.4178L140.28 30.816C140.301 30.7944 140.323 30.7725 140.344 30.7503L138.915 29.3517ZM139.72 25.4149C139.72 25.5436 139.618 25.6374 139.505 25.6374V27.6374C140.734 27.6374 141.72 26.6365 141.72 25.4149H139.72ZM139.505 25.1924C139.618 25.1924 139.72 25.2862 139.72 25.4149H141.72C141.72 24.1933 140.734 23.1924 139.505 23.1924V25.1924ZM139.29 25.4149C139.29 25.2862 139.392 25.1924 139.505 25.1924V23.1924C138.276 23.1924 137.29 24.1933 137.29 25.4149H139.29ZM139.505 25.6374C139.392 25.6374 139.29 25.5436 139.29 25.4149H137.29C137.29 26.6365 138.276 27.6374 139.505 27.6374V25.6374Z" fill="#FACF35" mask="url(#path-38-inside-5_2488_70132)"/>
</svg>
