<svg width="372" height="210" viewBox="0 0 372 210" fill="none" xmlns="http://www.w3.org/2000/svg">
<g clip-path="url(#clip0_488_15820)">
<rect width="372" height="209" transform="translate(0 0.125)" fill="#E8EDFF"/>
<rect x="319.323" y="114" width="51.3243" height="78.18" rx="25.6621" fill="#1EBE8E"/>
<line x1="345.082" y1="209.584" x2="345.082" y2="114.5" stroke="black" stroke-linecap="round"/>
<path d="M356.435 130.002L345.471 140.967L334.506 130.002" stroke="black" stroke-linecap="round"/>
<path d="M356.435 148.24L345.471 159.205L334.506 148.24" stroke="black" stroke-linecap="round"/>
<path d="M356.435 166.74L345.471 177.705L334.506 166.74" stroke="black" stroke-linecap="round"/>
<path d="M191.98 139.461C199.606 136.098 209.808 127.322 212.353 115.088C221.576 115.685 228.962 115.606 234.856 115.042C232.712 122.454 230.977 128.345 226.14 132.372C225.182 133.224 224.301 133.882 223.487 134.377C220.854 136.173 218.46 137.245 217.076 137.41C212.764 137.922 204.959 138.832 191.98 139.461Z" fill="#FCA081"/>
<path d="M217.07 137.31C212.758 137.822 204.953 138.732 191.974 139.36C198.258 138.29 209.32 135.764 213.118 132.071C215.879 134.098 218.389 137.372 223.481 134.277C224.348 133.685 225.242 133.014 226.134 132.272C225.176 133.124 224.295 133.782 223.481 134.277C220.848 136.073 218.454 137.145 217.07 137.31Z" fill="#DE6D47"/>
<path d="M286.207 89.2182C278.182 87.0265 264.979 87.466 255.896 95.4925C248.878 89.1657 242.936 84.5381 237.907 81.2406C243.89 76.7595 248.67 73.2179 254.853 73.115C256.109 73.0518 257.191 73.0923 258.126 73.2193C261.263 73.4754 263.792 74.1506 264.992 74.8996C268.729 77.2341 275.484 81.4726 286.207 89.2182Z" fill="#FCA081"/>
<path d="M265.049 74.9063C268.778 77.2248 275.515 81.4343 286.206 89.1343C280.587 86.0123 270.32 81.0239 265.158 81.546C264.135 78.199 264.035 74.0241 258.19 73.2564C257.157 73.1766 256.057 73.1427 254.917 73.1669C256.173 73.098 257.255 73.1336 258.19 73.2564C261.326 73.4984 263.853 74.1624 265.049 74.9063Z" fill="#DE6D47"/>
<path d="M289.057 123.019C286.169 126.596 283.317 133.398 284.984 139.826C280.386 141.956 276.836 143.926 274.122 145.732C273.403 141.681 272.846 138.453 274.23 135.291C274.491 134.639 274.761 134.099 275.037 133.653C275.884 132.118 276.787 130.987 277.417 130.548C279.379 129.179 282.935 126.709 289.057 123.019Z" fill="#FCA081"/>
<path d="M277.395 130.521C279.348 129.162 282.886 126.709 288.98 123.048C286.212 125.181 281.491 129.24 280.542 131.965C278.732 131.726 276.746 130.834 275.032 133.613C274.756 134.117 274.485 134.664 274.233 135.245C274.491 134.595 274.758 134.057 275.032 133.613C275.872 132.084 276.768 130.958 277.395 130.521Z" fill="#DE6D47"/>
<rect x="69.8643" y="108.015" width="2.66371" height="7.10324" rx="1.33186" fill="#1EBE8E"/>
<rect x="69.8643" y="86.7053" width="2.66371" height="7.10324" rx="1.33186" fill="#1EBE8E"/>
<rect x="69.8646" y="65.3955" width="2.66371" height="7.10324" rx="1.33186" fill="#1EBE8E"/>
<rect x="69.8643" y="129.325" width="2.66371" height="7.10324" rx="1.33186" fill="#1EBE8E"/>
<rect x="69.8643" y="150.634" width="2.66371" height="7.10324" rx="1.33186" fill="#1EBE8E"/>
<rect x="69.8643" y="171.944" width="2.66371" height="7.10324" rx="1.33186" fill="#1EBE8E"/>
<rect x="78.7432" y="108.015" width="2.66371" height="7.10324" rx="1.33186" fill="#1EBE8E"/>
<rect x="78.7432" y="86.7053" width="2.66371" height="7.10324" rx="1.33186" fill="#1EBE8E"/>
<rect x="78.7432" y="65.3955" width="2.66371" height="7.10324" rx="1.33186" fill="#1EBE8E"/>
<rect x="78.7432" y="129.325" width="2.66371" height="7.10324" rx="1.33186" fill="#1EBE8E"/>
<rect x="78.7432" y="150.634" width="2.66371" height="7.10324" rx="1.33186" fill="#1EBE8E"/>
<rect x="78.7432" y="171.944" width="2.66371" height="7.10324" rx="1.33186" fill="#1EBE8E"/>
<path d="M69.2607 64.124C73.1483 60.2365 79.4513 60.2365 83.3389 64.124" stroke="#6672F8" stroke-width="1.5"/>
<path opacity="0.7" d="M65.2314 59.0752C71.3443 52.9623 81.2553 52.9623 87.3682 59.0752" stroke="#6672F8" stroke-width="1.5"/>
<path opacity="0.4" d="M60.7281 54.5717C69.3281 45.9717 83.2715 45.9717 91.8715 54.5717" stroke="#6672F8" stroke-width="1.5"/>
<rect x="51.771" y="174.98" width="48.041" height="40.7127" rx="5" fill="#1EBE8E"/>
<rect x="109.864" y="126.015" width="2.66371" height="7.10324" rx="1.33186" fill="#1EBE8E"/>
<rect x="109.864" y="104.705" width="2.66371" height="7.10324" rx="1.33186" fill="#1EBE8E"/>
<rect x="109.865" y="83.3955" width="2.66371" height="7.10324" rx="1.33186" fill="#1EBE8E"/>
<rect x="109.864" y="147.325" width="2.66371" height="7.10324" rx="1.33186" fill="#1EBE8E"/>
<rect x="109.864" y="168.634" width="2.66371" height="7.10324" rx="1.33186" fill="#1EBE8E"/>
<rect x="109.864" y="189.944" width="2.66371" height="7.10324" rx="1.33186" fill="#1EBE8E"/>
<rect x="118.743" y="126.015" width="2.66371" height="7.10324" rx="1.33186" fill="#1EBE8E"/>
<rect x="118.743" y="104.705" width="2.66371" height="7.10324" rx="1.33186" fill="#1EBE8E"/>
<rect x="118.743" y="83.3955" width="2.66371" height="7.10324" rx="1.33186" fill="#1EBE8E"/>
<rect x="118.743" y="147.325" width="2.66371" height="7.10324" rx="1.33186" fill="#1EBE8E"/>
<rect x="118.743" y="168.634" width="2.66371" height="7.10324" rx="1.33186" fill="#1EBE8E"/>
<rect x="118.743" y="189.944" width="2.66371" height="7.10324" rx="1.33186" fill="#1EBE8E"/>
<path d="M92.4839 68.5681C92.4839 66.7641 93.4556 65.1 95.0267 64.2135L132.253 43.2078C135.587 41.327 139.711 43.7353 139.711 47.5624V209.879C139.711 212.64 137.472 214.879 134.711 214.879H97.4839C94.7225 214.879 92.4839 212.64 92.4839 209.879V68.5681Z" stroke="#1EBE8E" stroke-width="1.5"/>
<path d="M165.767 119.944C165.767 118.073 164.722 116.358 163.059 115.5L138.86 103.017C135.532 101.3 131.568 103.716 131.568 107.46V210.693C131.568 213.455 133.807 215.693 136.568 215.693H160.767C163.528 215.693 165.767 213.455 165.767 210.693V119.944Z" fill="#FACF35"/>
<rect x="67.2422" y="134.268" width="48.041" height="40.7127" rx="5" fill="#2A3070"/>
<rect x="51.771" y="93.5552" width="48.041" height="40.7127" rx="5" fill="#FACF35"/>
<path d="M72.8578 70.9286C74.7245 69.4121 77.4064 69.4394 79.2418 70.9937L104.605 92.4718C106.026 93.6756 105.175 95.9981 103.312 95.9981H47.6336C45.7506 95.9981 44.911 93.6332 46.3725 92.4458L72.8578 70.9286Z" fill="#2A3070"/>
<rect x="142.717" y="126.015" width="2.66371" height="7.10324" rx="1.33186" fill="white"/>
<rect x="142.717" y="147.324" width="2.66371" height="7.10324" rx="1.33186" fill="white"/>
<rect x="142.717" y="168.634" width="2.66371" height="7.10324" rx="1.33186" fill="white"/>
<rect x="142.717" y="189.944" width="2.66371" height="7.10324" rx="1.33186" fill="white"/>
<rect x="151.595" y="126.015" width="2.66371" height="7.10324" rx="1.33186" fill="white"/>
<rect x="151.595" y="147.324" width="2.66371" height="7.10324" rx="1.33186" fill="white"/>
<rect x="151.595" y="168.634" width="2.66371" height="7.10324" rx="1.33186" fill="white"/>
<rect x="151.595" y="189.944" width="2.66371" height="7.10324" rx="1.33186" fill="white"/>
<line x1="176.534" y1="187.28" x2="176.534" y2="215.693" stroke="#2A3070" stroke-width="1.5"/>
<path d="M142.879 171.106C140.635 167.785 143.015 163.307 147.022 163.307H188.003C189.664 163.307 191.216 164.132 192.146 165.508L202.102 180.245C204.345 183.566 201.966 188.044 197.958 188.044H156.977C155.316 188.044 153.764 187.219 152.834 185.843L142.879 171.106Z" fill="#000091"/>
<path d="M145.104 171.105C142.861 167.785 145.24 163.307 149.247 163.307H190.228C191.889 163.307 193.442 164.131 194.372 165.508L204.327 180.245C206.57 183.566 204.191 188.044 200.184 188.044H159.202C157.541 188.044 155.989 187.219 155.059 185.843L145.104 171.105Z" fill="#6672F8"/>
<line x1="145.279" y1="170.72" x2="198.217" y2="170.72" stroke="white" stroke-width="1.5"/>
<line x1="150.968" y1="178.883" x2="204.153" y2="178.883" stroke="white" stroke-width="1.5"/>
<line x1="151.098" y1="162.89" x2="167.672" y2="187.709" stroke="white" stroke-width="1.5"/>
<line x1="161.735" y1="162.89" x2="178.309" y2="187.709" stroke="white" stroke-width="1.5"/>
<line x1="172.371" y1="162.89" x2="188.945" y2="187.709" stroke="white" stroke-width="1.5"/>
<line x1="183.009" y1="162.89" x2="199.583" y2="187.709" stroke="white" stroke-width="1.5"/>
<path fill-rule="evenodd" clip-rule="evenodd" d="M160.088 216.029H187.403C187.449 215.712 187.473 215.388 187.473 215.06C187.473 210.727 183.338 207.215 178.238 207.215C175.06 207.215 172.258 208.578 170.596 210.654C169.534 210.079 168.272 209.745 166.918 209.745C163.134 209.745 160.067 212.351 160.067 215.566C160.067 215.722 160.074 215.876 160.088 216.029Z" fill="#1EBE8E"/>
<path d="M255.639 40.9304C242.344 46.4311 219.529 48.5474 202.037 36.7636C191.436 49.1334 182.29 58.3568 174.405 65.102C185.739 71.4826 194.786 76.5139 205.446 75.3466C207.621 75.182 209.473 74.8774 211.053 74.4564C216.39 73.3356 220.583 71.6286 222.472 70.0842C228.359 65.2702 238.993 56.5372 255.639 40.9304Z" fill="#FCA081"/>
<path d="M222.366 69.9507C228.253 65.1361 238.886 56.4022 255.529 40.7936C246.572 47.4115 230.048 58.2753 221.058 58.5421C220.054 64.5108 220.822 71.6913 210.948 74.3233C209.19 74.6927 207.307 74.9984 205.342 75.2137C207.517 75.049 209.369 74.7444 210.948 74.3233C216.284 73.2024 220.478 71.4953 222.366 69.9507Z" fill="#DE6D47"/>
<path d="M155.724 35.8051L154.167 36.5535L171.769 10.1658C174.152 12.0239 175.658 14.0758 175.658 17.3349C175.658 19.8091 169.781 29.0893 166.842 34.3788C162.843 33.7679 159.349 34.0624 155.724 35.8051Z" fill="#00BE8C"/>
<path d="M145.46 78.552C135.447 78.552 125.282 65.3582 122.052 60.7739C121.389 59.8329 121.384 58.6041 121.988 57.6242L149.366 13.2153C149.977 12.2241 151.309 11.9545 152.215 12.6861C152.831 13.1835 153.427 13.7025 153.993 14.256C154.633 14.8815 154.695 15.8715 154.206 16.6209L140.771 37.2182C140.493 37.6404 140.626 38.2505 141.044 38.5256C141.48 38.8103 142.068 38.6874 142.353 38.2531L161.083 9.54393C161.725 8.56038 163.085 8.32669 163.938 9.13362C165.091 10.2243 166.09 11.4515 166.734 12.9088C166.98 13.4648 166.879 14.1024 166.542 14.6082L148.083 42.2887L147.954 42.5804C147.934 42.692 147.919 42.7926 147.926 42.9066C147.929 43.0087 147.956 43.1168 148 43.2094L148.113 43.3998L148.42 43.6602L148.529 43.7121L148.857 43.7736L148.995 43.7615L149.369 43.6299L149.477 43.5425L149.638 43.373C152.377 39.4506 156.488 36.8297 161.211 35.9912C165.933 35.1527 171.233 36.4554 174.621 38.9436C177.048 40.7263 182.405 44.4303 185.248 46.3871C186.235 47.0667 186.417 48.4658 185.533 49.275C182.94 51.6486 179.514 53.3877 176.22 51.1458C172.764 48.7873 168.837 45.1077 164.616 44.4909C161.329 44.0089 158.386 45.3735 156.325 48.3267C154.561 50.8595 154.319 53.92 155.665 56.7027C157.238 59.9441 159.934 61.7525 163.255 61.7897C167.897 61.8415 172.619 58.5236 176.581 56.5201C180.669 54.4596 184.037 56.0343 186.688 59.1324C187.449 60.0218 187.123 61.3566 186.102 61.9279L171.435 70.1285C170.782 70.5153 157.578 78.552 145.46 78.552Z" fill="#00BE8C"/>
</g>
<defs>
<clipPath id="clip0_488_15820">
<rect width="372" height="209" fill="white" transform="translate(0 0.125)"/>
</clipPath>
</defs>
</svg>
