<svg width="360" height="216" viewBox="0 0 360 216" fill="none" xmlns="http://www.w3.org/2000/svg">
<g clip-path="url(#clip0_971_10215)">
<rect width="361" height="216" transform="translate(-0.5)" fill="#E8EDFF"/>
<rect x="318.823" y="120.875" width="51.3243" height="78.18" rx="25.6621" fill="#1EBE8E"/>
<line x1="344.582" y1="216.459" x2="344.582" y2="121.375" stroke="black" stroke-linecap="round"/>
<path d="M355.935 136.877L344.971 147.842L334.006 136.877" stroke="black" stroke-linecap="round"/>
<path d="M355.935 155.115L344.971 166.08L334.006 155.115" stroke="black" stroke-linecap="round"/>
<path d="M355.935 173.615L344.971 184.58L334.006 173.615" stroke="black" stroke-linecap="round"/>
<path d="M185.844 146.336C193.231 142.963 203.108 134.21 205.554 122.071C214.497 122.615 221.659 122.497 227.372 121.907C225.307 129.265 223.635 135.113 218.952 139.13C218.025 139.98 217.172 140.637 216.383 141.132C213.834 142.926 211.514 144.001 210.173 144.171C205.992 144.701 198.427 145.644 185.844 146.336Z" fill="#FCA081"/>
<path d="M210.152 144.105C205.969 144.628 198.398 145.557 185.806 146.236C191.901 145.157 202.631 142.63 206.311 138.997C208.992 140.967 211.433 144.159 216.368 141.105C217.209 140.521 218.075 139.86 218.94 139.129C218.011 139.968 217.158 140.616 216.368 141.105C213.816 142.876 211.495 143.938 210.152 144.105Z" fill="#DE6D47"/>
<path d="M277.244 96.2115C269.439 93.9838 256.667 94.3528 248.017 102.31C241.113 95.9633 235.281 91.3172 230.355 88.0023C236.068 83.5649 240.633 80.0582 246.615 79.988C247.829 79.9315 248.877 79.9776 249.785 80.1092C252.826 80.3811 255.285 81.0677 256.459 81.8209C260.118 84.1687 266.73 88.431 277.244 96.2115Z" fill="#FCA081"/>
<path d="M256.642 81.7873C260.269 84.1137 266.824 88.3372 277.243 96.0541C271.782 92.9183 261.818 87.9012 256.861 88.393C255.82 85.058 255.651 80.9044 250.014 80.1094C249.019 80.0246 247.96 79.985 246.863 80.0029C248.071 79.9411 249.113 79.9823 250.014 80.1094C253.036 80.3669 255.478 81.041 256.642 81.7873Z" fill="#DE6D47"/>
<path d="M280.245 129.894C277.371 133.477 274.463 140.266 275.942 146.642C271.441 148.802 267.959 150.792 265.291 152.613C264.68 148.591 264.209 145.386 265.617 142.229C265.884 141.579 266.157 141.039 266.434 140.593C267.287 139.06 268.186 137.927 268.806 137.485C270.736 136.106 274.234 133.618 280.245 129.894Z" fill="#FCA081"/>
<path d="M268.702 137.423C270.61 136.06 274.067 133.601 280.009 129.923C277.3 132.059 272.671 136.118 271.7 138.823C269.963 138.603 268.071 137.738 266.363 140.503C266.086 141.004 265.815 141.549 265.559 142.126C265.822 141.481 266.09 140.945 266.363 140.503C267.203 138.982 268.09 137.86 268.702 137.423Z" fill="#DE6D47"/>
<rect x="69.3643" y="107.89" width="2.66371" height="7.10324" rx="1.33186" fill="#1EBE8E"/>
<rect x="69.3643" y="86.5803" width="2.66371" height="7.10324" rx="1.33186" fill="#1EBE8E"/>
<rect x="69.3645" y="65.2706" width="2.66371" height="7.10324" rx="1.33186" fill="#1EBE8E"/>
<rect x="69.3643" y="129.2" width="2.66371" height="7.10324" rx="1.33186" fill="#1EBE8E"/>
<rect x="69.3643" y="150.509" width="2.66371" height="7.10324" rx="1.33186" fill="#1EBE8E"/>
<rect x="69.3643" y="171.819" width="2.66371" height="7.10324" rx="1.33186" fill="#1EBE8E"/>
<rect x="78.2432" y="107.89" width="2.66371" height="7.10324" rx="1.33186" fill="#1EBE8E"/>
<rect x="78.2432" y="86.5803" width="2.66371" height="7.10324" rx="1.33186" fill="#1EBE8E"/>
<rect x="78.2432" y="65.2706" width="2.66371" height="7.10324" rx="1.33186" fill="#1EBE8E"/>
<rect x="78.2432" y="129.2" width="2.66371" height="7.10324" rx="1.33186" fill="#1EBE8E"/>
<rect x="78.2432" y="150.509" width="2.66371" height="7.10324" rx="1.33186" fill="#1EBE8E"/>
<rect x="78.2432" y="171.819" width="2.66371" height="7.10324" rx="1.33186" fill="#1EBE8E"/>
<path d="M68.7607 63.999C72.6483 60.1115 78.9513 60.1115 82.8389 63.999" stroke="#6672F8" stroke-width="1.5"/>
<path opacity="0.7" d="M64.7314 58.9501C70.8443 52.8372 80.7553 52.8372 86.8682 58.9501" stroke="#6672F8" stroke-width="1.5"/>
<path opacity="0.4" d="M60.2281 54.4467C68.8281 45.8467 82.7715 45.8467 91.3715 54.4467" stroke="#6672F8" stroke-width="1.5"/>
<rect x="51.271" y="174.855" width="48.041" height="40.7127" rx="5" fill="#1EBE8E"/>
<rect x="109.364" y="125.89" width="2.66371" height="7.10324" rx="1.33186" fill="#1EBE8E"/>
<rect x="109.364" y="104.58" width="2.66371" height="7.10324" rx="1.33186" fill="#1EBE8E"/>
<rect x="109.365" y="83.2706" width="2.66371" height="7.10324" rx="1.33186" fill="#1EBE8E"/>
<rect x="109.364" y="147.2" width="2.66371" height="7.10324" rx="1.33186" fill="#1EBE8E"/>
<rect x="109.364" y="168.509" width="2.66371" height="7.10324" rx="1.33186" fill="#1EBE8E"/>
<rect x="109.364" y="189.819" width="2.66371" height="7.10324" rx="1.33186" fill="#1EBE8E"/>
<rect x="118.243" y="125.89" width="2.66371" height="7.10324" rx="1.33186" fill="#1EBE8E"/>
<rect x="118.243" y="104.58" width="2.66371" height="7.10324" rx="1.33186" fill="#1EBE8E"/>
<rect x="118.243" y="83.2706" width="2.66371" height="7.10324" rx="1.33186" fill="#1EBE8E"/>
<rect x="118.243" y="147.2" width="2.66371" height="7.10324" rx="1.33186" fill="#1EBE8E"/>
<rect x="118.243" y="168.509" width="2.66371" height="7.10324" rx="1.33186" fill="#1EBE8E"/>
<rect x="118.243" y="189.819" width="2.66371" height="7.10324" rx="1.33186" fill="#1EBE8E"/>
<path d="M91.9839 68.4431C91.9839 66.6391 92.9556 64.975 94.5267 64.0885L131.753 43.0828C135.087 41.202 139.211 43.6103 139.211 47.4374V209.754C139.211 212.515 136.972 214.754 134.211 214.754H96.9839C94.2225 214.754 91.9839 212.515 91.9839 209.754V68.4431Z" stroke="#1EBE8E" stroke-width="1.5"/>
<path d="M165.267 119.819C165.267 117.948 164.222 116.233 162.559 115.375L138.36 102.892C135.032 101.175 131.068 103.591 131.068 107.335V210.568C131.068 213.33 133.307 215.568 136.068 215.568H160.267C163.028 215.568 165.267 213.33 165.267 210.568V119.819Z" fill="#FACF35"/>
<rect x="66.7422" y="134.143" width="48.041" height="40.7127" rx="5" fill="#2A3070"/>
<rect x="51.271" y="93.4302" width="48.041" height="40.7127" rx="5" fill="#FACF35"/>
<path d="M72.3578 70.8036C74.2245 69.2871 76.9064 69.3144 78.7418 70.8687L104.105 92.3468C105.526 93.5506 104.675 95.8731 102.812 95.8731H47.1336C45.2506 95.8731 44.411 93.5082 45.8725 92.3208L72.3578 70.8036Z" fill="#2A3070"/>
<rect x="142.217" y="125.89" width="2.66371" height="7.10324" rx="1.33186" fill="white"/>
<rect x="142.217" y="147.199" width="2.66371" height="7.10324" rx="1.33186" fill="white"/>
<rect x="142.217" y="168.509" width="2.66371" height="7.10324" rx="1.33186" fill="white"/>
<rect x="142.217" y="189.819" width="2.66371" height="7.10324" rx="1.33186" fill="white"/>
<rect x="151.095" y="125.89" width="2.66371" height="7.10324" rx="1.33186" fill="white"/>
<rect x="151.095" y="147.199" width="2.66371" height="7.10324" rx="1.33186" fill="white"/>
<rect x="151.095" y="168.509" width="2.66371" height="7.10324" rx="1.33186" fill="white"/>
<rect x="151.095" y="189.819" width="2.66371" height="7.10324" rx="1.33186" fill="white"/>
<line x1="176.034" y1="187.155" x2="176.034" y2="215.568" stroke="#2A3070" stroke-width="1.5"/>
<path d="M142.379 170.981C140.135 167.66 142.515 163.182 146.522 163.182H187.503C189.164 163.182 190.716 164.007 191.646 165.383L201.602 180.121C203.845 183.441 201.466 187.919 197.458 187.919H156.477C154.816 187.919 153.264 187.095 152.334 185.718L142.379 170.981Z" fill="#000091"/>
<path d="M144.604 170.981C142.361 167.66 144.74 163.182 148.747 163.182H189.728C191.389 163.182 192.942 164.007 193.872 165.383L203.827 180.12C206.07 183.441 203.691 187.919 199.684 187.919H158.702C157.041 187.919 155.489 187.094 154.559 185.718L144.604 170.981Z" fill="#6672F8"/>
<line x1="144.779" y1="170.595" x2="197.717" y2="170.595" stroke="white" stroke-width="1.5"/>
<line x1="150.468" y1="178.758" x2="203.653" y2="178.758" stroke="white" stroke-width="1.5"/>
<line x1="150.598" y1="162.765" x2="167.172" y2="187.584" stroke="white" stroke-width="1.5"/>
<line x1="161.235" y1="162.765" x2="177.809" y2="187.584" stroke="white" stroke-width="1.5"/>
<line x1="171.871" y1="162.765" x2="188.445" y2="187.584" stroke="white" stroke-width="1.5"/>
<line x1="182.509" y1="162.765" x2="199.083" y2="187.584" stroke="white" stroke-width="1.5"/>
<path fill-rule="evenodd" clip-rule="evenodd" d="M159.588 215.904H186.903C186.949 215.587 186.973 215.263 186.973 214.935C186.973 210.602 182.838 207.09 177.738 207.09C174.56 207.09 171.758 208.453 170.096 210.529C169.034 209.954 167.772 209.62 166.418 209.62C162.634 209.62 159.567 212.226 159.567 215.441C159.567 215.597 159.574 215.751 159.588 215.904Z" fill="#1EBE8E"/>
<path d="M247.579 47.7646C234.666 53.2777 212.552 55.4183 195.684 43.6585C185.336 56.0351 176.418 65.2649 168.737 72.016C179.675 78.3815 188.407 83.4009 198.741 82.2223C200.849 82.0553 202.645 81.7488 204.177 81.3262C209.354 80.2 213.427 78.4891 215.267 76.9432C221 72.1247 231.357 63.3835 247.579 47.7646Z" fill="#FCA081"/>
<path d="M215.244 76.8235C220.963 72.0064 231.292 63.2678 247.473 47.6536C238.776 54.276 222.74 65.1494 214.051 65.4263C213.044 71.391 213.741 78.5644 204.183 81.2055C202.481 81.5766 200.66 81.8842 198.76 82.1015C200.862 81.9345 202.654 81.628 204.183 81.2055C209.346 80.0794 213.409 78.3689 215.244 76.8235Z" fill="#DE6D47"/>
<path d="M155.224 35.6801L153.667 36.4286L171.269 10.0408C173.652 11.8989 175.158 13.9509 175.158 17.2099C175.158 19.6841 169.281 28.9643 166.342 34.2538C162.343 33.6429 158.849 33.9374 155.224 35.6801Z" fill="#00BE8C"/>
<path d="M144.96 78.427C134.947 78.427 124.782 65.2332 121.552 60.6489C120.889 59.7079 120.884 58.4791 121.488 57.4992L148.866 13.0903C149.477 12.0991 150.809 11.8295 151.715 12.5611C152.331 13.0585 152.927 13.5775 153.493 14.131C154.133 14.7565 154.195 15.7465 153.706 16.4959L140.271 37.0932C139.993 37.5154 140.126 38.1255 140.544 38.4006C140.98 38.6853 141.568 38.5624 141.853 38.1281L160.583 9.41893C161.225 8.43538 162.585 8.20169 163.438 9.00862C164.591 10.0993 165.59 11.3265 166.234 12.7838C166.48 13.3398 166.379 13.9774 166.042 14.4832L147.583 42.1637L147.454 42.4554C147.434 42.567 147.419 42.6676 147.426 42.7816C147.429 42.8837 147.456 42.9918 147.5 43.0844L147.613 43.2748L147.92 43.5352L148.029 43.5871L148.357 43.6486L148.495 43.6365L148.869 43.5049L148.977 43.4175L149.138 43.248C151.877 39.3256 155.988 36.7047 160.711 35.8662C165.433 35.0277 170.733 36.3304 174.121 38.8186C176.548 40.6013 181.905 44.3053 184.748 46.2621C185.735 46.9417 185.917 48.3408 185.033 49.15C182.44 51.5236 179.014 53.2627 175.72 51.0208C172.264 48.6623 168.337 44.9827 164.116 44.3659C160.829 43.8839 157.886 45.2485 155.825 48.2017C154.061 50.7345 153.819 53.795 155.165 56.5777C156.738 59.8191 159.434 61.6275 162.755 61.6647C167.397 61.7165 172.119 58.3986 176.081 56.3951C180.169 54.3346 183.537 55.9093 186.188 59.0074C186.949 59.8968 186.623 61.2316 185.602 61.8029L170.935 70.0035C170.282 70.3903 157.078 78.427 144.96 78.427Z" fill="#00BE8C"/>
</g>
<defs>
<clipPath id="clip0_971_10215">
<rect width="361" height="216" fill="white" transform="translate(-0.5)"/>
</clipPath>
</defs>
</svg>
