<svg width="207" height="177" viewBox="0 0 207 177" fill="none" xmlns="http://www.w3.org/2000/svg">
<ellipse opacity="0.03" cx="105.402" cy="88.6565" rx="58.3201" ry="58.344" stroke="#2A3070" stroke-width="60"/>
<path d="M82.1688 31.291C84.6887 28.7701 88.7742 28.7701 91.294 31.291" stroke="#6672F8" stroke-width="1.5"/>
<path opacity="0.7" d="M79.5571 28.019C83.5194 24.0552 89.9435 24.0552 93.9058 28.019" stroke="#6672F8" stroke-width="1.5"/>
<path opacity="0.4" d="M76.6382 25.0974C82.2125 19.5208 91.2504 19.5208 96.8247 25.0974" stroke="#6672F8" stroke-width="1.5"/>
<path d="M54.935 96.2785C57.6128 89.5281 63.809 76.7636 67.172 79.7082C70.535 82.6529 60.4153 91.982 54.935 96.2785Z" stroke="#2A3070" stroke-width="1.5"/>
<line x1="0.75" y1="-0.75" x2="13.8586" y2="-0.75" transform="matrix(0.606945 -0.794778 0.794495 0.607227 55.2656 96.084)" stroke="#2A3070" stroke-width="1.5" stroke-linecap="round"/>
<path fill-rule="evenodd" clip-rule="evenodd" d="M37.0969 60.5202C38.4891 61.5395 40.1751 60.2742 39.5866 58.6518C38.2573 54.9873 36.2653 51.273 33.6281 47.7557C30.9911 44.2388 27.9844 41.2863 24.84 38.9841C23.4478 37.9648 21.7618 39.23 22.3503 40.8525C23.6796 44.517 25.6716 48.2313 28.3088 51.7485C30.9458 55.2655 33.9525 58.218 37.0969 60.5202Z" fill="#FCA081"/>
<path fill-rule="evenodd" clip-rule="evenodd" d="M42.6456 59.7543C40.9571 60.4052 41.2191 62.5794 43.0137 62.81C46.6627 63.2788 50.641 63.3038 54.7628 62.8066C58.885 62.3093 62.7438 61.3387 66.1772 60.0152C67.8656 59.3644 67.6036 57.1901 65.809 56.9596C62.16 56.4907 58.1817 56.4657 54.06 56.963C49.9378 57.4603 46.0789 58.4309 42.6456 59.7543Z" fill="#6672F8"/>
<path fill-rule="evenodd" clip-rule="evenodd" d="M27.1707 86.1619C26.8142 87.9364 28.789 88.8813 29.9462 87.4898C32.2996 84.6598 34.4552 81.3135 36.2469 77.5657C38.0386 73.818 39.2896 70.0388 40.0145 66.4297C40.3709 64.6552 38.3961 63.7103 37.239 65.1018C34.8855 67.9318 32.73 71.2781 30.9383 75.0259C29.1466 78.7736 27.8956 82.5528 27.1707 86.1619Z" fill="#1EBE8E"/>
<path d="M42.0994 60.5285C42.9052 61.6032 42.6875 63.128 41.6131 63.9343C40.5388 64.7406 39.0146 64.5229 38.2087 63.4482C37.4029 62.3735 37.6206 60.8487 38.695 60.0424C39.7694 59.2362 41.2936 59.4538 42.0994 60.5285Z" fill="#2A3070" stroke="#2A3070"/>
<path d="M41.918 63.2715C45.9398 66.6108 54.1287 75.9916 54.7096 86.8002C55.4358 100.311 49.9021 115.312 56.9653 128.77" stroke="#2A3070" stroke-width="1.5"/>
<line x1="188.527" y1="16.8359" x2="207" y2="16.8359" stroke="white"/>
<rect x="70.832" y="103.176" width="31.1392" height="26.4" rx="5" fill="#1EBE8E"/>
<rect x="108.486" y="71.4258" width="1.72656" height="4.60607" rx="0.863281" fill="#1EBE8E"/>
<rect x="108.486" y="57.6074" width="1.72656" height="4.60607" rx="0.863281" fill="#1EBE8E"/>
<rect x="108.486" y="43.7891" width="1.72658" height="4.60607" rx="0.863289" fill="#1EBE8E"/>
<rect x="108.486" y="85.2441" width="1.72656" height="4.60608" rx="0.863281" fill="#1EBE8E"/>
<rect x="108.486" y="99.0625" width="1.72656" height="4.60608" rx="0.863281" fill="#1EBE8E"/>
<rect x="108.486" y="112.881" width="1.72656" height="4.60607" rx="0.863281" fill="#1EBE8E"/>
<rect x="114.241" y="71.4258" width="1.72658" height="4.60607" rx="0.863289" fill="#1EBE8E"/>
<rect x="114.241" y="57.6074" width="1.72658" height="4.60607" rx="0.863289" fill="#1EBE8E"/>
<rect x="114.241" y="43.7891" width="1.72658" height="4.60607" rx="0.863289" fill="#1EBE8E"/>
<rect x="114.241" y="85.2441" width="1.72658" height="4.60608" rx="0.863289" fill="#1EBE8E"/>
<rect x="114.241" y="99.0625" width="1.72658" height="4.60608" rx="0.863289" fill="#1EBE8E"/>
<rect x="114.241" y="112.881" width="1.72658" height="4.60607" rx="0.863289" fill="#1EBE8E"/>
<path d="M97.2217 35.1992C97.2217 33.3955 98.1931 31.7316 99.7638 30.845L120.375 19.2099C123.708 17.3284 127.833 19.7366 127.833 23.5641V124.048C127.833 126.809 125.595 129.048 122.833 129.048H102.222C99.4603 129.048 97.2217 126.809 97.2217 124.048V35.1992Z" stroke="#1EBE8E" stroke-width="1.5"/>
<rect x="108.486" y="71.4258" width="1.72656" height="4.60607" rx="0.863281" fill="#1EBE8E"/>
<rect x="108.486" y="57.6074" width="1.72656" height="4.60607" rx="0.863281" fill="#1EBE8E"/>
<rect x="108.486" y="43.7891" width="1.72658" height="4.60607" rx="0.863289" fill="#1EBE8E"/>
<rect x="108.486" y="85.2441" width="1.72656" height="4.60608" rx="0.863281" fill="#1EBE8E"/>
<rect x="108.486" y="99.0625" width="1.72656" height="4.60608" rx="0.863281" fill="#1EBE8E"/>
<rect x="108.486" y="112.881" width="1.72656" height="4.60607" rx="0.863281" fill="#1EBE8E"/>
<rect x="114.241" y="71.4258" width="1.72658" height="4.60607" rx="0.863289" fill="#1EBE8E"/>
<rect x="114.241" y="57.6074" width="1.72658" height="4.60607" rx="0.863289" fill="#1EBE8E"/>
<rect x="114.241" y="43.7891" width="1.72658" height="4.60607" rx="0.863289" fill="#1EBE8E"/>
<rect x="114.241" y="85.2441" width="1.72658" height="4.60608" rx="0.863289" fill="#1EBE8E"/>
<rect x="114.241" y="99.0625" width="1.72658" height="4.60608" rx="0.863289" fill="#1EBE8E"/>
<rect x="114.241" y="112.881" width="1.72658" height="4.60607" rx="0.863289" fill="#1EBE8E"/>
<path d="M97.2217 35.1992C97.2217 33.3955 98.1931 31.7316 99.7638 30.845L120.375 19.2099C123.708 17.3284 127.833 19.7366 127.833 23.5641V124.048C127.833 126.809 125.595 129.048 122.833 129.048H102.222C99.4603 129.048 97.2217 126.809 97.2217 124.048V35.1992Z" stroke="#1EBE8E" stroke-width="1.5"/>
<path d="M144.722 68.5584C144.722 66.6876 143.677 64.9733 142.015 64.1153L129.848 57.8361C126.52 56.1187 122.555 58.5344 122.555 62.2793V124.576C122.555 127.338 124.793 129.576 127.555 129.576H139.722C142.483 129.576 144.722 127.338 144.722 124.576V68.5584Z" fill="#FACF35"/>
<rect x="80.8594" y="76.7754" width="31.1392" height="26.4" rx="5" fill="#2A3070"/>
<rect x="70.832" y="50.377" width="31.1392" height="26.4" rx="5" fill="#FACF35"/>
<path d="M83.3662 36.6247C85.2332 35.1073 87.9161 35.1347 89.7518 36.6898L103.614 48.4338C105.035 49.6378 104.184 51.9598 102.321 51.9598H70.1298C68.247 51.9598 67.4073 49.5953 68.8684 48.4078L83.3662 36.6247Z" fill="#2A3070"/>
<rect x="129.781" y="71.4238" width="1.72658" height="4.60607" rx="0.863289" fill="white"/>
<rect x="129.781" y="85.2422" width="1.72656" height="4.60607" rx="0.863281" fill="white"/>
<rect x="129.781" y="99.0605" width="1.72656" height="4.60607" rx="0.863281" fill="white"/>
<rect x="129.781" y="112.879" width="1.72656" height="4.60606" rx="0.863281" fill="white"/>
<rect x="135.536" y="71.4238" width="1.72656" height="4.60607" rx="0.863281" fill="white"/>
<rect x="135.536" y="85.2422" width="1.72656" height="4.60607" rx="0.863281" fill="white"/>
<rect x="135.536" y="99.0605" width="1.72656" height="4.60607" rx="0.863281" fill="white"/>
<rect x="135.536" y="112.879" width="1.72656" height="4.60606" rx="0.863281" fill="white"/>
<line x1="151.965" y1="111.152" x2="151.965" y2="129.577" stroke="#2A3070" stroke-width="1.5"/>
<path d="M131.737 103.404C129.495 100.083 131.874 95.6055 135.881 95.6055H158.2C159.861 95.6055 161.414 96.4306 162.344 97.8074L166.423 103.848C168.665 107.169 166.286 111.646 162.279 111.646H139.96C138.299 111.646 136.746 110.821 135.816 109.444L131.737 103.404Z" fill="#000091"/>
<path d="M133.18 103.404C130.937 100.083 133.316 95.6055 137.323 95.6055H159.642C161.304 95.6055 162.857 96.4306 163.786 97.8074L167.865 103.848C170.107 107.169 167.728 111.646 163.721 111.646H141.402C139.741 111.646 138.188 110.821 137.259 109.444L133.18 103.404Z" fill="#6672F8"/>
<line x1="131.442" y1="100.148" x2="165.756" y2="100.148" stroke="white" stroke-width="1.5"/>
<line x1="135.13" y1="105.443" x2="169.604" y2="105.443" stroke="white" stroke-width="1.5"/>
<line y1="-0.75" x2="19.3499" y2="-0.75" transform="matrix(0.555195 0.83172 -0.83151 0.55551 134.81 95.6055)" stroke="white" stroke-width="1.5"/>
<line y1="-0.75" x2="19.3499" y2="-0.75" transform="matrix(0.555195 0.83172 -0.83151 0.55551 141.704 95.6055)" stroke="white" stroke-width="1.5"/>
<line y1="-0.75" x2="19.3499" y2="-0.75" transform="matrix(0.555195 0.83172 -0.83151 0.55551 148.599 95.6055)" stroke="white" stroke-width="1.5"/>
<line y1="-0.75" x2="19.3499" y2="-0.75" transform="matrix(0.555194 0.831721 -0.831509 0.555511 155.494 95.6055)" stroke="white" stroke-width="1.5"/>
<path fill-rule="evenodd" clip-rule="evenodd" d="M75.4363 129.794H46.0435C46.0321 129.672 46.0264 129.548 46.0264 129.423C46.0264 126.84 48.4899 124.747 51.5288 124.747C52.6156 124.747 53.6288 125.014 54.4821 125.476C55.8164 123.808 58.0675 122.713 60.6197 122.713C63.2195 122.713 65.5068 123.85 66.831 125.57C67.7176 125.051 68.7925 124.747 69.9509 124.747C72.9898 124.747 75.4534 126.84 75.4534 129.423C75.4534 129.548 75.4476 129.672 75.4363 129.794Z" fill="#6672F8"/>
<path fill-rule="evenodd" clip-rule="evenodd" d="M141.041 129.794H158.746C158.776 129.588 158.791 129.378 158.791 129.165C158.791 126.356 156.111 124.078 152.806 124.078C150.746 124.078 148.93 124.962 147.853 126.308C147.164 125.935 146.346 125.718 145.468 125.718C143.016 125.718 141.027 127.408 141.027 129.493C141.027 129.594 141.032 129.695 141.041 129.794Z" fill="#1EBE8E"/>
</svg>
