<svg width="56" height="51" viewBox="0 0 56 51" fill="none" xmlns="http://www.w3.org/2000/svg">
<path d="M16.5874 23.1142C16.8761 21.6634 17.7643 20.4021 19.033 19.6413L24.7457 16.216C26.4051 15.221 28.4777 15.221 30.1371 16.216L35.2958 19.3091C36.8755 20.2563 37.8421 21.963 37.8421 23.8049V44.14C37.8421 47.0351 35.4952 49.382 32.6001 49.382H17.749C14.4432 49.382 11.9627 46.3593 12.6078 43.1171L16.5874 23.1142Z" fill="#1EBE8E" stroke="#1EBE8E" stroke-width="1.96575"/>
<path d="M32.374 38.4716C32.374 35.1909 34.8003 32.4158 38.0517 31.9778L47.575 30.6949C51.506 30.1653 55.0023 33.2223 55.0023 37.1887V43.2605C55.0023 46.8793 52.0687 49.813 48.4498 49.813H38.9265C35.3077 49.813 32.374 46.8793 32.374 43.2604V38.4716Z" fill="#FACF35"/>
<line x1="0.655251" y1="-0.655251" x2="11.7811" y2="-0.655251" transform="matrix(-1 0 0 1 50.1406 38.0938)" stroke="white" stroke-width="1.3105" stroke-linecap="round"/>
<line x1="0.655251" y1="-0.655251" x2="11.7811" y2="-0.655251" transform="matrix(-1 0 0 1 50.1406 41.7549)" stroke="white" stroke-width="1.3105" stroke-linecap="round"/>
<line x1="0.655251" y1="-0.655251" x2="11.7811" y2="-0.655251" transform="matrix(-1 0 0 1 50.1406 45.417)" stroke="white" stroke-width="1.3105" stroke-linecap="round"/>
<path d="M19.4229 12.0533C19.4229 9.35335 17.7668 6.92981 15.2514 5.9487L8.93365 3.48449C4.6373 1.80873 7.62939e-05 4.97749 7.62939e-05 9.58908V43.4475C7.62939e-05 47.0663 2.93374 50 6.55259 50H12.8703C16.4892 50 19.4229 47.0663 19.4229 43.4475V12.0533Z" fill="#2A3070"/>
<rect x="6.33203" y="11.4912" width="1.51283" height="3.05022" rx="0.756415" fill="white"/>
<rect x="6.33203" y="21.0713" width="1.51283" height="3.05022" rx="0.756415" fill="white"/>
<rect x="6.33203" y="30.2217" width="1.51283" height="3.05022" rx="0.756415" fill="white"/>
<rect x="11.3789" y="11.4912" width="1.51283" height="3.05022" rx="0.756415" fill="white"/>
<rect x="11.3789" y="21.0713" width="1.51283" height="3.05022" rx="0.756415" fill="white"/>
<rect x="11.3789" y="30.2217" width="1.51283" height="3.05022" rx="0.756415" fill="white"/>
<rect x="11.3789" y="38.9434" width="1.51283" height="3.05022" rx="0.756415" fill="white"/>
<rect x="23.8623" y="21.0723" width="1.51283" height="3.05022" rx="0.756415" fill="white"/>
<rect x="23.8613" y="30.0596" width="1.51283" height="3.05022" rx="0.756415" fill="white"/>
<rect x="23.8613" y="39.0762" width="1.51283" height="3.05022" rx="0.756415" fill="white"/>
<rect x="28.9023" y="21.0713" width="1.51283" height="3.05022" rx="0.756415" fill="white"/>
<rect x="28.9023" y="30.0596" width="1.51283" height="3.05022" rx="0.756415" fill="white"/>
<rect x="28.9023" y="39.0771" width="1.51283" height="3.05022" rx="0.756415" fill="white"/>
</svg>
