<svg width="203" height="176" viewBox="0 0 203 176" fill="none" xmlns="http://www.w3.org/2000/svg">
<ellipse rx="11.532" ry="27.7297" transform="matrix(0.954913 -0.296884 0.296546 0.955019 19.7352 71.1818)" fill="#FCA081"/>
<path d="M28.2892 116.346C28.5499 104.727 24.9159 77.1309 16.8164 60.9219" stroke="#000091" stroke-linecap="round"/>
<path d="M16.8893 75.1276C18.4612 76.0671 22.0281 78.4597 23.7201 80.514C25.5098 75.0134 26.2142 72.7875 26.3426 72.3622" stroke="#000091" stroke-linecap="round"/>
<path d="M13.6816 66.6718C15.3364 67.4561 19.1161 69.4953 20.9973 71.3777C22.2514 65.7307 22.7391 63.4474 22.8262 63.0117" stroke="#000091" stroke-linecap="round"/>
<path d="M64.3717 60.5755C64.3717 62.4839 62.826 64.0288 60.9218 64.0288C59.0176 64.0288 57.4719 62.4839 57.4719 60.5755C57.4719 58.6672 59.0176 57.1223 60.9218 57.1223C62.826 57.1223 64.3717 58.6672 64.3717 60.5755Z" stroke="#FACF35" stroke-width="3.85"/>
<ellipse cx="74.9636" cy="61.3188" rx="2.64723" ry="2.64888" fill="#000091"/>
<path d="M74.1348 46.1912C74.1348 48.0167 72.6559 49.4956 70.833 49.4956C69.0101 49.4956 67.5312 48.0167 67.5312 46.1912C67.5312 44.3656 69.0101 42.8867 70.833 42.8867C72.6559 42.8867 74.1348 44.3656 74.1348 46.1912Z" stroke="#1EBE8E" stroke-width="2"/>
<path d="M30.885 84.2351C30.7668 81.7033 32.7876 79.5859 35.3222 79.5859H59.3846C61.9192 79.5859 63.9401 81.7033 63.8219 84.2351L62.9347 103.244C62.5462 111.567 55.6853 118.115 47.3534 118.115C39.0216 118.115 32.1607 111.567 31.7722 103.244L30.885 84.2351Z" fill="#000091"/>
<path d="M51.2193 76.404C51.1293 74.2304 49.2953 72.5414 47.1229 72.6316C44.9505 72.7218 43.2624 74.557 43.3525 76.7306" stroke="#000091" stroke-width="3" stroke-linecap="round"/>
<path d="M57.8491 91.1007C57.7244 89.0348 59.3661 87.291 61.4357 87.291H80.756C82.8256 87.291 84.4673 89.0348 84.3426 91.1007L83.412 106.519C83.0189 113.033 77.6216 118.114 71.0959 118.114C64.5701 118.114 59.1728 113.033 58.7797 106.519L57.8491 91.1007Z" fill="#1EBE8E"/>
<path d="M73.0711 79.9514C72.331 78.0063 70.1548 77.0303 68.2103 77.7714C66.2658 78.5125 65.2894 80.6901 66.0294 82.6351" stroke="#1EBE8E" stroke-width="3" stroke-linecap="round"/>
<line x1="1.5" y1="-1.5" x2="26.2289" y2="-1.5" transform="matrix(0.934493 -0.356072 0.355662 0.934581 57.3125 87.7168)" stroke="#1EBE8E" stroke-width="3" stroke-linecap="round"/>
<line x1="68.1016" y1="95.8555" x2="68.1016" y2="108.909" stroke="#04A776" stroke-width="3" stroke-linecap="round"/>
<line x1="42.4336" y1="89.4336" x2="42.4336" y2="108.909" stroke="#1A2060" stroke-width="3" stroke-linecap="round"/>
<line x1="75.8047" y1="98.4238" x2="75.8047" y2="108.909" stroke="#04A776" stroke-width="3" stroke-linecap="round"/>
<line x1="53.3438" y1="92.6445" x2="53.3438" y2="108.909" stroke="#1A2060" stroke-width="3" stroke-linecap="round"/>
<path d="M124.525 79.758C123.733 77.1854 125.656 74.5801 128.348 74.5801H169.707C171.462 74.5801 173.012 75.7246 173.529 77.4022L183.331 109.211C184.123 111.783 182.2 114.389 179.508 114.389H138.149C136.394 114.389 134.844 113.244 134.327 111.567L124.525 79.758Z" fill="#000091"/>
<path d="M128.504 79.758C127.711 77.1854 129.634 74.5801 132.326 74.5801H173.685C175.44 74.5801 176.991 75.7246 177.508 77.4022L187.309 109.211C188.102 111.783 186.178 114.389 183.487 114.389H142.128C140.373 114.389 138.822 113.244 138.305 111.567L128.504 79.758Z" fill="#6672F8"/>
<rect x="134.865" y="110.408" width="67.6326" height="5.30783" rx="2.65392" fill="#000091"/>
<rect width="4.77816" height="20.5317" rx="2.38908" transform="matrix(0.865879 -0.500254 0.499746 0.866172 144.648 67.6504)" fill="#FACF35"/>
<path fill-rule="evenodd" clip-rule="evenodd" d="M136.047 58.6029C135.087 61.0212 135.218 63.8803 136.647 66.3561C139.084 70.5802 144.375 72.089 148.465 69.726C152.555 67.3631 153.894 62.0233 151.457 57.7993C149.961 55.2065 147.39 53.6367 144.681 53.3574L147.265 57.8356C147.784 58.7351 147.815 59.8358 147.348 60.7635L146.288 62.8668C145.736 63.9626 144.587 64.6266 143.362 64.5571L141.012 64.4238C139.976 64.3651 139.039 63.7878 138.52 62.8883L136.047 58.6029Z" fill="#FACF35"/>
<path fill-rule="evenodd" clip-rule="evenodd" d="M167.183 91.7709C168.142 89.3526 168.012 86.4936 166.583 84.018C164.147 79.7941 158.855 78.2856 154.765 80.6487C150.675 83.0118 149.335 88.3516 151.772 92.5755C153.268 95.1682 155.839 96.7378 158.548 97.0169L155.964 92.5393C155.445 91.6397 155.414 90.5389 155.882 89.6111L156.942 87.5076C157.494 86.4118 158.643 85.748 159.867 85.8173L162.218 85.9505C163.254 86.0092 164.191 86.5865 164.71 87.4861L167.183 91.7709Z" fill="#FACF35"/>
<line y1="-0.75" x2="18.8895" y2="-0.75" transform="matrix(0.463823 -0.885928 0.88569 0.464276 183.107 105.344)" stroke="#000091" stroke-width="1.5"/>
<rect width="5.3826" height="29.8242" rx="2.6913" transform="matrix(0.885678 0.464299 -0.4638 0.88594 180.906 102.074)" fill="#1EBE8E"/>
<path d="M190.747 84.1679C190.956 83.7693 191.339 83.492 191.783 83.4194L193.174 83.1918C193.803 83.0888 194.425 83.4146 194.698 83.991L195.303 85.2646C195.496 85.6712 195.487 86.1448 195.278 86.5434L194.398 88.2257C194.031 88.9262 193.166 89.1965 192.465 88.8293L190.47 87.7833C189.77 87.4162 189.5 86.5507 189.866 85.8501L190.747 84.1679Z" fill="#FACF35"/>
<ellipse cx="189.348" cy="64.0249" rx="2.41016" ry="2.41165" fill="#1EBE8E"/>
<path d="M186.937 63.7188C178.214 63.7188 171.143 70.7948 171.143 79.5235" stroke="#000091" stroke-width="1.5"/>
<path d="M116.73 93.6096C116.73 101.36 124.767 107.643 134.681 107.643" stroke="#000091" stroke-width="1.5"/>
<path d="M116.9 93.091C116.146 93.091 115.533 92.4788 115.533 91.7222C115.533 90.9657 116.146 90.3535 116.9 90.3535C117.655 90.3535 118.268 90.9657 118.268 91.7222C118.268 92.4788 117.655 93.091 116.9 93.091Z" stroke="#6672F8" stroke-width="2"/>
<path d="M56.8763 125.918C59.9381 135.284 74.6659 151.324 85.3639 134.831C96.0618 118.338 99.5949 130.943 125.181 150.763C152.113 171.625 147.444 145.215 150.682 128.834" stroke="black"/>
<path d="M56.2397 130.069C56.2709 129.585 56.079 126.494 56.5814 126.033C57.1491 125.513 60.1896 127.037 60.4371 127.584" stroke="black" stroke-linecap="round" stroke-linejoin="round"/>
<path d="M62.1479 28.6408C89.9371 5.68598 140.683 34.7061 108.163 33.0993C59.6859 30.7042 126.956 2.04191 144.568 46.915" stroke="black"/>
<path d="M145.978 43.8254C145.874 44.2174 145.564 46.7828 145.037 47.0812C144.442 47.4185 141.93 45.6884 141.792 45.2008" stroke="black" stroke-linecap="round" stroke-linejoin="round"/>
<ellipse opacity="0.03" cx="105.911" cy="87.8477" rx="57.7413" ry="57.7774" stroke="#000091" stroke-width="60"/>
</svg>
