<svg width="186" height="185" viewBox="0 0 186 185" fill="none" xmlns="http://www.w3.org/2000/svg">
<ellipse opacity="0.03" cx="92.9669" cy="92.7274" rx="62.2794" ry="62.2724" stroke="#2A3070" stroke-width="60"/>
<path d="M67.9084 90.5665C66.3016 93.2522 70.3693 95.555 71.863 97.2045C75.9675 101.737 67.6429 108.47 60.9342 107.514C54.2254 106.558 51.0896 97.3089 55.2449 89.2025C56.9183 85.9381 57.0009 84.9282 54.2534 77.9102C51.506 70.8922 61.0116 70.5671 62.4695 64.7104C63.9297 58.8444 58.5283 52.3069 63.783 46.9946C67.3393 43.3993 73.536 50.0464 74.5432 53.1207C77.9332 63.4682 67.5759 66.1365 70.4489 70.366C73.1627 73.8802 77.9611 77.0631 76.828 81.9846C75.9846 85.6477 69.8561 87.3111 67.9084 90.5665Z" fill="#2A3070"/>
<path d="M68.0244 55.0352C63.1183 82.6541 61.7646 109.491 62.0972 140.578" stroke="#6672F8"/>
<path d="M156.891 100.8C155.626 102.915 158.829 104.729 160.005 106.028C163.237 109.597 156.682 114.899 151.399 114.146C146.116 113.393 143.647 106.11 146.919 99.7263C148.237 97.1557 148.302 96.3604 146.138 90.834C143.975 85.3076 151.46 85.0516 152.608 80.4396C153.758 75.8204 149.505 70.6723 153.643 66.4891C156.443 63.6578 161.323 68.8922 162.116 71.3131C164.785 79.4614 156.629 81.5626 158.892 84.8932C161.029 87.6605 164.807 90.167 163.915 94.0425C163.251 96.927 158.425 98.2369 156.891 100.8Z" fill="#1EBE8E"/>
<path d="M156.983 72.8594C153.12 94.6083 152.054 115.741 152.316 140.221" stroke="#2A3070"/>
<path d="M34.6631 111.598C25.7868 94.7912 41.3378 84.9728 27.2197 66.8222C0.434987 32.3895 47.2683 25.3329 48.7643 49.2525C49.1742 55.7771 49.0229 67.3869 51.2442 73.6345C52.7755 77.9413 64.7411 82.6968 63.7319 101.828C62.7372 120.641 55.228 140.658 53.9133 141.323C48.5702 136.678 36.6015 115.266 34.6631 111.598Z" fill="#1EBE8E"/>
<path d="M33.8003 45.539C39.5187 64.4564 58.8217 95.7372 53.7948 140.96" stroke="white" stroke-linecap="round"/>
<path d="M118.347 139.471C117.985 122.841 107.515 64.714 94.8994 42.0508" stroke="#FCA081" stroke-linecap="round"/>
<path d="M95.2081 62.3564C97.5169 63.6002 102.772 66.7953 105.323 69.6253C107.536 61.647 108.403 58.4197 108.56 57.8034" stroke="#FCA081" stroke-linecap="round"/>
<path d="M90.7777 50.4736C93.1951 51.4902 98.7327 54.1665 101.544 56.7388C102.98 48.585 103.534 45.2894 103.631 44.6609" stroke="#FCA081" stroke-linecap="round"/>
<path d="M115.85 54.3124C118.232 61.8204 117.379 69.6126 115.486 75.6676C114.541 78.6932 113.341 81.2692 112.17 83.1434C111.584 84.0811 111.012 84.8335 110.49 85.3766C109.957 85.9313 109.519 86.2233 109.209 86.3148C108.89 86.4085 108.353 86.4088 107.593 86.2528C106.848 86.0999 105.943 85.8081 104.923 85.3757C102.882 84.5114 100.418 83.1016 97.9042 81.1827C92.8739 77.3424 87.6974 71.5016 85.3164 63.994C82.9275 56.4619 83.2223 48.8769 84.8265 42.9468C85.6286 39.9817 86.7541 37.445 88.0219 35.5428C89.2957 33.6316 90.6755 32.416 91.9657 31.9894C93.5684 31.5197 95.5498 31.6973 97.7301 32.5074C99.9091 33.3171 102.251 34.7461 104.542 36.7213C109.124 40.6715 113.458 46.768 115.85 54.3124Z" stroke="#FCA081" stroke-linecap="round"/>
<path d="M90.1318 119.728C90.8137 119.728 91.4438 120.092 91.7847 120.682L91.962 120.989C92.3029 121.58 92.3029 122.307 91.9619 122.898L91.7848 123.205C91.4438 123.795 90.8136 124.159 90.1317 124.159L89.7772 124.159C89.0953 124.159 88.4652 123.795 88.1242 123.205L87.947 122.898C87.606 122.307 87.606 121.58 87.947 120.989L88.1241 120.682C88.4651 120.092 89.0953 119.728 89.7772 119.728L90.1318 119.728Z" stroke="#6672F8"/>
<path d="M92.5277 141.594C93.0027 141.119 93.695 140.934 94.3438 141.108C94.9925 141.282 95.4993 141.788 95.6732 142.437C95.847 143.086 95.6615 143.778 95.1866 144.253C94.7116 144.728 94.0193 144.913 93.3705 144.739C92.7218 144.566 92.215 144.059 92.0411 143.41C91.8673 142.761 92.0528 142.069 92.5277 141.594Z" stroke="#6672F8"/>
<path d="M88.8253 139.606C89.4969 139.606 90.1176 139.965 90.4535 140.546C90.7893 141.128 90.7893 141.845 90.4535 142.426C90.1176 143.008 89.497 143.366 88.8253 143.366C88.1536 143.366 87.5329 143.008 87.1971 142.426C86.8613 141.845 86.8613 141.128 87.1971 140.546C87.5329 139.965 88.1536 139.606 88.8253 139.606Z" stroke="#1EBE8E"/>
<path d="M92.8591 130.339C93.0382 129.681 93.5548 129.169 94.2142 128.995L94.5569 128.905C95.2164 128.731 95.9184 128.922 96.3987 129.406L96.6483 129.658C97.1286 130.142 97.3141 130.845 97.1349 131.503L97.0418 131.845C96.8627 132.503 96.3461 133.015 95.6867 133.189L95.3439 133.28C94.6845 133.453 93.9824 133.262 93.5022 132.778L93.2526 132.527C92.7723 132.042 92.5868 131.339 92.766 130.681L92.8591 130.339Z" fill="#6672F8" stroke="#6672F8"/>
<path d="M17.1445 140.154H85.6708C85.6708 143.786 88.6149 146.729 92.2466 146.729C95.8783 146.729 98.8223 143.786 98.8223 140.154H167.695" stroke="#2A3070"/>
<path fill-rule="evenodd" clip-rule="evenodd" d="M37.6566 100.317C37.9121 100.656 38.1504 101.003 38.3718 101.357C38.681 101.851 38.4537 102.491 37.9187 102.722L32.0933 105.238C31.2555 105.6 30.8697 106.572 31.2317 107.41C31.5936 108.247 32.5661 108.633 33.4039 108.271L39.0379 105.838C39.6004 105.595 40.2497 105.911 40.3564 106.514C41.2793 111.734 39.3042 117.272 34.7776 120.676C30.2336 124.094 24.3367 124.445 19.567 122.082C19.0194 121.81 18.898 121.101 19.2864 120.629L23.0478 116.06C23.6278 115.356 23.5268 114.314 22.8222 113.734C22.1176 113.155 21.0762 113.255 20.4962 113.96L16.6161 118.673C16.2448 119.124 15.565 119.164 15.1769 118.727C14.9129 118.43 14.6589 118.12 14.4158 117.797C13.876 117.079 13.4581 116.221 13.1416 115.264C13.0386 114.952 13.1123 114.611 13.321 114.357L18.0943 108.559C18.6743 107.855 18.5732 106.813 17.8686 106.234C17.164 105.654 16.1226 105.755 15.5426 106.459L13.9768 108.361C13.3955 109.067 12.2845 108.686 12.3112 107.772C12.4729 102.224 13.813 96.4736 14.32 94.4757C14.4312 94.0377 14.822 93.7438 15.2737 93.7584C17.3458 93.8257 23.2981 94.1357 28.6982 95.5387C29.582 95.7683 29.6386 96.939 28.8004 97.3011L26.2597 98.3985C25.4219 98.7604 25.0361 99.7328 25.3981 100.571C25.76 101.408 26.7325 101.794 27.5703 101.432L34.7094 98.3485C35.0126 98.2176 35.3627 98.2423 35.6342 98.4304C36.4415 98.9898 37.1294 99.6159 37.6566 100.317ZM16.9691 101.403C17.2983 101.841 17.2104 102.462 16.7728 102.792C16.3352 103.121 15.7137 103.033 15.3845 102.595C15.0553 102.158 15.1432 101.536 15.5808 101.207C16.0184 100.878 16.6399 100.966 16.9691 101.403ZM35.8248 113.272C36.6999 112.614 37.1425 111.725 36.8134 111.288C36.4842 110.85 35.5079 111.029 34.6327 111.687C33.7576 112.346 33.315 113.234 33.6442 113.672C33.9733 114.109 34.9496 113.93 35.8248 113.272Z" fill="#6672F8"/>
<path fill-rule="evenodd" clip-rule="evenodd" d="M55.8474 117.304C55.7427 117.485 55.6334 117.662 55.5198 117.835C55.1996 118.322 54.5209 118.363 54.0988 117.961L50.97 114.983C50.4893 114.526 49.7287 114.544 49.2711 115.025C48.8135 115.506 48.8322 116.266 49.3129 116.724L52.315 119.581C52.7588 120.003 52.7226 120.725 52.1993 121.044C49.0034 122.991 44.8714 123.177 41.4026 121.174C37.9194 119.164 36.0134 115.471 36.1182 111.714C36.1352 111.103 36.7413 110.714 37.3276 110.886L41.1513 112.012C41.7879 112.2 42.456 111.836 42.6435 111.199C42.8311 110.563 42.467 109.895 41.8304 109.707L37.8566 108.537C37.2961 108.372 36.9925 107.761 37.257 107.24C37.3438 107.069 37.4357 106.9 37.5327 106.732C37.8379 106.203 38.2553 105.711 38.7583 105.253C39.0013 105.032 39.3448 104.968 39.66 105.06L44.7608 106.563C45.3975 106.75 46.0656 106.386 46.2531 105.749C46.4406 105.113 46.0766 104.445 45.4399 104.257L44.4 103.951C43.5227 103.693 43.4445 102.533 44.3037 102.219C47.721 100.973 51.3673 100.306 52.906 100.06C53.3523 99.9886 53.7781 100.234 53.9394 100.657C54.4991 102.122 55.7577 105.649 56.3827 109.256C56.5385 110.156 55.4962 110.666 54.8348 110.036L53.8858 109.133C53.4051 108.675 52.6445 108.694 52.1869 109.175C51.7293 109.655 51.748 110.416 52.2287 110.874L56.2209 114.673C56.4602 114.901 56.5758 115.233 56.5033 115.555C56.3586 116.2 56.1446 116.789 55.8474 117.304ZM49.2296 103.773C49.0305 104.117 48.5896 104.236 48.2448 104.037C47.8999 103.837 47.7818 103.397 47.9809 103.052C48.18 102.707 48.6209 102.589 48.9658 102.788C49.3106 102.987 49.4287 103.428 49.2296 103.773ZM46.656 119.767C47.3456 120.165 48.0661 120.208 48.2652 119.864C48.4643 119.519 48.0666 118.917 47.377 118.518C46.6873 118.12 45.9668 118.077 45.7677 118.422C45.5686 118.767 45.9663 119.369 46.656 119.767Z" fill="#2A3070"/>
<path d="M18.7539 98.9629C27.1171 107.325 38.3753 125.658 41.5919 139.809" stroke="#2A3070" stroke-linecap="round"/>
<path d="M52.5283 103.143C33.3894 125.25 47.3335 129.024 41.5918 139.808" stroke="#6672F8" stroke-linecap="round"/>
<path d="M67.0871 106.137L80.6879 97.0659C79.93 98.9573 79.7943 100.817 80.0646 102.858C79.3732 103.248 78.5869 103.706 77.7693 104.183L77.6786 104.236C76.7049 104.804 75.6883 105.397 74.7243 105.935C73.7589 106.473 72.8554 106.953 72.1077 107.296C71.7336 107.467 71.4066 107.601 71.1355 107.691C70.8546 107.785 70.6715 107.818 70.5713 107.818C69.6949 107.818 69.001 107.617 68.4036 107.268C67.9304 106.991 67.5027 106.612 67.0871 106.137Z" fill="#FACF35" stroke="#FACF35"/>
<path d="M83.4675 87.6625L83.4681 87.6633C83.7867 88.1504 83.6499 88.8066 83.1632 89.1256L83.1623 89.1262L67.009 99.6639C66.2337 100.17 66.14 101.162 66.7165 101.663C67.0688 101.969 67.4418 102.236 67.8435 102.449C68.1763 102.626 68.6202 102.579 69.0169 102.315L84.9883 91.6657L85.0236 91.6422L85.0624 91.6249L85.2341 91.5485L85.2897 91.5237L85.3497 91.513C85.4191 91.5007 85.5252 91.4825 85.6522 91.4895C85.7841 91.4943 85.9115 91.5288 86.0199 91.5795L86.0423 91.59L86.0636 91.6027L86.1757 91.6694L86.2473 91.7121L86.3013 91.7757L86.4546 91.9565L86.4967 92.0062L86.5247 92.0649L86.5553 92.1291L86.5833 92.188L86.5953 92.252L86.6315 92.4451L86.6441 92.5125L86.6381 92.5808L86.631 92.6623L86.6255 92.7252L86.6045 92.7847L86.5271 93.0048L86.4985 93.0861L86.4443 93.1531L86.3929 93.2168L86.3717 93.243L86.3472 93.2661L86.2473 93.3604L86.2205 93.3856L86.1904 93.4067C83.9898 94.9435 82.5201 97.2479 82.0495 99.8986C81.579 102.548 82.3167 105.53 83.6987 107.411C84.6102 108.652 86.3638 111.178 87.5653 112.918C88.1032 113.698 89.1094 113.738 89.5717 113.121C90.5789 111.776 91.0124 110.318 90.0684 108.931C89.758 108.476 89.4072 108.006 89.0388 107.512C89.0038 107.465 88.9687 107.418 88.9334 107.371C88.5294 106.83 88.1097 106.262 87.721 105.678C86.948 104.517 86.2656 103.243 86.0677 101.889C85.7537 99.7466 86.6576 97.8342 88.5352 96.5245L88.5355 96.5243C90.1754 95.382 92.1702 95.2246 93.9713 96.0957L93.9719 96.096C96.0328 97.0961 97.225 98.8444 97.2492 101.009C97.2657 102.49 96.746 103.952 96.103 105.303C95.78 105.982 95.4198 106.645 95.0707 107.277C95.0168 107.375 94.9633 107.471 94.9102 107.567C94.617 108.097 94.3378 108.601 94.0926 109.086L83.4675 87.6625ZM83.4675 87.6625C83.1564 87.189 82.4888 87.0407 82.0058 87.3578C82.0055 87.3579 82.0052 87.3581 82.005 87.3583L70.3594 94.9537C69.8086 95.3129 69.1274 95.2429 68.7371 94.8069C68.2192 94.2284 68.375 93.2824 69.1069 92.8313L93.9 77.5481C94.7199 77.0427 95.7327 77.0585 96.4849 77.6096C98.0259 78.7387 100.453 80.6748 102.49 82.9977C104.542 85.3378 106.12 87.9827 106.12 90.5369C106.12 94.0067 104.966 97.662 103.764 100.522C102.616 103.254 101.443 105.219 101.249 105.544C101.241 105.558 101.234 105.569 101.23 105.576L101.229 105.576M83.4675 87.6625L101.229 105.576M101.229 105.576L101.223 105.587M101.229 105.576L101.223 105.587M101.223 105.587L96.8306 113.443C96.3779 114.252 95.4102 114.395 94.8992 113.854C94.2552 113.173 93.8263 112.445 93.6672 111.671M101.223 105.587L93.6672 111.671M93.6672 111.671C93.5098 110.905 93.6074 110.049 94.0923 109.087L93.6672 111.671Z" fill="#FACF35" stroke="#FACF35"/>
<path d="M112.677 108.049C112.805 126.475 122.4 136.9 127.182 139.809C129.732 127.081 116.343 87.0771 115.227 81.2584C114.112 75.4397 112.518 85.0163 112.677 108.049Z" fill="#2A3070"/>
<path d="M120.308 89.3731C118.995 112.179 123.808 132.499 126.378 139.809C132.448 139.809 128.675 127.626 131.628 117.271C134.581 106.916 123.753 93.3933 125.229 66.9572C126.706 40.521 121.948 60.8659 120.308 89.3731Z" fill="#6672F8" stroke="#6672F8"/>
<path d="M137.266 85.841C139.082 111.736 131.922 138.993 127.906 139.882C121.711 139.556 132.935 86.5916 133.232 73.035C133.528 59.4785 135.45 59.9463 137.266 85.841Z" fill="#2A3070"/>
<path d="M146.104 95.8549C138.292 129.713 135.124 139.026 130.263 139.517C126.33 138.314 132.424 125.81 137.369 111.769C140.847 101.893 140.414 91.7427 145.843 83.7809C151.273 75.8191 153.915 61.9963 146.104 95.8549Z" stroke="#6672F8"/>
<path fill-rule="evenodd" clip-rule="evenodd" d="M167.041 140.5V92.0614C167.041 50.9448 133.709 17.6133 92.5927 17.6133C51.4761 17.6133 18.1445 50.9449 18.1445 92.0615V140.5H17.1445V92.0615C17.1445 50.3926 50.9238 16.6133 92.5927 16.6133C134.262 16.6133 168.041 50.3926 168.041 92.0614V140.5H167.041Z" fill="#FACF35"/>
<path d="M149.088 116.939C148.961 116.785 148.87 116.766 148.774 116.782L148.774 116.782C148.674 116.799 148.475 116.912 148.216 117.329C147.969 117.725 147.726 118.304 147.498 119.048C147.043 120.53 146.677 122.566 146.431 124.847C145.971 129.121 145.945 134.162 146.513 137.861C146.565 138.123 146.608 138.376 146.64 138.619L145.653 138.776C145.608 138.534 145.566 138.286 145.527 138.032C144.924 135.039 142.965 130.714 140.985 127.264C139.917 125.401 138.864 123.833 138.048 122.897C137.684 122.478 137.405 122.231 137.222 122.121C136.131 124.995 136.844 128.136 138.508 131.004C138.56 131.093 138.612 131.182 138.663 131.271C139.993 133.561 141.146 135.549 142.42 136.99C143.727 138.468 145.107 139.309 146.868 139.309C152.225 139.309 155.663 135.493 157.681 131.308C158.686 129.225 159.321 127.083 159.65 125.356C159.815 124.492 159.901 123.74 159.922 123.158C159.932 122.867 159.926 122.625 159.906 122.437C159.904 122.414 159.901 122.393 159.899 122.372C159.887 122.379 159.875 122.385 159.863 122.392C159.581 122.555 159.182 122.875 158.685 123.347C157.699 124.284 156.418 125.733 155.061 127.456C152.345 130.904 149.38 135.374 147.905 138.879L146.978 138.506C149.255 132.586 150.224 126.425 149.846 120.307L149.846 120.307C149.803 119.604 149.71 118.6 149.483 117.809C149.368 117.409 149.232 117.114 149.088 116.939ZM137.098 122.062C137.098 122.063 137.099 122.063 137.101 122.063C137.099 122.063 137.098 122.062 137.098 122.062ZM137.271 121.982C137.272 121.981 137.272 121.98 137.272 121.98C137.272 121.98 137.272 121.981 137.271 121.982Z" fill="#FCA081" stroke="#FCA081"/>
<ellipse cx="92.2465" cy="12.8066" rx="3.80702" ry="3.80659" fill="#FACF35"/>
</svg>
