<svg width="210" height="183" viewBox="0 0 210 183" fill="none" xmlns="http://www.w3.org/2000/svg">
<mask id="path-1-inside-1_2485_69206" fill="white">
<path fill-rule="evenodd" clip-rule="evenodd" d="M35.3628 74.6542C33.9646 72.4214 34.0013 69.8516 34.5508 67.4824C35.3148 64.1889 34.8152 60.6106 32.8674 57.5027C28.9118 51.191 20.4813 49.2094 14.0376 53.0766C7.59378 56.9438 5.57674 65.1954 9.53238 71.507C11.3348 74.3831 14.0664 76.3601 17.1158 77.2943C19.7006 78.0862 22.3402 79.2693 23.6608 81.3781C25.6881 84.6155 30.4188 85.7665 33.6706 83.8133L34.1166 83.5454C36.9593 81.838 37.7534 78.4718 35.9812 75.6417L35.3628 74.6542Z"/>
</mask>
<path fill-rule="evenodd" clip-rule="evenodd" d="M35.3628 74.6542C33.9646 72.4214 34.0013 69.8516 34.5508 67.4824C35.3148 64.1889 34.8152 60.6106 32.8674 57.5027C28.9118 51.191 20.4813 49.2094 14.0376 53.0766C7.59378 56.9438 5.57674 65.1954 9.53238 71.507C11.3348 74.3831 14.0664 76.3601 17.1158 77.2943C19.7006 78.0862 22.3402 79.2693 23.6608 81.3781C25.6881 84.6155 30.4188 85.7665 33.6706 83.8133L34.1166 83.5454C36.9593 81.838 37.7534 78.4718 35.9812 75.6417L35.3628 74.6542Z" fill="#FACF35"/>
<path d="M32.8674 57.5027L34.2618 56.9163L32.8674 57.5027ZM14.0376 53.0766L15.019 54.2409L14.0376 53.0766ZM9.53238 71.507L8.13793 72.0934L8.13793 72.0934L9.53238 71.507ZM33.6706 83.8133L34.6525 84.9774L33.6706 83.8133ZM17.1158 77.2943L17.5389 75.9867L17.1158 77.2943ZM34.1166 83.5454L33.1347 82.3813L34.1166 83.5454ZM35.9812 75.6417L34.5864 76.2276L35.9812 75.6417ZM31.4729 58.0891C33.2092 60.8595 33.6772 64.0912 32.9783 67.1043L36.1233 67.8605C36.9523 64.2865 36.4211 60.3618 34.2618 56.9163L31.4729 58.0891ZM15.019 54.2409C20.7146 50.8228 28.0134 52.569 31.4729 58.0891L34.2618 56.9163C29.8101 49.8131 20.2481 47.596 13.0561 51.9122L15.019 54.2409ZM10.9268 70.9207C7.3736 65.2511 9.18978 57.7393 15.019 54.2409L13.0561 51.9122C5.99778 56.1482 3.77988 65.1396 8.13793 72.0934L10.9268 70.9207ZM17.5389 75.9867C14.9171 75.1835 12.5274 73.4745 10.9268 70.9207L8.13793 72.0934C10.1423 75.2916 13.2157 77.5367 16.6927 78.6019L17.5389 75.9867ZM33.1347 82.3813L32.6887 82.6492L34.6525 84.9774L35.0985 84.7095L33.1347 82.3813ZM33.9681 75.2401L34.5864 76.2276L37.3759 75.0558L36.7575 74.0683L33.9681 75.2401ZM22.266 81.964C24.7747 85.9701 30.6287 87.3943 34.6525 84.9774L32.6887 82.6492C30.209 84.1386 26.6015 83.261 25.0555 80.7922L22.266 81.964ZM16.6927 78.6019C19.212 79.3737 21.2835 80.395 22.266 81.964L25.0555 80.7922C23.3969 78.1436 20.1893 76.7987 17.5389 75.9867L16.6927 78.6019ZM35.0985 84.7095C38.5707 82.6241 39.5406 78.5126 37.3759 75.0558L34.5864 76.2276C35.9663 78.4311 35.348 81.052 33.1347 82.3813L35.0985 84.7095ZM32.9783 67.1043C32.3996 69.5994 32.2913 72.5625 33.9681 75.2401L36.7575 74.0683C35.6379 72.2804 35.603 70.1038 36.1233 67.8605L32.9783 67.1043Z" fill="#FACF35" mask="url(#path-1-inside-1_2485_69206)"/>
<path d="M32.841 81.3576C27.428 77.7219 17.7048 65.4753 18.2818 70.1411C18.8276 74.5543 25.5156 75.049 24.0769 67.9693C22.6383 60.8897 17.9837 70.0638 24.7121 69.876C31.4405 69.6881 27.6887 64.3889 25.7986 64.5459C23.9085 64.7029 27.3424 72.5816 32.841 81.3576Z" stroke="#2A3070" stroke-width="1.5"/>
<path d="M44.5743 97.6904C47.5307 90.4059 54.3359 76.617 57.9048 79.7376C61.4738 82.8581 50.5049 93.0063 44.5743 97.6904Z" stroke="#2A3070" stroke-width="1.5"/>
<line x1="0.75" y1="-0.75" x2="15.4825" y2="-0.75" transform="matrix(0.590505 -0.772935 0.791627 0.60474 44.9883 97.4629)" stroke="#2A3070" stroke-width="1.5" stroke-linecap="round"/>
<ellipse rx="12.7378" ry="12.8231" transform="matrix(0.796945 0.591722 -0.601525 0.805383 180.002 53.9175)" fill="#FCA081"/>
<path d="M176.074 49.0532L185.524 56.0276L183.124 59.2228C181.153 61.846 177.439 62.4113 174.83 60.4854C172.22 58.5595 171.703 54.8716 173.674 52.2484L176.074 49.0532Z" stroke="#2A3070" stroke-width="1.5"/>
<line x1="0.75" y1="-0.75" x2="4.39091" y2="-0.75" transform="matrix(0.593735 -0.793934 0.787154 0.583703 178.157 50.4121)" stroke="#2A3070" stroke-width="1.5" stroke-linecap="round"/>
<line x1="0.75" y1="-0.75" x2="4.3909" y2="-0.75" transform="matrix(0.593731 -0.793936 0.78715 0.583706 184.206 54.9355)" stroke="#2A3070" stroke-width="1.5" stroke-linecap="round"/>
<line y1="-0.75" x2="13.8729" y2="-0.75" transform="matrix(0.784562 0.586721 -0.590358 0.796121 173.645 50.7441)" stroke="#2A3070" stroke-width="1.5"/>
<path d="M173.315 60.8984C165.782 70.7173 150.664 99.6629 150.454 136.895" stroke="#2A3070" stroke-width="1.5"/>
<path d="M160.273 86.9549C155.021 80.9668 145.522 68.5755 149.544 66.9141C153.566 65.2528 158.373 79.5824 160.273 86.9549Z" stroke="#2A3070" stroke-width="1.5" stroke-linecap="round" stroke-linejoin="bevel"/>
<line x1="0.75" y1="-0.75" x2="14.8839" y2="-0.75" transform="matrix(-0.457799 -0.900248 0.866624 -0.44469 160.114 86.3418)" stroke="#2A3070" stroke-width="1.5" stroke-linecap="round" stroke-linejoin="bevel"/>
<path d="M160.361 86.8996C166.704 82.5246 179.736 75.0607 181.119 80.2058C182.502 85.351 167.857 86.8122 160.361 86.8996Z" stroke="#2A3070" stroke-width="1.5" stroke-linecap="round" stroke-linejoin="bevel"/>
<line x1="0.75" y1="-0.75" x2="15.2722" y2="-0.75" transform="matrix(0.939824 -0.296403 0.3068 0.959644 160.572 87.0684)" stroke="#2A3070" stroke-width="1.5" stroke-linecap="round" stroke-linejoin="bevel"/>
<path d="M32.8398 81.3887C43.728 95.6988 56.4825 115.297 56.4825 146.67" stroke="#2A3070" stroke-width="1.5"/>
<line x1="120.292" y1="63.8008" x2="120.292" y2="90.5545" stroke="#2A3070" stroke-width="1.5"/>
<line x1="90.4766" y1="54.041" x2="90.4766" y2="82.039" stroke="#2A3070" stroke-width="1.5"/>
<path d="M47.0875 32.9687C44.8444 29.6481 47.2235 25.1699 51.2308 25.1699H103.956C105.617 25.1699 107.17 25.9947 108.1 27.3711L121.754 47.585C123.998 50.9057 121.618 55.3838 117.611 55.3838H64.8856C63.2246 55.3838 61.6721 54.559 60.7423 53.1827L47.0875 32.9687Z" fill="#6672F8"/>
<path d="M49.8073 32.9687C47.5641 29.6481 49.9432 25.1699 53.9505 25.1699H106.676C108.337 25.1699 109.89 25.9947 110.819 27.3711L124.474 47.585C126.717 50.9057 124.338 55.3838 120.331 55.3838H67.6053C65.9443 55.3838 64.3918 54.559 63.462 53.1827L49.8073 32.9687Z" fill="#2A3070"/>
<line x1="51.1855" y1="34.3906" x2="115.843" y2="34.3906" stroke="white" stroke-width="1.5"/>
<line x1="58.1367" y1="44.3652" x2="123.097" y2="44.3652" stroke="white" stroke-width="1.5"/>
<line x1="58.154" y1="24.7534" x2="78.3973" y2="55.0669" stroke="white" stroke-width="1.5"/>
<line y1="-0.75" x2="36.4513" y2="-0.75" transform="matrix(0.555353 0.831615 -0.831615 0.555352 70.5225 25.1699)" stroke="white" stroke-width="1.5"/>
<line y1="-0.75" x2="36.4513" y2="-0.75" transform="matrix(0.555353 0.831615 -0.831615 0.555352 83.5166 25.1699)" stroke="white" stroke-width="1.5"/>
<line x1="97.1296" y1="24.7534" x2="117.373" y2="55.0669" stroke="white" stroke-width="1.5"/>
<path d="M96.9238 111.922C96.9238 106.399 101.401 101.922 106.924 101.922H151.676V143.585C151.676 146.347 149.437 148.585 146.676 148.585H106.924C101.401 148.585 96.9238 144.108 96.9238 138.585V111.922Z" fill="#1EBE8E"/>
<path d="M103.763 102.293L86.3044 79.2366L123.946 79.2366L151.676 102.293L103.763 102.293Z" fill="#FACF35"/>
<path d="M53.9932 104.761C53.9932 103.17 54.7503 101.674 56.0323 100.732L83.3856 80.6309C85.1472 79.3363 87.5456 79.3363 89.3073 80.6309L116.661 100.732C117.943 101.674 118.7 103.17 118.7 104.761V143.761C118.7 146.523 116.461 148.761 113.7 148.761H58.9932C56.2317 148.761 53.9932 146.523 53.9932 143.761V104.761Z" fill="#2A3070"/>
<path d="M78.2578 137.074C78.2578 133.466 81.1827 130.541 84.7907 130.541C88.3987 130.541 91.3236 133.466 91.3236 137.074V148.584H78.2578V137.074Z" fill="#FACF35"/>
<path d="M88.5045 49.3652C86.2614 46.0446 88.6405 41.5664 92.6478 41.5664H130.411C132.072 41.5664 133.624 42.3912 134.554 43.7676L143.496 57.0044C145.739 60.325 143.36 64.8032 139.353 64.8032H101.589C99.9285 64.8032 98.3759 63.9784 97.4462 62.602L88.5045 49.3652Z" fill="#000091"/>
<path d="M90.5954 49.3652C88.3522 46.0446 90.7313 41.5664 94.7386 41.5664H132.502C134.163 41.5664 135.715 42.3912 136.645 43.7676L145.587 57.0044C147.83 60.325 145.451 64.8032 141.443 64.8032H103.68C102.019 64.8032 100.467 63.9784 99.537 62.602L90.5954 49.3652Z" fill="#6672F8"/>
<line x1="90.4375" y1="48.4863" x2="140.164" y2="48.4863" stroke="white" stroke-width="1.5"/>
<line x1="95.7842" y1="56.1562" x2="145.743" y2="56.1562" stroke="white" stroke-width="1.5"/>
<line x1="95.944" y1="41.1499" x2="111.513" y2="64.4632" stroke="white" stroke-width="1.5"/>
<line y1="-0.75" x2="28.0338" y2="-0.75" transform="matrix(0.555352 0.831615 -0.831615 0.555353 105.311 41.5664)" stroke="white" stroke-width="1.5"/>
<line x1="115.924" y1="41.1499" x2="131.493" y2="64.4632" stroke="white" stroke-width="1.5"/>
<line x1="125.918" y1="41.1499" x2="141.486" y2="64.4632" stroke="white" stroke-width="1.5"/>
<line x1="75.2764" y1="100.184" x2="75.2764" y2="119.215" stroke="white" stroke-width="1.5" stroke-linecap="round"/>
<line x1="85.8525" y1="100.184" x2="85.8525" y2="119.215" stroke="white" stroke-width="1.5" stroke-linecap="round"/>
<line x1="96.4326" y1="100.184" x2="96.4326" y2="119.215" stroke="white" stroke-width="1.5" stroke-linecap="round"/>
<path d="M127.243 11.8896C126.169 15.8707 122.071 18.2273 118.09 17.1532C114.109 16.0791 111.752 11.9811 112.826 8" stroke="#FACF35" stroke-width="6.5"/>
<circle cx="75.1479" cy="103.786" r="2.48871" fill="#FACF35"/>
<circle cx="85.725" cy="114.989" r="2.48871" fill="#FACF35"/>
<circle cx="96.3022" cy="112.5" r="2.48871" fill="#FACF35"/>
<path opacity="0.2" fill-rule="evenodd" clip-rule="evenodd" d="M162.318 30.5544H130.543C130.531 30.4221 130.524 30.2884 130.524 30.1534C130.524 27.3625 133.188 25.1001 136.473 25.1001C137.647 25.1001 138.742 25.3892 139.665 25.8883C141.107 24.0861 143.541 22.9023 146.299 22.9023C149.11 22.9023 151.583 24.131 153.015 25.9906C153.973 25.429 155.135 25.1001 156.388 25.1001C159.673 25.1001 162.337 27.3625 162.337 30.1534C162.337 30.2884 162.33 30.4221 162.318 30.5544Z" fill="#6672F8"/>
<circle opacity="0.03" cx="96.8852" cy="91.5111" r="61.1752" stroke="#2A3070" stroke-width="60"/>
</svg>
