<svg width="673" height="648" viewBox="0 0 673 648" fill="none" xmlns="http://www.w3.org/2000/svg">
<rect x="361.194" y="371" width="303" height="103" rx="10" fill="#6672F8"/>
<g filter="url(#filter0_d)">
<rect x="394.194" y="405" width="238" height="145" rx="18" fill="white"/>
</g>
<path d="M647.162 397.002C657.642 383.18 645.091 372.038 660.489 357.781C689.702 330.735 648.574 317.453 643.688 338.772C642.354 344.587 640.772 355.065 637.848 360.362C635.832 364.014 624.354 366.527 622.432 383.905C620.545 400.993 624.345 420.13 625.431 420.923C630.929 417.53 644.874 400.018 647.162 397.002Z" fill="#2A3070"/>
<path d="M657.714 337.642C649.766 353.832 627.757 379.146 625.593 420.615" stroke="white" stroke-linecap="round"/>
<rect x="394.194" y="404" width="238" height="37" rx="18.5" fill="#F2F2FA"/>
<path d="M383.252 396.126C395.981 383.396 416.619 383.396 429.348 396.126C442.078 408.855 442.078 429.493 429.348 442.222C416.619 454.951 395.981 454.951 383.252 442.222C370.523 429.493 370.523 408.855 383.252 396.126Z" fill="#FCFCFC" fill-opacity="0.3" stroke="#2A3070" stroke-width="1.5" stroke-linecap="round" stroke-linejoin="round"/>
<path d="M388.269 435.989C379.238 426.957 379.238 412.314 388.269 403.283" stroke="#2A3070" stroke-width="1.5" stroke-linecap="round" stroke-linejoin="round"/>
<line x1="429.462" y1="395.776" x2="449.085" y2="376.154" stroke="#2A3070" stroke-width="1.5" stroke-linecap="round" stroke-linejoin="round"/>
<rect x="450.146" y="381.117" width="9.35999" height="46.8" rx="4.68" transform="rotate(-135 450.146 381.117)" fill="#1EBE8E"/>
<path d="M414.016 428.125H415.498V424.277H416.59C416.642 424.277 416.694 424.277 416.759 424.277L419.294 428.125H421.062L418.176 423.978C419.125 423.575 419.671 422.756 419.671 421.651C419.671 420.039 418.501 419.025 416.59 419.025H414.016V428.125ZM416.668 420.286C417.591 420.286 418.124 420.806 418.124 421.625C418.124 422.496 417.591 423.016 416.668 423.016H415.498V420.286H416.668ZM425.682 420.533L427.216 418.375H425.734L424.382 420.533H425.682ZM428.061 427.059L427.086 426.279C426.683 426.825 426.02 427.176 425.227 427.176C423.966 427.176 423.095 426.435 423.004 425.005H427.84C427.892 424.81 427.931 424.511 427.931 424.212C427.931 422.548 426.761 421.313 424.954 421.313C422.874 421.313 421.626 422.886 421.626 424.849C421.626 426.76 422.965 428.385 425.227 428.385C426.449 428.385 427.45 427.878 428.061 427.059ZM424.928 422.431C425.981 422.431 426.566 423.185 426.592 424.004H423.069C423.277 422.99 423.953 422.431 424.928 422.431ZM429.129 424.849C429.129 426.76 430.416 428.385 432.483 428.385C433.419 428.385 434.121 428.047 434.667 427.462V428.125H436.032V418.375H434.667V422.236C434.121 421.651 433.419 421.313 432.483 421.313C430.416 421.313 429.129 422.938 429.129 424.849ZM430.546 424.849C430.546 423.562 431.391 422.574 432.652 422.574C433.471 422.574 434.186 422.951 434.667 423.666V426.032C434.225 426.721 433.497 427.124 432.652 427.124C431.391 427.124 430.546 426.136 430.546 424.849ZM442.639 425.317C442.639 426.448 442.028 427.124 441.027 427.124C440 427.124 439.402 426.448 439.402 425.317V421.573H438.05V425.252C438.05 427.215 439.181 428.385 441.027 428.385C442.86 428.385 443.991 427.215 443.991 425.252V421.573H442.639V425.317ZM446.702 420.117C447.196 420.117 447.612 419.701 447.612 419.207C447.612 418.713 447.196 418.297 446.702 418.297C446.208 418.297 445.792 418.713 445.792 419.207C445.792 419.701 446.208 420.117 446.702 420.117ZM446.026 428.125H447.365V421.573H446.026V428.125ZM449.555 428.125H450.894V423.757C451.232 423.198 451.778 422.756 452.61 422.756C452.883 422.756 453.091 422.795 453.299 422.847V421.534C453.13 421.482 452.935 421.443 452.727 421.443C451.921 421.443 451.349 421.807 450.894 422.314V421.573H449.555V428.125ZM460.345 427.059L459.37 426.279C458.967 426.825 458.304 427.176 457.511 427.176C456.25 427.176 455.379 426.435 455.288 425.005H460.124C460.176 424.81 460.215 424.511 460.215 424.212C460.215 422.548 459.045 421.313 457.238 421.313C455.158 421.313 453.91 422.886 453.91 424.849C453.91 426.76 455.249 428.385 457.511 428.385C458.733 428.385 459.734 427.878 460.345 427.059ZM457.212 422.431C458.265 422.431 458.85 423.185 458.876 424.004H455.353C455.561 422.99 456.237 422.431 457.212 422.431ZM465.475 428.125H466.814V423.705C467.126 423.146 467.62 422.574 468.452 422.574C469.31 422.574 469.83 423.146 469.83 424.108V428.125H471.182V424.056C471.182 423.926 471.182 423.809 471.169 423.692C471.52 423.068 472.027 422.574 472.807 422.574C473.652 422.574 474.185 423.146 474.185 424.108V428.125H475.537V424.056C475.537 422.249 474.484 421.313 473.119 421.313C471.988 421.313 471.338 421.846 470.831 422.496C470.415 421.716 469.661 421.313 468.764 421.313C467.893 421.313 467.282 421.677 466.814 422.184V421.573H465.475V428.125ZM479.419 428.32C480.225 428.32 481.044 427.956 481.512 427.384V428.125H482.851V423.796C482.851 422.353 481.876 421.313 480.108 421.313C478.938 421.313 478.002 421.807 477.417 422.587L478.418 423.354C478.795 422.821 479.354 422.496 480.069 422.496C480.914 422.496 481.512 422.99 481.512 423.796V424.134L479.393 424.485C478.002 424.719 477.235 425.434 477.235 426.422C477.235 427.579 478.119 428.32 479.419 428.32ZM478.587 426.37C478.587 425.876 478.925 425.525 479.744 425.382L481.512 425.083V426.214C481.122 426.838 480.485 427.228 479.666 427.228C478.99 427.228 478.587 426.877 478.587 426.37Z" fill="#2A3070"/>
<line opacity="0.3" x1="485.111" y1="410.125" x2="485.111" y2="436.125" stroke="#2A3070"/>
<rect x="600.194" y="411.364" width="24.7311" height="23.4294" rx="11.7147" fill="#1EBE8E"/>
<path d="M610.991 419.288L614.749 423.046L610.991 426.804" stroke="white" stroke-linecap="round"/>
<path opacity="0.6" d="M414.691 461.125H415.831V458.165H416.671C416.711 458.165 416.751 458.165 416.801 458.165L418.751 461.125H420.111L417.891 457.935C418.621 457.625 419.041 456.995 419.041 456.145C419.041 454.905 418.141 454.125 416.671 454.125H414.691V461.125ZM416.731 455.095C417.441 455.095 417.851 455.495 417.851 456.125C417.851 456.795 417.441 457.195 416.731 457.195H415.831V455.095H416.731ZM423.665 455.285L424.845 453.625H423.705L422.665 455.285H423.665ZM425.495 460.305L424.745 459.705C424.435 460.125 423.925 460.395 423.315 460.395C422.345 460.395 421.675 459.825 421.605 458.725H425.325C425.365 458.575 425.395 458.345 425.395 458.115C425.395 456.835 424.495 455.885 423.105 455.885C421.505 455.885 420.545 457.095 420.545 458.605C420.545 460.075 421.575 461.325 423.315 461.325C424.255 461.325 425.025 460.935 425.495 460.305ZM423.085 456.745C423.895 456.745 424.345 457.325 424.365 457.955H421.655C421.815 457.175 422.335 456.745 423.085 456.745ZM426.317 458.605C426.317 460.075 427.307 461.325 428.897 461.325C429.617 461.325 430.157 461.065 430.577 460.615V461.125H431.627V453.625H430.577V456.595C430.157 456.145 429.617 455.885 428.897 455.885C427.307 455.885 426.317 457.135 426.317 458.605ZM427.407 458.605C427.407 457.615 428.057 456.855 429.027 456.855C429.657 456.855 430.207 457.145 430.577 457.695V459.515C430.237 460.045 429.677 460.355 429.027 460.355C428.057 460.355 427.407 459.595 427.407 458.605ZM436.709 458.965C436.709 459.835 436.239 460.355 435.469 460.355C434.679 460.355 434.219 459.835 434.219 458.965V456.085H433.179V458.915C433.179 460.425 434.049 461.325 435.469 461.325C436.879 461.325 437.749 460.425 437.749 458.915V456.085H436.709V458.965ZM439.835 454.965C440.215 454.965 440.535 454.645 440.535 454.265C440.535 453.885 440.215 453.565 439.835 453.565C439.455 453.565 439.135 453.885 439.135 454.265C439.135 454.645 439.455 454.965 439.835 454.965ZM439.315 461.125H440.345V456.085H439.315V461.125ZM442.029 461.125H443.059V457.765C443.319 457.335 443.739 456.995 444.379 456.995C444.589 456.995 444.749 457.025 444.909 457.065V456.055C444.779 456.015 444.629 455.985 444.469 455.985C443.849 455.985 443.409 456.265 443.059 456.655V456.085H442.029V461.125ZM450.329 460.305L449.579 459.705C449.269 460.125 448.759 460.395 448.149 460.395C447.179 460.395 446.509 459.825 446.439 458.725H450.159C450.199 458.575 450.229 458.345 450.229 458.115C450.229 456.835 449.329 455.885 447.939 455.885C446.339 455.885 445.379 457.095 445.379 458.605C445.379 460.075 446.409 461.325 448.149 461.325C449.089 461.325 449.859 460.935 450.329 460.305ZM447.919 456.745C448.729 456.745 449.179 457.325 449.199 457.955H446.489C446.649 457.175 447.169 456.745 447.919 456.745ZM454.276 461.125H455.306V457.725C455.546 457.295 455.926 456.855 456.566 456.855C457.226 456.855 457.626 457.295 457.626 458.035V461.125H458.666V457.995C458.666 457.895 458.666 457.805 458.656 457.715C458.926 457.235 459.316 456.855 459.916 456.855C460.566 456.855 460.976 457.295 460.976 458.035V461.125H462.016V457.995C462.016 456.605 461.206 455.885 460.156 455.885C459.286 455.885 458.786 456.295 458.396 456.795C458.076 456.195 457.496 455.885 456.806 455.885C456.136 455.885 455.666 456.165 455.306 456.555V456.085H454.276V461.125ZM465.001 461.275C465.621 461.275 466.251 460.995 466.611 460.555V461.125H467.641V457.795C467.641 456.685 466.891 455.885 465.531 455.885C464.631 455.885 463.911 456.265 463.461 456.865L464.231 457.455C464.521 457.045 464.951 456.795 465.501 456.795C466.151 456.795 466.611 457.175 466.611 457.795V458.055L464.981 458.325C463.911 458.505 463.321 459.055 463.321 459.815C463.321 460.705 464.001 461.275 465.001 461.275ZM464.361 459.775C464.361 459.395 464.621 459.125 465.251 459.015L466.611 458.785V459.655C466.311 460.135 465.821 460.435 465.191 460.435C464.671 460.435 464.361 460.165 464.361 459.775ZM474.311 460.355C473.331 460.355 472.631 459.605 472.631 458.605C472.631 457.615 473.331 456.855 474.301 456.855C474.881 456.855 475.341 457.135 475.621 457.525L476.431 456.905C475.971 456.285 475.221 455.885 474.301 455.885C472.611 455.885 471.551 457.135 471.551 458.605C471.551 460.075 472.611 461.325 474.301 461.325C475.231 461.325 475.971 460.925 476.431 460.305L475.621 459.685C475.341 460.075 474.881 460.355 474.311 460.355ZM479.653 455.885C478.023 455.885 476.913 457.115 476.913 458.605C476.913 460.095 478.023 461.325 479.653 461.325C481.293 461.325 482.393 460.095 482.393 458.605C482.393 457.115 481.293 455.885 479.653 455.885ZM479.663 460.355C478.693 460.355 477.993 459.575 477.993 458.605C477.993 457.635 478.693 456.855 479.663 456.855C480.613 456.855 481.313 457.625 481.313 458.605C481.313 459.565 480.613 460.355 479.663 460.355ZM483.68 461.125H484.71V457.725C484.97 457.285 485.38 456.855 486.07 456.855C486.79 456.855 487.23 457.335 487.23 458.135V461.125H488.27V458.095C488.27 456.635 487.42 455.885 486.31 455.885C485.59 455.885 485.09 456.175 484.71 456.575V456.085H483.68V461.125ZM489.371 460.415C489.841 460.985 490.471 461.325 491.321 461.325C492.261 461.325 493.061 460.735 493.071 459.745C493.071 458.015 490.601 458.355 490.601 457.345C490.601 457.005 490.841 456.725 491.321 456.725C491.741 456.725 492.091 456.975 492.361 457.335L493.061 456.725C492.701 456.245 492.051 455.885 491.311 455.885C490.301 455.885 489.601 456.545 489.601 457.375C489.601 459.155 492.071 458.785 492.071 459.805C492.071 460.185 491.801 460.485 491.311 460.485C490.811 460.485 490.411 460.215 490.081 459.795L489.371 460.415ZM496.664 455.885C495.034 455.885 493.924 457.115 493.924 458.605C493.924 460.095 495.034 461.325 496.664 461.325C498.304 461.325 499.404 460.095 499.404 458.605C499.404 457.115 498.304 455.885 496.664 455.885ZM496.674 460.355C495.704 460.355 495.004 459.575 495.004 458.605C495.004 457.635 495.704 456.855 496.674 456.855C497.624 456.855 498.324 457.625 498.324 458.605C498.324 459.565 497.624 460.355 496.674 460.355ZM500.692 461.125H501.722V457.725C501.962 457.295 502.342 456.855 502.982 456.855C503.642 456.855 504.042 457.295 504.042 458.035V461.125H505.082V457.995C505.082 457.895 505.082 457.805 505.072 457.715C505.342 457.235 505.732 456.855 506.332 456.855C506.982 456.855 507.392 457.295 507.392 458.035V461.125H508.432V457.995C508.432 456.605 507.622 455.885 506.572 455.885C505.702 455.885 505.202 456.295 504.812 456.795C504.492 456.195 503.912 455.885 503.222 455.885C502.552 455.885 502.082 456.165 501.722 456.555V456.085H500.692V461.125ZM510.028 461.125H511.058V457.725C511.298 457.295 511.678 456.855 512.318 456.855C512.978 456.855 513.378 457.295 513.378 458.035V461.125H514.418V457.995C514.418 457.895 514.418 457.805 514.408 457.715C514.678 457.235 515.067 456.855 515.668 456.855C516.318 456.855 516.728 457.295 516.728 458.035V461.125H517.768V457.995C517.768 456.605 516.958 455.885 515.908 455.885C515.038 455.885 514.538 456.295 514.148 456.795C513.828 456.195 513.248 455.885 512.558 455.885C511.888 455.885 511.418 456.165 511.058 456.555V456.085H510.028V461.125ZM520.753 461.275C521.373 461.275 522.003 460.995 522.363 460.555V461.125H523.393V457.795C523.393 456.685 522.643 455.885 521.283 455.885C520.383 455.885 519.663 456.265 519.213 456.865L519.983 457.455C520.273 457.045 520.703 456.795 521.253 456.795C521.903 456.795 522.363 457.175 522.363 457.795V458.055L520.733 458.325C519.663 458.505 519.073 459.055 519.073 459.815C519.073 460.705 519.753 461.275 520.753 461.275ZM520.113 459.775C520.113 459.395 520.373 459.125 521.003 459.015L522.363 458.785V459.655C522.063 460.135 521.573 460.435 520.943 460.435C520.423 460.435 520.113 460.165 520.113 459.775ZM525.308 459.375C525.308 460.605 525.928 461.225 527.108 461.225C527.498 461.225 527.778 461.175 528.018 461.075V460.165C527.838 460.235 527.608 460.275 527.268 460.275C526.708 460.275 526.348 460.055 526.348 459.375V457.015H528.018V456.085H526.348V454.825H525.308V456.085H524.358V457.015H525.308V459.375ZM529.766 454.965C530.146 454.965 530.466 454.645 530.466 454.265C530.466 453.885 530.146 453.565 529.766 453.565C529.386 453.565 529.066 453.885 529.066 454.265C529.066 454.645 529.386 454.965 529.766 454.965ZM529.246 461.125H530.276V456.085H529.246V461.125ZM534.301 455.885C532.671 455.885 531.561 457.115 531.561 458.605C531.561 460.095 532.671 461.325 534.301 461.325C535.941 461.325 537.041 460.095 537.041 458.605C537.041 457.115 535.941 455.885 534.301 455.885ZM534.311 460.355C533.341 460.355 532.641 459.575 532.641 458.605C532.641 457.635 533.341 456.855 534.311 456.855C535.261 456.855 535.961 457.625 535.961 458.605C535.961 459.565 535.261 460.355 534.311 460.355ZM538.328 461.125H539.358V457.725C539.618 457.285 540.028 456.855 540.718 456.855C541.438 456.855 541.878 457.335 541.878 458.135V461.125H542.918V458.095C542.918 456.635 542.068 455.885 540.958 455.885C540.238 455.885 539.738 456.175 539.358 456.575V456.085H538.328V461.125ZM546.815 458.605C546.815 460.075 547.805 461.325 549.395 461.325C550.115 461.325 550.655 461.065 551.075 460.615V461.125H552.125V453.625H551.075V456.595C550.655 456.145 550.115 455.885 549.395 455.885C547.805 455.885 546.815 457.135 546.815 458.605ZM547.905 458.605C547.905 457.615 548.555 456.855 549.525 456.855C550.155 456.855 550.705 457.145 551.075 457.695V459.515C550.735 460.045 550.175 460.355 549.525 460.355C548.555 460.355 547.905 459.595 547.905 458.605ZM554.286 456.895L555.376 454.125H554.206L553.336 456.895H554.286ZM560.525 460.305L559.775 459.705C559.465 460.125 558.955 460.395 558.345 460.395C557.375 460.395 556.705 459.825 556.635 458.725H560.355C560.395 458.575 560.425 458.345 560.425 458.115C560.425 456.835 559.525 455.885 558.135 455.885C556.535 455.885 555.575 457.095 555.575 458.605C555.575 460.075 556.605 461.325 558.345 461.325C559.285 461.325 560.055 460.935 560.525 460.305ZM558.115 456.745C558.925 456.745 559.375 457.325 559.395 457.955H556.685C556.845 457.175 557.365 456.745 558.115 456.745ZM563.107 461.275C563.727 461.275 564.357 460.995 564.717 460.555V461.125H565.747V457.795C565.747 456.685 564.997 455.885 563.637 455.885C562.737 455.885 562.017 456.265 561.567 456.865L562.337 457.455C562.627 457.045 563.057 456.795 563.607 456.795C564.257 456.795 564.717 457.175 564.717 457.795V458.055L563.087 458.325C562.017 458.505 561.427 459.055 561.427 459.815C561.427 460.705 562.107 461.275 563.107 461.275ZM562.467 459.775C562.467 459.395 562.727 459.125 563.357 459.015L564.717 458.785V459.655C564.417 460.135 563.927 460.435 563.297 460.435C562.777 460.435 562.467 460.165 562.467 459.775ZM570.781 458.965C570.781 459.835 570.311 460.355 569.541 460.355C568.751 460.355 568.291 459.835 568.291 458.965V456.085H567.251V458.915C567.251 460.425 568.121 461.325 569.541 461.325C570.951 461.325 571.821 460.425 571.821 458.915V456.085H570.781V458.965ZM414.691 485.125H415.831V482.165H416.671C416.711 482.165 416.751 482.165 416.801 482.165L418.751 485.125H420.111L417.891 481.935C418.621 481.625 419.041 480.995 419.041 480.145C419.041 478.905 418.141 478.125 416.671 478.125H414.691V485.125ZM416.731 479.095C417.441 479.095 417.851 479.495 417.851 480.125C417.851 480.795 417.441 481.195 416.731 481.195H415.831V479.095H416.731ZM423.665 479.285L424.845 477.625H423.705L422.665 479.285H423.665ZM425.495 484.305L424.745 483.705C424.435 484.125 423.925 484.395 423.315 484.395C422.345 484.395 421.675 483.825 421.605 482.725H425.325C425.365 482.575 425.395 482.345 425.395 482.115C425.395 480.835 424.495 479.885 423.105 479.885C421.505 479.885 420.545 481.095 420.545 482.605C420.545 484.075 421.575 485.325 423.315 485.325C424.255 485.325 425.025 484.935 425.495 484.305ZM423.085 480.745C423.895 480.745 424.345 481.325 424.365 481.955H421.655C421.815 481.175 422.335 480.745 423.085 480.745ZM426.317 482.605C426.317 484.075 427.307 485.325 428.897 485.325C429.617 485.325 430.157 485.065 430.577 484.615V485.125H431.627V477.625H430.577V480.595C430.157 480.145 429.617 479.885 428.897 479.885C427.307 479.885 426.317 481.135 426.317 482.605ZM427.407 482.605C427.407 481.615 428.057 480.855 429.027 480.855C429.657 480.855 430.207 481.145 430.577 481.695V483.515C430.237 484.045 429.677 484.355 429.027 484.355C428.057 484.355 427.407 483.595 427.407 482.605ZM436.709 482.965C436.709 483.835 436.239 484.355 435.469 484.355C434.679 484.355 434.219 483.835 434.219 482.965V480.085H433.179V482.915C433.179 484.425 434.049 485.325 435.469 485.325C436.879 485.325 437.749 484.425 437.749 482.915V480.085H436.709V482.965ZM439.835 478.965C440.215 478.965 440.535 478.645 440.535 478.265C440.535 477.885 440.215 477.565 439.835 477.565C439.455 477.565 439.135 477.885 439.135 478.265C439.135 478.645 439.455 478.965 439.835 478.965ZM439.315 485.125H440.345V480.085H439.315V485.125ZM442.029 485.125H443.059V481.765C443.319 481.335 443.739 480.995 444.379 480.995C444.589 480.995 444.749 481.025 444.909 481.065V480.055C444.779 480.015 444.629 479.985 444.469 479.985C443.849 479.985 443.409 480.265 443.059 480.655V480.085H442.029V485.125ZM450.329 484.305L449.579 483.705C449.269 484.125 448.759 484.395 448.149 484.395C447.179 484.395 446.509 483.825 446.439 482.725H450.159C450.199 482.575 450.229 482.345 450.229 482.115C450.229 480.835 449.329 479.885 447.939 479.885C446.339 479.885 445.379 481.095 445.379 482.605C445.379 484.075 446.409 485.325 448.149 485.325C449.089 485.325 449.859 484.935 450.329 484.305ZM447.919 480.745C448.729 480.745 449.179 481.325 449.199 481.955H446.489C446.649 481.175 447.169 480.745 447.919 480.745ZM454.276 485.125H455.306V481.725C455.546 481.295 455.926 480.855 456.566 480.855C457.226 480.855 457.626 481.295 457.626 482.035V485.125H458.666V481.995C458.666 481.895 458.666 481.805 458.656 481.715C458.926 481.235 459.316 480.855 459.916 480.855C460.566 480.855 460.976 481.295 460.976 482.035V485.125H462.016V481.995C462.016 480.605 461.206 479.885 460.156 479.885C459.286 479.885 458.786 480.295 458.396 480.795C458.076 480.195 457.496 479.885 456.806 479.885C456.136 479.885 455.666 480.165 455.306 480.555V480.085H454.276V485.125ZM465.001 485.275C465.621 485.275 466.251 484.995 466.611 484.555V485.125H467.641V481.795C467.641 480.685 466.891 479.885 465.531 479.885C464.631 479.885 463.911 480.265 463.461 480.865L464.231 481.455C464.521 481.045 464.951 480.795 465.501 480.795C466.151 480.795 466.611 481.175 466.611 481.795V482.055L464.981 482.325C463.911 482.505 463.321 483.055 463.321 483.815C463.321 484.705 464.001 485.275 465.001 485.275ZM464.361 483.775C464.361 483.395 464.621 483.125 465.251 483.015L466.611 482.785V483.655C466.311 484.135 465.821 484.435 465.191 484.435C464.671 484.435 464.361 484.165 464.361 483.775ZM471.951 487.585H472.981V484.605C473.411 485.065 473.951 485.325 474.681 485.325C476.261 485.325 477.251 484.075 477.251 482.605C477.251 481.135 476.261 479.885 474.681 479.885C473.951 479.885 473.411 480.145 472.981 480.605V480.085H471.951V487.585ZM474.551 480.855C475.521 480.855 476.171 481.615 476.171 482.605C476.171 483.595 475.521 484.355 474.551 484.355C473.901 484.355 473.351 484.055 472.981 483.495V481.715C473.341 481.165 473.891 480.855 474.551 480.855ZM478.533 485.125H479.563V481.765C479.823 481.335 480.243 480.995 480.883 480.995C481.093 480.995 481.253 481.025 481.413 481.065V480.055C481.283 480.015 481.133 479.985 480.973 479.985C480.353 479.985 479.913 480.265 479.563 480.655V480.085H478.533V485.125ZM484.623 479.885C482.993 479.885 481.883 481.115 481.883 482.605C481.883 484.095 482.993 485.325 484.623 485.325C486.263 485.325 487.363 484.095 487.363 482.605C487.363 481.115 486.263 479.885 484.623 479.885ZM484.633 484.355C483.663 484.355 482.963 483.575 482.963 482.605C482.963 481.635 483.663 480.855 484.633 480.855C485.583 480.855 486.283 481.625 486.283 482.605C486.283 483.565 485.583 484.355 484.633 484.355ZM488.299 482.605C488.299 484.075 489.289 485.325 490.879 485.325C491.599 485.325 492.139 485.065 492.559 484.615V485.125H493.609V477.625H492.559V480.595C492.139 480.145 491.599 479.885 490.879 479.885C489.289 479.885 488.299 481.135 488.299 482.605ZM489.389 482.605C489.389 481.615 490.039 480.855 491.009 480.855C491.639 480.855 492.189 481.145 492.559 481.695V483.515C492.219 484.045 491.659 484.355 491.009 484.355C490.039 484.355 489.389 483.595 489.389 482.605ZM498.692 482.965C498.692 483.835 498.222 484.355 497.452 484.355C496.662 484.355 496.202 483.835 496.202 482.965V480.085H495.162V482.915C495.162 484.425 496.032 485.325 497.452 485.325C498.862 485.325 499.732 484.425 499.732 482.915V480.085H498.692V482.965ZM503.657 484.355C502.677 484.355 501.977 483.605 501.977 482.605C501.977 481.615 502.677 480.855 503.647 480.855C504.227 480.855 504.687 481.135 504.967 481.525L505.777 480.905C505.317 480.285 504.567 479.885 503.647 479.885C501.957 479.885 500.897 481.135 500.897 482.605C500.897 484.075 501.957 485.325 503.647 485.325C504.577 485.325 505.317 484.925 505.777 484.305L504.967 483.685C504.687 484.075 504.227 484.355 503.657 484.355ZM507.163 483.375C507.163 484.605 507.783 485.225 508.963 485.225C509.353 485.225 509.633 485.175 509.873 485.075V484.165C509.693 484.235 509.463 484.275 509.123 484.275C508.563 484.275 508.203 484.055 508.203 483.375V481.015H509.873V480.085H508.203V478.825H507.163V480.085H506.213V481.015H507.163V483.375ZM511.622 478.965C512.002 478.965 512.322 478.645 512.322 478.265C512.322 477.885 512.002 477.565 511.622 477.565C511.242 477.565 510.922 477.885 510.922 478.265C510.922 478.645 511.242 478.965 511.622 478.965ZM511.102 485.125H512.132V480.085H511.102V485.125ZM516.157 479.885C514.527 479.885 513.417 481.115 513.417 482.605C513.417 484.095 514.527 485.325 516.157 485.325C517.797 485.325 518.897 484.095 518.897 482.605C518.897 481.115 517.797 479.885 516.157 479.885ZM516.167 484.355C515.197 484.355 514.497 483.575 514.497 482.605C514.497 481.635 515.197 480.855 516.167 480.855C517.117 480.855 517.817 481.625 517.817 482.605C517.817 483.565 517.117 484.355 516.167 484.355ZM520.184 485.125H521.214V481.725C521.474 481.285 521.884 480.855 522.574 480.855C523.294 480.855 523.734 481.335 523.734 482.135V485.125H524.774V482.095C524.774 480.635 523.924 479.885 522.814 479.885C522.094 479.885 521.594 480.175 521.214 480.575V480.085H520.184V485.125ZM528.67 482.605C528.67 484.075 529.66 485.325 531.25 485.325C531.97 485.325 532.51 485.065 532.93 484.615V485.125H533.98V477.625H532.93V480.595C532.51 480.145 531.97 479.885 531.25 479.885C529.66 479.885 528.67 481.135 528.67 482.605ZM529.76 482.605C529.76 481.615 530.41 480.855 531.38 480.855C532.01 480.855 532.56 481.145 532.93 481.695V483.515C532.59 484.045 532.03 484.355 531.38 484.355C530.41 484.355 529.76 483.595 529.76 482.605ZM540.193 484.305L539.443 483.705C539.133 484.125 538.623 484.395 538.013 484.395C537.043 484.395 536.373 483.825 536.303 482.725H540.023C540.063 482.575 540.093 482.345 540.093 482.115C540.093 480.835 539.193 479.885 537.803 479.885C536.203 479.885 535.243 481.095 535.243 482.605C535.243 484.075 536.273 485.325 538.013 485.325C538.953 485.325 539.723 484.935 540.193 484.305ZM537.783 480.745C538.593 480.745 539.043 481.325 539.063 481.955H536.353C536.513 481.175 537.033 480.745 537.783 480.745ZM543.739 482.605C543.739 484.075 544.729 485.325 546.319 485.325C547.039 485.325 547.579 485.065 547.999 484.615V485.125H549.049V477.625H547.999V480.595C547.579 480.145 547.039 479.885 546.319 479.885C544.729 479.885 543.739 481.135 543.739 482.605ZM544.829 482.605C544.829 481.615 545.479 480.855 546.449 480.855C547.079 480.855 547.629 481.145 547.999 481.695V483.515C547.659 484.045 547.099 484.355 546.449 484.355C545.479 484.355 544.829 483.595 544.829 482.605ZM553.431 479.285L554.611 477.625H553.471L552.431 479.285H553.431ZM555.261 484.305L554.511 483.705C554.201 484.125 553.691 484.395 553.081 484.395C552.111 484.395 551.441 483.825 551.371 482.725H555.091C555.131 482.575 555.161 482.345 555.161 482.115C555.161 480.835 554.261 479.885 552.871 479.885C551.271 479.885 550.311 481.095 550.311 482.605C550.311 484.075 551.341 485.325 553.081 485.325C554.021 485.325 554.791 484.935 555.261 484.305ZM552.851 480.745C553.661 480.745 554.111 481.325 554.131 481.955H551.421C551.581 481.175 552.101 480.745 552.851 480.745ZM558.843 484.355C557.863 484.355 557.163 483.605 557.163 482.605C557.163 481.615 557.863 480.855 558.833 480.855C559.413 480.855 559.873 481.135 560.153 481.525L560.963 480.905C560.503 480.285 559.753 479.885 558.833 479.885C557.143 479.885 556.083 481.135 556.083 482.605C556.083 484.075 557.143 485.325 558.833 485.325C559.763 485.325 560.503 484.925 560.963 484.305L560.153 483.685C559.873 484.075 559.413 484.355 558.843 484.355ZM562.039 485.125H563.069V481.725C563.339 481.285 563.739 480.855 564.429 480.855C565.149 480.855 565.589 481.335 565.589 482.135V485.125H566.629V482.095C566.629 480.635 565.789 479.885 564.669 479.885C563.949 479.885 563.449 480.175 563.069 480.575V477.625H562.039V485.125ZM572.781 484.305L572.031 483.705C571.721 484.125 571.211 484.395 570.601 484.395C569.631 484.395 568.961 483.825 568.891 482.725H572.611C572.651 482.575 572.681 482.345 572.681 482.115C572.681 480.835 571.781 479.885 570.391 479.885C568.791 479.885 567.831 481.095 567.831 482.605C567.831 484.075 568.861 485.325 570.601 485.325C571.541 485.325 572.311 484.935 572.781 484.305ZM570.371 480.745C571.181 480.745 571.631 481.325 571.651 481.955H568.941C569.101 481.175 569.621 480.745 570.371 480.745ZM574.312 483.375C574.312 484.605 574.932 485.225 576.112 485.225C576.502 485.225 576.782 485.175 577.022 485.075V484.165C576.842 484.235 576.612 484.275 576.272 484.275C575.712 484.275 575.352 484.055 575.352 483.375V481.015H577.022V480.085H575.352V478.825H574.312V480.085H573.362V481.015H574.312V483.375ZM577.75 484.415C578.22 484.985 578.85 485.325 579.7 485.325C580.64 485.325 581.44 484.735 581.45 483.745C581.45 482.015 578.98 482.355 578.98 481.345C578.98 481.005 579.22 480.725 579.7 480.725C580.12 480.725 580.47 480.975 580.74 481.335L581.44 480.725C581.08 480.245 580.43 479.885 579.69 479.885C578.68 479.885 577.98 480.545 577.98 481.375C577.98 483.155 580.45 482.785 580.45 483.805C580.45 484.185 580.18 484.485 579.69 484.485C579.19 484.485 578.79 484.215 578.46 483.795L577.75 484.415ZM414.691 509.125H415.831V506.165H416.671C416.711 506.165 416.751 506.165 416.801 506.165L418.751 509.125H420.111L417.891 505.935C418.621 505.625 419.041 504.995 419.041 504.145C419.041 502.905 418.141 502.125 416.671 502.125H414.691V509.125ZM416.731 503.095C417.441 503.095 417.851 503.495 417.851 504.125C417.851 504.795 417.441 505.195 416.731 505.195H415.831V503.095H416.731ZM423.665 503.285L424.845 501.625H423.705L422.665 503.285H423.665ZM425.495 508.305L424.745 507.705C424.435 508.125 423.925 508.395 423.315 508.395C422.345 508.395 421.675 507.825 421.605 506.725H425.325C425.365 506.575 425.395 506.345 425.395 506.115C425.395 504.835 424.495 503.885 423.105 503.885C421.505 503.885 420.545 505.095 420.545 506.605C420.545 508.075 421.575 509.325 423.315 509.325C424.255 509.325 425.025 508.935 425.495 508.305ZM423.085 504.745C423.895 504.745 424.345 505.325 424.365 505.955H421.655C421.815 505.175 422.335 504.745 423.085 504.745ZM426.317 506.605C426.317 508.075 427.307 509.325 428.897 509.325C429.617 509.325 430.157 509.065 430.577 508.615V509.125H431.627V501.625H430.577V504.595C430.157 504.145 429.617 503.885 428.897 503.885C427.307 503.885 426.317 505.135 426.317 506.605ZM427.407 506.605C427.407 505.615 428.057 504.855 429.027 504.855C429.657 504.855 430.207 505.145 430.577 505.695V507.515C430.237 508.045 429.677 508.355 429.027 508.355C428.057 508.355 427.407 507.595 427.407 506.605ZM436.709 506.965C436.709 507.835 436.239 508.355 435.469 508.355C434.679 508.355 434.219 507.835 434.219 506.965V504.085H433.179V506.915C433.179 508.425 434.049 509.325 435.469 509.325C436.879 509.325 437.749 508.425 437.749 506.915V504.085H436.709V506.965ZM439.835 502.965C440.215 502.965 440.535 502.645 440.535 502.265C440.535 501.885 440.215 501.565 439.835 501.565C439.455 501.565 439.135 501.885 439.135 502.265C439.135 502.645 439.455 502.965 439.835 502.965ZM439.315 509.125H440.345V504.085H439.315V509.125ZM442.029 509.125H443.059V505.765C443.319 505.335 443.739 504.995 444.379 504.995C444.589 504.995 444.749 505.025 444.909 505.065V504.055C444.779 504.015 444.629 503.985 444.469 503.985C443.849 503.985 443.409 504.265 443.059 504.655V504.085H442.029V509.125ZM450.329 508.305L449.579 507.705C449.269 508.125 448.759 508.395 448.149 508.395C447.179 508.395 446.509 507.825 446.439 506.725H450.159C450.199 506.575 450.229 506.345 450.229 506.115C450.229 504.835 449.329 503.885 447.939 503.885C446.339 503.885 445.379 505.095 445.379 506.605C445.379 508.075 446.409 509.325 448.149 509.325C449.089 509.325 449.859 508.935 450.329 508.305ZM447.919 504.745C448.729 504.745 449.179 505.325 449.199 505.955H446.489C446.649 505.175 447.169 504.745 447.919 504.745ZM454.276 509.125H455.306V505.725C455.546 505.295 455.926 504.855 456.566 504.855C457.226 504.855 457.626 505.295 457.626 506.035V509.125H458.666V505.995C458.666 505.895 458.666 505.805 458.656 505.715C458.926 505.235 459.316 504.855 459.916 504.855C460.566 504.855 460.976 505.295 460.976 506.035V509.125H462.016V505.995C462.016 504.605 461.206 503.885 460.156 503.885C459.286 503.885 458.786 504.295 458.396 504.795C458.076 504.195 457.496 503.885 456.806 503.885C456.136 503.885 455.666 504.165 455.306 504.555V504.085H454.276V509.125ZM465.001 509.275C465.621 509.275 466.251 508.995 466.611 508.555V509.125H467.641V505.795C467.641 504.685 466.891 503.885 465.531 503.885C464.631 503.885 463.911 504.265 463.461 504.865L464.231 505.455C464.521 505.045 464.951 504.795 465.501 504.795C466.151 504.795 466.611 505.175 466.611 505.795V506.055L464.981 506.325C463.911 506.505 463.321 507.055 463.321 507.815C463.321 508.705 464.001 509.275 465.001 509.275ZM464.361 507.775C464.361 507.395 464.621 507.125 465.251 507.015L466.611 506.785V507.655C466.311 508.135 465.821 508.435 465.191 508.435C464.671 508.435 464.361 508.165 464.361 507.775ZM471.951 511.585H472.981V508.605C473.411 509.065 473.951 509.325 474.681 509.325C476.261 509.325 477.251 508.075 477.251 506.605C477.251 505.135 476.261 503.885 474.681 503.885C473.951 503.885 473.411 504.145 472.981 504.605V504.085H471.951V511.585ZM474.551 504.855C475.521 504.855 476.171 505.615 476.171 506.605C476.171 507.595 475.521 508.355 474.551 508.355C473.901 508.355 473.351 508.055 472.981 507.495V505.715C473.341 505.165 473.891 504.855 474.551 504.855ZM480.922 503.885C479.292 503.885 478.182 505.115 478.182 506.605C478.182 508.095 479.292 509.325 480.922 509.325C482.562 509.325 483.662 508.095 483.662 506.605C483.662 505.115 482.562 503.885 480.922 503.885ZM480.932 508.355C479.962 508.355 479.262 507.575 479.262 506.605C479.262 505.635 479.962 504.855 480.932 504.855C481.882 504.855 482.582 505.625 482.582 506.605C482.582 507.565 481.882 508.355 480.932 508.355ZM484.949 509.125H485.979V501.625H484.949V509.125ZM487.664 509.125H488.694V501.625H487.664V509.125ZM493.799 506.965C493.799 507.835 493.329 508.355 492.559 508.355C491.769 508.355 491.309 507.835 491.309 506.965V504.085H490.269V506.915C490.269 508.425 491.139 509.325 492.559 509.325C493.969 509.325 494.839 508.425 494.839 506.915V504.085H493.799V506.965ZM496.763 507.375C496.763 508.605 497.383 509.225 498.563 509.225C498.953 509.225 499.233 509.175 499.473 509.075V508.165C499.293 508.235 499.063 508.275 498.723 508.275C498.163 508.275 497.803 508.055 497.803 507.375V505.015H499.473V504.085H497.803V502.825H496.763V504.085H495.813V505.015H496.763V507.375ZM501.221 502.965C501.601 502.965 501.921 502.645 501.921 502.265C501.921 501.885 501.601 501.565 501.221 501.565C500.841 501.565 500.521 501.885 500.521 502.265C500.521 502.645 500.841 502.965 501.221 502.965ZM500.701 509.125H501.731V504.085H500.701V509.125ZM505.756 503.885C504.126 503.885 503.016 505.115 503.016 506.605C503.016 508.095 504.126 509.325 505.756 509.325C507.396 509.325 508.496 508.095 508.496 506.605C508.496 505.115 507.396 503.885 505.756 503.885ZM505.766 508.355C504.796 508.355 504.096 507.575 504.096 506.605C504.096 505.635 504.796 504.855 505.766 504.855C506.716 504.855 507.416 505.625 507.416 506.605C507.416 507.565 506.716 508.355 505.766 508.355ZM509.783 509.125H510.813V505.725C511.073 505.285 511.483 504.855 512.173 504.855C512.893 504.855 513.333 505.335 513.333 506.135V509.125H514.373V506.095C514.373 504.635 513.523 503.885 512.413 503.885C511.693 503.885 511.193 504.175 510.813 504.575V504.085H509.783V509.125ZM518.17 508.415C518.64 508.985 519.27 509.325 520.12 509.325C521.06 509.325 521.86 508.735 521.87 507.745C521.87 506.015 519.4 506.355 519.4 505.345C519.4 505.005 519.64 504.725 520.12 504.725C520.54 504.725 520.89 504.975 521.16 505.335L521.86 504.725C521.5 504.245 520.85 503.885 520.11 503.885C519.1 503.885 518.4 504.545 518.4 505.375C518.4 507.155 520.87 506.785 520.87 507.805C520.87 508.185 520.6 508.485 520.11 508.485C519.61 508.485 519.21 508.215 518.88 507.795L518.17 508.415ZM526.582 506.965C526.582 507.835 526.112 508.355 525.342 508.355C524.552 508.355 524.092 507.835 524.092 506.965V504.085H523.052V506.915C523.052 508.425 523.922 509.325 525.342 509.325C526.752 509.325 527.622 508.425 527.622 506.915V504.085H526.582V506.965ZM529.188 509.125H530.218V505.765C530.478 505.335 530.898 504.995 531.538 504.995C531.748 504.995 531.908 505.025 532.068 505.065V504.055C531.938 504.015 531.788 503.985 531.628 503.985C531.008 503.985 530.568 504.265 530.218 504.655V504.085H529.188V509.125ZM535.897 509.125H536.927V501.625H535.897V509.125ZM543.161 508.305L542.411 507.705C542.101 508.125 541.591 508.395 540.981 508.395C540.011 508.395 539.341 507.825 539.271 506.725H542.991C543.031 506.575 543.061 506.345 543.061 506.115C543.061 504.835 542.161 503.885 540.771 503.885C539.171 503.885 538.211 505.095 538.211 506.605C538.211 508.075 539.241 509.325 540.981 509.325C541.921 509.325 542.691 508.935 543.161 508.305ZM540.751 504.745C541.561 504.745 542.011 505.325 542.031 505.955H539.321C539.481 505.175 540.001 504.745 540.751 504.745ZM543.854 508.415C544.324 508.985 544.954 509.325 545.804 509.325C546.744 509.325 547.544 508.735 547.554 507.745C547.554 506.015 545.084 506.355 545.084 505.345C545.084 505.005 545.324 504.725 545.804 504.725C546.224 504.725 546.574 504.975 546.844 505.335L547.544 504.725C547.184 504.245 546.534 503.885 545.794 503.885C544.784 503.885 544.084 504.545 544.084 505.375C544.084 507.155 546.554 506.785 546.554 507.805C546.554 508.185 546.284 508.485 545.794 508.485C545.294 508.485 544.894 508.215 544.564 507.795L543.854 508.415ZM554.261 503.285L555.441 501.625H554.301L553.261 503.285H554.261ZM556.091 508.305L555.341 507.705C555.031 508.125 554.521 508.395 553.911 508.395C552.941 508.395 552.271 507.825 552.201 506.725H555.921C555.961 506.575 555.991 506.345 555.991 506.115C555.991 504.835 555.091 503.885 553.701 503.885C552.101 503.885 551.141 505.095 551.141 506.605C551.141 508.075 552.171 509.325 553.911 509.325C554.851 509.325 555.621 508.935 556.091 508.305ZM553.681 504.745C554.491 504.745 554.941 505.325 554.961 505.955H552.251C552.411 505.175 552.931 504.745 553.681 504.745ZM559.673 508.355C558.693 508.355 557.993 507.605 557.993 506.605C557.993 505.615 558.693 504.855 559.663 504.855C560.243 504.855 560.703 505.135 560.983 505.525L561.793 504.905C561.333 504.285 560.583 503.885 559.663 503.885C557.973 503.885 556.913 505.135 556.913 506.605C556.913 508.075 557.973 509.325 559.663 509.325C560.593 509.325 561.333 508.925 561.793 508.305L560.983 507.685C560.703 508.075 560.243 508.355 559.673 508.355ZM565.014 503.885C563.384 503.885 562.274 505.115 562.274 506.605C562.274 508.095 563.384 509.325 565.014 509.325C566.654 509.325 567.754 508.095 567.754 506.605C567.754 505.115 566.654 503.885 565.014 503.885ZM565.024 508.355C564.054 508.355 563.354 507.575 563.354 506.605C563.354 505.635 564.054 504.855 565.024 504.855C565.974 504.855 566.674 505.625 566.674 506.605C566.674 507.565 565.974 508.355 565.024 508.355ZM568.385 508.415C568.855 508.985 569.485 509.325 570.335 509.325C571.275 509.325 572.075 508.735 572.085 507.745C572.085 506.015 569.615 506.355 569.615 505.345C569.615 505.005 569.855 504.725 570.335 504.725C570.755 504.725 571.105 504.975 571.375 505.335L572.075 504.725C571.715 504.245 571.065 503.885 570.325 503.885C569.315 503.885 568.615 504.545 568.615 505.375C568.615 507.155 571.085 506.785 571.085 507.805C571.085 508.185 570.815 508.485 570.325 508.485C569.825 508.485 569.425 508.215 569.095 507.795L568.385 508.415ZM575.289 510.315L577.889 504.085H576.789L575.249 507.795L573.689 504.085H572.549L574.699 509.115L574.359 509.925C574.119 510.495 573.759 510.675 573.249 510.675C573.019 510.675 572.789 510.625 572.609 510.545V511.465C572.839 511.565 573.099 511.625 573.459 511.625C574.359 511.625 574.939 511.155 575.289 510.315ZM578.16 508.415C578.63 508.985 579.26 509.325 580.11 509.325C581.05 509.325 581.85 508.735 581.86 507.745C581.86 506.015 579.39 506.355 579.39 505.345C579.39 505.005 579.63 504.725 580.11 504.725C580.53 504.725 580.88 504.975 581.15 505.335L581.85 504.725C581.49 504.245 580.84 503.885 580.1 503.885C579.09 503.885 578.39 504.545 578.39 505.375C578.39 507.155 580.86 506.785 580.86 507.805C580.86 508.185 580.59 508.485 580.1 508.485C579.6 508.485 579.2 508.215 578.87 507.795L578.16 508.415ZM583.511 507.375C583.511 508.605 584.131 509.225 585.311 509.225C585.701 509.225 585.981 509.175 586.221 509.075V508.165C586.041 508.235 585.811 508.275 585.471 508.275C584.911 508.275 584.551 508.055 584.551 507.375V505.015H586.221V504.085H584.551V502.825H583.511V504.085H582.561V505.015H583.511V507.375ZM589.002 503.285H590.002L588.962 501.625H587.822L589.002 503.285ZM591.902 508.305L591.152 507.705C590.842 508.125 590.332 508.395 589.722 508.395C588.752 508.395 588.082 507.825 588.012 506.725H591.732C591.772 506.575 591.802 506.345 591.802 506.115C591.802 504.835 590.902 503.885 589.512 503.885C587.912 503.885 586.952 505.095 586.952 506.605C586.952 508.075 587.982 509.325 589.722 509.325C590.662 509.325 591.432 508.935 591.902 508.305ZM589.492 504.745C590.302 504.745 590.752 505.325 590.772 505.955H588.062C588.222 505.175 588.742 504.745 589.492 504.745ZM593.153 509.125H594.183V505.725C594.423 505.295 594.803 504.855 595.443 504.855C596.103 504.855 596.503 505.295 596.503 506.035V509.125H597.543V505.995C597.543 505.895 597.543 505.805 597.533 505.715C597.803 505.235 598.192 504.855 598.793 504.855C599.443 504.855 599.853 505.295 599.853 506.035V509.125H600.893V505.995C600.893 504.605 600.083 503.885 599.033 503.885C598.163 503.885 597.663 504.295 597.273 504.795C596.953 504.195 596.373 503.885 595.683 503.885C595.013 503.885 594.543 504.165 594.183 504.555V504.085H593.153V509.125ZM607.038 508.305L606.288 507.705C605.978 508.125 605.468 508.395 604.858 508.395C603.888 508.395 603.218 507.825 603.148 506.725H606.868C606.908 506.575 606.938 506.345 606.938 506.115C606.938 504.835 606.038 503.885 604.648 503.885C603.048 503.885 602.088 505.095 602.088 506.605C602.088 508.075 603.118 509.325 604.858 509.325C605.798 509.325 606.568 508.935 607.038 508.305ZM604.628 504.745C605.438 504.745 605.888 505.325 605.908 505.955H603.198C603.358 505.175 603.878 504.745 604.628 504.745ZM607.731 508.415C608.201 508.985 608.831 509.325 609.681 509.325C610.621 509.325 611.421 508.735 611.431 507.745C611.431 506.015 608.961 506.355 608.961 505.345C608.961 505.005 609.201 504.725 609.681 504.725C610.101 504.725 610.451 504.975 610.721 505.335L611.421 504.725C611.061 504.245 610.411 503.885 609.671 503.885C608.661 503.885 607.961 504.545 607.961 505.375C607.961 507.155 610.431 506.785 610.431 507.805C610.431 508.185 610.161 508.485 609.671 508.485C609.171 508.485 608.771 508.215 608.441 507.795L607.731 508.415Z" fill="#2A3070"/>
<path d="M651.82 546.16V545.753H653.328V544.239H653.748V545.753H655.252V546.16H653.748V547.664H653.328V546.16H651.82Z" fill="#2A3070"/>
<path d="M600.195 405C619.162 405 629.135 378.749 632.173 362.25C632.811 358.786 629.027 357.056 626.663 359.666C615.255 372.263 606.612 386.754 601.383 402.133C606.129 386.867 608.153 370.967 607.365 355.171C607.288 353.61 607.158 351.997 606.81 350.453C606.169 347.606 602.861 348.148 602.04 350.949C597.112 367.762 596.102 384.748 598.702 402.133C597.253 388.718 592 376.358 583.877 365.073C582.028 362.503 578.287 363.329 578.204 366.494C578.055 372.159 579.586 377.899 582.062 383.179C587.775 395.348 592.135 405 600.195 405Z" fill="#FACF35"/>
<path d="M201.969 114.998C201.969 114.998 212.288 81.1725 254.816 62.7817C280.068 51.863 306.608 53.6014 329.386 59.0976C350.179 64.1435 367.871 72.1549 377.661 80.0412C394.385 93.5614 425.974 124.149 414.499 169.169C402.424 216.543 364.651 229.783 321.903 244.086C279.155 258.388 263.854 279.201 257.075 305.797" stroke="#000091" stroke-opacity="0.06" stroke-width="52.4201" stroke-miterlimit="10" stroke-linecap="round"/>
<path d="M232.489 402.256C247.161 405.995 261.955 397.649 265.533 383.613C269.111 369.577 260.117 355.167 245.444 351.427C230.772 347.687 215.978 356.034 212.4 370.07C208.823 384.106 217.817 398.516 232.489 402.256Z" fill="#000091" fill-opacity="0.06"/>
<path d="M302.686 228.358C302.884 227.045 303.572 225.856 304.613 225.031L326.093 207.996C328 206.483 330.699 206.483 332.607 207.996L353.721 224.741C354.975 225.735 355.706 227.248 355.706 228.848V316.747C355.706 319.642 353.359 321.989 350.464 321.989H294.691C291.485 321.989 289.031 319.137 289.507 315.967L302.686 228.358Z" fill="#1EBE8E" stroke="#1EBE8E" stroke-width="1.96575"/>
<path d="M429.174 264.8V264.77C429.161 264.714 429.141 264.66 429.114 264.61C429.145 264.67 429.165 264.734 429.174 264.8ZM389.804 264.08C389.864 264.05 389.928 264.029 389.994 264.02H389.964C389.908 264.033 389.855 264.053 389.804 264.08Z" fill="black"/>
<path d="M309.037 185.864C309.037 183.412 307.668 181.165 305.489 180.041L269.375 161.411C265.014 159.161 259.819 162.327 259.819 167.234V317.507C259.819 321.126 262.752 324.059 266.371 324.059H302.485C306.104 324.059 309.037 321.126 309.037 317.507V185.864Z" fill="#2A3070"/>
<rect x="275.863" y="194.994" width="3.83363" height="10.223" rx="1.91681" fill="white"/>
<rect x="275.862" y="227.103" width="3.83363" height="10.223" rx="1.91681" fill="white"/>
<rect x="275.862" y="257.771" width="3.83363" height="10.223" rx="1.91681" fill="white"/>
<rect x="288.641" y="194.994" width="3.83363" height="10.223" rx="1.91681" fill="white"/>
<rect x="288.641" y="227.103" width="3.83363" height="10.223" rx="1.91681" fill="white"/>
<rect x="288.641" y="257.771" width="3.83363" height="10.223" rx="1.91681" fill="white"/>
<rect x="288.641" y="287.001" width="3.83363" height="10.223" rx="1.91681" fill="white"/>
<rect x="276.194" y="287.001" width="3.83363" height="10.223" rx="1.91681" fill="white"/>
<rect x="320.264" y="227.103" width="3.83363" height="10.223" rx="1.91681" fill="white"/>
<rect x="320.263" y="257.226" width="3.83363" height="10.223" rx="1.91681" fill="white"/>
<rect x="320.263" y="287.448" width="3.83363" height="10.223" rx="1.91681" fill="white"/>
<rect x="334.042" y="227.102" width="3.83363" height="10.223" rx="1.91681" fill="white"/>
<rect x="334.042" y="257.226" width="3.83363" height="10.223" rx="1.91681" fill="white"/>
<rect x="334.042" y="287.448" width="3.83363" height="10.223" rx="1.91681" fill="white"/>
<path d="M359.372 44.1329C361.596 52.7377 356.423 61.5158 347.818 63.7393C339.213 65.9628 330.435 60.7897 328.211 52.1848" stroke="#FACF35" stroke-width="10"/>
<circle cx="230.373" cy="52.2034" r="10.0877" transform="rotate(-158.203 230.373 52.2034)" stroke="#1EBE8E" stroke-width="6"/>
<circle cx="300.702" cy="108.508" r="9.81143" transform="rotate(-44.4883 300.702 108.508)" stroke="#6672F8" stroke-width="6.55251"/>
<path d="M224.883 149.687C221.929 154.3 215.794 155.645 211.181 152.691C206.567 149.737 205.222 143.602 208.176 138.989" stroke="#1EBE8E" stroke-width="6.55251"/>
<path d="M210.399 251.178C220.074 247.06 233.02 236.313 236.249 221.333C247.952 222.064 257.325 221.966 264.803 221.276C262.083 230.351 259.882 237.565 253.744 242.497C252.528 243.54 251.411 244.346 250.377 244.952C247.037 247.151 243.999 248.464 242.243 248.665C236.771 249.293 226.868 250.407 210.399 251.178Z" fill="#FCA081"/>
<path d="M242.235 248.543C236.762 249.17 226.859 250.285 210.39 251.055C218.363 249.744 232.4 246.65 237.219 242.13C240.723 244.611 243.909 248.618 250.369 244.829C251.47 244.104 252.604 243.283 253.736 242.374C252.52 243.417 251.403 244.223 250.369 244.829C247.028 247.028 243.99 248.341 242.235 248.543Z" fill="#DE6D47"/>
<path d="M240.038 178.423C229.253 182.732 210.745 184.394 196.551 175.174C187.954 184.859 180.536 192.08 174.141 197.362C183.338 202.354 190.679 206.29 199.327 205.374C201.091 205.244 202.594 205.005 203.875 204.676C208.204 203.797 211.606 202.46 213.138 201.251C217.913 197.481 226.538 190.643 240.038 178.423Z" fill="#FCA081"/>
<path d="M213.049 201.149C217.824 197.38 226.449 190.541 239.949 178.322C232.683 183.503 219.279 192.009 211.984 192.22C211.172 196.892 211.797 202.512 203.786 204.574C202.359 204.863 200.832 205.103 199.237 205.272C201.002 205.143 202.505 204.904 203.786 204.574C208.115 203.695 211.517 202.358 213.049 201.149Z" fill="#DE6D47"/>
<path d="M361.75 165.349C372.534 169.658 391.043 171.32 405.236 162.1C413.834 171.785 421.252 179.006 427.647 184.288C418.45 189.28 411.109 193.216 402.461 192.3C400.697 192.17 399.194 191.931 397.913 191.602C393.584 190.723 390.182 189.386 388.65 188.177C383.875 184.407 375.25 177.569 361.75 165.349Z" fill="#FCA081"/>
<path d="M388.739 188.074C383.964 184.305 375.339 177.467 361.839 165.247C369.104 170.428 382.509 178.935 389.803 179.146C390.616 183.817 389.991 189.437 398.002 191.499C399.428 191.789 400.956 192.028 402.55 192.197C400.785 192.068 399.283 191.829 398.002 191.499C393.672 190.621 390.27 189.284 388.739 188.074Z" fill="#DE6D47"/>
<path fill-rule="evenodd" clip-rule="evenodd" d="M185.686 115.894H130.793C130.404 114.643 130.193 113.31 130.193 111.926C130.193 105.274 135.055 99.7977 141.301 99.0946C143.968 93.1344 149.798 89 156.562 89C162.32 89 167.401 91.9959 170.431 96.5637C171.429 96.3455 172.467 96.2302 173.534 96.2302C181.194 96.2302 187.402 102.169 187.402 109.495C187.402 111.815 186.78 113.996 185.686 115.894Z" fill="white"/>
<path fill-rule="evenodd" clip-rule="evenodd" d="M285.006 165.524H353.679C354.657 163.032 355.193 160.327 355.193 157.5C355.193 145.074 344.838 135 332.065 135C323.127 135 315.374 139.931 311.523 147.15C308.683 145.169 305.187 144 301.406 144C291.9 144 284.194 151.387 284.194 160.5C284.194 162.252 284.479 163.94 285.006 165.524Z" fill="white"/>
<path fill-rule="evenodd" clip-rule="evenodd" d="M309.699 98.9975C309.824 98.8 309.945 98.5999 310.063 98.3974C310.282 98.605 310.508 98.8052 310.741 98.9975H327.646C330.43 96.705 332.194 93.3006 332.194 89.5C332.194 82.5964 326.374 77 319.194 77C315.962 77 313.005 78.1341 310.731 80.0109C307.698 73.7683 301.453 69.4851 294.241 69.4851C288.83 69.4851 283.963 71.8966 280.589 75.7379C278.353 74.6243 275.844 74 273.194 74C263.805 74 256.194 81.835 256.194 91.5C256.194 94.183 256.78 96.725 257.829 98.9975H309.699Z" fill="white"/>
<path fill-rule="evenodd" clip-rule="evenodd" d="M472.033 136.525H400.348C399.603 134.815 399.193 132.951 399.193 131C399.193 122.716 406.58 116 415.693 116C417.548 116 419.331 116.278 420.995 116.791C424.151 110.956 430.181 107.012 437.102 107.012C443.736 107.012 449.553 110.638 452.803 116.079C454.616 115.35 456.608 114.947 458.699 114.947C467.104 114.947 473.917 121.464 473.917 129.504C473.917 132.05 473.234 134.443 472.033 136.525Z" fill="white"/>
<path d="M385.693 99.0029L402.192 115.501L391.05 126.643L374.552 110.145L385.693 99.0029Z" fill="#2A3070"/>
<circle cx="396.938" cy="121.389" r="7.87832" transform="rotate(45 396.938 121.389)" fill="#6672F8"/>
<circle cx="380.057" cy="104.508" r="7.87832" transform="rotate(45 380.057 104.508)" fill="#FACF35"/>
<path d="M145.931 107.947V108.871H146.8L146.25 110.895H147.284L147.834 108.871H149.638L149.088 110.895H150.122L150.672 108.871H152.553V107.947H150.936L151.42 106.143H152.553V105.219H151.684L152.234 103.195H151.2L150.65 105.219H148.846L149.396 103.195H148.362L147.812 105.219H145.931V106.143H147.548L147.064 107.947H145.931ZM148.098 107.947L148.582 106.143H150.386L149.902 107.947H148.098ZM154.145 110.895H155.399V107.639H156.323C156.367 107.639 156.411 107.639 156.466 107.639L158.611 110.895H160.107L157.665 107.386C158.468 107.045 158.93 106.352 158.93 105.417C158.93 104.053 157.94 103.195 156.323 103.195H154.145V110.895ZM156.389 104.262C157.17 104.262 157.621 104.702 157.621 105.395C157.621 106.132 157.17 106.572 156.389 106.572H155.399V104.262H156.389ZM160.651 109.828C161.333 110.653 162.18 111.115 163.39 111.115C164.765 111.115 165.832 110.246 165.854 108.871C165.854 106.275 162.268 106.671 162.268 105.087C162.268 104.504 162.697 104.097 163.368 104.097C163.995 104.097 164.523 104.46 164.974 105.087L165.909 104.251C165.293 103.481 164.468 102.975 163.357 102.975C161.96 102.975 160.981 103.943 160.981 105.12C160.981 107.694 164.567 107.309 164.567 108.904C164.567 109.553 164.127 109.982 163.368 109.982C162.697 109.982 162.081 109.619 161.575 108.981L160.651 109.828ZM167.756 110.895H172.046V109.828H169.01V107.507H171.606V106.44H169.01V104.262H172.046V103.195H167.756V110.895Z" fill="#2A3070"/>
<path d="M264.601 88.1836V89.1076H265.47L264.92 91.1316H265.954L266.504 89.1076H268.308L267.758 91.1316H268.792L269.342 89.1076H271.223V88.1836H269.606L270.09 86.3796H271.223V85.4556H270.354L270.904 83.4316H269.87L269.32 85.4556H267.516L268.066 83.4316H267.032L266.482 85.4556H264.601V86.3796H266.218L265.734 88.1836H264.601ZM266.768 88.1836L267.252 86.3796H269.056L268.572 88.1836H266.768ZM272.552 91.1316H273.685V87.4356C273.971 86.9626 274.433 86.5886 275.137 86.5886C275.368 86.5886 275.544 86.6216 275.72 86.6656V85.5546C275.577 85.5106 275.412 85.4776 275.236 85.4776C274.554 85.4776 274.07 85.7856 273.685 86.2146V85.5876H272.552V91.1316ZM281.682 90.2296L280.857 89.5696C280.516 90.0316 279.955 90.3286 279.284 90.3286C278.217 90.3286 277.48 89.7016 277.403 88.4916H281.495C281.539 88.3266 281.572 88.0736 281.572 87.8206C281.572 86.4126 280.582 85.3676 279.053 85.3676C277.293 85.3676 276.237 86.6986 276.237 88.3596C276.237 89.9766 277.37 91.3516 279.284 91.3516C280.318 91.3516 281.165 90.9226 281.682 90.2296ZM279.031 86.3136C279.922 86.3136 280.417 86.9516 280.439 87.6446H277.458C277.634 86.7866 278.206 86.3136 279.031 86.3136ZM285.621 90.2846C284.543 90.2846 283.773 89.4596 283.773 88.3596C283.773 87.2706 284.543 86.4346 285.61 86.4346C286.248 86.4346 286.754 86.7426 287.062 87.1716L287.953 86.4896C287.447 85.8076 286.622 85.3676 285.61 85.3676C283.751 85.3676 282.585 86.7426 282.585 88.3596C282.585 89.9766 283.751 91.3516 285.61 91.3516C286.633 91.3516 287.447 90.9116 287.953 90.2296L287.062 89.5476C286.754 89.9766 286.248 90.2846 285.621 90.2846ZM291.295 92.4406L294.155 85.5876H292.945L291.251 89.6686L289.535 85.5876H288.281L290.646 91.1206L290.272 92.0116C290.008 92.6386 289.612 92.8366 289.051 92.8366C288.798 92.8366 288.545 92.7816 288.347 92.6936V93.7056C288.6 93.8156 288.886 93.8816 289.282 93.8816C290.272 93.8816 290.91 93.3646 291.295 92.4406ZM297.642 90.2846C296.564 90.2846 295.794 89.4596 295.794 88.3596C295.794 87.2706 296.564 86.4346 297.631 86.4346C298.269 86.4346 298.775 86.7426 299.083 87.1716L299.974 86.4896C299.468 85.8076 298.643 85.3676 297.631 85.3676C295.772 85.3676 294.606 86.7426 294.606 88.3596C294.606 89.9766 295.772 91.3516 297.631 91.3516C298.654 91.3516 299.468 90.9116 299.974 90.2296L299.083 89.5476C298.775 89.9766 298.269 90.2846 297.642 90.2846ZM301.158 91.1316H302.291V82.8816H301.158V91.1316ZM305.673 91.2966C306.355 91.2966 307.048 90.9886 307.444 90.5046V91.1316H308.577V87.4686C308.577 86.2476 307.752 85.3676 306.256 85.3676C305.266 85.3676 304.474 85.7856 303.979 86.4456L304.826 87.0946C305.145 86.6436 305.618 86.3686 306.223 86.3686C306.938 86.3686 307.444 86.7866 307.444 87.4686V87.7546L305.651 88.0516C304.474 88.2496 303.825 88.8546 303.825 89.6906C303.825 90.6696 304.573 91.2966 305.673 91.2966ZM304.969 89.6466C304.969 89.2286 305.255 88.9316 305.948 88.8106L307.444 88.5576V89.5146C307.114 90.0426 306.575 90.3726 305.882 90.3726C305.31 90.3726 304.969 90.0756 304.969 89.6466ZM309.759 92.1216C309.759 93.2546 310.815 93.8816 312.52 93.8816C314.203 93.8816 315.369 92.9796 315.369 91.7806C315.369 90.7796 314.654 90.0426 313.224 90.0426H311.717C311.42 90.0426 311.299 89.9106 311.299 89.6796C311.299 89.5146 311.398 89.3496 311.574 89.2066C311.783 89.2506 312.003 89.2836 312.245 89.2836C313.62 89.2836 314.445 88.3926 314.445 87.3146C314.445 87.0506 314.39 86.7866 314.291 86.5556H315.38V85.5876H313.334C313.026 85.4446 312.663 85.3676 312.245 85.3676C310.892 85.3676 310.067 86.2476 310.067 87.3146C310.067 87.9306 310.342 88.4916 310.826 88.8546C310.397 89.1516 310.188 89.5036 310.188 89.9436C310.188 90.2296 310.309 90.5266 310.551 90.7356C310.034 91.1206 309.759 91.5606 309.759 92.1216ZM312.256 88.4146C311.541 88.4146 311.123 87.9416 311.123 87.3146C311.123 86.6986 311.541 86.2366 312.256 86.2366C312.971 86.2366 313.389 86.6986 313.389 87.3146C313.389 87.9416 312.971 88.4146 312.256 88.4146ZM310.837 91.9676C310.837 91.5716 311.046 91.2746 311.354 91.0326H313.114C313.961 91.0326 314.236 91.4066 314.236 91.8796C314.236 92.5286 313.598 92.9576 312.498 92.9576C311.453 92.9576 310.837 92.5836 310.837 91.9676ZM321.224 90.2296L320.399 89.5696C320.058 90.0316 319.497 90.3286 318.826 90.3286C317.759 90.3286 317.022 89.7016 316.945 88.4916H321.037C321.081 88.3266 321.114 88.0736 321.114 87.8206C321.114 86.4126 320.124 85.3676 318.595 85.3676C316.835 85.3676 315.779 86.6986 315.779 88.3596C315.779 89.9766 316.912 91.3516 318.826 91.3516C319.86 91.3516 320.707 90.9226 321.224 90.2296ZM318.573 86.3136C319.464 86.3136 319.959 86.9516 319.981 87.6446H317C317.176 86.7866 317.748 86.3136 318.573 86.3136Z" fill="#2A3070"/>
<path d="M411.6 127.711V128.635H412.469L411.919 130.659H412.953L413.503 128.635H415.307L414.757 130.659H415.791L416.341 128.635H418.222V127.711H416.605L417.089 125.907H418.222V124.983H417.353L417.903 122.959H416.869L416.319 124.983H414.515L415.065 122.959H414.031L413.481 124.983H411.6V125.907H413.217L412.733 127.711H411.6ZM413.767 127.711L414.251 125.907H416.055L415.571 127.711H413.767ZM419.551 130.659H420.684V126.919C420.948 126.446 421.366 125.962 422.07 125.962C422.796 125.962 423.236 126.446 423.236 127.26V130.659H424.38V127.216C424.38 127.106 424.38 127.007 424.369 126.908C424.666 126.38 425.095 125.962 425.755 125.962C426.47 125.962 426.921 126.446 426.921 127.26V130.659H428.065V127.216C428.065 125.687 427.174 124.895 426.019 124.895C425.062 124.895 424.512 125.346 424.083 125.896C423.731 125.236 423.093 124.895 422.334 124.895C421.597 124.895 421.08 125.203 420.684 125.632V125.115H419.551V130.659ZM432.394 124.895C430.601 124.895 429.38 126.248 429.38 127.887C429.38 129.526 430.601 130.879 432.394 130.879C434.198 130.879 435.408 129.526 435.408 127.887C435.408 126.248 434.198 124.895 432.394 124.895ZM432.405 129.812C431.338 129.812 430.568 128.954 430.568 127.887C430.568 126.82 431.338 125.962 432.405 125.962C433.45 125.962 434.22 126.809 434.22 127.887C434.22 128.943 433.45 129.812 432.405 129.812ZM442.654 127.887C442.654 126.27 441.565 124.895 439.827 124.895C439.024 124.895 438.43 125.181 437.957 125.687V122.409H436.824V130.659H437.957V130.087C438.43 130.593 439.024 130.879 439.827 130.879C441.565 130.879 442.654 129.504 442.654 127.887ZM439.684 125.962C440.751 125.962 441.466 126.798 441.466 127.887C441.466 128.976 440.751 129.812 439.684 129.812C438.969 129.812 438.364 129.482 437.957 128.877V126.897C438.342 126.303 438.958 125.962 439.684 125.962ZM444.647 123.883C445.065 123.883 445.417 123.531 445.417 123.113C445.417 122.695 445.065 122.343 444.647 122.343C444.229 122.343 443.877 122.695 443.877 123.113C443.877 123.531 444.229 123.883 444.647 123.883ZM444.075 130.659H445.208V125.115H444.075V130.659ZM447.061 130.659H448.194V122.409H447.061V130.659ZM450.62 123.883C451.038 123.883 451.39 123.531 451.39 123.113C451.39 122.695 451.038 122.343 450.62 122.343C450.202 122.343 449.85 122.695 449.85 123.113C449.85 123.531 450.202 123.883 450.62 123.883ZM450.048 130.659H451.181V125.115H450.048V130.659ZM453.364 128.734C453.364 130.087 454.046 130.769 455.344 130.769C455.773 130.769 456.081 130.714 456.345 130.604V129.603C456.147 129.68 455.894 129.724 455.52 129.724C454.904 129.724 454.508 129.482 454.508 128.734V126.138H456.345V125.115H454.508V123.729H453.364V125.115H452.319V126.138H453.364V128.734ZM460.581 124.235L461.879 122.409H460.625L459.481 124.235H460.581ZM462.594 129.757L461.769 129.097C461.428 129.559 460.867 129.856 460.196 129.856C459.129 129.856 458.392 129.229 458.315 128.019H462.407C462.451 127.854 462.484 127.601 462.484 127.348C462.484 125.94 461.494 124.895 459.965 124.895C458.205 124.895 457.149 126.226 457.149 127.887C457.149 129.504 458.282 130.879 460.196 130.879C461.23 130.879 462.077 130.45 462.594 129.757ZM459.943 125.841C460.834 125.841 461.329 126.479 461.351 127.172H458.37C458.546 126.314 459.118 125.841 459.943 125.841Z" fill="#2A3070"/>
<path d="M290.601 157.71V158.634H291.47L290.92 160.658H291.954L292.504 158.634H294.308L293.758 160.658H294.792L295.342 158.634H297.223V157.71H295.606L296.09 155.906H297.223V154.982H296.354L296.904 152.958H295.87L295.32 154.982H293.516L294.066 152.958H293.032L292.482 154.982H290.601V155.906H292.218L291.734 157.71H290.601ZM292.768 157.71L293.252 155.906H295.056L294.572 157.71H292.768ZM298.069 157.886C298.069 159.503 299.158 160.878 300.907 160.878C301.699 160.878 302.293 160.592 302.755 160.097V160.658H303.91V152.408H302.755V155.675C302.293 155.18 301.699 154.894 300.907 154.894C299.158 154.894 298.069 156.269 298.069 157.886ZM299.268 157.886C299.268 156.797 299.983 155.961 301.05 155.961C301.743 155.961 302.348 156.28 302.755 156.885V158.887C302.381 159.47 301.765 159.811 301.05 159.811C299.983 159.811 299.268 158.975 299.268 157.886ZM309.5 158.282C309.5 159.239 308.983 159.811 308.136 159.811C307.267 159.811 306.761 159.239 306.761 158.282V155.114H305.617V158.227C305.617 159.888 306.574 160.878 308.136 160.878C309.687 160.878 310.644 159.888 310.644 158.227V155.114H309.5V158.282ZM312.366 160.658H313.499V156.962C313.785 156.489 314.247 156.115 314.951 156.115C315.182 156.115 315.358 156.148 315.534 156.192V155.081C315.391 155.037 315.226 155.004 315.05 155.004C314.368 155.004 313.884 155.312 313.499 155.741V155.114H312.366V160.658ZM318.052 160.823C318.734 160.823 319.427 160.515 319.823 160.031V160.658H320.956V156.995C320.956 155.774 320.131 154.894 318.635 154.894C317.645 154.894 316.853 155.312 316.358 155.972L317.205 156.621C317.524 156.17 317.997 155.895 318.602 155.895C319.317 155.895 319.823 156.313 319.823 156.995V157.281L318.03 157.578C316.853 157.776 316.204 158.381 316.204 159.217C316.204 160.196 316.952 160.823 318.052 160.823ZM317.348 159.173C317.348 158.755 317.634 158.458 318.327 158.337L319.823 158.084V159.041C319.493 159.569 318.954 159.899 318.261 159.899C317.689 159.899 317.348 159.602 317.348 159.173ZM328.562 157.886C328.562 156.269 327.473 154.894 325.735 154.894C324.932 154.894 324.338 155.18 323.865 155.686V152.408H322.732V160.658H323.865V160.086C324.338 160.592 324.932 160.878 325.735 160.878C327.473 160.878 328.562 159.503 328.562 157.886ZM325.592 155.961C326.659 155.961 327.374 156.797 327.374 157.886C327.374 158.975 326.659 159.811 325.592 159.811C324.877 159.811 324.272 159.481 323.865 158.876V156.896C324.25 156.302 324.866 155.961 325.592 155.961ZM330.555 153.882C330.973 153.882 331.325 153.53 331.325 153.112C331.325 152.694 330.973 152.342 330.555 152.342C330.137 152.342 329.785 152.694 329.785 153.112C329.785 153.53 330.137 153.882 330.555 153.882ZM329.983 160.658H331.116V155.114H329.983V160.658ZM332.97 160.658H334.103V152.408H332.97V160.658ZM336.528 153.882C336.946 153.882 337.298 153.53 337.298 153.112C337.298 152.694 336.946 152.342 336.528 152.342C336.11 152.342 335.758 152.694 335.758 153.112C335.758 153.53 336.11 153.882 336.528 153.882ZM335.956 160.658H337.089V155.114H335.956V160.658ZM339.272 158.733C339.272 160.086 339.954 160.768 341.252 160.768C341.681 160.768 341.989 160.713 342.253 160.603V159.602C342.055 159.679 341.802 159.723 341.428 159.723C340.812 159.723 340.416 159.481 340.416 158.733V156.137H342.253V155.114H340.416V153.728H339.272V155.114H338.227V156.137H339.272V158.733ZM346.489 154.234L347.787 152.408H346.533L345.389 154.234H346.489ZM348.502 159.756L347.677 159.096C347.336 159.558 346.775 159.855 346.104 159.855C345.037 159.855 344.3 159.228 344.223 158.018H348.315C348.359 157.853 348.392 157.6 348.392 157.347C348.392 155.939 347.402 154.894 345.873 154.894C344.113 154.894 343.057 156.225 343.057 157.886C343.057 159.503 344.19 160.878 346.104 160.878C347.138 160.878 347.985 160.449 348.502 159.756ZM345.851 155.84C346.742 155.84 347.237 156.478 347.259 157.171H344.278C344.454 156.313 345.026 155.84 345.851 155.84Z" fill="#2A3070"/>
<path d="M265.612 152.125C258.843 147.547 253.622 140.497 248.669 134.097C246.144 130.835 244.032 127.009 243.269 122.909C242.345 117.952 244.082 115.812 249.074 115.732C252.138 115.682 254.593 117.585 255.216 120.854C256.029 125.113 252.63 125.786 248.939 126.313C236.111 128.142 230.13 118.258 237.598 106.735C243.653 97.3925 249.163 89.4568 250.424 78.1252" stroke="black" stroke-linecap="round" stroke-linejoin="round"/>
<path d="M323.612 173.901C342.099 182.331 381.194 216 386.659 169.508C392.123 123.016 348.194 208.5 422.694 138.5" stroke="black" stroke-linecap="round" stroke-linejoin="round"/>
<path d="M333.194 119C354.194 71.5 392.694 83 408.277 48.1074" stroke="black" stroke-linecap="round" stroke-linejoin="round"/>
<path d="M254.612 177.125C249.083 172.075 235.321 157.119 226.476 164.49C220.489 169.479 215.373 174.25 211.23 164.456C208.255 157.425 205.342 151.618 197.33 150.166C189.515 148.749 180.862 149.76 172.929 149.76C162.777 149.76 156.118 142.312 159.501 132.125" stroke="black" stroke-linecap="round" stroke-linejoin="round"/>
<path d="M512.693 561.5C479.693 611 365.193 618 316.194 599.116" stroke="black"/>
<path d="M318.386 604.559C318.008 603.859 315.004 599.775 315.356 598.641C315.753 597.358 321.67 596.452 322.523 596.962" stroke="black" stroke-linecap="round" stroke-linejoin="round"/>
<path d="M255.112 534.625C255.112 584.422 214.95 624.625 165.612 624.625C116.273 624.625 76.1118 584.422 76.1118 534.625C76.1118 484.828 116.273 444.625 165.612 444.625C214.95 444.625 255.112 484.828 255.112 534.625Z" stroke="#1EBE8E" stroke-width="43"/>
<ellipse cx="31.7053" cy="572.161" rx="18.9092" ry="45.5088" transform="rotate(-17.2604 31.7053 572.161)" fill="#6672F8"/>
<path d="M45.7536 646.283C46.1817 627.215 40.2144 581.928 26.9143 555.328" stroke="#2A3070" stroke-width="1.4" stroke-linecap="round"/>
<path d="M27.0307 578.637C29.612 580.179 35.469 584.106 38.2475 587.477C41.1863 578.45 42.3429 574.797 42.5539 574.099" stroke="#2A3070" stroke-width="1.4" stroke-linecap="round"/>
<path d="M21.7661 564.766C24.4833 566.053 30.69 569.4 33.7791 572.489C35.8384 563.222 36.6393 559.475 36.7823 558.76" stroke="#2A3070" stroke-width="1.4" stroke-linecap="round"/>
<path d="M101.482 406.737C101.226 403.815 103.529 401.302 106.463 401.302H173.566C176.159 401.302 178.322 403.283 178.547 405.866L186.439 496.092C186.694 499.014 184.391 501.527 181.458 501.527H114.354C111.762 501.527 109.599 499.546 109.373 496.963L101.482 406.737Z" fill="#2A3070"/>
<path d="M104.092 406.743C103.833 403.819 106.137 401.302 109.073 401.302H176.175C178.766 401.302 180.927 403.28 181.156 405.86L189.036 494.784C189.295 497.709 186.991 500.226 184.055 500.226H116.953C114.362 500.226 112.201 498.247 111.972 495.667L104.092 406.743Z" fill="white"/>
<path d="M117.115 417.162C116.853 414.236 119.157 411.715 122.095 411.715H165.821C168.409 411.715 170.569 413.69 170.801 416.267L173.409 445.316C173.672 448.243 171.367 450.764 168.429 450.764H124.704C122.116 450.764 119.955 448.789 119.724 446.211L117.115 417.162Z" fill="#F2F2FA"/>
<line x1="122.483" y1="464.432" x2="175.851" y2="464.432" stroke="#6672F8" stroke-width="1.3" stroke-linecap="round"/>
<line x1="123.785" y1="474.845" x2="177.153" y2="474.845" stroke="#6672F8" stroke-width="1.3" stroke-linecap="round"/>
<line x1="125.086" y1="485.258" x2="165.439" y2="485.258" stroke="#6672F8" stroke-width="1.3" stroke-linecap="round"/>
<path d="M44.0365 545.2C43.7809 542.278 46.0841 539.764 49.0174 539.764H122.132C124.725 539.764 126.887 541.746 127.113 544.329L135.688 642.364C135.943 645.286 133.64 647.8 130.707 647.8H57.592C54.9994 647.8 52.8369 645.818 52.611 643.236L44.0365 545.2Z" fill="#2A3070"/>
<path d="M46.7481 545.205C46.4889 542.281 48.7929 539.764 51.7285 539.764H124.842C127.433 539.764 129.594 541.743 129.823 544.323L138.386 640.956C138.645 643.88 136.341 646.397 133.405 646.397H60.2916C57.7012 646.397 55.5397 644.418 55.3111 641.838L46.7481 545.205Z" fill="white"/>
<path d="M60.7858 556.436C60.523 553.51 62.8278 550.989 65.7657 550.989H113.681C116.269 550.989 118.429 552.964 118.66 555.542L121.542 587.633C121.805 590.56 119.5 593.081 116.562 593.081H68.6474C66.0593 593.081 63.899 591.106 63.6675 588.528L60.7858 556.436Z" fill="#F2F2FA"/>
<line x1="66.5587" y1="607.864" x2="124.187" y2="607.864" stroke="#6672F8" stroke-width="1.3" stroke-linecap="round"/>
<line x1="67.962" y1="619.089" x2="125.591" y2="619.089" stroke="#6672F8" stroke-width="1.3" stroke-linecap="round"/>
<line x1="69.3653" y1="630.313" x2="112.963" y2="630.313" stroke="#6672F8" stroke-width="1.3" stroke-linecap="round"/>
<mask id="mask0" mask-type="alpha" maskUnits="userSpaceOnUse" x="60" y="551" width="62" height="43">
<path d="M60.9711 556.926C60.7083 554 63.0131 551.479 65.951 551.479H113.866C116.454 551.479 118.614 553.454 118.846 556.032L121.728 588.123C121.99 591.05 119.686 593.571 116.748 593.571H68.8327C66.2446 593.571 64.0843 591.596 63.8528 589.018L60.9711 556.926Z" fill="#F2F2FA"/>
</mask>
<g mask="url(#mask0)">
<circle cx="102.453" cy="581.575" r="10.906" stroke="#1EBE8E" stroke-width="1.3"/>
<circle cx="69.4351" cy="581.575" r="10.906" stroke="#1EBE8E" stroke-width="1.3"/>
<path d="M97.912 562.177H93.1658L102.452 581.369" stroke="#2A3070" stroke-width="1.3" stroke-linecap="round"/>
<path d="M74.3872 559.289L84.086 578.273" stroke="#2A3070" stroke-width="1.3"/>
<path d="M86.9753 578.479L95.436 566.717" stroke="#2A3070" stroke-width="1.3"/>
<path d="M94.4049 564.86H77.0709L69.6421 581.369" stroke="#2A3070" stroke-width="1.3"/>
<line x1="72.148" y1="559.051" x2="77.0387" y2="559.051" stroke="#2A3070" stroke-width="1.3" stroke-linecap="round"/>
<circle cx="85.3244" cy="580.956" r="3.09535" stroke="#2A3070" stroke-width="1.3"/>
<path d="M69.4351 581.265H82.4355" stroke="#2A3070" stroke-width="1.3"/>
</g>
<rect x="505.193" y="520.26" width="16.9213" height="16.9213" rx="8.46063" fill="#F2F2FA"/>
<path opacity="0.6" d="M509.598 529.227V528.239H513.259V524.562H514.28V528.239H517.932V529.227H514.28V532.879H513.259V529.227H509.598Z" fill="#2A3070"/>
<path d="M303.537 487.439C303.792 484.516 301.489 482.003 298.556 482.003H220.432C217.839 482.003 215.677 483.985 215.451 486.567L206.307 591.111C206.052 594.033 208.355 596.547 211.288 596.547H289.412C292.005 596.547 294.167 594.565 294.393 591.983L303.537 487.439Z" fill="#2A3070"/>
<path d="M300.741 488.746C301 485.822 298.696 483.304 295.76 483.304H217.638C215.047 483.304 212.886 485.283 212.657 487.863L203.525 590.919C203.266 593.844 205.57 596.361 208.505 596.361H286.628C289.219 596.361 291.38 594.382 291.609 591.802L300.741 488.746Z" fill="white"/>
<path d="M285.858 500.652C286.121 497.726 283.816 495.205 280.878 495.205H229.472C226.884 495.205 224.724 497.18 224.492 499.758L221.383 534.385C221.12 537.312 223.425 539.833 226.363 539.833H277.769C280.357 539.833 282.517 537.858 282.749 535.28L285.858 500.652Z" fill="#F2F2FA"/>
<line x1="0.65" y1="-0.65" x2="61.8285" y2="-0.65" transform="matrix(-1 0 0 1 280.397 556.196)" stroke="#6672F8" stroke-width="1.3" stroke-linecap="round"/>
<line x1="0.65" y1="-0.65" x2="61.8285" y2="-0.65" transform="matrix(-1 0 0 1 278.908 568.097)" stroke="#6672F8" stroke-width="1.3" stroke-linecap="round"/>
<line x1="0.65" y1="-0.65" x2="46.9527" y2="-0.65" transform="matrix(-1 0 0 1 262.796 579.997)" stroke="#6672F8" stroke-width="1.3" stroke-linecap="round"/>
<path fill-rule="evenodd" clip-rule="evenodd" d="M267.739 439.273C266.841 440.746 264.735 440.298 264.514 438.587C263.658 431.949 263.931 424.607 265.532 417.08C267.133 409.553 269.872 402.735 273.356 397.02C274.254 395.547 276.36 395.995 276.581 397.706C277.437 404.344 277.164 411.686 275.563 419.213C273.962 426.74 271.223 433.559 267.739 439.273Z" fill="#FCA081"/>
<path fill-rule="evenodd" clip-rule="evenodd" d="M263.421 439.594C265.23 439.552 265.927 441.698 264.439 442.727C259.143 446.39 252.79 449.552 245.707 451.852C238.624 454.152 231.625 455.327 225.188 455.474C223.379 455.516 222.682 453.37 224.17 452.34C229.465 448.678 235.819 445.516 242.902 443.216C249.985 440.915 256.984 439.741 263.421 439.594Z" fill="#6672F8"/>
<path fill-rule="evenodd" clip-rule="evenodd" d="M301.041 468.866C302.047 470.37 300.609 472.11 298.942 471.405C293.011 468.9 286.934 465.234 281.194 460.49C275.454 455.745 270.709 450.467 267.132 445.114C266.127 443.609 267.565 441.87 269.232 442.574C275.163 445.079 281.239 448.746 286.979 453.49C292.72 458.234 297.464 463.512 301.041 468.866Z" fill="#1EBE8E"/>
<circle r="4.0228" transform="matrix(-0.978116 -0.208058 -0.208058 0.978116 265.624 441.226)" fill="#2A3070" stroke="#2A3070"/>
<path d="M265.694 442C265.694 473.568 262.905 508.435 261.341 540" stroke="#2A3070" stroke-width="1.3"/>
<line x1="251.844" y1="525" x2="251.844" y2="540" stroke="#2A3070" stroke-width="1.3"/>
<path d="M228.707 514.799C226.464 511.478 228.843 507 232.85 507H261.68C263.341 507 264.893 507.825 265.823 509.201L271.951 518.272C274.194 521.593 271.815 526.071 267.807 526.071H238.978C237.317 526.071 235.764 525.246 234.835 523.87L228.707 514.799Z" fill="#000091"/>
<path d="M230.423 514.799C228.179 511.478 230.558 507 234.566 507H263.395C265.056 507 266.609 507.825 267.538 509.201L273.666 518.272C275.909 521.593 273.53 526.071 269.523 526.071H240.693C239.032 526.071 237.48 525.246 236.55 523.87L230.423 514.799Z" fill="#FCA081"/>
<line x1="229.35" y1="512.543" x2="270.162" y2="512.543" stroke="white" stroke-width="1.5"/>
<line x1="233.736" y1="518.837" x2="274.738" y2="518.837" stroke="white" stroke-width="1.5"/>
<line x1="233.98" y1="506.583" x2="246.757" y2="525.717" stroke="white" stroke-width="1.5"/>
<line x1="242.18" y1="506.583" x2="254.957" y2="525.717" stroke="white" stroke-width="1.5"/>
<line x1="250.38" y1="506.583" x2="263.158" y2="525.717" stroke="white" stroke-width="1.5"/>
<line x1="258.58" y1="506.583" x2="271.358" y2="525.717" stroke="white" stroke-width="1.5"/>
<circle cx="284.193" cy="500" r="10" fill="#FACF35"/>
<path d="M286.993 496.309C286.282 495.76 285.406 495.437 284.458 495.437C282.078 495.437 280.148 497.48 280.148 500C280.148 502.52 282.078 504.564 284.458 504.564C285.406 504.564 286.282 504.24 286.993 503.691" stroke="white" stroke-width="1.3" stroke-linecap="round"/>
<line x1="279.277" y1="498.59" x2="283.301" y2="498.59" stroke="white" stroke-width="1.3" stroke-linecap="round"/>
<line x1="279.277" y1="501.11" x2="283.301" y2="501.11" stroke="white" stroke-width="1.3" stroke-linecap="round"/>
<g filter="url(#filter1_d)">
<rect x="96.1934" y="526" width="130" height="26" rx="13" fill="#2A3070"/>
</g>
<path d="M111.381 542H114.373C116.793 542 118.432 540.229 118.432 538.15C118.432 536.071 116.793 534.3 114.373 534.3H111.381V542ZM114.384 535.455C115.979 535.455 117.123 536.643 117.123 538.15C117.123 539.646 115.979 540.845 114.384 540.845H112.635V535.455H114.384ZM124.931 541.098L124.106 540.438C123.765 540.9 123.204 541.197 122.533 541.197C121.466 541.197 120.729 540.57 120.652 539.36H124.744C124.788 539.195 124.821 538.942 124.821 538.689C124.821 537.281 123.831 536.236 122.302 536.236C120.542 536.236 119.486 537.567 119.486 539.228C119.486 540.845 120.619 542.22 122.533 542.22C123.567 542.22 124.414 541.791 124.931 541.098ZM122.28 537.182C123.171 537.182 123.666 537.82 123.688 538.513H120.707C120.883 537.655 121.455 537.182 122.28 537.182ZM126.307 542H127.44V538.26C127.704 537.787 128.122 537.303 128.826 537.303C129.552 537.303 129.992 537.787 129.992 538.601V542H131.136V538.557C131.136 538.447 131.136 538.348 131.125 538.249C131.422 537.721 131.851 537.303 132.511 537.303C133.226 537.303 133.677 537.787 133.677 538.601V542H134.821V538.557C134.821 537.028 133.93 536.236 132.775 536.236C131.818 536.236 131.268 536.687 130.839 537.237C130.487 536.577 129.849 536.236 129.09 536.236C128.353 536.236 127.836 536.544 127.44 536.973V536.456H126.307V542ZM138.105 542.165C138.787 542.165 139.48 541.857 139.876 541.373V542H141.009V538.337C141.009 537.116 140.184 536.236 138.688 536.236C137.698 536.236 136.906 536.654 136.411 537.314L137.258 537.963C137.577 537.512 138.05 537.237 138.655 537.237C139.37 537.237 139.876 537.655 139.876 538.337V538.623L138.083 538.92C136.906 539.118 136.257 539.723 136.257 540.559C136.257 541.538 137.005 542.165 138.105 542.165ZM137.401 540.515C137.401 540.097 137.687 539.8 138.38 539.679L139.876 539.426V540.383C139.546 540.911 139.007 541.241 138.314 541.241C137.742 541.241 137.401 540.944 137.401 540.515ZM142.785 542H143.918V538.26C144.204 537.776 144.655 537.303 145.414 537.303C146.206 537.303 146.69 537.831 146.69 538.711V542H147.834V538.667C147.834 537.061 146.899 536.236 145.678 536.236C144.886 536.236 144.336 536.555 143.918 536.995V536.456H142.785V542ZM149.156 539.228C149.156 540.845 150.245 542.22 151.994 542.22C152.786 542.22 153.38 541.934 153.842 541.439V542H154.997V533.75H153.842V537.017C153.38 536.522 152.786 536.236 151.994 536.236C150.245 536.236 149.156 537.611 149.156 539.228ZM150.355 539.228C150.355 538.139 151.07 537.303 152.137 537.303C152.83 537.303 153.435 537.622 153.842 538.227V540.229C153.468 540.812 152.852 541.153 152.137 541.153C151.07 541.153 150.355 540.317 150.355 539.228ZM161.83 541.098L161.005 540.438C160.664 540.9 160.103 541.197 159.432 541.197C158.365 541.197 157.628 540.57 157.551 539.36H161.643C161.687 539.195 161.72 538.942 161.72 538.689C161.72 537.281 160.73 536.236 159.201 536.236C157.441 536.236 156.385 537.567 156.385 539.228C156.385 540.845 157.518 542.22 159.432 542.22C160.466 542.22 161.313 541.791 161.83 541.098ZM159.179 537.182C160.07 537.182 160.565 537.82 160.587 538.513H157.606C157.782 537.655 158.354 537.182 159.179 537.182ZM163.206 542H164.339V538.304C164.625 537.831 165.087 537.457 165.791 537.457C166.022 537.457 166.198 537.49 166.374 537.534V536.423C166.231 536.379 166.066 536.346 165.89 536.346C165.208 536.346 164.724 536.654 164.339 537.083V536.456H163.206V542ZM170.586 542H171.719V533.75H170.586V542ZM174.121 537.347L175.32 534.3H174.033L173.076 537.347H174.121ZM177.69 542.165C178.372 542.165 179.065 541.857 179.461 541.373V542H180.594V538.337C180.594 537.116 179.769 536.236 178.273 536.236C177.283 536.236 176.491 536.654 175.996 537.314L176.843 537.963C177.162 537.512 177.635 537.237 178.24 537.237C178.955 537.237 179.461 537.655 179.461 538.337V538.623L177.668 538.92C176.491 539.118 175.842 539.723 175.842 540.559C175.842 541.538 176.59 542.165 177.69 542.165ZM176.986 540.515C176.986 540.097 177.272 539.8 177.965 539.679L179.461 539.426V540.383C179.131 540.911 178.592 541.241 177.899 541.241C177.327 541.241 176.986 540.944 176.986 540.515ZM182.942 535.224C183.36 535.224 183.712 534.872 183.712 534.454C183.712 534.036 183.36 533.684 182.942 533.684C182.524 533.684 182.172 534.036 182.172 534.454C182.172 534.872 182.524 535.224 182.942 535.224ZM182.37 542H183.503V536.456H182.37V542ZM184.917 539.228C184.917 540.845 186.006 542.22 187.755 542.22C188.547 542.22 189.141 541.934 189.603 541.439V542H190.758V533.75H189.603V537.017C189.141 536.522 188.547 536.236 187.755 536.236C186.006 536.236 184.917 537.611 184.917 539.228ZM186.116 539.228C186.116 538.139 186.831 537.303 187.898 537.303C188.591 537.303 189.196 537.622 189.603 538.227V540.229C189.229 540.812 188.613 541.153 187.898 541.153C186.831 541.153 186.116 540.317 186.116 539.228ZM197.591 541.098L196.766 540.438C196.425 540.9 195.864 541.197 195.193 541.197C194.126 541.197 193.389 540.57 193.312 539.36H197.404C197.448 539.195 197.481 538.942 197.481 538.689C197.481 537.281 196.491 536.236 194.962 536.236C193.202 536.236 192.146 537.567 192.146 539.228C192.146 540.845 193.279 542.22 195.193 542.22C196.227 542.22 197.074 541.791 197.591 541.098ZM194.94 537.182C195.831 537.182 196.326 537.82 196.348 538.513H193.367C193.543 537.655 194.115 537.182 194.94 537.182Z" fill="white"/>
<path d="M206.573 537.94V538.83H212.083L210.103 540.8L210.733 541.43L213.773 538.39L210.743 535.36L210.113 535.99L212.053 537.94H206.573Z" fill="white"/>
<circle cx="106.026" cy="520.833" r="10" transform="rotate(-32.9875 106.026 520.833)" fill="#FACF35"/>
<path d="M106.365 516.212C105.469 516.139 104.558 516.345 103.763 516.861C101.767 518.157 101.26 520.921 102.633 523.035C104.005 525.149 106.736 525.812 108.732 524.516C109.527 524 110.086 523.252 110.384 522.404" stroke="white" stroke-width="1.3" stroke-linecap="round"/>
<line x1="101.134" y1="522.326" x2="104.509" y2="520.135" stroke="white" stroke-width="1.3" stroke-linecap="round"/>
<line x1="102.506" y1="524.44" x2="105.882" y2="522.249" stroke="white" stroke-width="1.3" stroke-linecap="round"/>
<circle cx="108.025" cy="615.833" r="10" transform="rotate(30 108.025 615.833)" fill="#FACF35"/>
<path d="M112.296 614.036C111.954 613.205 111.357 612.487 110.536 612.013C108.475 610.823 105.782 611.627 104.522 613.81C103.262 615.993 103.912 618.727 105.973 619.917C106.794 620.391 107.714 620.549 108.605 620.429" stroke="white" stroke-width="1.3" stroke-linecap="round"/>
<line x1="104.473" y1="612.153" x2="107.958" y2="614.165" stroke="white" stroke-width="1.3" stroke-linecap="round"/>
<line x1="103.213" y1="614.336" x2="106.698" y2="616.348" stroke="white" stroke-width="1.3" stroke-linecap="round"/>
<path fill-rule="evenodd" clip-rule="evenodd" d="M63.7867 474.552C63.8578 474.902 63.9532 475.247 64.0722 475.585L62.0781 477.835C61.9921 477.937 61.9458 478.065 61.9475 478.197C61.9492 478.328 61.9987 478.455 62.0873 478.553L65.0404 481.849C65.1295 481.946 65.2513 482.009 65.3844 482.027C65.5174 482.045 65.6532 482.016 65.7677 481.946L67.9181 480.576C68.0368 480.501 68.1725 480.456 68.3129 480.445C68.4533 480.433 68.5941 480.455 68.7226 480.51C69.125 480.678 69.5402 480.816 69.9646 480.923C70.0981 480.956 70.2207 481.022 70.3215 481.113C70.4223 481.204 70.4983 481.318 70.5427 481.445L71.3668 483.792C71.4148 483.915 71.5054 484.017 71.6231 484.082C71.7407 484.146 71.8782 484.169 72.0119 484.145L76.4504 483.273C76.5809 483.245 76.6983 483.174 76.7831 483.073C76.868 482.972 76.9152 482.846 76.9171 482.716L76.7915 480.236C76.7851 480.1 76.8133 479.964 76.8737 479.84C76.934 479.717 77.0246 479.609 77.1373 479.528C77.4895 479.269 77.8202 478.984 78.1262 478.675C78.2242 478.576 78.3457 478.502 78.4796 478.46C78.6135 478.418 78.7556 478.409 78.8932 478.434L81.4017 478.888C81.5341 478.909 81.6705 478.884 81.7869 478.817C81.9034 478.751 81.9923 478.646 82.0381 478.523L83.5234 474.354C83.5682 474.229 83.5663 474.094 83.5181 473.971C83.4698 473.849 83.3784 473.748 83.26 473.685L80.9798 472.562C80.8547 472.5 80.748 472.408 80.6692 472.294C80.5905 472.181 80.5422 472.05 80.5289 471.913C80.5062 471.699 80.4764 471.487 80.435 471.277C80.3937 471.067 80.3421 470.862 80.2824 470.66C80.2446 470.529 80.2409 470.39 80.2718 470.257C80.3026 470.123 80.367 469.999 80.4592 469.895L82.1432 467.992C82.2276 467.89 82.2725 467.762 82.2702 467.631C82.2679 467.501 82.2184 467.376 82.1305 467.278L79.1775 463.982C79.0884 463.885 78.9665 463.822 78.8335 463.804C78.7004 463.786 78.5647 463.815 78.4501 463.885L76.2997 465.255C76.181 465.33 76.0454 465.375 75.905 465.387C75.7646 465.398 75.6238 465.376 75.4952 465.321C75.0928 465.153 74.6777 465.015 74.2532 464.908C74.1197 464.875 73.9972 464.809 73.8963 464.718C73.7955 464.627 73.7196 464.513 73.6751 464.386L72.851 462.039C72.803 461.916 72.7124 461.814 72.5948 461.749C72.4771 461.685 72.3397 461.662 72.2059 461.686L67.7675 462.559C67.6369 462.586 67.5195 462.657 67.4347 462.758C67.3499 462.859 67.3026 462.985 67.3008 463.115L67.4263 465.595C67.4327 465.731 67.4045 465.867 67.3442 465.991C67.2838 466.114 67.1933 466.222 67.0805 466.304C66.7283 466.562 66.3976 466.847 66.0916 467.156C65.9936 467.255 65.8722 467.329 65.7383 467.371C65.6044 467.413 65.4622 467.422 65.3246 467.397L62.8162 466.943C62.6837 466.922 62.5473 466.947 62.4309 467.014C62.3145 467.08 62.2255 467.185 62.1798 467.308L60.6944 471.477C60.6496 471.602 60.6515 471.737 60.6997 471.86C60.748 471.982 60.8395 472.083 60.9579 472.146L63.238 473.269C63.3635 473.331 63.4708 473.423 63.55 473.536C63.6292 473.649 63.6779 473.78 63.6915 473.917C63.7155 474.129 63.7453 474.342 63.7867 474.552ZM72.8921 476.838C75.0598 476.412 76.4715 474.309 76.0453 472.142C75.6191 469.974 73.5163 468.562 71.3487 468.988C69.1811 469.415 67.7694 471.517 68.1956 473.685C68.6218 475.853 70.7245 477.264 72.8921 476.838Z" fill="#2A3070"/>
<path d="M344.193 292.987C344.193 289.673 346.88 286.987 350.193 286.987H391.193C394.507 286.987 397.193 289.673 397.193 292.987V320C397.193 321.657 395.85 323 394.193 323H347.193C345.537 323 344.193 321.657 344.193 320V292.987Z" fill="#FACF35"/>
<path d="M397.193 293.974C397.193 299.497 392.716 303.974 387.193 303.974L354.193 303.974C348.671 303.974 344.193 299.497 344.193 293.974L344.193 291.987C344.193 289.226 346.432 286.987 349.193 286.987L392.193 286.987C394.955 286.987 397.193 289.226 397.193 291.987L397.193 293.974Z" fill="#2A3070"/>
<path d="M378.193 287V287C378.193 284.791 376.402 283 374.193 283H367.193C364.984 283 363.193 284.791 363.193 287V287" stroke="#6672F8" stroke-width="1.5"/>
<rect x="368.193" y="299" width="5" height="10" rx="2.5" fill="#6672F8"/>
<path d="M520.523 342.783C520.295 343.545 519.532 348.557 518.481 349.11C517.294 349.736 512.469 346.194 512.227 345.229" stroke="black" stroke-linecap="round" stroke-linejoin="round"/>
<path d="M415.193 253C443.027 260.5 502.593 290.2 518.193 349" stroke="black" stroke-linecap="round"/>
<path d="M131.614 406.605C132.356 406.972 132.356 408.03 131.614 408.397L124.195 412.069C123.53 412.398 122.751 411.914 122.751 411.173V403.83C122.751 403.088 123.53 402.604 124.195 402.933L131.614 406.605Z" fill="#2A3070"/>
<path d="M132.427 406.187C133.159 406.557 133.159 407.603 132.427 407.973L125.079 411.684C124.414 412.02 123.628 411.537 123.628 410.792V403.368C123.628 402.623 124.414 402.14 125.079 402.476L132.427 406.187Z" fill="#6672F8"/>
<circle cx="154.151" cy="411.748" r="2.24381" stroke="#FACF35" stroke-width="2.85"/>
<circle cx="163.736" cy="412.254" r="1.80695" fill="#2A3070"/>
<circle cx="160.919" cy="401.936" r="1.93629" stroke="#1EBE8E" stroke-width="2"/>
<path d="M134.118 427.886C134.069 426.849 134.897 425.982 135.934 425.982H153.805C154.843 425.982 155.67 426.849 155.622 427.886L154.994 441.338C154.741 446.746 150.283 451 144.87 451C139.456 451 134.999 446.746 134.746 441.338L134.118 427.886Z" fill="#2A3070"/>
<path d="M147.382 423.919C147.323 422.508 146.132 421.411 144.72 421.469C143.309 421.528 142.212 422.72 142.271 424.131" stroke="#2A3070" stroke-width="1.3" stroke-linecap="round"/>
<line x1="133.561" y1="424.342" x2="155.556" y2="424.342" stroke="#2A3070" stroke-width="1.3" stroke-linecap="round"/>
<path d="M152.29 432.566C152.238 431.717 152.912 431 153.762 431H168.625C169.475 431 170.149 431.717 170.096 432.566L169.432 443.258C169.161 447.609 165.553 451 161.193 451C156.833 451 153.225 447.609 152.955 443.258L152.29 432.566Z" fill="#FCA081"/>
<path d="M162.446 425.968C161.941 424.641 160.456 423.975 159.128 424.48C157.801 424.985 157.135 426.471 157.64 427.798" stroke="#FCA081" stroke-width="1.3" stroke-linecap="round"/>
<line x1="152.066" y1="430.427" x2="168.538" y2="424.154" stroke="#FCA081" stroke-width="1.3" stroke-linecap="round"/>
<line x1="158.681" y1="435.442" x2="158.681" y2="445.094" stroke="#DF6B43" stroke-width="1.3" stroke-linecap="round"/>
<line x1="141.159" y1="431.062" x2="141.159" y2="445.093" stroke="#1A2060" stroke-width="1.3" stroke-linecap="round"/>
<line x1="163.937" y1="437.195" x2="163.937" y2="445.094" stroke="#DF6B43" stroke-width="1.3" stroke-linecap="round"/>
<line x1="148.605" y1="433.252" x2="148.605" y2="445.094" stroke="#1A2060" stroke-width="1.3" stroke-linecap="round"/>
<circle cx="127.193" cy="407" r="13.5" stroke="#6672F8"/>
<defs>
<filter id="filter0_d" x="380.194" y="395" width="266" height="173" filterUnits="userSpaceOnUse" color-interpolation-filters="sRGB">
<feFlood flood-opacity="0" result="BackgroundImageFix"/>
<feColorMatrix in="SourceAlpha" type="matrix" values="0 0 0 0 0 0 0 0 0 0 0 0 0 0 0 0 0 0 127 0"/>
<feOffset dy="4"/>
<feGaussianBlur stdDeviation="7"/>
<feColorMatrix type="matrix" values="0 0 0 0 0.4 0 0 0 0 0.447059 0 0 0 0 0.972549 0 0 0 0.3 0"/>
<feBlend mode="normal" in2="BackgroundImageFix" result="effect1_dropShadow"/>
<feBlend mode="normal" in="SourceGraphic" in2="effect1_dropShadow" result="shape"/>
</filter>
<filter id="filter1_d" x="86.1934" y="520" width="150" height="46" filterUnits="userSpaceOnUse" color-interpolation-filters="sRGB">
<feFlood flood-opacity="0" result="BackgroundImageFix"/>
<feColorMatrix in="SourceAlpha" type="matrix" values="0 0 0 0 0 0 0 0 0 0 0 0 0 0 0 0 0 0 127 0"/>
<feOffset dy="4"/>
<feGaussianBlur stdDeviation="5"/>
<feColorMatrix type="matrix" values="0 0 0 0 0.4 0 0 0 0 0.447059 0 0 0 0 0.972549 0 0 0 0.5 0"/>
<feBlend mode="normal" in2="BackgroundImageFix" result="effect1_dropShadow"/>
<feBlend mode="normal" in="SourceGraphic" in2="effect1_dropShadow" result="shape"/>
</filter>
</defs>
</svg>
