<svg width="1440" height="472" viewBox="0 0 1440 472" fill="none" xmlns="http://www.w3.org/2000/svg">
<g clip-path="url(#clip0_8_9125)">
<rect width="1440" height="472" fill="#E8EDFF"/>
<path d="M1284.1 301.915C1353.71 283.265 1423.62 274.387 1492.4 274.44L1513.4 530.021C1459.7 527.858 1404.77 533.659 1350.12 548.302C1249.61 575.233 1163.22 628.549 1096.4 698.801L784.773 698.801C885.418 509.942 1061.08 361.672 1284.1 301.915Z" fill="#E3E3FD"/>
<path fill-rule="evenodd" clip-rule="evenodd" d="M331.238 346.086H435.856C437.346 341.997 438.162 337.558 438.162 332.92C438.162 312.53 422.387 296 402.927 296C389.312 296 377.5 304.092 371.634 315.937C367.308 312.686 361.981 310.768 356.221 310.768C341.74 310.768 330 322.89 330 337.843C330 340.717 330.434 343.487 331.238 346.086Z" fill="white"/>
<path fill-rule="evenodd" clip-rule="evenodd" d="M757.764 222.427C758.078 221.928 758.383 221.424 758.679 220.913C759.23 221.437 759.8 221.942 760.389 222.427H802.967C809.978 216.645 814.421 208.06 814.421 198.475C814.421 181.065 799.761 166.952 781.678 166.952C773.537 166.952 766.091 169.812 760.363 174.545C752.723 158.802 736.994 148 718.829 148C705.2 148 692.942 154.081 684.443 163.769C678.812 160.96 672.493 159.386 665.818 159.386C642.17 159.386 623 179.145 623 203.519C623 210.285 624.477 216.696 627.118 222.427H757.764Z" fill="white"/>
<path fill-rule="evenodd" clip-rule="evenodd" d="M1323.83 161.644H990.046C988.069 155.292 987 148.517 987 141.484C987 105.264 1015.33 75.9014 1050.29 75.9014C1061.7 75.9014 1072.41 79.0325 1081.66 84.511C1093.2 49.8755 1124.95 25 1162.3 25C1192.98 25 1219.88 41.7862 1234.91 66.9796C1243.29 63.6027 1252.5 61.7364 1262.17 61.7364C1301.03 61.7364 1332.54 91.912 1332.54 129.136C1332.54 140.923 1329.38 152.004 1323.83 161.644Z" fill="white"/>
<path fill-rule="evenodd" clip-rule="evenodd" d="M287.11 120H155.204C154.422 117.49 154 114.812 154 112.033C154 97.7191 165.197 86.1155 179.01 86.1155C183.521 86.1155 187.752 87.3529 191.406 89.5179C195.971 75.8304 208.515 66 223.275 66C235.4 66 246.03 72.6337 251.969 82.5898C255.283 81.2553 258.923 80.5177 262.742 80.5177C278.102 80.5177 290.553 92.4428 290.553 107.153C290.553 111.811 289.304 116.19 287.11 120Z" fill="white"/>
<rect x="1269.06" y="248" width="114.941" height="185.174" rx="57.4703" fill="#1EBE8E"/>
<line x1="1327.17" y1="475" x2="1327.17" y2="276.581" stroke="black" stroke-width="2" stroke-linecap="round"/>
<path d="M1352.17 285.902L1327.62 311.873L1303.06 285.902" stroke="black" stroke-width="2" stroke-linecap="round"/>
<path d="M1352.17 329.099L1327.62 355.069L1303.06 329.099" stroke="black" stroke-width="2" stroke-linecap="round"/>
<path d="M1352.17 372.918L1327.62 398.889L1303.06 372.918" stroke="black" stroke-width="2" stroke-linecap="round"/>
<path d="M1166.7 410.088C1166.7 404.565 1171.17 400.088 1176.7 400.088H1249.84V465.948C1249.84 468.71 1247.6 470.948 1244.84 470.948H1176.7C1171.17 470.948 1166.7 466.471 1166.7 460.948V410.088Z" fill="#1EBE8E"/>
<path d="M1177.08 400.657L1150.57 365.645L1207.73 365.645L1249.84 400.657L1177.08 400.657Z" fill="#FACF35"/>
<path d="M1101.5 403.086C1101.5 401.495 1102.26 399.999 1103.54 399.057L1147.67 366.627C1149.43 365.333 1151.83 365.333 1153.59 366.627L1197.72 399.057C1199.01 399.999 1199.76 401.495 1199.76 403.086V466.214C1199.76 468.975 1197.52 471.214 1194.76 471.214H1106.5C1103.74 471.214 1101.5 468.975 1101.5 466.214V403.086Z" fill="#2A3070"/>
<path d="M1138.35 453.47C1138.35 447.991 1142.79 443.549 1148.27 443.549V443.549C1153.75 443.549 1158.19 447.991 1158.19 453.47V470.948H1138.35V453.47Z" fill="#FACF35"/>
<line x1="1133.93" y1="397.559" x2="1133.93" y2="426.237" stroke="white" stroke-width="2.5" stroke-linecap="round"/>
<line x1="1149.99" y1="397.559" x2="1149.99" y2="426.237" stroke="white" stroke-width="2.5" stroke-linecap="round"/>
<line x1="1166.06" y1="397.559" x2="1166.06" y2="426.237" stroke="white" stroke-width="2.5" stroke-linecap="round"/>
<circle cx="1133.63" cy="402.923" r="3.77919" fill="#FACF35"/>
<circle cx="1149.69" cy="419.929" r="3.77919" fill="#FACF35"/>
<circle cx="1165.75" cy="416.15" r="3.77919" fill="#FACF35"/>
<line x1="1210.03" y1="350.78" x2="1210.03" y2="385.411" stroke="#2A3070" stroke-width="1.5"/>
<path d="M1167.56 329.799C1165.31 326.479 1167.69 322 1171.7 322H1224.14C1225.8 322 1227.35 322.825 1228.28 324.202L1241.84 344.281C1244.09 347.602 1241.71 352.08 1237.7 352.08H1185.26C1183.6 352.08 1182.05 351.255 1181.12 349.879L1167.56 329.799Z" fill="#000091"/>
<path d="M1170.26 329.799C1168.02 326.478 1170.4 322 1174.41 322H1226.84C1228.5 322 1230.06 322.825 1230.99 324.201L1244.55 344.281C1246.79 347.601 1244.41 352.079 1240.41 352.079H1187.97C1186.31 352.079 1184.76 351.255 1183.83 349.878L1170.26 329.799Z" fill="#6672F8"/>
<line x1="1171.61" y1="331.176" x2="1235.98" y2="331.176" stroke="white" stroke-width="1.5"/>
<line x1="1178.53" y1="341.102" x2="1243.2" y2="341.102" stroke="white" stroke-width="1.5"/>
<line x1="1178.55" y1="321.583" x2="1198.71" y2="351.762" stroke="white" stroke-width="1.5"/>
<line x1="1191.49" y1="321.583" x2="1211.64" y2="351.762" stroke="white" stroke-width="1.5"/>
<line x1="1204.42" y1="321.583" x2="1224.57" y2="351.762" stroke="white" stroke-width="1.5"/>
<line x1="1217.35" y1="321.583" x2="1237.51" y2="351.762" stroke="white" stroke-width="1.5"/>
<path d="M163.162 340.701C163.36 339.389 164.047 338.2 165.087 337.375L196.975 312.054C198.884 310.539 201.586 310.539 203.494 312.054L235.018 337.085C236.27 338.079 237 339.591 237 341.19V467.046C237 469.941 234.653 472.288 231.758 472.288H149.482C146.276 472.288 143.822 469.437 144.298 466.267L163.162 340.701Z" fill="#1EBE8E" stroke="#1EBE8E" stroke-width="1.96575"/>
<rect x="194.426" y="344.395" width="4.61308" height="12.3171" rx="2.30654" fill="white"/>
<rect x="194.425" y="380.688" width="4.61308" height="12.3171" rx="2.30654" fill="white"/>
<rect x="194.425" y="417.102" width="4.61308" height="12.3171" rx="2.30654" fill="white"/>
<rect x="211.005" y="344.395" width="4.61306" height="12.3171" rx="2.30653" fill="white"/>
<rect x="211.005" y="380.688" width="4.61306" height="12.3171" rx="2.30653" fill="white"/>
<rect x="211.005" y="417.102" width="4.61306" height="12.3171" rx="2.30653" fill="white"/>
<path d="M176.331 246.504C176.331 244.053 174.964 241.807 172.786 240.683L106.56 206.475C102.198 204.222 97.0001 207.388 97.0001 212.297V465.431C97.0001 469.049 99.9337 471.983 103.553 471.983H169.779C173.398 471.983 176.331 469.049 176.331 465.431V246.504Z" fill="#2A3070"/>
<rect x="122.86" y="263.692" width="6.17909" height="16.4984" rx="3.08954" fill="white"/>
<rect x="122.859" y="315.51" width="6.17907" height="16.4984" rx="3.08954" fill="white"/>
<rect x="122.859" y="365.004" width="6.17907" height="16.4984" rx="3.08954" fill="white"/>
<rect x="143.456" y="263.691" width="6.17904" height="16.4984" rx="3.08952" fill="white"/>
<rect x="143.456" y="315.51" width="6.17904" height="16.4984" rx="3.08952" fill="white"/>
<rect x="143.456" y="365.004" width="6.17904" height="16.4984" rx="3.08952" fill="white"/>
<rect x="143.456" y="412.177" width="6.17907" height="16.4984" rx="3.08954" fill="white"/>
<rect x="123.395" y="412.177" width="6.17906" height="16.4984" rx="3.08953" fill="white"/>
<circle cx="454.628" cy="409.084" r="25.6279" fill="#4B9F6C"/>
<circle cx="454.628" cy="377.809" r="25.6279" fill="#4B9F6C"/>
<circle cx="454.628" cy="347.403" r="25.6279" fill="#4B9F6C"/>
<line x1="454.062" y1="474.543" x2="454.062" y2="336.675" stroke="black" stroke-width="2" stroke-linecap="round"/>
<path d="M470.862 343.332L454.9 359.293L438.939 343.332" stroke="black" stroke-width="2" stroke-linecap="round"/>
<path d="M469.993 370.749L454.032 386.71L438.07 370.749" stroke="black" stroke-width="2" stroke-linecap="round"/>
<path d="M470.862 403.761L454.9 419.722L438.939 403.761" stroke="black" stroke-width="2" stroke-linecap="round"/>
<circle cx="371.735" cy="441.348" r="30.2646" fill="#FACF35"/>
<circle cx="285.265" cy="441.348" r="30.2646" fill="#FACF35"/>
<path d="M359.844 390.547H347.414L371.734 440.808" stroke="#2A3070" stroke-width="1.5" stroke-linecap="round"/>
<path d="M298.235 382.981L323.636 432.701" stroke="#2A3070" stroke-width="1.5"/>
<path d="M331.202 433.241L353.36 402.436" stroke="#2A3070" stroke-width="1.5"/>
<path d="M350.658 397.572H305.261L285.806 440.807" stroke="#2A3070" stroke-width="1.5"/>
<line x1="291.418" y1="383.312" x2="306.132" y2="383.312" stroke="#2A3070" stroke-width="1.5" stroke-linecap="round"/>
<circle cx="326.879" cy="439.726" r="8.10659" stroke="#2A3070" stroke-width="1.5"/>
<path d="M285.265 440.538H319.313" stroke="#2A3070" stroke-width="1.5"/>
<path d="M999.49 331.315C1003.29 331.315 1006.36 328.472 1006.36 324.964C1006.36 321.456 1003.29 318.612 999.49 318.612C995.693 318.612 992.616 321.456 992.616 324.964C992.616 328.472 995.693 331.315 999.49 331.315Z" fill="#6672F8"/>
<path d="M977.268 384.684C978.514 377.515 979.072 370.584 977.053 365.792C975.335 361.672 971.597 359.365 967.086 357.793L927.332 345.908C922.176 344.32 917.36 341.66 917.02 336.404C916.591 329.656 923.035 325.289 929.48 326.877C929.48 326.877 967.288 339.239 999.51 339.239C1031.73 339.239 1069.11 326.932 1069.11 326.932C1076.84 324.947 1082 330.505 1082 336.376C1082 342.017 1077.27 344.002 1071.69 345.88L1033.88 358.547C1030.44 359.738 1024.86 362.12 1022.71 365.764C1020.13 370.032 1020.56 377.487 1021.81 384.656L1024.34 396.419L1040.42 461.483C1041.62 466.703 1037.71 471.582 1032.08 472.495C1026.45 473.408 1021.85 469.859 1020.18 464.81L1004.05 418.788C1003.27 416.581 1002.58 414.349 1001.98 412.091L999.51 402.77L997.233 411.365C996.511 414.104 995.681 416.814 994.741 419.495L978.888 464.77C977.169 469.871 972.658 473.404 967.03 472.495C961.402 471.586 957.406 466.306 958.669 461.483L974.733 396.447L977.268 384.684Z" fill="#1EBE8E"/>
</g>
<defs>
<clipPath id="clip0_8_9125">
<rect width="1440" height="472" fill="white"/>
</clipPath>
</defs>
</svg>
