<svg width="1438" height="608" viewBox="0 0 1438 608" fill="none" xmlns="http://www.w3.org/2000/svg">
<g clip-path="url(#clip0_9_9308)">
<rect width="1438" height="608" fill="#E8EDFF"/>
<path d="M1282.1 437.915C1351.71 419.265 1421.62 410.387 1490.4 410.44L1511.4 666.02C1457.7 663.858 1402.77 669.659 1348.12 684.302C1247.61 711.233 1161.22 764.549 1094.4 834.801L782.773 834.801C883.418 645.942 1059.08 497.672 1282.1 437.915Z" fill="#E3E3FD"/>
<path fill-rule="evenodd" clip-rule="evenodd" d="M361.238 405.086H465.856C467.346 400.997 468.162 396.558 468.162 391.92C468.162 371.53 452.387 355 432.927 355C419.312 355 407.5 363.092 401.634 374.937C397.308 371.686 391.981 369.768 386.221 369.768C371.74 369.768 360 381.89 360 396.843C360 399.717 360.434 402.487 361.238 405.086Z" fill="white"/>
<path fill-rule="evenodd" clip-rule="evenodd" d="M849.686 326.427C849.89 326.103 850.089 325.774 850.282 325.442C850.64 325.783 851.011 326.111 851.394 326.427H879.098C883.66 322.665 886.55 317.079 886.55 310.842C886.55 299.514 877.012 290.331 865.246 290.331C859.949 290.331 855.104 292.192 851.377 295.272C846.406 285.028 836.171 278 824.353 278C815.485 278 807.508 281.957 801.979 288.26C798.314 286.433 794.203 285.408 789.86 285.408C774.473 285.408 762 298.265 762 314.124C762 318.527 762.961 322.698 764.679 326.427H849.686Z" fill="white"/>
<path fill-rule="evenodd" clip-rule="evenodd" d="M1321.83 191.644H988.046C986.069 185.292 985 178.517 985 171.484C985 135.264 1013.33 105.901 1048.29 105.901C1059.7 105.901 1070.41 109.032 1079.66 114.511C1091.2 79.8755 1122.95 55 1160.3 55C1190.98 55 1217.88 71.7862 1232.91 96.9796C1241.29 93.6027 1250.5 91.7364 1260.17 91.7364C1299.03 91.7364 1330.54 121.912 1330.54 159.136C1330.54 170.923 1327.38 182.004 1321.83 191.644Z" fill="white"/>
<path fill-rule="evenodd" clip-rule="evenodd" d="M617.097 242.054H370.253C368.79 237.356 368 232.346 368 227.144C368 200.358 388.955 178.643 414.803 178.643C423.244 178.643 431.163 180.959 438.001 185.011C446.543 159.396 470.018 141 497.639 141C520.329 141 540.222 153.414 551.336 172.046C557.536 169.548 564.348 168.168 571.496 168.168C600.24 168.168 623.54 190.484 623.54 218.012C623.54 226.73 621.204 234.925 617.097 242.054Z" fill="white"/>
<circle cx="915.924" cy="513.198" r="37.9238" fill="#4B9F6C"/>
<circle cx="915.924" cy="466.918" r="37.9238" fill="#4B9F6C"/>
<circle cx="915.924" cy="421.924" r="37.9238" fill="#4B9F6C"/>
<line x1="915.566" y1="610.543" x2="915.566" y2="405.569" stroke="black" stroke-width="2" stroke-linecap="round"/>
<path d="M939.946 415.899L916.327 439.519L892.707 415.899" stroke="black" stroke-width="2" stroke-linecap="round"/>
<path d="M938.661 456.47L915.042 480.09L891.422 456.47" stroke="black" stroke-width="2" stroke-linecap="round"/>
<path d="M939.946 505.321L916.327 528.94L892.707 505.321" stroke="black" stroke-width="2" stroke-linecap="round"/>
<path d="M732.891 506.506C732.891 500.983 737.368 496.506 742.891 496.506H862.838V602.256C862.838 605.018 860.599 607.256 857.838 607.256H742.891C737.368 607.256 732.891 602.779 732.891 597.256V506.506Z" fill="#1EBE8E"/>
<path d="M749.122 497.394L707.685 442.673L797.024 442.673L862.837 497.394L749.122 497.394Z" fill="#FACF35"/>
<path d="M631 499.766C631 498.175 631.757 496.679 633.039 495.737L704.826 442.983C706.588 441.688 708.986 441.688 710.748 442.983L782.535 495.737C783.817 496.679 784.574 498.175 784.574 499.766V602.671C784.574 605.432 782.336 607.671 779.574 607.671H636C633.239 607.671 631 605.432 631 602.671V499.766Z" fill="#2A3070"/>
<path d="M688.59 579.938C688.59 571.375 695.532 564.433 704.095 564.433V564.433C712.659 564.433 719.6 571.375 719.6 579.938V607.256H688.59V579.938Z" fill="#FACF35"/>
<line x1="680.98" y1="491.849" x2="680.98" y2="538.079" stroke="white" stroke-width="2.5" stroke-linecap="round"/>
<line x1="706.084" y1="491.849" x2="706.084" y2="538.079" stroke="white" stroke-width="2.5" stroke-linecap="round"/>
<line x1="731.187" y1="491.849" x2="731.188" y2="538.079" stroke="white" stroke-width="2.5" stroke-linecap="round"/>
<circle cx="681.207" cy="500.936" r="5.9067" fill="#FACF35"/>
<circle cx="706.311" cy="527.516" r="5.9067" fill="#FACF35"/>
<circle cx="731.414" cy="521.61" r="5.9067" fill="#FACF35"/>
<line x1="800.202" y1="418.981" x2="800.202" y2="473.109" stroke="#2A3070" stroke-width="1.5"/>
<path d="M731.268 381.799C729.025 378.479 731.404 374 735.411 374H824.162C825.823 374 827.375 374.825 828.305 376.202L853.308 413.214C855.551 416.535 853.172 421.013 849.164 421.013H760.414C758.753 421.013 757.201 420.188 756.271 418.812L731.268 381.799Z" fill="#000091"/>
<path d="M735.499 381.799C733.256 378.478 735.635 374 739.642 374H828.393C830.054 374 831.606 374.825 832.536 376.201L857.538 413.214C859.782 416.535 857.402 421.013 853.395 421.013H764.645C762.984 421.013 761.431 420.188 760.502 418.811L735.499 381.799Z" fill="#6672F8"/>
<line x1="740.574" y1="388.764" x2="841.181" y2="388.764" stroke="white" stroke-width="1.5"/>
<line x1="751.386" y1="404.278" x2="852.464" y2="404.278" stroke="white" stroke-width="1.5"/>
<line y1="-0.75" x2="56.718" y2="-0.75" transform="matrix(0.555353 0.831615 -0.831616 0.555352 750.447 374)" stroke="white" stroke-width="1.5"/>
<line x1="771.286" y1="373.583" x2="802.784" y2="420.751" stroke="white" stroke-width="1.5"/>
<line x1="791.501" y1="373.583" x2="822.999" y2="420.751" stroke="white" stroke-width="1.5"/>
<line x1="811.717" y1="373.583" x2="843.215" y2="420.751" stroke="white" stroke-width="1.5"/>
<path d="M183.655 412.947C183.852 411.635 184.539 410.446 185.579 409.621L235.008 370.372C236.917 368.856 239.619 368.856 241.527 370.372L290.592 409.331C291.844 410.325 292.574 411.837 292.574 413.436V603.046C292.574 605.941 290.227 608.288 287.332 608.288H160.396C157.19 608.288 154.735 605.437 155.212 602.267L183.655 412.947Z" fill="#1EBE8E" stroke="#1EBE8E" stroke-width="1.96575"/>
<rect x="219.545" y="407.898" width="7.89908" height="21.0908" rx="3.94954" fill="white"/>
<rect x="219.544" y="470.043" width="7.89908" height="21.0908" rx="3.94954" fill="white"/>
<rect x="219.544" y="532.395" width="7.89908" height="21.0908" rx="3.94954" fill="white"/>
<rect x="247.934" y="407.897" width="7.89904" height="21.0908" rx="3.94952" fill="white"/>
<rect x="247.934" y="470.044" width="7.89904" height="21.0908" rx="3.94952" fill="white"/>
<rect x="247.934" y="532.395" width="7.89904" height="21.0908" rx="3.94952" fill="white"/>
<path d="M196.414 318.545C196.414 316.094 195.046 313.848 192.869 312.723L104.56 267.109C100.198 264.856 95.0001 268.022 95.0001 272.931V601.346C95.0001 604.965 97.9337 607.898 101.553 607.898H189.862C193.48 607.898 196.414 604.965 196.414 601.346V318.545Z" fill="#2A3070"/>
<rect x="128.058" y="341.628" width="7.8991" height="21.0908" rx="3.94955" fill="white"/>
<rect x="128.057" y="407.869" width="7.89908" height="21.0908" rx="3.94954" fill="white"/>
<rect x="128.057" y="471.141" width="7.89908" height="21.0908" rx="3.94954" fill="white"/>
<rect x="154.388" y="341.626" width="7.89904" height="21.0908" rx="3.94952" fill="white"/>
<rect x="154.388" y="407.869" width="7.89904" height="21.0908" rx="3.94952" fill="white"/>
<rect x="154.388" y="471.141" width="7.89904" height="21.0908" rx="3.94952" fill="white"/>
<rect x="154.387" y="531.444" width="7.89908" height="21.0908" rx="3.94954" fill="white"/>
<rect x="128.742" y="531.444" width="7.89906" height="21.0908" rx="3.94953" fill="white"/>
<rect x="1272" y="364" width="132.228" height="201.417" rx="66.114" fill="#1EBE8E"/>
<line x1="1339" y1="611" x2="1339" y2="395" stroke="black" stroke-width="2" stroke-linecap="round"/>
<path d="M1367.61 405.227L1339.36 433.476L1311.12 405.227" stroke="black" stroke-width="2" stroke-linecap="round"/>
<path d="M1367.61 452.213L1339.36 480.461L1311.12 452.213" stroke="black" stroke-width="2" stroke-linecap="round"/>
<path d="M1367.61 499.876L1339.36 528.125L1311.12 499.876" stroke="black" stroke-width="2" stroke-linecap="round"/>
<circle cx="616.113" cy="542.588" r="26.5905" fill="#4B9F6C"/>
<circle cx="616.113" cy="510.139" r="26.5905" fill="#4B9F6C"/>
<circle cx="616.113" cy="478.59" r="26.5905" fill="#4B9F6C"/>
<line x1="615.563" y1="610.543" x2="615.563" y2="467.422" stroke="black" stroke-width="2" stroke-linecap="round"/>
<path d="M632.956 474.366L616.395 490.927L599.835 474.366" stroke="black" stroke-width="2" stroke-linecap="round"/>
<path d="M632.055 502.813L615.494 519.374L598.933 502.813" stroke="black" stroke-width="2" stroke-linecap="round"/>
<path d="M632.956 537.065L616.395 553.626L599.835 537.065" stroke="black" stroke-width="2" stroke-linecap="round"/>
<circle cx="445.677" cy="568.289" r="39.3234" fill="#FACF35"/>
<circle cx="333.323" cy="568.289" r="39.3234" fill="#FACF35"/>
<path d="M430.226 502.282H414.075L445.675 567.587" stroke="#2A3070" stroke-width="1.5" stroke-linecap="round"/>
<path d="M350.177 492.451L383.18 557.054" stroke="#2A3070" stroke-width="1.5"/>
<path d="M393.011 557.756L421.801 517.731" stroke="#2A3070" stroke-width="1.5"/>
<path d="M418.291 511.411H359.306L334.026 567.587" stroke="#2A3070" stroke-width="1.5"/>
<line x1="341.095" y1="493.106" x2="360.661" y2="493.106" stroke="#2A3070" stroke-width="1.5" stroke-linecap="round"/>
<circle cx="387.394" cy="566.182" r="10.533" stroke="#2A3070" stroke-width="1.5"/>
<path d="M333.324 567.236H377.563" stroke="#2A3070" stroke-width="1.5"/>
<path d="M1130 460.528C1133.63 460.528 1136.58 457.58 1136.58 453.945C1136.58 450.309 1133.63 447.362 1130 447.362C1126.36 447.362 1123.41 450.309 1123.41 453.945C1123.41 457.58 1126.36 460.528 1130 460.528Z" fill="#6672F8"/>
<path d="M1108.72 515.841C1109.91 508.411 1110.44 501.227 1108.51 496.261C1106.86 491.99 1103.28 489.6 1098.96 487.97L1060.89 475.652C1055.96 474.006 1051.34 471.25 1051.02 465.802C1050.61 458.808 1056.78 454.282 1062.95 455.928C1062.95 455.928 1099.16 468.74 1130.02 468.74C1160.87 468.74 1196.67 455.985 1196.67 455.985C1204.07 453.928 1209.01 459.688 1209.01 465.773C1209.01 471.62 1204.49 473.677 1199.14 475.623L1162.93 488.752C1159.64 489.987 1154.29 492.455 1152.23 496.232C1149.76 500.655 1150.18 508.382 1151.37 515.813L1153.8 528.003L1169.19 595.438C1170.34 600.849 1166.6 605.905 1161.21 606.851C1155.82 607.798 1151.41 604.12 1149.81 598.886L1134.36 551.188C1133.62 548.9 1132.96 546.587 1132.39 544.247L1130.02 534.586L1127.84 543.494C1127.14 546.333 1126.35 549.142 1125.45 551.92L1110.27 598.845C1108.62 604.132 1104.3 607.794 1098.91 606.851C1093.52 605.909 1089.69 600.437 1090.9 595.438L1106.29 528.032L1108.72 515.841Z" fill="#1EBE8E"/>
</g>
<defs>
<clipPath id="clip0_9_9308">
<rect width="1438" height="608" fill="white"/>
</clipPath>
</defs>
</svg>
