<svg width="673" height="620" viewBox="0 0 673 620" fill="none" xmlns="http://www.w3.org/2000/svg">
<rect x="361.095" y="343" width="303" height="103" rx="10" fill="#6672F8"/>
<g filter="url(#filter0_d)">
<rect x="394.095" y="377" width="238" height="145" rx="18" fill="white"/>
</g>
<path d="M647.064 369.002C657.543 355.18 644.993 344.038 660.391 329.781C689.603 302.735 648.475 289.453 643.59 310.772C642.255 316.587 640.674 327.065 637.75 332.362C635.733 336.014 624.255 338.527 622.334 355.905C620.446 372.993 624.247 392.13 625.332 392.923C630.831 389.53 644.776 372.018 647.064 369.002Z" fill="#2A3070"/>
<path d="M657.616 309.642C649.668 325.832 627.658 351.146 625.495 392.615" stroke="white" stroke-linecap="round"/>
<rect x="394.095" y="376" width="238" height="37" rx="18.5" fill="#F2F2FA"/>
<path d="M383.154 368.126C395.883 355.396 416.521 355.396 429.25 368.126C441.979 380.855 441.979 401.493 429.25 414.222C416.521 426.951 395.883 426.951 383.154 414.222C370.424 401.493 370.424 380.855 383.154 368.126Z" fill="#FCFCFC" fill-opacity="0.3" stroke="#2A3070" stroke-width="1.5" stroke-linecap="round" stroke-linejoin="round"/>
<path d="M388.17 407.989C379.139 398.957 379.139 384.314 388.17 375.283" stroke="#2A3070" stroke-width="1.5" stroke-linecap="round" stroke-linejoin="round"/>
<line x1="429.364" y1="367.776" x2="448.986" y2="348.154" stroke="#2A3070" stroke-width="1.5" stroke-linecap="round" stroke-linejoin="round"/>
<rect x="450.048" y="353.117" width="9.35999" height="46.8" rx="4.68" transform="rotate(-135 450.048 353.117)" fill="#1EBE8E"/>
<path d="M413.917 400.125H415.399V396.277H416.491C416.543 396.277 416.595 396.277 416.66 396.277L419.195 400.125H420.963L418.077 395.978C419.026 395.575 419.572 394.756 419.572 393.651C419.572 392.039 418.402 391.025 416.491 391.025H413.917V400.125ZM416.569 392.286C417.492 392.286 418.025 392.806 418.025 393.625C418.025 394.496 417.492 395.016 416.569 395.016H415.399V392.286H416.569ZM425.584 392.533L427.118 390.375H425.636L424.284 392.533H425.584ZM427.963 399.059L426.988 398.279C426.585 398.825 425.922 399.176 425.129 399.176C423.868 399.176 422.997 398.435 422.906 397.005H427.742C427.794 396.81 427.833 396.511 427.833 396.212C427.833 394.548 426.663 393.313 424.856 393.313C422.776 393.313 421.528 394.886 421.528 396.849C421.528 398.76 422.867 400.385 425.129 400.385C426.351 400.385 427.352 399.878 427.963 399.059ZM424.83 394.431C425.883 394.431 426.468 395.185 426.494 396.004H422.971C423.179 394.99 423.855 394.431 424.83 394.431ZM429.031 396.849C429.031 398.76 430.318 400.385 432.385 400.385C433.321 400.385 434.023 400.047 434.569 399.462V400.125H435.934V390.375H434.569V394.236C434.023 393.651 433.321 393.313 432.385 393.313C430.318 393.313 429.031 394.938 429.031 396.849ZM430.448 396.849C430.448 395.562 431.293 394.574 432.554 394.574C433.373 394.574 434.088 394.951 434.569 395.666V398.032C434.127 398.721 433.399 399.124 432.554 399.124C431.293 399.124 430.448 398.136 430.448 396.849ZM442.541 397.317C442.541 398.448 441.93 399.124 440.929 399.124C439.902 399.124 439.304 398.448 439.304 397.317V393.573H437.952V397.252C437.952 399.215 439.083 400.385 440.929 400.385C442.762 400.385 443.893 399.215 443.893 397.252V393.573H442.541V397.317ZM446.604 392.117C447.098 392.117 447.514 391.701 447.514 391.207C447.514 390.713 447.098 390.297 446.604 390.297C446.11 390.297 445.694 390.713 445.694 391.207C445.694 391.701 446.11 392.117 446.604 392.117ZM445.928 400.125H447.267V393.573H445.928V400.125ZM449.457 400.125H450.796V395.757C451.134 395.198 451.68 394.756 452.512 394.756C452.785 394.756 452.993 394.795 453.201 394.847V393.534C453.032 393.482 452.837 393.443 452.629 393.443C451.823 393.443 451.251 393.807 450.796 394.314V393.573H449.457V400.125ZM460.247 399.059L459.272 398.279C458.869 398.825 458.206 399.176 457.413 399.176C456.152 399.176 455.281 398.435 455.19 397.005H460.026C460.078 396.81 460.117 396.511 460.117 396.212C460.117 394.548 458.947 393.313 457.14 393.313C455.06 393.313 453.812 394.886 453.812 396.849C453.812 398.76 455.151 400.385 457.413 400.385C458.635 400.385 459.636 399.878 460.247 399.059ZM457.114 394.431C458.167 394.431 458.752 395.185 458.778 396.004H455.255C455.463 394.99 456.139 394.431 457.114 394.431ZM465.377 400.125H466.716V395.705C467.028 395.146 467.522 394.574 468.354 394.574C469.212 394.574 469.732 395.146 469.732 396.108V400.125H471.084V396.056C471.084 395.926 471.084 395.809 471.071 395.692C471.422 395.068 471.929 394.574 472.709 394.574C473.554 394.574 474.087 395.146 474.087 396.108V400.125H475.439V396.056C475.439 394.249 474.386 393.313 473.021 393.313C471.89 393.313 471.24 393.846 470.733 394.496C470.317 393.716 469.563 393.313 468.666 393.313C467.795 393.313 467.184 393.677 466.716 394.184V393.573H465.377V400.125ZM479.32 400.32C480.126 400.32 480.945 399.956 481.413 399.384V400.125H482.752V395.796C482.752 394.353 481.777 393.313 480.009 393.313C478.839 393.313 477.903 393.807 477.318 394.587L478.319 395.354C478.696 394.821 479.255 394.496 479.97 394.496C480.815 394.496 481.413 394.99 481.413 395.796V396.134L479.294 396.485C477.903 396.719 477.136 397.434 477.136 398.422C477.136 399.579 478.02 400.32 479.32 400.32ZM478.488 398.37C478.488 397.876 478.826 397.525 479.645 397.382L481.413 397.083V398.214C481.023 398.838 480.386 399.228 479.567 399.228C478.891 399.228 478.488 398.877 478.488 398.37Z" fill="#2A3070"/>
<line opacity="0.3" x1="485.013" y1="382.125" x2="485.013" y2="408.125" stroke="#2A3070"/>
<rect x="600.095" y="383.364" width="24.7311" height="23.4294" rx="11.7147" fill="#1EBE8E"/>
<path d="M610.892 391.288L614.651 395.046L610.892 398.804" stroke="white" stroke-linecap="round"/>
<path opacity="0.6" d="M414.593 433.125H415.733V430.165H416.573C416.613 430.165 416.653 430.165 416.703 430.165L418.653 433.125H420.013L417.793 429.935C418.523 429.625 418.943 428.995 418.943 428.145C418.943 426.905 418.043 426.125 416.573 426.125H414.593V433.125ZM416.633 427.095C417.343 427.095 417.753 427.495 417.753 428.125C417.753 428.795 417.343 429.195 416.633 429.195H415.733V427.095H416.633ZM423.567 427.285L424.747 425.625H423.607L422.567 427.285H423.567ZM425.397 432.305L424.647 431.705C424.337 432.125 423.827 432.395 423.217 432.395C422.247 432.395 421.577 431.825 421.507 430.725H425.227C425.267 430.575 425.297 430.345 425.297 430.115C425.297 428.835 424.397 427.885 423.007 427.885C421.407 427.885 420.447 429.095 420.447 430.605C420.447 432.075 421.477 433.325 423.217 433.325C424.157 433.325 424.927 432.935 425.397 432.305ZM422.987 428.745C423.797 428.745 424.247 429.325 424.267 429.955H421.557C421.717 429.175 422.237 428.745 422.987 428.745ZM426.218 430.605C426.218 432.075 427.208 433.325 428.798 433.325C429.518 433.325 430.058 433.065 430.478 432.615V433.125H431.528V425.625H430.478V428.595C430.058 428.145 429.518 427.885 428.798 427.885C427.208 427.885 426.218 429.135 426.218 430.605ZM427.308 430.605C427.308 429.615 427.958 428.855 428.928 428.855C429.558 428.855 430.108 429.145 430.478 429.695V431.515C430.138 432.045 429.578 432.355 428.928 432.355C427.958 432.355 427.308 431.595 427.308 430.605ZM436.611 430.965C436.611 431.835 436.141 432.355 435.371 432.355C434.581 432.355 434.121 431.835 434.121 430.965V428.085H433.081V430.915C433.081 432.425 433.951 433.325 435.371 433.325C436.781 433.325 437.651 432.425 437.651 430.915V428.085H436.611V430.965ZM439.736 426.965C440.116 426.965 440.436 426.645 440.436 426.265C440.436 425.885 440.116 425.565 439.736 425.565C439.356 425.565 439.036 425.885 439.036 426.265C439.036 426.645 439.356 426.965 439.736 426.965ZM439.216 433.125H440.246V428.085H439.216V433.125ZM441.931 433.125H442.961V429.765C443.221 429.335 443.641 428.995 444.281 428.995C444.491 428.995 444.651 429.025 444.811 429.065V428.055C444.681 428.015 444.531 427.985 444.371 427.985C443.751 427.985 443.311 428.265 442.961 428.655V428.085H441.931V433.125ZM450.231 432.305L449.481 431.705C449.171 432.125 448.661 432.395 448.051 432.395C447.081 432.395 446.411 431.825 446.341 430.725H450.061C450.101 430.575 450.131 430.345 450.131 430.115C450.131 428.835 449.231 427.885 447.841 427.885C446.241 427.885 445.281 429.095 445.281 430.605C445.281 432.075 446.311 433.325 448.051 433.325C448.991 433.325 449.761 432.935 450.231 432.305ZM447.821 428.745C448.631 428.745 449.081 429.325 449.101 429.955H446.391C446.551 429.175 447.071 428.745 447.821 428.745ZM454.177 433.125H455.207V429.725C455.447 429.295 455.827 428.855 456.467 428.855C457.127 428.855 457.527 429.295 457.527 430.035V433.125H458.567V429.995C458.567 429.895 458.567 429.805 458.557 429.715C458.827 429.235 459.217 428.855 459.817 428.855C460.467 428.855 460.877 429.295 460.877 430.035V433.125H461.917V429.995C461.917 428.605 461.107 427.885 460.057 427.885C459.187 427.885 458.687 428.295 458.297 428.795C457.977 428.195 457.397 427.885 456.707 427.885C456.037 427.885 455.567 428.165 455.207 428.555V428.085H454.177V433.125ZM464.903 433.275C465.523 433.275 466.153 432.995 466.513 432.555V433.125H467.543V429.795C467.543 428.685 466.793 427.885 465.433 427.885C464.533 427.885 463.813 428.265 463.363 428.865L464.133 429.455C464.423 429.045 464.853 428.795 465.403 428.795C466.053 428.795 466.513 429.175 466.513 429.795V430.055L464.883 430.325C463.813 430.505 463.223 431.055 463.223 431.815C463.223 432.705 463.903 433.275 464.903 433.275ZM464.263 431.775C464.263 431.395 464.523 431.125 465.153 431.015L466.513 430.785V431.655C466.213 432.135 465.723 432.435 465.093 432.435C464.573 432.435 464.263 432.165 464.263 431.775ZM474.213 432.355C473.233 432.355 472.533 431.605 472.533 430.605C472.533 429.615 473.233 428.855 474.203 428.855C474.783 428.855 475.243 429.135 475.523 429.525L476.333 428.905C475.873 428.285 475.123 427.885 474.203 427.885C472.513 427.885 471.453 429.135 471.453 430.605C471.453 432.075 472.513 433.325 474.203 433.325C475.133 433.325 475.873 432.925 476.333 432.305L475.523 431.685C475.243 432.075 474.783 432.355 474.213 432.355ZM479.554 427.885C477.924 427.885 476.814 429.115 476.814 430.605C476.814 432.095 477.924 433.325 479.554 433.325C481.194 433.325 482.294 432.095 482.294 430.605C482.294 429.115 481.194 427.885 479.554 427.885ZM479.564 432.355C478.594 432.355 477.894 431.575 477.894 430.605C477.894 429.635 478.594 428.855 479.564 428.855C480.514 428.855 481.214 429.625 481.214 430.605C481.214 431.565 480.514 432.355 479.564 432.355ZM483.581 433.125H484.611V429.725C484.871 429.285 485.281 428.855 485.971 428.855C486.691 428.855 487.131 429.335 487.131 430.135V433.125H488.171V430.095C488.171 428.635 487.321 427.885 486.211 427.885C485.491 427.885 484.991 428.175 484.611 428.575V428.085H483.581V433.125ZM489.273 432.415C489.743 432.985 490.373 433.325 491.223 433.325C492.163 433.325 492.963 432.735 492.973 431.745C492.973 430.015 490.503 430.355 490.503 429.345C490.503 429.005 490.743 428.725 491.223 428.725C491.643 428.725 491.993 428.975 492.263 429.335L492.963 428.725C492.603 428.245 491.953 427.885 491.213 427.885C490.203 427.885 489.503 428.545 489.503 429.375C489.503 431.155 491.973 430.785 491.973 431.805C491.973 432.185 491.703 432.485 491.213 432.485C490.713 432.485 490.313 432.215 489.983 431.795L489.273 432.415ZM496.566 427.885C494.936 427.885 493.826 429.115 493.826 430.605C493.826 432.095 494.936 433.325 496.566 433.325C498.206 433.325 499.306 432.095 499.306 430.605C499.306 429.115 498.206 427.885 496.566 427.885ZM496.576 432.355C495.606 432.355 494.906 431.575 494.906 430.605C494.906 429.635 495.606 428.855 496.576 428.855C497.526 428.855 498.226 429.625 498.226 430.605C498.226 431.565 497.526 432.355 496.576 432.355ZM500.593 433.125H501.623V429.725C501.863 429.295 502.243 428.855 502.883 428.855C503.543 428.855 503.943 429.295 503.943 430.035V433.125H504.983V429.995C504.983 429.895 504.983 429.805 504.973 429.715C505.243 429.235 505.633 428.855 506.233 428.855C506.883 428.855 507.293 429.295 507.293 430.035V433.125H508.333V429.995C508.333 428.605 507.523 427.885 506.473 427.885C505.603 427.885 505.103 428.295 504.713 428.795C504.393 428.195 503.813 427.885 503.123 427.885C502.453 427.885 501.983 428.165 501.623 428.555V428.085H500.593V433.125ZM509.929 433.125H510.959V429.725C511.199 429.295 511.579 428.855 512.219 428.855C512.879 428.855 513.279 429.295 513.279 430.035V433.125H514.319V429.995C514.319 429.895 514.319 429.805 514.309 429.715C514.579 429.235 514.969 428.855 515.569 428.855C516.219 428.855 516.629 429.295 516.629 430.035V433.125H517.669V429.995C517.669 428.605 516.859 427.885 515.809 427.885C514.939 427.885 514.439 428.295 514.049 428.795C513.729 428.195 513.149 427.885 512.459 427.885C511.789 427.885 511.319 428.165 510.959 428.555V428.085H509.929V433.125ZM520.655 433.275C521.275 433.275 521.905 432.995 522.265 432.555V433.125H523.295V429.795C523.295 428.685 522.545 427.885 521.185 427.885C520.285 427.885 519.565 428.265 519.115 428.865L519.885 429.455C520.175 429.045 520.605 428.795 521.155 428.795C521.805 428.795 522.265 429.175 522.265 429.795V430.055L520.635 430.325C519.565 430.505 518.975 431.055 518.975 431.815C518.975 432.705 519.655 433.275 520.655 433.275ZM520.015 431.775C520.015 431.395 520.275 431.125 520.905 431.015L522.265 430.785V431.655C521.965 432.135 521.475 432.435 520.845 432.435C520.325 432.435 520.015 432.165 520.015 431.775ZM525.209 431.375C525.209 432.605 525.829 433.225 527.009 433.225C527.399 433.225 527.679 433.175 527.919 433.075V432.165C527.739 432.235 527.509 432.275 527.169 432.275C526.609 432.275 526.249 432.055 526.249 431.375V429.015H527.919V428.085H526.249V426.825H525.209V428.085H524.259V429.015H525.209V431.375ZM529.668 426.965C530.048 426.965 530.368 426.645 530.368 426.265C530.368 425.885 530.048 425.565 529.668 425.565C529.288 425.565 528.968 425.885 528.968 426.265C528.968 426.645 529.288 426.965 529.668 426.965ZM529.148 433.125H530.178V428.085H529.148V433.125ZM534.203 427.885C532.573 427.885 531.463 429.115 531.463 430.605C531.463 432.095 532.573 433.325 534.203 433.325C535.843 433.325 536.943 432.095 536.943 430.605C536.943 429.115 535.843 427.885 534.203 427.885ZM534.213 432.355C533.243 432.355 532.543 431.575 532.543 430.605C532.543 429.635 533.243 428.855 534.213 428.855C535.163 428.855 535.863 429.625 535.863 430.605C535.863 431.565 535.163 432.355 534.213 432.355ZM538.23 433.125H539.26V429.725C539.52 429.285 539.93 428.855 540.62 428.855C541.34 428.855 541.78 429.335 541.78 430.135V433.125H542.82V430.095C542.82 428.635 541.97 427.885 540.86 427.885C540.14 427.885 539.64 428.175 539.26 428.575V428.085H538.23V433.125ZM546.716 430.605C546.716 432.075 547.706 433.325 549.296 433.325C550.016 433.325 550.556 433.065 550.976 432.615V433.125H552.026V425.625H550.976V428.595C550.556 428.145 550.016 427.885 549.296 427.885C547.706 427.885 546.716 429.135 546.716 430.605ZM547.806 430.605C547.806 429.615 548.456 428.855 549.426 428.855C550.056 428.855 550.606 429.145 550.976 429.695V431.515C550.636 432.045 550.076 432.355 549.426 432.355C548.456 432.355 547.806 431.595 547.806 430.605ZM554.187 428.895L555.277 426.125H554.107L553.237 428.895H554.187ZM560.426 432.305L559.676 431.705C559.366 432.125 558.856 432.395 558.246 432.395C557.276 432.395 556.606 431.825 556.536 430.725H560.256C560.296 430.575 560.326 430.345 560.326 430.115C560.326 428.835 559.426 427.885 558.036 427.885C556.436 427.885 555.476 429.095 555.476 430.605C555.476 432.075 556.506 433.325 558.246 433.325C559.186 433.325 559.956 432.935 560.426 432.305ZM558.016 428.745C558.826 428.745 559.276 429.325 559.296 429.955H556.586C556.746 429.175 557.266 428.745 558.016 428.745ZM563.008 433.275C563.628 433.275 564.258 432.995 564.618 432.555V433.125H565.648V429.795C565.648 428.685 564.898 427.885 563.538 427.885C562.638 427.885 561.918 428.265 561.468 428.865L562.238 429.455C562.528 429.045 562.958 428.795 563.508 428.795C564.158 428.795 564.618 429.175 564.618 429.795V430.055L562.988 430.325C561.918 430.505 561.328 431.055 561.328 431.815C561.328 432.705 562.008 433.275 563.008 433.275ZM562.368 431.775C562.368 431.395 562.628 431.125 563.258 431.015L564.618 430.785V431.655C564.318 432.135 563.828 432.435 563.198 432.435C562.678 432.435 562.368 432.165 562.368 431.775ZM570.683 430.965C570.683 431.835 570.213 432.355 569.443 432.355C568.653 432.355 568.193 431.835 568.193 430.965V428.085H567.153V430.915C567.153 432.425 568.023 433.325 569.443 433.325C570.853 433.325 571.723 432.425 571.723 430.915V428.085H570.683V430.965ZM414.593 457.125H415.733V454.165H416.573C416.613 454.165 416.653 454.165 416.703 454.165L418.653 457.125H420.013L417.793 453.935C418.523 453.625 418.943 452.995 418.943 452.145C418.943 450.905 418.043 450.125 416.573 450.125H414.593V457.125ZM416.633 451.095C417.343 451.095 417.753 451.495 417.753 452.125C417.753 452.795 417.343 453.195 416.633 453.195H415.733V451.095H416.633ZM423.567 451.285L424.747 449.625H423.607L422.567 451.285H423.567ZM425.397 456.305L424.647 455.705C424.337 456.125 423.827 456.395 423.217 456.395C422.247 456.395 421.577 455.825 421.507 454.725H425.227C425.267 454.575 425.297 454.345 425.297 454.115C425.297 452.835 424.397 451.885 423.007 451.885C421.407 451.885 420.447 453.095 420.447 454.605C420.447 456.075 421.477 457.325 423.217 457.325C424.157 457.325 424.927 456.935 425.397 456.305ZM422.987 452.745C423.797 452.745 424.247 453.325 424.267 453.955H421.557C421.717 453.175 422.237 452.745 422.987 452.745ZM426.218 454.605C426.218 456.075 427.208 457.325 428.798 457.325C429.518 457.325 430.058 457.065 430.478 456.615V457.125H431.528V449.625H430.478V452.595C430.058 452.145 429.518 451.885 428.798 451.885C427.208 451.885 426.218 453.135 426.218 454.605ZM427.308 454.605C427.308 453.615 427.958 452.855 428.928 452.855C429.558 452.855 430.108 453.145 430.478 453.695V455.515C430.138 456.045 429.578 456.355 428.928 456.355C427.958 456.355 427.308 455.595 427.308 454.605ZM436.611 454.965C436.611 455.835 436.141 456.355 435.371 456.355C434.581 456.355 434.121 455.835 434.121 454.965V452.085H433.081V454.915C433.081 456.425 433.951 457.325 435.371 457.325C436.781 457.325 437.651 456.425 437.651 454.915V452.085H436.611V454.965ZM439.736 450.965C440.116 450.965 440.436 450.645 440.436 450.265C440.436 449.885 440.116 449.565 439.736 449.565C439.356 449.565 439.036 449.885 439.036 450.265C439.036 450.645 439.356 450.965 439.736 450.965ZM439.216 457.125H440.246V452.085H439.216V457.125ZM441.931 457.125H442.961V453.765C443.221 453.335 443.641 452.995 444.281 452.995C444.491 452.995 444.651 453.025 444.811 453.065V452.055C444.681 452.015 444.531 451.985 444.371 451.985C443.751 451.985 443.311 452.265 442.961 452.655V452.085H441.931V457.125ZM450.231 456.305L449.481 455.705C449.171 456.125 448.661 456.395 448.051 456.395C447.081 456.395 446.411 455.825 446.341 454.725H450.061C450.101 454.575 450.131 454.345 450.131 454.115C450.131 452.835 449.231 451.885 447.841 451.885C446.241 451.885 445.281 453.095 445.281 454.605C445.281 456.075 446.311 457.325 448.051 457.325C448.991 457.325 449.761 456.935 450.231 456.305ZM447.821 452.745C448.631 452.745 449.081 453.325 449.101 453.955H446.391C446.551 453.175 447.071 452.745 447.821 452.745ZM454.177 457.125H455.207V453.725C455.447 453.295 455.827 452.855 456.467 452.855C457.127 452.855 457.527 453.295 457.527 454.035V457.125H458.567V453.995C458.567 453.895 458.567 453.805 458.557 453.715C458.827 453.235 459.217 452.855 459.817 452.855C460.467 452.855 460.877 453.295 460.877 454.035V457.125H461.917V453.995C461.917 452.605 461.107 451.885 460.057 451.885C459.187 451.885 458.687 452.295 458.297 452.795C457.977 452.195 457.397 451.885 456.707 451.885C456.037 451.885 455.567 452.165 455.207 452.555V452.085H454.177V457.125ZM464.903 457.275C465.523 457.275 466.153 456.995 466.513 456.555V457.125H467.543V453.795C467.543 452.685 466.793 451.885 465.433 451.885C464.533 451.885 463.813 452.265 463.363 452.865L464.133 453.455C464.423 453.045 464.853 452.795 465.403 452.795C466.053 452.795 466.513 453.175 466.513 453.795V454.055L464.883 454.325C463.813 454.505 463.223 455.055 463.223 455.815C463.223 456.705 463.903 457.275 464.903 457.275ZM464.263 455.775C464.263 455.395 464.523 455.125 465.153 455.015L466.513 454.785V455.655C466.213 456.135 465.723 456.435 465.093 456.435C464.573 456.435 464.263 456.165 464.263 455.775ZM471.853 459.585H472.883V456.605C473.313 457.065 473.853 457.325 474.583 457.325C476.163 457.325 477.153 456.075 477.153 454.605C477.153 453.135 476.163 451.885 474.583 451.885C473.853 451.885 473.313 452.145 472.883 452.605V452.085H471.853V459.585ZM474.453 452.855C475.423 452.855 476.073 453.615 476.073 454.605C476.073 455.595 475.423 456.355 474.453 456.355C473.803 456.355 473.253 456.055 472.883 455.495V453.715C473.243 453.165 473.793 452.855 474.453 452.855ZM478.435 457.125H479.465V453.765C479.725 453.335 480.145 452.995 480.785 452.995C480.995 452.995 481.155 453.025 481.315 453.065V452.055C481.185 452.015 481.035 451.985 480.875 451.985C480.255 451.985 479.815 452.265 479.465 452.655V452.085H478.435V457.125ZM484.525 451.885C482.895 451.885 481.785 453.115 481.785 454.605C481.785 456.095 482.895 457.325 484.525 457.325C486.165 457.325 487.265 456.095 487.265 454.605C487.265 453.115 486.165 451.885 484.525 451.885ZM484.535 456.355C483.565 456.355 482.865 455.575 482.865 454.605C482.865 453.635 483.565 452.855 484.535 452.855C485.485 452.855 486.185 453.625 486.185 454.605C486.185 455.565 485.485 456.355 484.535 456.355ZM488.201 454.605C488.201 456.075 489.191 457.325 490.781 457.325C491.501 457.325 492.041 457.065 492.461 456.615V457.125H493.511V449.625H492.461V452.595C492.041 452.145 491.501 451.885 490.781 451.885C489.191 451.885 488.201 453.135 488.201 454.605ZM489.291 454.605C489.291 453.615 489.941 452.855 490.911 452.855C491.541 452.855 492.091 453.145 492.461 453.695V455.515C492.121 456.045 491.561 456.355 490.911 456.355C489.941 456.355 489.291 455.595 489.291 454.605ZM498.593 454.965C498.593 455.835 498.123 456.355 497.353 456.355C496.563 456.355 496.103 455.835 496.103 454.965V452.085H495.063V454.915C495.063 456.425 495.933 457.325 497.353 457.325C498.763 457.325 499.633 456.425 499.633 454.915V452.085H498.593V454.965ZM503.558 456.355C502.578 456.355 501.878 455.605 501.878 454.605C501.878 453.615 502.578 452.855 503.548 452.855C504.128 452.855 504.588 453.135 504.868 453.525L505.678 452.905C505.218 452.285 504.468 451.885 503.548 451.885C501.858 451.885 500.798 453.135 500.798 454.605C500.798 456.075 501.858 457.325 503.548 457.325C504.478 457.325 505.218 456.925 505.678 456.305L504.868 455.685C504.588 456.075 504.128 456.355 503.558 456.355ZM507.065 455.375C507.065 456.605 507.685 457.225 508.865 457.225C509.255 457.225 509.535 457.175 509.775 457.075V456.165C509.595 456.235 509.365 456.275 509.025 456.275C508.465 456.275 508.105 456.055 508.105 455.375V453.015H509.775V452.085H508.105V450.825H507.065V452.085H506.115V453.015H507.065V455.375ZM511.523 450.965C511.903 450.965 512.223 450.645 512.223 450.265C512.223 449.885 511.903 449.565 511.523 449.565C511.143 449.565 510.823 449.885 510.823 450.265C510.823 450.645 511.143 450.965 511.523 450.965ZM511.003 457.125H512.033V452.085H511.003V457.125ZM516.058 451.885C514.428 451.885 513.318 453.115 513.318 454.605C513.318 456.095 514.428 457.325 516.058 457.325C517.698 457.325 518.798 456.095 518.798 454.605C518.798 453.115 517.698 451.885 516.058 451.885ZM516.068 456.355C515.098 456.355 514.398 455.575 514.398 454.605C514.398 453.635 515.098 452.855 516.068 452.855C517.018 452.855 517.718 453.625 517.718 454.605C517.718 455.565 517.018 456.355 516.068 456.355ZM520.085 457.125H521.115V453.725C521.375 453.285 521.785 452.855 522.475 452.855C523.195 452.855 523.635 453.335 523.635 454.135V457.125H524.675V454.095C524.675 452.635 523.825 451.885 522.715 451.885C521.995 451.885 521.495 452.175 521.115 452.575V452.085H520.085V457.125ZM528.572 454.605C528.572 456.075 529.562 457.325 531.152 457.325C531.872 457.325 532.412 457.065 532.832 456.615V457.125H533.882V449.625H532.832V452.595C532.412 452.145 531.872 451.885 531.152 451.885C529.562 451.885 528.572 453.135 528.572 454.605ZM529.662 454.605C529.662 453.615 530.312 452.855 531.282 452.855C531.912 452.855 532.462 453.145 532.832 453.695V455.515C532.492 456.045 531.932 456.355 531.282 456.355C530.312 456.355 529.662 455.595 529.662 454.605ZM540.094 456.305L539.344 455.705C539.034 456.125 538.524 456.395 537.914 456.395C536.944 456.395 536.274 455.825 536.204 454.725H539.924C539.964 454.575 539.994 454.345 539.994 454.115C539.994 452.835 539.094 451.885 537.704 451.885C536.104 451.885 535.144 453.095 535.144 454.605C535.144 456.075 536.174 457.325 537.914 457.325C538.854 457.325 539.624 456.935 540.094 456.305ZM537.684 452.745C538.494 452.745 538.944 453.325 538.964 453.955H536.254C536.414 453.175 536.934 452.745 537.684 452.745ZM543.64 454.605C543.64 456.075 544.63 457.325 546.22 457.325C546.94 457.325 547.48 457.065 547.9 456.615V457.125H548.95V449.625H547.9V452.595C547.48 452.145 546.94 451.885 546.22 451.885C544.63 451.885 543.64 453.135 543.64 454.605ZM544.73 454.605C544.73 453.615 545.38 452.855 546.35 452.855C546.98 452.855 547.53 453.145 547.9 453.695V455.515C547.56 456.045 547 456.355 546.35 456.355C545.38 456.355 544.73 455.595 544.73 454.605ZM553.333 451.285L554.513 449.625H553.373L552.333 451.285H553.333ZM555.163 456.305L554.413 455.705C554.103 456.125 553.593 456.395 552.983 456.395C552.013 456.395 551.343 455.825 551.273 454.725H554.993C555.033 454.575 555.063 454.345 555.063 454.115C555.063 452.835 554.163 451.885 552.773 451.885C551.173 451.885 550.213 453.095 550.213 454.605C550.213 456.075 551.243 457.325 552.983 457.325C553.923 457.325 554.693 456.935 555.163 456.305ZM552.753 452.745C553.563 452.745 554.013 453.325 554.033 453.955H551.323C551.483 453.175 552.003 452.745 552.753 452.745ZM558.744 456.355C557.764 456.355 557.064 455.605 557.064 454.605C557.064 453.615 557.764 452.855 558.734 452.855C559.314 452.855 559.774 453.135 560.054 453.525L560.864 452.905C560.404 452.285 559.654 451.885 558.734 451.885C557.044 451.885 555.984 453.135 555.984 454.605C555.984 456.075 557.044 457.325 558.734 457.325C559.664 457.325 560.404 456.925 560.864 456.305L560.054 455.685C559.774 456.075 559.314 456.355 558.744 456.355ZM561.941 457.125H562.971V453.725C563.241 453.285 563.641 452.855 564.331 452.855C565.051 452.855 565.491 453.335 565.491 454.135V457.125H566.531V454.095C566.531 452.635 565.691 451.885 564.571 451.885C563.851 451.885 563.351 452.175 562.971 452.575V449.625H561.941V457.125ZM572.682 456.305L571.932 455.705C571.622 456.125 571.112 456.395 570.502 456.395C569.532 456.395 568.862 455.825 568.792 454.725H572.512C572.552 454.575 572.582 454.345 572.582 454.115C572.582 452.835 571.682 451.885 570.292 451.885C568.692 451.885 567.732 453.095 567.732 454.605C567.732 456.075 568.762 457.325 570.502 457.325C571.442 457.325 572.212 456.935 572.682 456.305ZM570.272 452.745C571.082 452.745 571.532 453.325 571.552 453.955H568.842C569.002 453.175 569.522 452.745 570.272 452.745ZM574.213 455.375C574.213 456.605 574.833 457.225 576.013 457.225C576.403 457.225 576.683 457.175 576.923 457.075V456.165C576.743 456.235 576.513 456.275 576.173 456.275C575.613 456.275 575.253 456.055 575.253 455.375V453.015H576.923V452.085H575.253V450.825H574.213V452.085H573.263V453.015H574.213V455.375ZM577.652 456.415C578.122 456.985 578.752 457.325 579.602 457.325C580.542 457.325 581.342 456.735 581.352 455.745C581.352 454.015 578.882 454.355 578.882 453.345C578.882 453.005 579.122 452.725 579.602 452.725C580.022 452.725 580.372 452.975 580.642 453.335L581.342 452.725C580.982 452.245 580.332 451.885 579.592 451.885C578.582 451.885 577.882 452.545 577.882 453.375C577.882 455.155 580.352 454.785 580.352 455.805C580.352 456.185 580.082 456.485 579.592 456.485C579.092 456.485 578.692 456.215 578.362 455.795L577.652 456.415ZM414.593 481.125H415.733V478.165H416.573C416.613 478.165 416.653 478.165 416.703 478.165L418.653 481.125H420.013L417.793 477.935C418.523 477.625 418.943 476.995 418.943 476.145C418.943 474.905 418.043 474.125 416.573 474.125H414.593V481.125ZM416.633 475.095C417.343 475.095 417.753 475.495 417.753 476.125C417.753 476.795 417.343 477.195 416.633 477.195H415.733V475.095H416.633ZM423.567 475.285L424.747 473.625H423.607L422.567 475.285H423.567ZM425.397 480.305L424.647 479.705C424.337 480.125 423.827 480.395 423.217 480.395C422.247 480.395 421.577 479.825 421.507 478.725H425.227C425.267 478.575 425.297 478.345 425.297 478.115C425.297 476.835 424.397 475.885 423.007 475.885C421.407 475.885 420.447 477.095 420.447 478.605C420.447 480.075 421.477 481.325 423.217 481.325C424.157 481.325 424.927 480.935 425.397 480.305ZM422.987 476.745C423.797 476.745 424.247 477.325 424.267 477.955H421.557C421.717 477.175 422.237 476.745 422.987 476.745ZM426.218 478.605C426.218 480.075 427.208 481.325 428.798 481.325C429.518 481.325 430.058 481.065 430.478 480.615V481.125H431.528V473.625H430.478V476.595C430.058 476.145 429.518 475.885 428.798 475.885C427.208 475.885 426.218 477.135 426.218 478.605ZM427.308 478.605C427.308 477.615 427.958 476.855 428.928 476.855C429.558 476.855 430.108 477.145 430.478 477.695V479.515C430.138 480.045 429.578 480.355 428.928 480.355C427.958 480.355 427.308 479.595 427.308 478.605ZM436.611 478.965C436.611 479.835 436.141 480.355 435.371 480.355C434.581 480.355 434.121 479.835 434.121 478.965V476.085H433.081V478.915C433.081 480.425 433.951 481.325 435.371 481.325C436.781 481.325 437.651 480.425 437.651 478.915V476.085H436.611V478.965ZM439.736 474.965C440.116 474.965 440.436 474.645 440.436 474.265C440.436 473.885 440.116 473.565 439.736 473.565C439.356 473.565 439.036 473.885 439.036 474.265C439.036 474.645 439.356 474.965 439.736 474.965ZM439.216 481.125H440.246V476.085H439.216V481.125ZM441.931 481.125H442.961V477.765C443.221 477.335 443.641 476.995 444.281 476.995C444.491 476.995 444.651 477.025 444.811 477.065V476.055C444.681 476.015 444.531 475.985 444.371 475.985C443.751 475.985 443.311 476.265 442.961 476.655V476.085H441.931V481.125ZM450.231 480.305L449.481 479.705C449.171 480.125 448.661 480.395 448.051 480.395C447.081 480.395 446.411 479.825 446.341 478.725H450.061C450.101 478.575 450.131 478.345 450.131 478.115C450.131 476.835 449.231 475.885 447.841 475.885C446.241 475.885 445.281 477.095 445.281 478.605C445.281 480.075 446.311 481.325 448.051 481.325C448.991 481.325 449.761 480.935 450.231 480.305ZM447.821 476.745C448.631 476.745 449.081 477.325 449.101 477.955H446.391C446.551 477.175 447.071 476.745 447.821 476.745ZM454.177 481.125H455.207V477.725C455.447 477.295 455.827 476.855 456.467 476.855C457.127 476.855 457.527 477.295 457.527 478.035V481.125H458.567V477.995C458.567 477.895 458.567 477.805 458.557 477.715C458.827 477.235 459.217 476.855 459.817 476.855C460.467 476.855 460.877 477.295 460.877 478.035V481.125H461.917V477.995C461.917 476.605 461.107 475.885 460.057 475.885C459.187 475.885 458.687 476.295 458.297 476.795C457.977 476.195 457.397 475.885 456.707 475.885C456.037 475.885 455.567 476.165 455.207 476.555V476.085H454.177V481.125ZM464.903 481.275C465.523 481.275 466.153 480.995 466.513 480.555V481.125H467.543V477.795C467.543 476.685 466.793 475.885 465.433 475.885C464.533 475.885 463.813 476.265 463.363 476.865L464.133 477.455C464.423 477.045 464.853 476.795 465.403 476.795C466.053 476.795 466.513 477.175 466.513 477.795V478.055L464.883 478.325C463.813 478.505 463.223 479.055 463.223 479.815C463.223 480.705 463.903 481.275 464.903 481.275ZM464.263 479.775C464.263 479.395 464.523 479.125 465.153 479.015L466.513 478.785V479.655C466.213 480.135 465.723 480.435 465.093 480.435C464.573 480.435 464.263 480.165 464.263 479.775ZM471.853 483.585H472.883V480.605C473.313 481.065 473.853 481.325 474.583 481.325C476.163 481.325 477.153 480.075 477.153 478.605C477.153 477.135 476.163 475.885 474.583 475.885C473.853 475.885 473.313 476.145 472.883 476.605V476.085H471.853V483.585ZM474.453 476.855C475.423 476.855 476.073 477.615 476.073 478.605C476.073 479.595 475.423 480.355 474.453 480.355C473.803 480.355 473.253 480.055 472.883 479.495V477.715C473.243 477.165 473.793 476.855 474.453 476.855ZM480.824 475.885C479.194 475.885 478.084 477.115 478.084 478.605C478.084 480.095 479.194 481.325 480.824 481.325C482.464 481.325 483.564 480.095 483.564 478.605C483.564 477.115 482.464 475.885 480.824 475.885ZM480.834 480.355C479.864 480.355 479.164 479.575 479.164 478.605C479.164 477.635 479.864 476.855 480.834 476.855C481.784 476.855 482.484 477.625 482.484 478.605C482.484 479.565 481.784 480.355 480.834 480.355ZM484.851 481.125H485.881V473.625H484.851V481.125ZM487.566 481.125H488.596V473.625H487.566V481.125ZM493.7 478.965C493.7 479.835 493.23 480.355 492.46 480.355C491.67 480.355 491.21 479.835 491.21 478.965V476.085H490.17V478.915C490.17 480.425 491.04 481.325 492.46 481.325C493.87 481.325 494.74 480.425 494.74 478.915V476.085H493.7V478.965ZM496.664 479.375C496.664 480.605 497.284 481.225 498.464 481.225C498.854 481.225 499.134 481.175 499.374 481.075V480.165C499.194 480.235 498.964 480.275 498.624 480.275C498.064 480.275 497.704 480.055 497.704 479.375V477.015H499.374V476.085H497.704V474.825H496.664V476.085H495.714V477.015H496.664V479.375ZM501.123 474.965C501.503 474.965 501.823 474.645 501.823 474.265C501.823 473.885 501.503 473.565 501.123 473.565C500.743 473.565 500.423 473.885 500.423 474.265C500.423 474.645 500.743 474.965 501.123 474.965ZM500.603 481.125H501.633V476.085H500.603V481.125ZM505.658 475.885C504.028 475.885 502.918 477.115 502.918 478.605C502.918 480.095 504.028 481.325 505.658 481.325C507.298 481.325 508.398 480.095 508.398 478.605C508.398 477.115 507.298 475.885 505.658 475.885ZM505.668 480.355C504.698 480.355 503.998 479.575 503.998 478.605C503.998 477.635 504.698 476.855 505.668 476.855C506.618 476.855 507.318 477.625 507.318 478.605C507.318 479.565 506.618 480.355 505.668 480.355ZM509.685 481.125H510.715V477.725C510.975 477.285 511.385 476.855 512.075 476.855C512.795 476.855 513.235 477.335 513.235 478.135V481.125H514.275V478.095C514.275 476.635 513.425 475.885 512.315 475.885C511.595 475.885 511.095 476.175 510.715 476.575V476.085H509.685V481.125ZM518.072 480.415C518.542 480.985 519.172 481.325 520.022 481.325C520.962 481.325 521.762 480.735 521.772 479.745C521.772 478.015 519.302 478.355 519.302 477.345C519.302 477.005 519.542 476.725 520.022 476.725C520.442 476.725 520.792 476.975 521.062 477.335L521.762 476.725C521.402 476.245 520.752 475.885 520.012 475.885C519.002 475.885 518.302 476.545 518.302 477.375C518.302 479.155 520.772 478.785 520.772 479.805C520.772 480.185 520.502 480.485 520.012 480.485C519.512 480.485 519.112 480.215 518.782 479.795L518.072 480.415ZM526.484 478.965C526.484 479.835 526.014 480.355 525.244 480.355C524.454 480.355 523.994 479.835 523.994 478.965V476.085H522.954V478.915C522.954 480.425 523.824 481.325 525.244 481.325C526.654 481.325 527.524 480.425 527.524 478.915V476.085H526.484V478.965ZM529.089 481.125H530.119V477.765C530.379 477.335 530.799 476.995 531.439 476.995C531.649 476.995 531.809 477.025 531.969 477.065V476.055C531.839 476.015 531.689 475.985 531.529 475.985C530.909 475.985 530.469 476.265 530.119 476.655V476.085H529.089V481.125ZM535.798 481.125H536.828V473.625H535.798V481.125ZM543.063 480.305L542.313 479.705C542.003 480.125 541.493 480.395 540.883 480.395C539.913 480.395 539.243 479.825 539.173 478.725H542.893C542.933 478.575 542.963 478.345 542.963 478.115C542.963 476.835 542.063 475.885 540.673 475.885C539.073 475.885 538.113 477.095 538.113 478.605C538.113 480.075 539.143 481.325 540.883 481.325C541.823 481.325 542.593 480.935 543.063 480.305ZM540.653 476.745C541.463 476.745 541.913 477.325 541.933 477.955H539.223C539.383 477.175 539.903 476.745 540.653 476.745ZM543.755 480.415C544.225 480.985 544.855 481.325 545.705 481.325C546.645 481.325 547.445 480.735 547.455 479.745C547.455 478.015 544.985 478.355 544.985 477.345C544.985 477.005 545.225 476.725 545.705 476.725C546.125 476.725 546.475 476.975 546.745 477.335L547.445 476.725C547.085 476.245 546.435 475.885 545.695 475.885C544.685 475.885 543.985 476.545 543.985 477.375C543.985 479.155 546.455 478.785 546.455 479.805C546.455 480.185 546.185 480.485 545.695 480.485C545.195 480.485 544.795 480.215 544.465 479.795L543.755 480.415ZM554.163 475.285L555.343 473.625H554.203L553.163 475.285H554.163ZM555.993 480.305L555.243 479.705C554.933 480.125 554.423 480.395 553.813 480.395C552.843 480.395 552.173 479.825 552.103 478.725H555.823C555.863 478.575 555.893 478.345 555.893 478.115C555.893 476.835 554.993 475.885 553.603 475.885C552.003 475.885 551.043 477.095 551.043 478.605C551.043 480.075 552.073 481.325 553.813 481.325C554.753 481.325 555.523 480.935 555.993 480.305ZM553.583 476.745C554.393 476.745 554.843 477.325 554.863 477.955H552.153C552.313 477.175 552.833 476.745 553.583 476.745ZM559.574 480.355C558.594 480.355 557.894 479.605 557.894 478.605C557.894 477.615 558.594 476.855 559.564 476.855C560.144 476.855 560.604 477.135 560.884 477.525L561.694 476.905C561.234 476.285 560.484 475.885 559.564 475.885C557.874 475.885 556.814 477.135 556.814 478.605C556.814 480.075 557.874 481.325 559.564 481.325C560.494 481.325 561.234 480.925 561.694 480.305L560.884 479.685C560.604 480.075 560.144 480.355 559.574 480.355ZM564.915 475.885C563.285 475.885 562.175 477.115 562.175 478.605C562.175 480.095 563.285 481.325 564.915 481.325C566.555 481.325 567.655 480.095 567.655 478.605C567.655 477.115 566.555 475.885 564.915 475.885ZM564.925 480.355C563.955 480.355 563.255 479.575 563.255 478.605C563.255 477.635 563.955 476.855 564.925 476.855C565.875 476.855 566.575 477.625 566.575 478.605C566.575 479.565 565.875 480.355 564.925 480.355ZM568.286 480.415C568.756 480.985 569.386 481.325 570.236 481.325C571.176 481.325 571.976 480.735 571.986 479.745C571.986 478.015 569.516 478.355 569.516 477.345C569.516 477.005 569.756 476.725 570.236 476.725C570.656 476.725 571.006 476.975 571.276 477.335L571.976 476.725C571.616 476.245 570.966 475.885 570.226 475.885C569.216 475.885 568.516 476.545 568.516 477.375C568.516 479.155 570.986 478.785 570.986 479.805C570.986 480.185 570.716 480.485 570.226 480.485C569.726 480.485 569.326 480.215 568.996 479.795L568.286 480.415ZM575.191 482.315L577.791 476.085H576.691L575.151 479.795L573.591 476.085H572.451L574.601 481.115L574.261 481.925C574.021 482.495 573.661 482.675 573.151 482.675C572.921 482.675 572.691 482.625 572.511 482.545V483.465C572.741 483.565 573.001 483.625 573.361 483.625C574.261 483.625 574.841 483.155 575.191 482.315ZM578.062 480.415C578.532 480.985 579.162 481.325 580.012 481.325C580.952 481.325 581.752 480.735 581.762 479.745C581.762 478.015 579.292 478.355 579.292 477.345C579.292 477.005 579.532 476.725 580.012 476.725C580.432 476.725 580.782 476.975 581.052 477.335L581.752 476.725C581.392 476.245 580.742 475.885 580.002 475.885C578.992 475.885 578.292 476.545 578.292 477.375C578.292 479.155 580.762 478.785 580.762 479.805C580.762 480.185 580.492 480.485 580.002 480.485C579.502 480.485 579.102 480.215 578.772 479.795L578.062 480.415ZM583.413 479.375C583.413 480.605 584.033 481.225 585.213 481.225C585.603 481.225 585.883 481.175 586.123 481.075V480.165C585.943 480.235 585.713 480.275 585.373 480.275C584.813 480.275 584.453 480.055 584.453 479.375V477.015H586.123V476.085H584.453V474.825H583.413V476.085H582.463V477.015H583.413V479.375ZM588.903 475.285H589.903L588.863 473.625H587.723L588.903 475.285ZM591.803 480.305L591.053 479.705C590.743 480.125 590.233 480.395 589.623 480.395C588.653 480.395 587.983 479.825 587.913 478.725H591.633C591.673 478.575 591.703 478.345 591.703 478.115C591.703 476.835 590.803 475.885 589.413 475.885C587.813 475.885 586.853 477.095 586.853 478.605C586.853 480.075 587.883 481.325 589.623 481.325C590.563 481.325 591.333 480.935 591.803 480.305ZM589.393 476.745C590.203 476.745 590.653 477.325 590.673 477.955H587.963C588.123 477.175 588.643 476.745 589.393 476.745ZM593.054 481.125H594.084V477.725C594.324 477.295 594.704 476.855 595.344 476.855C596.004 476.855 596.404 477.295 596.404 478.035V481.125H597.444V477.995C597.444 477.895 597.444 477.805 597.434 477.715C597.704 477.235 598.094 476.855 598.694 476.855C599.344 476.855 599.754 477.295 599.754 478.035V481.125H600.794V477.995C600.794 476.605 599.984 475.885 598.934 475.885C598.064 475.885 597.564 476.295 597.174 476.795C596.854 476.195 596.274 475.885 595.584 475.885C594.914 475.885 594.444 476.165 594.084 476.555V476.085H593.054V481.125ZM606.94 480.305L606.19 479.705C605.88 480.125 605.37 480.395 604.76 480.395C603.79 480.395 603.12 479.825 603.05 478.725H606.77C606.81 478.575 606.84 478.345 606.84 478.115C606.84 476.835 605.94 475.885 604.55 475.885C602.95 475.885 601.99 477.095 601.99 478.605C601.99 480.075 603.02 481.325 604.76 481.325C605.7 481.325 606.47 480.935 606.94 480.305ZM604.53 476.745C605.34 476.745 605.79 477.325 605.81 477.955H603.1C603.26 477.175 603.78 476.745 604.53 476.745ZM607.632 480.415C608.102 480.985 608.732 481.325 609.582 481.325C610.522 481.325 611.322 480.735 611.332 479.745C611.332 478.015 608.862 478.355 608.862 477.345C608.862 477.005 609.102 476.725 609.582 476.725C610.002 476.725 610.352 476.975 610.622 477.335L611.322 476.725C610.962 476.245 610.312 475.885 609.572 475.885C608.562 475.885 607.862 476.545 607.862 477.375C607.862 479.155 610.332 478.785 610.332 479.805C610.332 480.185 610.062 480.485 609.572 480.485C609.072 480.485 608.672 480.215 608.342 479.795L607.632 480.415Z" fill="#2A3070"/>
<path d="M651.722 518.16V517.753H653.229V516.239H653.649V517.753H655.153V518.16H653.649V519.664H653.229V518.16H651.722Z" fill="#2A3070"/>
<path d="M600.096 377C619.064 377 629.036 350.749 632.074 334.25C632.712 330.786 628.928 329.056 626.564 331.666C615.157 344.263 606.514 358.754 601.284 374.133C606.031 358.867 608.055 342.967 607.267 327.171C607.189 325.61 607.059 323.997 606.711 322.453C606.071 319.606 602.762 320.148 601.942 322.949C597.013 339.762 596.003 356.748 598.604 374.133C597.154 360.718 591.901 348.358 583.779 337.073C581.929 334.503 578.188 335.329 578.105 338.494C577.957 344.159 579.487 349.899 581.964 355.179C587.677 367.348 592.036 377 600.096 377Z" fill="#FACF35"/>
<path d="M201.87 86.9978C201.87 86.9978 212.189 53.1725 254.717 34.7817C279.969 23.863 306.51 25.6014 329.287 31.0976C350.081 36.1435 367.772 44.1549 377.563 52.0412C394.286 65.5614 425.875 96.149 414.4 141.169C402.325 188.543 364.552 201.783 321.804 216.086C279.057 230.388 263.755 251.201 256.976 277.797" stroke="#000091" stroke-opacity="0.06" stroke-width="52.4201" stroke-miterlimit="10" stroke-linecap="round"/>
<path d="M232.39 374.255C247.062 377.995 261.857 369.648 265.434 355.613C269.012 341.577 260.018 327.167 245.346 323.427C230.674 319.687 215.879 328.034 212.302 342.07C208.724 356.106 217.718 370.516 232.39 374.255Z" fill="#000091" fill-opacity="0.06"/>
<path d="M302.588 200.358C302.785 199.045 303.474 197.856 304.514 197.031L325.994 179.996C327.902 178.483 330.601 178.483 332.509 179.996L353.623 196.741C354.877 197.735 355.608 199.248 355.608 200.848V288.747C355.608 291.642 353.261 293.989 350.366 293.989H294.593C291.387 293.989 288.932 291.137 289.409 287.967L302.588 200.358Z" fill="#1EBE8E" stroke="#1EBE8E" stroke-width="1.96575"/>
<path d="M429.076 236.8V236.77C429.063 236.714 429.043 236.66 429.015 236.61C429.046 236.67 429.066 236.734 429.076 236.8ZM389.706 236.08C389.765 236.05 389.829 236.029 389.896 236.02H389.866C389.81 236.033 389.756 236.053 389.706 236.08Z" fill="black"/>
<path d="M308.939 157.864C308.939 155.412 307.57 153.165 305.39 152.041L269.277 133.411C264.916 131.161 259.72 134.327 259.72 139.234V289.507C259.72 293.126 262.654 296.059 266.273 296.059H302.386C306.005 296.059 308.939 293.126 308.939 289.507V157.864Z" fill="#2A3070"/>
<rect x="275.764" y="166.995" width="3.83363" height="10.223" rx="1.91681" fill="white"/>
<rect x="275.764" y="199.103" width="3.83363" height="10.223" rx="1.91681" fill="white"/>
<rect x="275.764" y="229.771" width="3.83363" height="10.223" rx="1.91681" fill="white"/>
<rect x="288.542" y="166.994" width="3.83363" height="10.223" rx="1.91681" fill="white"/>
<rect x="288.542" y="199.103" width="3.83363" height="10.223" rx="1.91681" fill="white"/>
<rect x="288.542" y="229.771" width="3.83363" height="10.223" rx="1.91681" fill="white"/>
<rect x="288.542" y="259.001" width="3.83363" height="10.223" rx="1.91681" fill="white"/>
<rect x="276.096" y="259.001" width="3.83363" height="10.223" rx="1.91681" fill="white"/>
<rect x="320.165" y="199.103" width="3.83363" height="10.223" rx="1.91681" fill="white"/>
<rect x="320.164" y="229.226" width="3.83363" height="10.223" rx="1.91681" fill="white"/>
<rect x="320.164" y="259.448" width="3.83363" height="10.223" rx="1.91681" fill="white"/>
<rect x="333.943" y="199.102" width="3.83363" height="10.223" rx="1.91681" fill="white"/>
<rect x="333.943" y="229.226" width="3.83363" height="10.223" rx="1.91681" fill="white"/>
<rect x="333.943" y="259.448" width="3.83363" height="10.223" rx="1.91681" fill="white"/>
<path d="M359.274 16.1329C361.497 24.7377 356.324 33.5158 347.719 35.7393C339.115 37.9628 330.336 32.7897 328.113 24.1848" stroke="#FACF35" stroke-width="10"/>
<circle cx="230.274" cy="24.2035" r="10.0877" transform="rotate(-158.203 230.274 24.2035)" stroke="#1EBE8E" stroke-width="6"/>
<circle cx="300.603" cy="80.5081" r="9.81143" transform="rotate(-44.4883 300.603 80.5081)" stroke="#6672F8" stroke-width="6.55251"/>
<path d="M224.784 121.687C221.83 126.3 215.695 127.645 211.082 124.691C206.469 121.737 205.123 115.602 208.077 110.989" stroke="#1EBE8E" stroke-width="6.55251"/>
<path d="M210.3 223.178C219.975 219.06 232.921 208.313 236.15 193.333C247.853 194.064 257.226 193.966 264.704 193.276C261.985 202.351 259.783 209.565 253.645 214.497C252.429 215.54 251.312 216.346 250.279 216.952C246.938 219.151 243.9 220.464 242.144 220.665C236.672 221.293 226.769 222.407 210.3 223.178Z" fill="#FCA081"/>
<path d="M242.136 220.543C236.664 221.17 226.761 222.284 210.292 223.055C218.265 221.744 232.302 218.65 237.121 214.13C240.624 216.611 243.81 220.618 250.271 216.829C251.372 216.104 252.505 215.283 253.637 214.374C252.421 215.417 251.304 216.223 250.271 216.829C246.93 219.028 243.892 220.341 242.136 220.543Z" fill="#DE6D47"/>
<path d="M239.939 150.423C229.155 154.732 210.646 156.394 196.453 147.174C187.855 156.859 180.438 164.08 174.042 169.362C183.239 174.354 190.58 178.29 199.228 177.374C200.993 177.244 202.495 177.006 203.777 176.676C208.106 175.797 211.508 174.46 213.04 173.251C217.815 169.481 226.439 162.643 239.939 150.423Z" fill="#FCA081"/>
<path d="M212.951 173.149C217.726 169.38 226.35 162.541 239.85 150.322C232.585 155.503 219.18 164.01 211.886 164.22C211.073 168.892 211.698 174.512 203.687 176.574C202.261 176.863 200.733 177.103 199.139 177.272C200.904 177.143 202.406 176.904 203.687 176.574C208.017 175.695 211.419 174.358 212.951 173.149Z" fill="#DE6D47"/>
<path d="M361.651 137.349C372.436 141.658 390.944 143.32 405.138 134.1C413.735 143.785 421.153 151.006 427.548 156.288C418.352 161.28 411.01 165.216 402.363 164.3C400.598 164.17 399.096 163.932 397.814 163.602C393.485 162.723 390.083 161.386 388.551 160.177C383.776 156.407 375.151 149.569 361.651 137.349Z" fill="#FCA081"/>
<path d="M388.64 160.074C383.865 156.305 375.24 149.467 361.74 137.247C369.005 142.429 382.41 150.935 389.704 151.146C390.517 155.817 389.892 161.437 397.903 163.499C399.329 163.789 400.857 164.028 402.451 164.197C400.687 164.068 399.184 163.829 397.903 163.499C393.574 162.621 390.172 161.284 388.64 160.074Z" fill="#DE6D47"/>
<path fill-rule="evenodd" clip-rule="evenodd" d="M185.587 87.8936H130.695C130.305 86.6435 130.095 85.3101 130.095 83.9258C130.095 77.2742 134.956 71.7977 141.202 71.0946C143.869 65.1344 149.7 61 156.464 61C162.221 61 167.303 63.9959 170.332 68.5637C171.33 68.3455 172.369 68.2302 173.436 68.2302C181.095 68.2302 187.304 74.1692 187.304 81.4953C187.304 83.8153 186.681 85.9963 185.587 87.8936Z" fill="white"/>
<path fill-rule="evenodd" clip-rule="evenodd" d="M284.908 137.524H353.581C354.559 135.032 355.095 132.327 355.095 129.5C355.095 117.074 344.74 107 331.966 107C323.029 107 315.275 111.931 311.425 119.15C308.585 117.169 305.088 116 301.307 116C291.802 116 284.096 123.387 284.096 132.5C284.096 134.252 284.38 135.94 284.908 137.524Z" fill="white"/>
<path fill-rule="evenodd" clip-rule="evenodd" d="M309.601 70.9974C309.725 70.7999 309.847 70.5998 309.964 70.3973C310.183 70.6049 310.409 70.8051 310.643 70.9974H327.548C330.331 68.7049 332.095 65.3005 332.095 61.4999C332.095 54.5963 326.275 48.9999 319.095 48.9999C315.863 48.9999 312.907 50.134 310.633 52.0108C307.6 45.7682 301.354 41.485 294.143 41.485C288.731 41.485 283.864 43.8965 280.49 47.7378C278.254 46.6242 275.746 45.9999 273.095 45.9999C263.706 45.9999 256.095 53.8349 256.095 63.4999C256.095 66.1829 256.682 68.7249 257.73 70.9974H309.601Z" fill="white"/>
<path fill-rule="evenodd" clip-rule="evenodd" d="M471.935 108.525H400.25C399.504 106.815 399.094 104.951 399.094 103C399.094 94.7158 406.482 88 415.594 88C417.449 88 419.232 88.2782 420.896 88.7912C424.052 82.9565 430.083 79.0125 437.003 79.0125C443.638 79.0125 449.455 82.638 452.705 88.0792C454.518 87.3499 456.51 86.9468 458.6 86.9468C467.005 86.9468 473.819 93.4641 473.819 101.504C473.819 104.05 473.135 106.443 471.935 108.525Z" fill="white"/>
<path d="M385.595 71.0029L402.093 87.5014L390.952 98.643L374.453 82.1445L385.595 71.0029Z" fill="#2A3070"/>
<circle cx="396.839" cy="93.3889" r="7.87832" transform="rotate(45 396.839 93.3889)" fill="#6672F8"/>
<circle cx="379.959" cy="76.5083" r="7.87832" transform="rotate(45 379.959 76.5083)" fill="#FACF35"/>
<path d="M145.832 79.9473V80.8713H146.701L146.151 82.8953H147.185L147.735 80.8713H149.539L148.989 82.8953H150.023L150.573 80.8713H152.454V79.9473H150.837L151.321 78.1433H152.454V77.2193H151.585L152.135 75.1953H151.101L150.551 77.2193H148.747L149.297 75.1953H148.263L147.713 77.2193H145.832V78.1433H147.449L146.965 79.9473H145.832ZM147.999 79.9473L148.483 78.1433H150.287L149.803 79.9473H147.999ZM154.047 82.8953H155.301V79.6393H156.225C156.269 79.6393 156.313 79.6393 156.368 79.6393L158.513 82.8953H160.009L157.567 79.3863C158.37 79.0453 158.832 78.3523 158.832 77.4173C158.832 76.0533 157.842 75.1953 156.225 75.1953H154.047V82.8953ZM156.291 76.2623C157.072 76.2623 157.523 76.7023 157.523 77.3953C157.523 78.1323 157.072 78.5723 156.291 78.5723H155.301V76.2623H156.291ZM160.552 81.8283C161.234 82.6533 162.081 83.1153 163.291 83.1153C164.666 83.1153 165.733 82.2463 165.755 80.8713C165.755 78.2753 162.169 78.6713 162.169 77.0873C162.169 76.5043 162.598 76.0973 163.269 76.0973C163.896 76.0973 164.424 76.4603 164.875 77.0873L165.81 76.2513C165.194 75.4813 164.369 74.9753 163.258 74.9753C161.861 74.9753 160.882 75.9433 160.882 77.1203C160.882 79.6943 164.468 79.3093 164.468 80.9043C164.468 81.5533 164.028 81.9823 163.269 81.9823C162.598 81.9823 161.982 81.6193 161.476 80.9813L160.552 81.8283ZM167.657 82.8953H171.947V81.8283H168.911V79.5073H171.507V78.4403H168.911V76.2623H171.947V75.1953H167.657V82.8953Z" fill="#2A3070"/>
<path d="M264.503 60.1836V61.1076H265.372L264.822 63.1316H265.856L266.406 61.1076H268.21L267.66 63.1316H268.694L269.244 61.1076H271.125V60.1836H269.508L269.992 58.3796H271.125V57.4556H270.256L270.806 55.4316H269.772L269.222 57.4556H267.418L267.968 55.4316H266.934L266.384 57.4556H264.503V58.3796H266.12L265.636 60.1836H264.503ZM266.67 60.1836L267.154 58.3796H268.958L268.474 60.1836H266.67ZM272.453 63.1316H273.586V59.4356C273.872 58.9626 274.334 58.5886 275.038 58.5886C275.269 58.5886 275.445 58.6216 275.621 58.6656V57.5546C275.478 57.5106 275.313 57.4776 275.137 57.4776C274.455 57.4776 273.971 57.7856 273.586 58.2146V57.5876H272.453V63.1316ZM281.583 62.2296L280.758 61.5696C280.417 62.0316 279.856 62.3286 279.185 62.3286C278.118 62.3286 277.381 61.7016 277.304 60.4916H281.396C281.44 60.3266 281.473 60.0736 281.473 59.8206C281.473 58.4126 280.483 57.3676 278.954 57.3676C277.194 57.3676 276.138 58.6986 276.138 60.3596C276.138 61.9766 277.271 63.3516 279.185 63.3516C280.219 63.3516 281.066 62.9226 281.583 62.2296ZM278.932 58.3136C279.823 58.3136 280.318 58.9516 280.34 59.6446H277.359C277.535 58.7866 278.107 58.3136 278.932 58.3136ZM285.523 62.2846C284.445 62.2846 283.675 61.4596 283.675 60.3596C283.675 59.2706 284.445 58.4346 285.512 58.4346C286.15 58.4346 286.656 58.7426 286.964 59.1716L287.855 58.4896C287.349 57.8076 286.524 57.3676 285.512 57.3676C283.653 57.3676 282.487 58.7426 282.487 60.3596C282.487 61.9766 283.653 63.3516 285.512 63.3516C286.535 63.3516 287.349 62.9116 287.855 62.2296L286.964 61.5476C286.656 61.9766 286.15 62.2846 285.523 62.2846ZM291.196 64.4406L294.056 57.5876H292.846L291.152 61.6686L289.436 57.5876H288.182L290.547 63.1206L290.173 64.0116C289.909 64.6386 289.513 64.8366 288.952 64.8366C288.699 64.8366 288.446 64.7816 288.248 64.6936V65.7056C288.501 65.8156 288.787 65.8816 289.183 65.8816C290.173 65.8816 290.811 65.3646 291.196 64.4406ZM297.543 62.2846C296.465 62.2846 295.695 61.4596 295.695 60.3596C295.695 59.2706 296.465 58.4346 297.532 58.4346C298.17 58.4346 298.676 58.7426 298.984 59.1716L299.875 58.4896C299.369 57.8076 298.544 57.3676 297.532 57.3676C295.673 57.3676 294.507 58.7426 294.507 60.3596C294.507 61.9766 295.673 63.3516 297.532 63.3516C298.555 63.3516 299.369 62.9116 299.875 62.2296L298.984 61.5476C298.676 61.9766 298.17 62.2846 297.543 62.2846ZM301.06 63.1316H302.193V54.8816H301.06V63.1316ZM305.575 63.2966C306.257 63.2966 306.95 62.9886 307.346 62.5046V63.1316H308.479V59.4686C308.479 58.2476 307.654 57.3676 306.158 57.3676C305.168 57.3676 304.376 57.7856 303.881 58.4456L304.728 59.0946C305.047 58.6436 305.52 58.3686 306.125 58.3686C306.84 58.3686 307.346 58.7866 307.346 59.4686V59.7546L305.553 60.0516C304.376 60.2496 303.727 60.8546 303.727 61.6906C303.727 62.6696 304.475 63.2966 305.575 63.2966ZM304.871 61.6466C304.871 61.2286 305.157 60.9316 305.85 60.8106L307.346 60.5576V61.5146C307.016 62.0426 306.477 62.3726 305.784 62.3726C305.212 62.3726 304.871 62.0756 304.871 61.6466ZM309.661 64.1216C309.661 65.2546 310.717 65.8816 312.422 65.8816C314.105 65.8816 315.271 64.9796 315.271 63.7806C315.271 62.7796 314.556 62.0426 313.126 62.0426H311.619C311.322 62.0426 311.201 61.9106 311.201 61.6796C311.201 61.5146 311.3 61.3496 311.476 61.2066C311.685 61.2506 311.905 61.2836 312.147 61.2836C313.522 61.2836 314.347 60.3926 314.347 59.3146C314.347 59.0506 314.292 58.7866 314.193 58.5556H315.282V57.5876H313.236C312.928 57.4446 312.565 57.3676 312.147 57.3676C310.794 57.3676 309.969 58.2476 309.969 59.3146C309.969 59.9306 310.244 60.4916 310.728 60.8546C310.299 61.1516 310.09 61.5036 310.09 61.9436C310.09 62.2296 310.211 62.5266 310.453 62.7356C309.936 63.1206 309.661 63.5606 309.661 64.1216ZM312.158 60.4146C311.443 60.4146 311.025 59.9416 311.025 59.3146C311.025 58.6986 311.443 58.2366 312.158 58.2366C312.873 58.2366 313.291 58.6986 313.291 59.3146C313.291 59.9416 312.873 60.4146 312.158 60.4146ZM310.739 63.9676C310.739 63.5716 310.948 63.2746 311.256 63.0326H313.016C313.863 63.0326 314.138 63.4066 314.138 63.8796C314.138 64.5286 313.5 64.9576 312.4 64.9576C311.355 64.9576 310.739 64.5836 310.739 63.9676ZM321.125 62.2296L320.3 61.5696C319.959 62.0316 319.398 62.3286 318.727 62.3286C317.66 62.3286 316.923 61.7016 316.846 60.4916H320.938C320.982 60.3266 321.015 60.0736 321.015 59.8206C321.015 58.4126 320.025 57.3676 318.496 57.3676C316.736 57.3676 315.68 58.6986 315.68 60.3596C315.68 61.9766 316.813 63.3516 318.727 63.3516C319.761 63.3516 320.608 62.9226 321.125 62.2296ZM318.474 58.3136C319.365 58.3136 319.86 58.9516 319.882 59.6446H316.901C317.077 58.7866 317.649 58.3136 318.474 58.3136Z" fill="#2A3070"/>
<path d="M411.502 99.7109V100.635H412.371L411.821 102.659H412.855L413.405 100.635H415.209L414.659 102.659H415.693L416.243 100.635H418.124V99.7109H416.507L416.991 97.9069H418.124V96.9829H417.255L417.805 94.9589H416.771L416.221 96.9829H414.417L414.967 94.9589H413.933L413.383 96.9829H411.502V97.9069H413.119L412.635 99.7109H411.502ZM413.669 99.7109L414.153 97.9069H415.957L415.473 99.7109H413.669ZM419.452 102.659H420.585V98.9189C420.849 98.4459 421.267 97.9619 421.971 97.9619C422.697 97.9619 423.137 98.4459 423.137 99.2599V102.659H424.281V99.2159C424.281 99.1059 424.281 99.0069 424.27 98.9079C424.567 98.3799 424.996 97.9619 425.656 97.9619C426.371 97.9619 426.822 98.4459 426.822 99.2599V102.659H427.966V99.2159C427.966 97.6869 427.075 96.8949 425.92 96.8949C424.963 96.8949 424.413 97.3459 423.984 97.8959C423.632 97.2359 422.994 96.8949 422.235 96.8949C421.498 96.8949 420.981 97.2029 420.585 97.6319V97.1149H419.452V102.659ZM432.296 96.8949C430.503 96.8949 429.282 98.2479 429.282 99.8869C429.282 101.526 430.503 102.879 432.296 102.879C434.1 102.879 435.31 101.526 435.31 99.8869C435.31 98.2479 434.1 96.8949 432.296 96.8949ZM432.307 101.812C431.24 101.812 430.47 100.954 430.47 99.8869C430.47 98.8199 431.24 97.9619 432.307 97.9619C433.352 97.9619 434.122 98.8089 434.122 99.8869C434.122 100.943 433.352 101.812 432.307 101.812ZM442.556 99.8869C442.556 98.2699 441.467 96.8949 439.729 96.8949C438.926 96.8949 438.332 97.1809 437.859 97.6869V94.4089H436.726V102.659H437.859V102.087C438.332 102.593 438.926 102.879 439.729 102.879C441.467 102.879 442.556 101.504 442.556 99.8869ZM439.586 97.9619C440.653 97.9619 441.368 98.7979 441.368 99.8869C441.368 100.976 440.653 101.812 439.586 101.812C438.871 101.812 438.266 101.482 437.859 100.877V98.8969C438.244 98.3029 438.86 97.9619 439.586 97.9619ZM444.549 95.8829C444.967 95.8829 445.319 95.5309 445.319 95.1129C445.319 94.6949 444.967 94.3429 444.549 94.3429C444.131 94.3429 443.779 94.6949 443.779 95.1129C443.779 95.5309 444.131 95.8829 444.549 95.8829ZM443.977 102.659H445.11V97.1149H443.977V102.659ZM446.963 102.659H448.096V94.4089H446.963V102.659ZM450.521 95.8829C450.939 95.8829 451.291 95.5309 451.291 95.1129C451.291 94.6949 450.939 94.3429 450.521 94.3429C450.103 94.3429 449.751 94.6949 449.751 95.1129C449.751 95.5309 450.103 95.8829 450.521 95.8829ZM449.949 102.659H451.082V97.1149H449.949V102.659ZM453.266 100.734C453.266 102.087 453.948 102.769 455.246 102.769C455.675 102.769 455.983 102.714 456.247 102.604V101.603C456.049 101.68 455.796 101.724 455.422 101.724C454.806 101.724 454.41 101.482 454.41 100.734V98.1379H456.247V97.1149H454.41V95.7289H453.266V97.1149H452.221V98.1379H453.266V100.734ZM460.482 96.2349L461.78 94.4089H460.526L459.382 96.2349H460.482ZM462.495 101.757L461.67 101.097C461.329 101.559 460.768 101.856 460.097 101.856C459.03 101.856 458.293 101.229 458.216 100.019H462.308C462.352 99.8539 462.385 99.6009 462.385 99.3479C462.385 97.9399 461.395 96.8949 459.866 96.8949C458.106 96.8949 457.05 98.2259 457.05 99.8869C457.05 101.504 458.183 102.879 460.097 102.879C461.131 102.879 461.978 102.45 462.495 101.757ZM459.844 97.8409C460.735 97.8409 461.23 98.4789 461.252 99.1719H458.271C458.447 98.3139 459.019 97.8409 459.844 97.8409Z" fill="#2A3070"/>
<path d="M290.503 129.71V130.634H291.372L290.822 132.658H291.856L292.406 130.634H294.21L293.66 132.658H294.694L295.244 130.634H297.125V129.71H295.508L295.992 127.906H297.125V126.982H296.256L296.806 124.958H295.772L295.222 126.982H293.418L293.968 124.958H292.934L292.384 126.982H290.503V127.906H292.12L291.636 129.71H290.503ZM292.67 129.71L293.154 127.906H294.958L294.474 129.71H292.67ZM297.97 129.886C297.97 131.503 299.059 132.878 300.808 132.878C301.6 132.878 302.194 132.592 302.656 132.097V132.658H303.811V124.408H302.656V127.675C302.194 127.18 301.6 126.894 300.808 126.894C299.059 126.894 297.97 128.269 297.97 129.886ZM299.169 129.886C299.169 128.797 299.884 127.961 300.951 127.961C301.644 127.961 302.249 128.28 302.656 128.885V130.887C302.282 131.47 301.666 131.811 300.951 131.811C299.884 131.811 299.169 130.975 299.169 129.886ZM309.402 130.282C309.402 131.239 308.885 131.811 308.038 131.811C307.169 131.811 306.663 131.239 306.663 130.282V127.114H305.519V130.227C305.519 131.888 306.476 132.878 308.038 132.878C309.589 132.878 310.546 131.888 310.546 130.227V127.114H309.402V130.282ZM312.268 132.658H313.401V128.962C313.687 128.489 314.149 128.115 314.853 128.115C315.084 128.115 315.26 128.148 315.436 128.192V127.081C315.293 127.037 315.128 127.004 314.952 127.004C314.27 127.004 313.786 127.312 313.401 127.741V127.114H312.268V132.658ZM317.954 132.823C318.636 132.823 319.329 132.515 319.725 132.031V132.658H320.858V128.995C320.858 127.774 320.033 126.894 318.537 126.894C317.547 126.894 316.755 127.312 316.26 127.972L317.107 128.621C317.426 128.17 317.899 127.895 318.504 127.895C319.219 127.895 319.725 128.313 319.725 128.995V129.281L317.932 129.578C316.755 129.776 316.106 130.381 316.106 131.217C316.106 132.196 316.854 132.823 317.954 132.823ZM317.25 131.173C317.25 130.755 317.536 130.458 318.229 130.337L319.725 130.084V131.041C319.395 131.569 318.856 131.899 318.163 131.899C317.591 131.899 317.25 131.602 317.25 131.173ZM328.464 129.886C328.464 128.269 327.375 126.894 325.637 126.894C324.834 126.894 324.24 127.18 323.767 127.686V124.408H322.634V132.658H323.767V132.086C324.24 132.592 324.834 132.878 325.637 132.878C327.375 132.878 328.464 131.503 328.464 129.886ZM325.494 127.961C326.561 127.961 327.276 128.797 327.276 129.886C327.276 130.975 326.561 131.811 325.494 131.811C324.779 131.811 324.174 131.481 323.767 130.876V128.896C324.152 128.302 324.768 127.961 325.494 127.961ZM330.457 125.882C330.875 125.882 331.227 125.53 331.227 125.112C331.227 124.694 330.875 124.342 330.457 124.342C330.039 124.342 329.687 124.694 329.687 125.112C329.687 125.53 330.039 125.882 330.457 125.882ZM329.885 132.658H331.018V127.114H329.885V132.658ZM332.871 132.658H334.004V124.408H332.871V132.658ZM336.429 125.882C336.847 125.882 337.199 125.53 337.199 125.112C337.199 124.694 336.847 124.342 336.429 124.342C336.011 124.342 335.659 124.694 335.659 125.112C335.659 125.53 336.011 125.882 336.429 125.882ZM335.857 132.658H336.99V127.114H335.857V132.658ZM339.174 130.733C339.174 132.086 339.856 132.768 341.154 132.768C341.583 132.768 341.891 132.713 342.155 132.603V131.602C341.957 131.679 341.704 131.723 341.33 131.723C340.714 131.723 340.318 131.481 340.318 130.733V128.137H342.155V127.114H340.318V125.728H339.174V127.114H338.129V128.137H339.174V130.733ZM346.39 126.234L347.688 124.408H346.434L345.29 126.234H346.39ZM348.403 131.756L347.578 131.096C347.237 131.558 346.676 131.855 346.005 131.855C344.938 131.855 344.201 131.228 344.124 130.018H348.216C348.26 129.853 348.293 129.6 348.293 129.347C348.293 127.939 347.303 126.894 345.774 126.894C344.014 126.894 342.958 128.225 342.958 129.886C342.958 131.503 344.091 132.878 346.005 132.878C347.039 132.878 347.886 132.449 348.403 131.756ZM345.752 127.84C346.643 127.84 347.138 128.478 347.16 129.171H344.179C344.355 128.313 344.927 127.84 345.752 127.84Z" fill="#2A3070"/>
<path d="M265.513 124.125C258.745 119.547 253.524 112.497 248.57 106.097C246.046 102.835 243.934 99.0091 243.17 94.9094C242.246 89.9516 243.983 87.8122 248.975 87.7318C252.039 87.6825 254.494 89.5845 255.118 92.8538C255.931 97.1132 252.531 97.7864 248.84 98.3129C236.013 100.142 230.032 90.2575 237.5 78.7345C243.554 69.3925 249.064 61.4568 250.325 50.1252" stroke="black" stroke-linecap="round" stroke-linejoin="round"/>
<path d="M323.513 145.901C342 154.331 381.095 188 386.56 141.508C392.025 95.0159 348.095 180.5 422.595 110.5" stroke="black" stroke-linecap="round" stroke-linejoin="round"/>
<path d="M333.095 91C354.095 43.5 392.595 55 408.178 20.1074" stroke="black" stroke-linecap="round" stroke-linejoin="round"/>
<path d="M254.513 149.125C248.984 144.075 235.222 129.119 226.377 136.49C220.391 141.479 215.274 146.25 211.131 136.456C208.156 129.425 205.243 123.618 197.231 122.166C189.417 120.749 180.763 121.76 172.831 121.76C162.678 121.76 156.019 114.312 159.402 104.125" stroke="black" stroke-linecap="round" stroke-linejoin="round"/>
<path d="M512.594 533.5C479.594 583 365.094 590 316.095 571.116" stroke="black"/>
<path d="M318.288 576.559C317.91 575.859 314.905 571.775 315.257 570.641C315.655 569.358 321.571 568.452 322.424 568.962" stroke="black" stroke-linecap="round" stroke-linejoin="round"/>
<path d="M255.013 506.625C255.013 556.422 214.852 596.625 165.513 596.625C116.175 596.625 76.0133 556.422 76.0133 506.625C76.0133 456.828 116.175 416.625 165.513 416.625C214.852 416.625 255.013 456.828 255.013 506.625Z" stroke="#1EBE8E" stroke-width="43"/>
<ellipse cx="31.6067" cy="544.162" rx="18.9092" ry="45.5088" transform="rotate(-17.2604 31.6067 544.162)" fill="#6672F8"/>
<path d="M45.655 618.283C46.0831 599.215 40.1157 553.928 26.8157 527.328" stroke="#2A3070" stroke-width="1.4" stroke-linecap="round"/>
<path d="M26.9323 550.637C29.5135 552.179 35.3705 556.106 38.149 559.477C41.0879 550.45 42.2445 546.797 42.4554 546.099" stroke="#2A3070" stroke-width="1.4" stroke-linecap="round"/>
<path d="M21.6676 536.766C24.3848 538.053 30.5915 541.4 33.6806 544.489C35.7399 535.222 36.5408 531.475 36.6838 530.76" stroke="#2A3070" stroke-width="1.4" stroke-linecap="round"/>
<path d="M101.383 378.737C101.128 375.815 103.431 373.302 106.364 373.302H173.468C176.06 373.302 178.223 375.283 178.449 377.866L186.34 468.092C186.596 471.014 184.293 473.527 181.359 473.527H114.256C111.663 473.527 109.501 471.546 109.275 468.963L101.383 378.737Z" fill="#2A3070"/>
<path d="M103.994 378.743C103.735 375.819 106.039 373.301 108.974 373.301H176.077C178.667 373.301 180.829 375.28 181.057 377.86L188.937 466.784C189.196 469.709 186.892 472.226 183.957 472.226H116.854C114.264 472.226 112.102 470.247 111.874 467.667L103.994 378.743Z" fill="white"/>
<path d="M117.017 389.162C116.754 386.236 119.059 383.715 121.997 383.715H165.722C168.31 383.715 170.471 385.69 170.702 388.267L173.311 417.316C173.573 420.243 171.269 422.764 168.331 422.764H124.605C122.017 422.764 119.857 420.789 119.625 418.211L117.017 389.162Z" fill="#F2F2FA"/>
<line x1="122.384" y1="436.432" x2="175.753" y2="436.432" stroke="#6672F8" stroke-width="1.3" stroke-linecap="round"/>
<line x1="123.686" y1="446.845" x2="177.055" y2="446.845" stroke="#6672F8" stroke-width="1.3" stroke-linecap="round"/>
<line x1="124.988" y1="457.258" x2="165.34" y2="457.258" stroke="#6672F8" stroke-width="1.3" stroke-linecap="round"/>
<path d="M43.9379 517.2C43.6824 514.278 45.9856 511.764 48.9189 511.764H122.034C124.626 511.764 126.789 513.746 127.015 516.329L135.589 614.364C135.845 617.286 133.542 619.8 130.608 619.8H57.4935C54.9009 619.8 52.7384 617.818 52.5125 615.236L43.9379 517.2Z" fill="#2A3070"/>
<path d="M46.6495 517.205C46.3904 514.281 48.6944 511.764 51.63 511.764H124.744C127.334 511.764 129.496 513.742 129.724 516.323L138.287 612.955C138.546 615.88 136.242 618.397 133.307 618.397H60.1931C57.6027 618.397 55.4412 616.418 55.2126 613.838L46.6495 517.205Z" fill="white"/>
<path d="M60.6872 528.436C60.4244 525.51 62.7292 522.989 65.6672 522.989H113.582C116.17 522.989 118.33 524.964 118.562 527.542L121.444 559.633C121.706 562.56 119.402 565.081 116.464 565.081H68.5489C65.9607 565.081 63.8004 563.106 63.5689 560.528L60.6872 528.436Z" fill="#F2F2FA"/>
<line x1="66.4601" y1="579.864" x2="124.089" y2="579.864" stroke="#6672F8" stroke-width="1.3" stroke-linecap="round"/>
<line x1="67.8634" y1="591.089" x2="125.492" y2="591.089" stroke="#6672F8" stroke-width="1.3" stroke-linecap="round"/>
<line x1="69.2667" y1="602.313" x2="112.865" y2="602.313" stroke="#6672F8" stroke-width="1.3" stroke-linecap="round"/>
<mask id="mask0" mask-type="alpha" maskUnits="userSpaceOnUse" x="60" y="523" width="62" height="43">
<path d="M60.8726 528.926C60.6098 526 62.9146 523.479 65.8525 523.479H113.767C116.355 523.479 118.516 525.454 118.747 528.032L121.629 560.123C121.892 563.05 119.587 565.571 116.649 565.571H68.7342C66.1461 565.571 63.9857 563.596 63.7543 561.018L60.8726 528.926Z" fill="#F2F2FA"/>
</mask>
<g mask="url(#mask0)">
<circle cx="102.354" cy="553.575" r="10.906" stroke="#1EBE8E" stroke-width="1.3"/>
<circle cx="69.3366" cy="553.575" r="10.906" stroke="#1EBE8E" stroke-width="1.3"/>
<path d="M97.8134 534.178H93.0672L102.353 553.369" stroke="#2A3070" stroke-width="1.3" stroke-linecap="round"/>
<path d="M74.2888 531.289L83.9875 550.273" stroke="#2A3070" stroke-width="1.3"/>
<path d="M86.8768 550.479L95.3374 538.717" stroke="#2A3070" stroke-width="1.3"/>
<path d="M94.3065 536.86H76.9725L69.5436 553.369" stroke="#2A3070" stroke-width="1.3"/>
<line x1="72.0495" y1="531.051" x2="76.9402" y2="531.051" stroke="#2A3070" stroke-width="1.3" stroke-linecap="round"/>
<circle cx="85.2257" cy="552.956" r="3.09535" stroke="#2A3070" stroke-width="1.3"/>
<path d="M69.3365 553.266H82.337" stroke="#2A3070" stroke-width="1.3"/>
</g>
<rect x="505.095" y="492.26" width="16.9213" height="16.9213" rx="8.46063" fill="#F2F2FA"/>
<path opacity="0.6" d="M509.5 501.227V500.239H513.16V496.562H514.181V500.239H517.834V501.227H514.181V504.879H513.16V501.227H509.5Z" fill="#2A3070"/>
<defs>
<filter id="filter0_d" x="380.095" y="367" width="266" height="173" filterUnits="userSpaceOnUse" color-interpolation-filters="sRGB">
<feFlood flood-opacity="0" result="BackgroundImageFix"/>
<feColorMatrix in="SourceAlpha" type="matrix" values="0 0 0 0 0 0 0 0 0 0 0 0 0 0 0 0 0 0 127 0"/>
<feOffset dy="4"/>
<feGaussianBlur stdDeviation="7"/>
<feColorMatrix type="matrix" values="0 0 0 0 0.4 0 0 0 0 0.447059 0 0 0 0 0.972549 0 0 0 0.3 0"/>
<feBlend mode="normal" in2="BackgroundImageFix" result="effect1_dropShadow"/>
<feBlend mode="normal" in="SourceGraphic" in2="effect1_dropShadow" result="shape"/>
</filter>
</defs>
</svg>
