<svg width="45" height="54" viewBox="0 0 45 54" fill="none" xmlns="http://www.w3.org/2000/svg">
<path d="M20.0618 27.741C21.2509 26.4435 23.2962 26.4435 24.4852 27.741L36.9561 41.3487C38.7196 43.273 37.3545 46.3756 34.7444 46.3756H9.80271C7.19256 46.3756 5.82749 43.273 7.591 41.3487L20.0618 27.741Z" fill="#FACF35"/>
<path d="M24.485 26.5461C23.296 27.8436 21.2507 27.8436 20.0616 26.5461L7.59082 12.9384C5.8273 11.0141 7.19237 7.91147 9.80252 7.91147L34.7442 7.91147C37.3543 7.91147 38.7194 11.0141 36.9559 12.9384L24.485 26.5461Z" fill="#6672F8"/>
<path d="M21.2562 36.8553C21.8836 36.4847 22.6629 36.4847 23.2904 36.8553L29.5874 40.5744C31.3402 41.6097 30.606 44.2965 28.5703 44.2965H15.9763C13.9405 44.2965 13.2063 41.6097 14.9592 40.5744L21.2562 36.8553Z" fill="#6672F8"/>
<path d="M24.0243 20.5746C23.2637 21.9526 21.283 21.9526 20.5224 20.5747L18.0105 16.0241C17.2747 14.6911 18.2389 13.0575 19.7615 13.0575L24.7852 13.0575C26.3078 13.0575 27.272 14.6911 26.5362 16.024L24.0243 20.5746Z" fill="#FACF35"/>
<path d="M22.8715 23.2826C22.592 23.7186 21.9549 23.7186 21.6754 23.2826C21.3724 22.8098 21.7119 22.1889 22.2734 22.1889C22.835 22.1889 23.1745 22.8098 22.8715 23.2826Z" fill="#FACF35"/>
<path d="M22.5724 26.3745C22.4327 26.5925 22.1142 26.5925 21.9744 26.3745C21.8229 26.1381 21.9927 25.8277 22.2734 25.8277C22.5542 25.8277 22.724 26.1381 22.5724 26.3745Z" fill="#FACF35"/>
<path d="M22.6721 24.9263C22.4858 25.217 22.0611 25.217 21.8748 24.9263C21.6727 24.6111 21.8991 24.1972 22.2734 24.1972C22.6478 24.1972 22.8741 24.6111 22.6721 24.9263Z" fill="#FACF35"/>
<path d="M21.8307 30.6559C22.0376 30.3332 22.5091 30.3332 22.716 30.6559C22.9403 31.0058 22.689 31.4654 22.2733 31.4654C21.8577 31.4654 21.6064 31.0058 21.8307 30.6559Z" fill="#6672F8"/>
<path d="M21.6754 32.3115C21.9549 31.8755 22.592 31.8755 22.8715 32.3115C23.1745 32.7843 22.835 33.4052 22.2734 33.4052C21.7119 33.4052 21.3724 32.7843 21.6754 32.3115Z" fill="#6672F8"/>
<path d="M21.4761 34.6142C21.8487 34.0328 22.6982 34.0328 23.0708 34.6142C23.4748 35.2445 23.0222 36.0724 22.2734 36.0724C21.5247 36.0724 21.072 35.2445 21.4761 34.6142Z" fill="#6672F8"/>
<path d="M22.0907 28.2642C22.1839 28.1188 22.3962 28.1188 22.4894 28.2642C22.5904 28.4218 22.4772 28.6287 22.29 28.6287C22.1029 28.6287 21.9897 28.4218 22.0907 28.2642Z" fill="#6672F8"/>
<path d="M21.9837 29.3203C22.1234 29.1023 22.442 29.1023 22.5817 29.3203C22.7332 29.5567 22.5635 29.8671 22.2827 29.8671C22.0019 29.8671 21.8322 29.5567 21.9837 29.3203Z" fill="#6672F8"/>
</svg>
