<svg width="360" height="216" viewBox="0 0 360 216" fill="none" xmlns="http://www.w3.org/2000/svg">
<g clip-path="url(#clip0_971_27237)">
<path d="M85.4929 162.544C89.0678 168.655 97.7367 172.804 107.6 175.541M107.6 175.541C118.267 178.5 130.33 179.81 138.858 180.164C140.533 180.234 141.904 178.88 141.904 177.204V148.605C141.904 146.948 143.247 145.605 144.904 145.605H151.86C153.788 145.605 155.218 143.826 154.79 141.947C152.943 133.851 148.177 112.887 141.904 84.775C133.779 48.3651 66.4753 43.0684 63.3859 84.775C60.6999 121.037 56.3457 176.316 55.2546 190.13C55.1168 191.875 56.4973 193.344 58.2475 193.344H106.477C108.285 193.344 109.683 191.756 109.452 189.962L107.6 175.541Z" stroke="#FCA081"/>
<path d="M94.7205 106.91C87.3797 104.367 76.5521 105.384 91.9677 129.792" stroke="#FCA081" stroke-linecap="round"/>
<ellipse opacity="0.2" rx="33.9733" ry="20.4661" transform="matrix(-0.995072 -0.0991597 -0.0991597 0.995072 102.769 81.6632)" fill="#FCA081"/>
<circle cx="121.125" cy="77.0198" r="9.575" stroke="#6672F8" stroke-width="3.85"/>
<path d="M74.0374 42.4327C74.5814 41.7659 75.4398 41.4399 76.2892 41.5776L78.765 41.9788C79.6144 42.1165 80.3259 42.6969 80.6314 43.5013L81.5218 45.846C81.8273 46.6505 81.6804 47.5569 81.1365 48.2237L79.5511 50.1671C79.0072 50.8339 78.1488 51.1599 77.2994 51.0222L74.8236 50.621C73.9742 50.4833 73.2627 49.903 72.9572 49.0985L72.0668 46.7538C71.7613 45.9493 71.9081 45.043 72.4521 44.3761L74.0374 42.4327Z" fill="#1EBE8E"/>
<path d="M103.008 75.0559C103.689 75.0559 104.32 75.4197 104.661 76.0102L109.549 84.4775C109.89 85.0681 109.89 85.7956 109.549 86.3862L104.661 94.8535C104.32 95.444 103.689 95.8078 103.008 95.8078L93.2303 95.8078C92.5484 95.8078 91.9183 95.444 91.5774 94.8535L86.6888 86.3862C86.3478 85.7956 86.3478 85.0681 86.6888 84.4775L91.5774 76.0102C91.9183 75.4197 92.5484 75.0559 93.2303 75.0559L103.008 75.0559Z" stroke="#1EBE8E"/>
<path d="M59.3214 68.7817C57.4331 67.643 56.8255 65.1891 57.9642 63.3008C59.1029 61.4125 61.5568 60.8048 63.4451 61.9436L82.25 73.2838L78.1262 80.1219L59.3214 68.7817Z" fill="#FCA081"/>
<path d="M76.3416 74.3833L82.2502 73.2837L85.319 78.7832C85.696 79.4589 85.1958 80.2884 84.4222 80.2702L78.1261 80.1219L76.3416 74.3833Z" fill="#2A3070"/>
<path d="M188.38 190.644C190.366 167.029 186.422 110.412 171.959 76.4093" stroke="#6672F8" stroke-width="1.5" stroke-linecap="round"/>
<path d="M170.325 105.325C173.408 107.435 180.372 112.751 183.561 117.144C187.894 106.173 189.607 101.732 189.922 100.882" stroke="#6672F8" stroke-width="1.5" stroke-linecap="round"/>
<path d="M164.854 87.7217C168.125 89.5252 175.567 94.149 179.162 98.2156C182.423 86.8803 183.702 82.2948 183.934 81.419" stroke="#6672F8" stroke-width="1.5" stroke-linecap="round"/>
<path d="M199.757 96.9375C201.999 107.922 199.621 118.825 196.033 127.114C194.24 131.255 192.154 134.722 190.216 137.198C189.247 138.437 188.325 139.415 187.506 140.103C186.67 140.808 186.011 141.15 185.567 141.232C185.112 141.315 184.357 141.237 183.306 140.902C182.277 140.574 181.042 140.026 179.662 139.261C176.905 137.732 173.629 135.366 170.359 132.272C163.814 126.079 157.365 117.032 155.123 106.048C152.873 95.0266 154.43 84.3328 157.591 76.1788C159.172 72.1019 161.146 68.6812 163.225 66.1806C165.314 63.6676 167.444 62.1603 169.324 61.7523C171.654 61.33 174.425 61.8764 177.387 63.3494C180.347 64.8216 183.446 67.1951 186.392 70.3351C192.283 76.6149 197.503 85.8968 199.757 96.9375Z" stroke="#6672F8" stroke-width="1.5" stroke-linecap="round"/>
<g opacity="0.4">
<path d="M266.934 98.5536L266.934 98.5537C265.746 100.066 264.396 101.878 262.932 103.843C262.774 104.055 262.615 104.269 262.454 104.484C260.808 106.693 259.032 109.066 257.2 111.388C253.546 116.02 249.635 120.498 246.056 123.086C245.381 123.573 244.531 123.918 243.568 124.199C242.604 124.481 241.492 124.709 240.28 124.946C240.091 124.983 239.898 125.02 239.703 125.058C237.395 125.506 234.72 126.025 231.827 127.013C225.581 129.146 218.293 133.475 211.798 144.053C205.376 154.516 200.473 166.517 197.291 176.12C195.7 180.921 194.542 185.114 193.839 188.207C193.488 189.755 193.252 191.02 193.133 191.943C193.073 192.406 193.044 192.773 193.043 193.042C193.042 193.06 193.042 193.078 193.043 193.095C195.278 192.759 198.552 191.742 202.344 190.33C206.399 188.82 211.002 186.875 215.473 184.881C224.415 180.894 232.808 176.723 235.204 175.472C245.007 170.348 248.468 163.124 251.99 155.771C252.365 154.987 252.742 154.201 253.127 153.416C255.12 149.351 257.344 145.314 260.895 141.723C264.451 138.127 269.314 135.002 276.556 132.71L276.707 133.182L276.556 132.71C290.102 128.425 297.333 122.608 300.357 116.768C303.368 110.952 302.261 105.007 298.886 100.297C295.502 95.5749 289.857 92.1288 283.886 91.3738C277.938 90.6217 271.66 92.5363 266.934 98.5536Z" fill="#6672F8" stroke="#6672F8"/>
<path d="M286.194 105.635C265.933 121.818 221.789 141.248 193.553 193.853" stroke="white" stroke-linecap="round"/>
<path d="M224.848 57.3475C212.782 82.2523 205.694 115.403 209.501 139.677C210.893 137.769 212.93 135.315 215.416 132.439C217.816 129.662 220.659 126.466 223.781 122.956C224.863 121.739 225.979 120.484 227.122 119.196C236.01 109.178 246.551 97.1047 255.716 84.8655C264.892 72.6118 272.64 60.2564 275.995 49.6717C277.671 44.3829 278.23 39.5992 277.375 35.5188C276.527 31.4681 274.274 28.0551 270.201 25.4838C266.246 22.9877 262.247 22.1493 258.278 22.6557C254.295 23.164 250.289 25.0342 246.357 28.0449C238.482 34.0751 231.032 44.5837 224.848 57.3475Z" fill="#1EBE8E" stroke="#1EBE8E" stroke-width="1.5" stroke-linecap="round"/>
<path d="M208.601 140.537C213.515 120.399 232.519 74.5342 253.964 50.3501" stroke="white" stroke-width="1.5" stroke-linecap="round"/>
</g>
<path d="M121.248 49.4314L126.085 51.5536L128.153 47.82C135.019 49.5151 141.329 47.5803 144.028 41.4274C146.958 34.7486 143.372 28.0958 137.299 25.4318C131.844 23.0387 126.848 23.7945 121.913 27.2107L125.977 33.195C129.15 31.1379 131.494 30.4104 134.222 31.607C136.898 32.7809 138.126 35.5772 136.926 38.3118C134.965 42.7819 130.477 42.3808 124.231 40.393L121.248 49.4314ZM118.25 62.9786C120.618 64.0171 123.651 62.8392 124.735 60.3675C125.819 57.8958 124.632 54.8667 122.264 53.8281C119.794 52.7445 116.813 53.945 115.729 56.4167C114.644 58.8883 115.78 61.8949 118.25 62.9786Z" fill="#D3B235"/>
<path d="M88.5905 42.9335L95.982 42.0705L95.8382 36.0603C105.392 33.2345 111.686 26.391 110.589 16.9899C109.397 6.78526 100.302 1.24995 91.0237 2.33329C82.6886 3.30645 77.1534 7.78071 73.585 15.4461L82.7845 19.829C85.1779 15.0699 87.5101 12.5171 91.6776 12.0305C95.7666 11.5531 99.2496 14.0786 99.7374 18.2568C100.535 25.0867 94.7933 27.7933 85.7845 29.8224L88.5905 42.9335ZM94.5883 61.5362C98.2054 61.1138 101.054 57.5234 100.613 53.7469C100.172 49.9703 96.5731 47.1327 92.9559 47.555C89.1816 47.9957 86.4115 51.577 86.8525 55.3535C87.2934 59.13 90.814 61.9768 94.5883 61.5362Z" fill="#000091"/>
</g>
<defs>
<clipPath id="clip0_971_27237">
<rect width="384" height="216" fill="white" transform="translate(-12)"/>
</clipPath>
</defs>
</svg>
