<svg width="238" height="179" viewBox="0 0 238 179" fill="none" xmlns="http://www.w3.org/2000/svg">
<path d="M162.328 107.854C162.328 133.492 140.029 156.247 110.022 156.247C80.016 156.247 57.7163 133.492 57.7163 107.854C57.7163 82.2158 80.016 59.4609 110.022 59.4609C140.029 59.4609 162.328 82.2158 162.328 107.854Z" stroke="#1EBE8E" stroke-width="43"/>
<ellipse rx="12.5114" ry="28.6836" transform="matrix(0.959709 -0.280997 0.313135 0.949709 20.9891 131.384)" fill="#6672F8"/>
<path d="M30.3269 177.847C30.6116 165.894 26.6438 137.506 17.8003 120.832" stroke="#2A3070" stroke-width="1.4" stroke-linecap="round"/>
<path d="M17.8771 135.443C19.5934 136.41 23.4879 138.871 25.3354 140.984C27.2895 135.326 28.0585 133.036 28.1988 132.598" stroke="#2A3070" stroke-width="1.4" stroke-linecap="round"/>
<path d="M14.3765 126.748C16.1832 127.554 20.3101 129.652 22.3641 131.588C23.7334 125.779 24.2659 123.431 24.361 122.982" stroke="#2A3070" stroke-width="1.4" stroke-linecap="round"/>
<path d="M67.5722 29.7431C67.3002 26.8119 69.6069 24.2812 72.5508 24.2812H113.801C116.383 24.2812 118.541 26.2479 118.78 28.8194L123.681 81.6453C123.953 84.5766 121.646 87.1072 118.702 87.1072H77.4518C74.8693 87.1072 72.7117 85.1405 72.4732 82.5691L67.5722 29.7431Z" fill="#2A3070"/>
<path d="M69.3104 29.7492C69.0346 26.8159 71.3422 24.2812 74.2884 24.2812H115.537C118.118 24.2812 120.274 26.2445 120.516 28.8133L125.404 80.8234C125.68 83.7567 123.373 86.2913 120.426 86.2913H79.1772C76.5971 86.2913 74.4406 84.328 74.1992 81.7592L69.3104 29.7492Z" fill="white"/>
<path d="M77.9726 36.2827C77.693 33.3473 80.0013 30.8086 82.9501 30.8086H108.655C111.232 30.8086 113.388 32.7683 113.632 35.3345L115.011 49.8121C115.291 52.7476 112.982 55.2862 110.034 55.2862H84.3291C81.7513 55.2862 79.596 53.3265 79.3516 50.7603L77.9726 36.2827Z" fill="#F2F2FA"/>
<line x1="81.5631" y1="63.6117" x2="116.613" y2="63.6117" stroke="#6672F8" stroke-width="1.3" stroke-linecap="round"/>
<line x1="82.4283" y1="70.1371" x2="117.479" y2="70.1371" stroke="#6672F8" stroke-width="1.3" stroke-linecap="round"/>
<line x1="83.2945" y1="76.6645" x2="109.69" y2="76.6645" stroke="#6672F8" stroke-width="1.3" stroke-linecap="round"/>
<path d="M29.3754 116.538C29.1034 113.607 31.4102 111.076 34.354 111.076H79.6011C82.1835 111.076 84.3411 113.043 84.5797 115.614L89.9349 173.336C90.2068 176.267 87.9001 178.798 84.9563 178.798H39.7092C37.1267 178.798 34.9691 176.831 34.7306 174.26L29.3754 116.538Z" fill="#2A3070"/>
<path d="M31.1805 116.544C30.9047 113.611 33.2123 111.076 36.1585 111.076H81.4045C83.9846 111.076 86.1411 113.039 86.3825 115.608L91.7255 172.45C92.0012 175.384 89.6937 177.918 86.7474 177.918H41.5015C38.9214 177.918 36.7649 175.955 36.5235 173.386L31.1805 116.544Z" fill="white"/>
<path d="M40.518 123.587C40.2384 120.652 42.5467 118.113 45.4955 118.113H73.9857C76.5634 118.113 78.7187 120.073 78.9631 122.639L80.5238 139.024C80.8034 141.96 78.4951 144.498 75.5463 144.498H47.0561C44.4784 144.498 42.3231 142.539 42.0787 139.972L40.518 123.587Z" fill="#F2F2FA"/>
<line x1="44.3785" y1="153.522" x2="82.2613" y2="153.522" stroke="#6672F8" stroke-width="1.3" stroke-linecap="round"/>
<line x1="45.3116" y1="160.557" x2="83.1944" y2="160.557" stroke="#6672F8" stroke-width="1.3" stroke-linecap="round"/>
<line x1="46.2437" y1="167.594" x2="74.7973" y2="167.594" stroke="#6672F8" stroke-width="1.3" stroke-linecap="round"/>
<mask id="mask0_2357_68792" style="mask-type:alpha" maskUnits="userSpaceOnUse" x="40" y="118" width="41" height="27">
<path d="M40.641 123.896C40.3614 120.961 42.6698 118.422 45.6185 118.422H74.1087C76.6865 118.422 78.8418 120.382 79.0862 122.948L80.6469 139.333C80.9265 142.268 78.6181 144.807 75.6694 144.807H47.1792C44.6014 144.807 42.4461 142.847 42.2017 140.281L40.641 123.896Z" fill="#F2F2FA"/>
</mask>
<g mask="url(#mask0_2357_68792)">
<path d="M75.0609 137.287C75.0609 140.893 71.9484 143.881 68.0271 143.881C64.1058 143.881 60.9933 140.893 60.9933 137.287C60.9933 133.681 64.1058 130.693 68.0271 130.693C71.9484 130.693 75.0609 133.681 75.0609 137.287Z" stroke="#1EBE8E" stroke-width="1.3"/>
<path d="M53.1068 137.287C53.1068 140.893 49.9943 143.881 46.073 143.881C42.1517 143.881 39.0392 140.893 39.0392 137.287C39.0392 133.681 42.1517 130.693 46.073 130.693C49.9943 130.693 53.1068 133.681 53.1068 137.287Z" stroke="#1EBE8E" stroke-width="1.3"/>
<path d="M65.0074 125.125H61.8516L68.026 137.155" stroke="#2A3070" stroke-width="1.3" stroke-linecap="round"/>
<path d="M49.3657 123.316L55.8146 135.217" stroke="#2A3070" stroke-width="1.3"/>
<path d="M57.7363 135.346L63.362 127.973" stroke="#2A3070" stroke-width="1.3"/>
<path d="M62.6762 126.809H51.1505L46.2109 137.157" stroke="#2A3070" stroke-width="1.3"/>
<line x1="48.0953" y1="122.924" x2="50.9116" y2="122.924" stroke="#2A3070" stroke-width="1.3" stroke-linecap="round"/>
<ellipse cx="56.6387" cy="136.899" rx="2.05816" ry="1.9403" stroke="#2A3070" stroke-width="1.3"/>
<path d="M46.0737 137.092H54.718" stroke="#2A3070" stroke-width="1.3"/>
</g>
<path d="M201.542 80.3271C201.814 77.3959 199.507 74.8652 196.563 74.8652H147.985C145.403 74.8652 143.245 76.8319 143.007 79.4033L137.273 141.204C137.001 144.136 139.308 146.666 142.251 146.666H190.829C193.412 146.666 195.569 144.7 195.808 142.128L201.542 80.3271Z" fill="#2A3070"/>
<path d="M199.679 81.1496C199.955 78.2162 197.648 75.6816 194.701 75.6816H146.125C143.545 75.6816 141.388 77.6449 141.147 80.2137L135.425 141.082C135.149 144.016 137.457 146.55 140.403 146.55H188.98C191.56 146.55 193.716 144.587 193.958 142.018L199.679 81.1496Z" fill="white"/>
<path d="M189.781 88.6147C190.061 85.6793 187.753 83.1406 184.804 83.1406H153.992C151.414 83.1406 149.259 85.1004 149.015 87.6665L147.303 105.641C147.023 108.576 149.331 111.115 152.28 111.115H183.092C185.67 111.115 187.825 109.155 188.069 106.589L189.781 88.6147Z" fill="#F2F2FA"/>
<line x1="0.65" y1="-0.65" x2="40.8932" y2="-0.65" transform="matrix(-1 0 0 1 186.346 121.373)" stroke="#6672F8" stroke-width="1.3" stroke-linecap="round"/>
<line x1="0.65" y1="-0.65" x2="40.8932" y2="-0.65" transform="matrix(-1 0 0 1 185.356 128.834)" stroke="#6672F8" stroke-width="1.3" stroke-linecap="round"/>
<line x1="0.65" y1="-0.65" x2="31.002" y2="-0.65" transform="matrix(-1 0 0 1 174.643 136.291)" stroke="#6672F8" stroke-width="1.3" stroke-linecap="round"/>
<path fill-rule="evenodd" clip-rule="evenodd" d="M178.73 46.7824C177.871 48.2476 175.769 47.8261 175.616 46.1579C175.273 42.401 175.525 38.3303 176.464 34.1699C177.402 30.009 178.93 26.1934 180.866 22.8933C181.726 21.4282 183.827 21.8497 183.98 23.5179C184.324 27.2748 184.072 31.3455 183.133 35.5059C182.194 39.6668 180.667 43.4824 178.73 46.7824Z" fill="#FCA081"/>
<path fill-rule="evenodd" clip-rule="evenodd" d="M173.214 48.3595C175.071 48.2422 175.77 50.2705 174.194 51.2043C171.006 53.0935 167.322 54.7283 163.282 55.9653C159.241 57.2023 155.241 57.9198 151.484 58.1571C149.627 58.2744 148.928 56.2461 150.504 55.3124C153.692 53.4231 157.376 51.7883 161.416 50.5513C165.457 49.3143 169.456 48.5968 173.214 48.3595Z" fill="#6672F8"/>
<path fill-rule="evenodd" clip-rule="evenodd" d="M199.011 65.1993C200.112 66.6139 198.67 68.2587 196.989 67.5056C193.588 65.9819 190.15 63.9281 186.876 61.3773C183.602 58.8264 180.815 56.0295 178.588 53.1677C177.487 51.753 178.929 50.1082 180.61 50.8614C184.011 52.385 187.449 54.4388 190.723 56.9897C193.997 59.5405 196.783 62.3374 199.011 65.1993Z" fill="#1EBE8E"/>
<path d="M174.084 48.8148C173.799 50.0781 174.654 51.329 176.007 51.6003C177.36 51.8717 178.681 51.0571 178.966 49.7938C179.251 48.5305 178.396 47.2796 177.043 47.0082C175.69 46.7369 174.369 47.5515 174.084 48.8148Z" fill="#2A3070" stroke="#2A3070"/>
<path d="M176.569 49.7891C176.569 69.5772 174.715 91.4334 173.675 111.22" stroke="#2A3070" stroke-width="1.3"/>
<line x1="167.577" y1="101.818" x2="167.577" y2="111.221" stroke="#2A3070" stroke-width="1.3"/>
<path d="M154.143 98.4513C151.772 95.1427 154.137 90.5391 158.207 90.5391H173.098C174.71 90.5391 176.223 91.3164 177.162 92.6268L178.563 94.5812C180.934 97.8898 178.569 102.493 174.499 102.493H159.607C157.995 102.493 156.482 101.716 155.543 100.406L154.143 98.4513Z" fill="#000091"/>
<path d="M155.283 98.4474C152.912 95.1388 155.277 90.5352 159.347 90.5352H174.238C175.85 90.5352 177.364 91.3125 178.303 92.6229L179.703 94.5773C182.074 97.8859 179.709 102.49 175.639 102.49H160.748C159.135 102.49 157.622 101.712 156.683 100.402L155.283 98.4474Z" fill="#FCA081"/>
<line x1="152.401" y1="93.7324" x2="179.538" y2="93.7324" stroke="white" stroke-width="1.5"/>
<line x1="155.32" y1="97.6758" x2="182.583" y2="97.6758" stroke="white" stroke-width="1.5"/>
<line y1="-0.75" x2="14.6981" y2="-0.75" transform="matrix(0.578034 0.816013 -0.84626 0.53277 155.066 90.5352)" stroke="white" stroke-width="1.5"/>
<line y1="-0.75" x2="14.6981" y2="-0.75" transform="matrix(0.578034 0.816013 -0.84626 0.53277 160.519 90.5352)" stroke="white" stroke-width="1.5"/>
<line y1="-0.75" x2="14.6981" y2="-0.75" transform="matrix(0.578034 0.816013 -0.84626 0.53277 165.971 90.5352)" stroke="white" stroke-width="1.5"/>
<line y1="-0.75" x2="14.6981" y2="-0.75" transform="matrix(0.578034 0.816013 -0.84626 0.53277 171.423 90.5352)" stroke="white" stroke-width="1.5"/>
<ellipse cx="188.87" cy="86.1473" rx="6.6492" ry="6.26843" fill="#FACF35"/>
<path d="M190.732 83.8322C190.259 83.4881 189.677 83.2852 189.046 83.2852C187.464 83.2852 186.181 84.5659 186.181 86.1458C186.181 87.7256 187.464 89.0063 189.046 89.0063C189.677 89.0063 190.259 88.8034 190.732 88.4593" stroke="white" stroke-width="1.3" stroke-linecap="round"/>
<line x1="185.818" y1="85.018" x2="188.059" y2="85.018" stroke="white" stroke-width="1.3" stroke-linecap="round"/>
<line x1="185.818" y1="86.6" x2="188.059" y2="86.6" stroke="white" stroke-width="1.3" stroke-linecap="round"/>
<g filter="url(#filter0_d_2357_68792)">
<rect x="66.5088" y="102.447" width="86.5073" height="16.2979" rx="8.14896" fill="#2A3070"/>
</g>
<path d="M75.3386 113.031H76.4366L77.1026 111.267H79.8566L80.5226 113.031H81.6206L79.1636 106.731H77.7956L75.3386 113.031ZM77.4446 110.385L78.4796 107.658L79.5146 110.385H77.4446ZM83.2553 107.487C83.5973 107.487 83.8853 107.199 83.8853 106.857C83.8853 106.515 83.5973 106.227 83.2553 106.227C82.9133 106.227 82.6252 106.515 82.6252 106.857C82.6252 107.199 82.9133 107.487 83.2553 107.487ZM82.7873 113.031H83.7143V108.495H82.7873V113.031ZM84.8706 110.763C84.8706 112.086 85.7616 113.211 87.1926 113.211C87.8226 113.211 88.3176 112.995 88.7046 112.617V113.031H89.6496V106.281H88.7046V108.909C88.3176 108.531 87.8226 108.315 87.1926 108.315C85.7616 108.315 84.8706 109.44 84.8706 110.763ZM85.8516 110.763C85.8516 109.872 86.4366 109.188 87.3096 109.188C87.8856 109.188 88.3716 109.458 88.7046 109.962V111.564C88.3806 112.059 87.8946 112.338 87.3096 112.338C86.4366 112.338 85.8516 111.654 85.8516 110.763ZM95.2406 112.293L94.5656 111.753C94.2866 112.131 93.8366 112.374 93.2966 112.374C92.3876 112.374 91.7756 111.771 91.7396 110.871H95.0876C95.1236 110.736 95.1506 110.529 95.1506 110.313C95.1506 109.161 94.3406 108.315 93.0896 108.315C91.6496 108.315 90.7856 109.404 90.7856 110.763C90.7856 112.086 91.7126 113.211 93.2786 113.211C94.1246 113.211 94.8176 112.86 95.2406 112.293ZM93.0986 109.107C93.7826 109.107 94.1876 109.584 94.2146 110.151H91.8116C91.9736 109.449 92.4416 109.107 93.0986 109.107ZM95.8636 112.392C96.2866 112.905 96.8536 113.211 97.6186 113.211C98.4646 113.211 99.1846 112.68 99.1936 111.789C99.1936 110.196 97.0156 110.529 97.0156 109.611C97.0156 109.296 97.2406 109.089 97.6546 109.089C98.0416 109.089 98.3656 109.305 98.5996 109.629L99.2386 109.071C98.9146 108.639 98.3206 108.315 97.6456 108.315C96.7546 108.315 96.1156 108.882 96.1156 109.647C96.1156 111.276 98.2936 110.925 98.2936 111.843C98.2936 112.185 98.0506 112.437 97.6096 112.437C97.1596 112.437 96.7996 112.203 96.5026 111.825L95.8636 112.392ZM102.782 115.245H103.709V112.599C104.096 112.986 104.6 113.211 105.239 113.211C106.661 113.211 107.552 112.086 107.552 110.763C107.552 109.44 106.661 108.315 105.239 108.315C104.6 108.315 104.096 108.54 103.709 108.927V108.495H102.782V115.245ZM103.709 111.546V109.98C104.042 109.467 104.528 109.188 105.122 109.188C105.995 109.188 106.58 109.872 106.58 110.763C106.58 111.654 105.995 112.338 105.122 112.338C104.528 112.338 104.042 112.059 103.709 111.546ZM111.784 111.087C111.784 111.87 111.361 112.338 110.668 112.338C109.957 112.338 109.543 111.87 109.543 111.087V108.495H108.607V111.042C108.607 112.401 109.39 113.211 110.668 113.211C111.937 113.211 112.72 112.401 112.72 111.042V108.495H111.784V111.087ZM118.899 110.763C118.899 109.44 118.008 108.315 116.586 108.315C115.947 108.315 115.443 108.54 115.056 108.927V106.281H114.129V113.031H115.056V112.599C115.443 112.986 115.947 113.211 116.586 113.211C118.008 113.211 118.899 112.086 118.899 110.763ZM115.056 111.546V109.98C115.389 109.467 115.875 109.188 116.469 109.188C117.342 109.188 117.927 109.872 117.927 110.763C117.927 111.654 117.342 112.338 116.469 112.338C115.875 112.338 115.389 112.059 115.056 111.546ZM120.062 113.031H120.989V106.281H120.062V113.031ZM122.973 107.487C123.315 107.487 123.603 107.199 123.603 106.857C123.603 106.515 123.315 106.227 122.973 106.227C122.631 106.227 122.343 106.515 122.343 106.857C122.343 107.199 122.631 107.487 122.973 107.487ZM122.505 113.031H123.432V108.495H122.505V113.031ZM124.588 110.763C124.588 112.086 125.479 113.211 126.901 113.211C127.531 113.211 128.035 112.995 128.422 112.608V115.245H129.367V108.495H128.422V108.918C128.035 108.531 127.531 108.315 126.901 108.315C125.479 108.315 124.588 109.44 124.588 110.763ZM125.56 110.763C125.56 109.872 126.145 109.188 127.018 109.188C127.603 109.188 128.089 109.458 128.422 109.962V111.564C128.098 112.059 127.612 112.338 127.018 112.338C126.145 112.338 125.56 111.654 125.56 110.763ZM133.95 111.087C133.95 111.87 133.527 112.338 132.834 112.338C132.123 112.338 131.709 111.87 131.709 111.087V108.495H130.773V111.042C130.773 112.401 131.556 113.211 132.834 113.211C134.103 113.211 134.886 112.401 134.886 111.042V108.495H133.95V111.087ZM140.39 112.293L139.715 111.753C139.436 112.131 138.986 112.374 138.446 112.374C137.537 112.374 136.925 111.771 136.889 110.871H140.237C140.273 110.736 140.3 110.529 140.3 110.313C140.3 109.161 139.49 108.315 138.239 108.315C136.799 108.315 135.935 109.404 135.935 110.763C135.935 112.086 136.862 113.211 138.428 113.211C139.274 113.211 139.967 112.86 140.39 112.293ZM138.248 109.107C138.932 109.107 139.337 109.584 139.364 110.151H136.961C137.123 109.449 137.591 109.107 138.248 109.107ZM141.013 112.392C141.436 112.905 142.003 113.211 142.768 113.211C143.614 113.211 144.334 112.68 144.343 111.789C144.343 110.196 142.165 110.529 142.165 109.611C142.165 109.296 142.39 109.089 142.804 109.089C143.191 109.089 143.515 109.305 143.749 109.629L144.388 109.071C144.064 108.639 143.47 108.315 142.795 108.315C141.904 108.315 141.265 108.882 141.265 109.647C141.265 111.276 143.443 110.925 143.443 111.843C143.443 112.185 143.2 112.437 142.759 112.437C142.309 112.437 141.949 112.203 141.652 111.825L141.013 112.392Z" fill="white"/>
<ellipse rx="6.53864" ry="6.38367" transform="matrix(0.852972 -0.521956 0.567102 0.823648 70.4035 99.2083)" fill="#FACF35"/>
<path d="M70.6278 96.3121C70.0324 96.2663 69.4264 96.3951 68.8979 96.7185C67.5704 97.5309 67.2338 99.2637 68.1462 100.589C69.0586 101.914 70.8745 102.33 72.2021 101.517C72.7306 101.194 73.102 100.725 73.3002 100.193" stroke="white" stroke-width="1.3" stroke-linecap="round"/>
<line x1="0.65" y1="-0.65" x2="2.83122" y2="-0.65" transform="matrix(0.852972 -0.521956 0.567102 0.823648 67.0225 100.709)" stroke="white" stroke-width="1.3" stroke-linecap="round"/>
<line x1="0.65" y1="-0.65" x2="2.83122" y2="-0.65" transform="matrix(0.852972 -0.521956 0.567102 0.823648 67.9355 102.035)" stroke="white" stroke-width="1.3" stroke-linecap="round"/>
<ellipse rx="6.15183" ry="5.97324" transform="matrix(0.878326 0.478062 -0.522263 0.852785 82.3374 161.295)" fill="#FACF35"/>
<path d="M85.0012 160.237C84.788 159.748 84.4155 159.326 83.9035 159.047C82.6174 158.347 80.9373 158.82 80.1511 160.104C79.3648 161.388 79.7701 162.996 81.0563 163.696C81.5683 163.975 82.1427 164.067 82.6984 163.997" stroke="white" stroke-width="1.3" stroke-linecap="round"/>
<line x1="0.65" y1="-0.65" x2="2.62528" y2="-0.65" transform="matrix(0.878326 0.478062 -0.522263 0.852785 79.5664 159.27)" stroke="white" stroke-width="1.3" stroke-linecap="round"/>
<line x1="0.65" y1="-0.65" x2="2.62528" y2="-0.65" transform="matrix(0.878326 0.478062 -0.522263 0.852785 78.7798 160.555)" stroke="white" stroke-width="1.3" stroke-linecap="round"/>
<path fill-rule="evenodd" clip-rule="evenodd" d="M42.3164 70.1955C42.3637 70.4152 42.4271 70.6315 42.5063 70.843L41.1803 72.2533C41.1231 72.3174 41.0924 72.3979 41.0935 72.4804C41.0946 72.5628 41.1276 72.6419 41.1864 72.7036L43.15 74.7697C43.2092 74.8306 43.2903 74.8701 43.3787 74.8813C43.4672 74.8925 43.5575 74.8746 43.6336 74.8308L45.0635 73.972C45.1424 73.925 45.2326 73.8966 45.3259 73.8893C45.4193 73.882 45.5129 73.8961 45.5984 73.9303C45.8659 74.0357 46.142 74.1222 46.4242 74.189C46.513 74.2101 46.5945 74.251 46.6615 74.3081C46.7285 74.3653 46.7791 74.4368 46.8086 74.5164L47.3566 75.9875C47.3885 76.0646 47.4487 76.1289 47.527 76.1693C47.6052 76.2097 47.6966 76.2238 47.7855 76.2091L50.7367 75.662C50.8235 75.6445 50.9016 75.6004 50.958 75.537C51.0144 75.4736 51.0458 75.3947 51.0471 75.3132L50.9636 73.7584C50.9593 73.6731 50.9781 73.588 51.0182 73.5105C51.0583 73.4331 51.1185 73.3658 51.1935 73.3145C51.4277 73.1526 51.6476 72.9738 51.851 72.7798C51.9162 72.718 51.9969 72.6718 52.086 72.6455C52.175 72.6192 52.2696 72.6136 52.3611 72.6292L54.029 72.9134C54.117 72.9268 54.2077 72.9112 54.2851 72.8693C54.3625 72.8275 54.4217 72.762 54.4521 72.6845L55.4398 70.0715C55.4695 69.9933 55.4683 69.9083 55.4362 69.8316C55.4041 69.7549 55.3433 69.6914 55.2646 69.6524L53.7485 68.9483C53.6653 68.9092 53.5943 68.8514 53.5419 68.7804C53.4896 68.7094 53.4575 68.6273 53.4486 68.5415C53.4335 68.4074 53.4137 68.2745 53.3862 68.1426C53.3587 68.0108 53.3244 67.8825 53.2848 67.7559C53.2596 67.6737 53.2572 67.5868 53.2777 67.5031C53.2982 67.4194 53.341 67.3415 53.4023 67.2763L54.522 66.0836C54.5781 66.0194 54.608 65.9394 54.6064 65.8575C54.6049 65.7757 54.572 65.6973 54.5136 65.636L52.55 63.57C52.4908 63.509 52.4098 63.4695 52.3213 63.4583C52.2328 63.4471 52.1426 63.465 52.0664 63.5089L50.6365 64.3676C50.5576 64.4146 50.4674 64.443 50.3741 64.4503C50.2807 64.4576 50.1871 64.4435 50.1016 64.4093C49.8341 64.304 49.558 64.2175 49.2758 64.1506C49.187 64.1295 49.1055 64.0886 49.0385 64.0315C48.9715 63.9744 48.921 63.9028 48.8914 63.8232L48.3435 62.3522C48.3115 62.275 48.2513 62.2108 48.1731 62.1703C48.0948 62.1299 48.0034 62.1159 47.9145 62.1306L44.9633 62.6776C44.8765 62.6951 44.7985 62.7392 44.742 62.8026C44.6856 62.866 44.6542 62.945 44.653 63.0264L44.7365 64.5812C44.7407 64.6665 44.722 64.7516 44.6818 64.8291C44.6417 64.9065 44.5815 64.9739 44.5065 65.0251C44.2723 65.1871 44.0525 65.3659 43.849 65.5598C43.7838 65.6216 43.7031 65.6678 43.614 65.6941C43.525 65.7204 43.4305 65.726 43.339 65.7105L41.6711 65.4263C41.583 65.4128 41.4923 65.4284 41.4149 65.4703C41.3375 65.5121 41.2784 65.5776 41.2479 65.6551L40.2603 68.2682C40.2305 68.3463 40.2317 68.4313 40.2638 68.508C40.2959 68.5848 40.3567 68.6483 40.4355 68.6872L41.9516 69.3913C42.035 69.4302 42.1063 69.4878 42.159 69.5588C42.2117 69.6298 42.244 69.7119 42.2531 69.7978C42.2691 69.9308 42.2889 70.0637 42.3164 70.1955ZM48.3708 71.6297C49.8121 71.3625 50.7508 70.0444 50.4674 68.6856C50.184 67.3269 48.7859 66.442 47.3446 66.7091C45.9033 66.9763 44.9646 68.2944 45.248 69.6531C45.5314 71.0119 46.9295 71.8968 48.3708 71.6297Z" fill="#2A3070"/>
<mask id="path-63-inside-1_2357_68792" fill="white">
<ellipse cx="98.6756" cy="24.8931" rx="2.7498" ry="2.59233"/>
</mask>
<path d="M98.5754 24.8931C98.5754 24.8378 98.5881 24.782 98.609 24.7355C98.6287 24.6916 98.6511 24.6655 98.665 24.6524C98.6919 24.6271 98.7022 24.6354 98.6756 24.6354V30.3354C101.608 30.3354 104.275 28.0548 104.275 24.8931H98.5754ZM98.6756 24.6354C98.649 24.6354 98.6593 24.6271 98.6862 24.6524C98.7001 24.6655 98.7224 24.6916 98.7422 24.7355C98.763 24.782 98.7758 24.8378 98.7758 24.8931H93.0758C93.0758 28.0548 95.7436 30.3354 98.6756 30.3354V24.6354ZM98.7758 24.8931C98.7758 24.9484 98.763 25.0042 98.7422 25.0507C98.7224 25.0947 98.7001 25.1207 98.6862 25.1338C98.6593 25.1592 98.649 25.1508 98.6756 25.1508V19.4508C95.7436 19.4508 93.0758 21.7314 93.0758 24.8931H98.7758ZM98.6756 25.1508C98.7022 25.1508 98.6919 25.1592 98.665 25.1338C98.6511 25.1207 98.6287 25.0947 98.609 25.0507C98.5881 25.0042 98.5754 24.9484 98.5754 24.8931H104.275C104.275 21.7314 101.608 19.4508 98.6756 19.4508V25.1508Z" fill="#FACF35" mask="url(#path-63-inside-1_2357_68792)"/>
<ellipse cx="105.859" cy="25.2514" rx="1.35432" ry="1.27677" fill="#2A3070"/>
<path d="M104.947 17.9595C104.947 18.4983 104.466 19.0343 103.747 19.0343C103.027 19.0343 102.546 18.4983 102.546 17.9595C102.546 17.4207 103.027 16.8848 103.747 16.8848C104.466 16.8848 104.947 17.4207 104.947 17.9595Z" stroke="#1EBE8E" stroke-width="2"/>
<path d="M83.6607 36.3069C83.6243 35.5714 84.2108 34.9551 84.9473 34.9551H98.491C99.2274 34.9551 99.814 35.5714 99.7775 36.3069L99.3275 45.3914C99.1265 49.4471 95.7797 52.6322 91.7191 52.6322C87.6585 52.6322 84.3117 49.4471 84.1108 45.3914L83.6607 36.3069Z" fill="#2A3070"/>
<path d="M93.6027 33.4959C93.5588 32.4986 92.6657 31.7236 91.6078 31.765C90.55 31.8063 89.7279 32.6483 89.7718 33.6456" stroke="#2A3070" stroke-width="1.3" stroke-linecap="round"/>
<line x1="83.405" y1="33.604" x2="99.5646" y2="33.604" stroke="#2A3070" stroke-width="1.3" stroke-linecap="round"/>
<path d="M97.2819 39.6118C97.2422 39.0089 97.7205 38.498 98.3247 38.498H109.583C110.188 38.498 110.666 39.0089 110.626 39.6118L110.151 46.828C109.936 50.0921 107.225 52.6298 103.954 52.6298C100.683 52.6298 97.9725 50.0921 97.7574 46.828L97.2819 39.6118Z" fill="#FCA081"/>
<path d="M104.894 34.9419C104.515 34.0042 103.402 33.5334 102.407 33.8905C101.412 34.2476 100.913 35.2973 101.292 36.2351" stroke="#FCA081" stroke-width="1.3" stroke-linecap="round"/>
<line x1="0.65" y1="-0.65" x2="13.4754" y2="-0.65" transform="matrix(0.938545 -0.336824 0.375799 0.930086 96.8311 38.6836)" stroke="#FCA081" stroke-width="1.3" stroke-linecap="round"/>
<line x1="102.233" y1="41.8277" x2="102.233" y2="48.2657" stroke="#DF6B43" stroke-width="1.3" stroke-linecap="round"/>
<line x1="89.1007" y1="38.732" x2="89.1007" y2="48.2651" stroke="#1A2060" stroke-width="1.3" stroke-linecap="round"/>
<line x1="106.173" y1="43.066" x2="106.173" y2="48.2659" stroke="#DF6B43" stroke-width="1.3" stroke-linecap="round"/>
<line x1="94.6822" y1="40.2809" x2="94.6822" y2="48.2664" stroke="#1A2060" stroke-width="1.3" stroke-linecap="round"/>
<defs>
<filter id="filter0_d_2357_68792" x="56.5088" y="96.4473" width="106.507" height="36.2988" filterUnits="userSpaceOnUse" color-interpolation-filters="sRGB">
<feFlood flood-opacity="0" result="BackgroundImageFix"/>
<feColorMatrix in="SourceAlpha" type="matrix" values="0 0 0 0 0 0 0 0 0 0 0 0 0 0 0 0 0 0 127 0" result="hardAlpha"/>
<feOffset dy="4"/>
<feGaussianBlur stdDeviation="5"/>
<feColorMatrix type="matrix" values="0 0 0 0 0.4 0 0 0 0 0.447059 0 0 0 0 0.972549 0 0 0 0.5 0"/>
<feBlend mode="normal" in2="BackgroundImageFix" result="effect1_dropShadow_2357_68792"/>
<feBlend mode="normal" in="SourceGraphic" in2="effect1_dropShadow_2357_68792" result="shape"/>
</filter>
</defs>
</svg>
