<svg width="266" height="240" viewBox="0 0 266 240" fill="none" xmlns="http://www.w3.org/2000/svg">
<path opacity="0.03" fill-rule="evenodd" clip-rule="evenodd" d="M126.841 60C93.7179 60 66.8662 86.8517 66.8662 119.975C66.8662 153.098 93.7179 179.95 126.841 179.95C159.965 179.95 186.816 153.098 186.816 119.975C186.816 86.8517 159.965 60 126.841 60ZM6.86621 119.975C6.86621 53.7147 60.5809 0 126.841 0C193.102 0 246.816 53.7147 246.816 119.975C246.816 186.235 193.102 239.95 126.841 239.95C60.5809 239.95 6.86621 186.235 6.86621 119.975Z" fill="#2A3070"/>
<mask id="path-2-inside-1_1028_28505" fill="white">
<path fill-rule="evenodd" clip-rule="evenodd" d="M102.776 148.713C102.776 139.254 108.442 130.871 115.081 124.133C123.163 115.931 128.083 105.071 128.083 93.1603C128.083 67.5987 105.425 46.877 77.4749 46.877C49.525 46.877 26.8672 67.5987 26.8672 93.1603C26.8672 105.069 31.7848 115.927 39.8642 124.129C46.502 130.867 52.168 139.252 52.168 148.711C52.168 162.686 63.4969 174.155 77.4718 174.155C91.4468 174.155 102.776 162.688 102.776 148.713Z"/>
</mask>
<path d="M127.083 93.1603C127.083 104.786 122.283 115.4 114.369 123.432L115.793 124.835C124.044 116.462 129.083 105.356 129.083 93.1603H127.083ZM77.4749 47.877C104.958 47.877 127.083 68.2332 127.083 93.1603H129.083C129.083 66.9642 105.891 45.877 77.4749 45.877V47.877ZM27.8672 93.1603C27.8672 68.2332 49.9914 47.877 77.4749 47.877V45.877C49.0587 45.877 25.8672 66.9642 25.8672 93.1603H27.8672ZM40.5766 123.427C32.6653 115.396 27.8672 104.784 27.8672 93.1603H25.8672C25.8672 105.354 30.9043 116.458 39.1518 124.83L40.5766 123.427ZM51.168 148.711C51.168 163.231 62.9374 175.155 77.4718 175.155L77.4718 173.155C64.0564 173.155 53.168 162.141 53.168 148.711H51.168ZM39.1518 124.83C45.7314 131.51 51.168 139.652 51.168 148.711H53.168C53.168 138.852 47.2726 130.224 40.5766 123.427L39.1518 124.83ZM77.4718 175.155C92.0061 175.155 103.776 163.233 103.776 148.713H101.776C101.776 162.143 90.8874 173.155 77.4718 173.155L77.4718 175.155ZM114.369 123.432C107.672 130.228 101.776 138.855 101.776 148.713H103.776C103.776 139.654 109.213 131.514 115.793 124.835L114.369 123.432Z" fill="#1EBE8E" mask="url(#path-2-inside-1_1028_28505)"/>
<path d="M78.8975 173.597C70.1419 148.062 66.895 82.6243 58.4869 99.9947C50.534 116.425 70.0803 134.287 81.1017 106.569C92.1231 78.8505 57.7364 99.0095 78.8975 114.633C100.059 130.256 100.059 103.041 93.8866 99.0096C87.7146 94.9776 81.1017 130.255 78.8975 173.597Z" stroke="#1EBE8E"/>
<rect x="56.9189" y="163.927" width="42.5891" height="8.60439" rx="4.30219" fill="white" stroke="#1EBE8E"/>
<rect x="56.9189" y="172.054" width="42.5891" height="8.60439" rx="4.30219" fill="white" stroke="#1EBE8E"/>
<rect x="56.9189" y="180.18" width="42.5891" height="8.60439" rx="4.30219" fill="white" stroke="#1EBE8E"/>
<path d="M227.902 142.632C226.186 135.106 221.956 116.491 216.417 91.6703C209.122 58.9767 148.688 54.2206 145.913 91.6703C143.522 123.961 139.657 173.044 138.637 185.955C138.499 187.7 139.881 189.158 141.631 189.158H184.258C186.067 189.158 187.464 187.57 187.234 185.776L185.615 173.172C195.063 175.793 205.731 176.973 213.369 177.31C215.044 177.384 216.417 176.03 216.417 174.354V149.291C216.417 147.634 217.76 146.291 219.417 146.291H224.973C226.9 146.291 228.331 144.511 227.902 142.632Z" fill="#FACF35"/>
<path d="M172.939 113.766C166.348 111.483 156.626 112.396 170.468 134.313" stroke="#2A3070" stroke-linecap="round"/>
<ellipse opacity="0.5" rx="30.5057" ry="18.3772" transform="matrix(-0.995072 -0.0991597 -0.0991597 0.995072 181.276 88.8762)" fill="white"/>
<circle cx="199.47" cy="69.8542" r="7.885" stroke="#2A3070" stroke-width="2.85"/>
<path d="M159.792 54.1942C160.11 53.8038 160.613 53.613 161.11 53.6936L164.191 54.1929C164.688 54.2735 165.105 54.6133 165.284 55.0842L166.392 58.0022C166.571 58.4732 166.485 59.0037 166.166 59.3941L164.193 61.8128C163.875 62.2031 163.372 62.3939 162.875 62.3133L159.794 61.814C159.297 61.7334 158.88 61.3937 158.701 60.9227L157.593 58.0047C157.414 57.5338 157.5 57.0032 157.819 56.6129L159.792 54.1942Z" fill="#2A3070"/>
<path d="M186.795 82.9298C187.477 82.9298 188.107 83.2935 188.448 83.8841L191.74 89.5865C192.081 90.177 192.081 90.9046 191.74 91.4952L188.448 97.1976C188.107 97.7881 187.477 98.1519 186.795 98.1519L180.21 98.1519C179.528 98.1519 178.898 97.7881 178.557 97.1976L175.265 91.4952C174.924 90.9046 174.924 90.177 175.265 89.5865L178.557 83.8841C178.898 83.2935 179.528 82.9298 180.21 82.9298L186.795 82.9298Z" stroke="#6672F8"/>
<path d="M176.476 76.9882C176.476 55.0293 189.023 35.3112 201.134 50.0074C209.867 60.6053 170.65 54.1331 208.293 38" stroke="#1EBE8E" stroke-linecap="round" stroke-linejoin="round"/>
<mask id="path-15-inside-2_1028_28505" fill="white">
<path fill-rule="evenodd" clip-rule="evenodd" d="M166.866 33.4203C166.866 33.4205 166.866 33.4208 166.866 33.421C166.893 33.4208 166.919 33.4207 166.946 33.4207C171.625 33.4207 175.422 37.2022 175.446 41.8763C175.47 37.2289 179.223 33.4639 183.866 33.421L183.866 33.4203C179.235 33.3775 175.489 29.6312 175.446 24.9999C175.446 24.9999 175.446 24.9999 175.446 24.9999C175.403 29.6578 171.614 33.4206 166.946 33.4206C166.919 33.4206 166.893 33.4205 166.866 33.4203ZM175.446 41.9999L175.446 41.9999L175.446 41.9658L175.446 41.9999Z"/>
</mask>
<path fill-rule="evenodd" clip-rule="evenodd" d="M166.866 33.4203C166.866 33.4205 166.866 33.4208 166.866 33.421C166.893 33.4208 166.919 33.4207 166.946 33.4207C171.625 33.4207 175.422 37.2022 175.446 41.8763C175.47 37.2289 179.223 33.4639 183.866 33.421L183.866 33.4203C179.235 33.3775 175.489 29.6312 175.446 24.9999C175.446 24.9999 175.446 24.9999 175.446 24.9999C175.403 29.6578 171.614 33.4206 166.946 33.4206C166.919 33.4206 166.893 33.4205 166.866 33.4203ZM175.446 41.9999L175.446 41.9999L175.446 41.9658L175.446 41.9999Z" fill="#FCA081"/>
<path d="M166.866 33.421L165.866 33.4119L165.857 34.4303L166.875 34.421L166.866 33.421ZM166.866 33.4203L166.875 32.4203L165.875 32.4111L165.866 33.4111L166.866 33.4203ZM175.446 41.8763L174.446 41.8814L176.446 41.8814L175.446 41.8763ZM183.866 33.421L183.875 34.421L184.876 34.4117L184.866 33.4109L183.866 33.421ZM183.866 33.4203L184.866 33.4101L184.856 32.4294L183.875 32.4203L183.866 33.4203ZM175.446 24.9999L176.446 24.9907L176.437 24.009L175.455 23.9999L175.446 24.9999ZM175.446 24.9999L175.455 23.9999L174.455 23.9908L174.446 24.9907L175.446 24.9999ZM175.446 41.9999L174.446 41.9927L174.439 43.0078L175.454 42.9998L175.446 41.9999ZM175.446 41.9999L175.454 42.9998L176.453 42.992L176.446 41.9927L175.446 41.9999ZM175.446 41.9658L176.446 41.9587L174.446 41.9586L175.446 41.9658ZM167.866 33.4301L167.866 33.4295L165.866 33.4111L165.866 33.4119L167.866 33.4301ZM166.946 32.4207C166.916 32.4207 166.887 32.4208 166.857 32.4211L166.875 34.421C166.899 34.4208 166.922 34.4207 166.946 34.4207V32.4207ZM176.446 41.8711C176.419 36.6471 172.176 32.4207 166.946 32.4207V34.4207C171.075 34.4207 174.425 37.7574 174.446 41.8814L176.446 41.8711ZM183.857 32.4211C178.668 32.469 174.473 36.6769 174.446 41.8711L176.446 41.8814C176.467 37.781 179.779 34.4588 183.875 34.421L183.857 32.4211ZM182.866 33.4304L182.866 33.4312L184.866 33.4109L184.866 33.4101L182.866 33.4304ZM174.446 25.0091C174.494 30.1854 178.681 34.3725 183.857 34.4202L183.875 32.4203C179.789 32.3826 176.484 29.0769 176.446 24.9907L174.446 25.0091ZM175.437 25.9998L175.437 25.9998L175.455 23.9999L175.455 23.9999L175.437 25.9998ZM174.446 24.9907C174.408 29.1005 171.065 32.4206 166.946 32.4206V34.4206C172.163 34.4206 176.398 30.2152 176.446 25.0091L174.446 24.9907ZM166.946 32.4206C166.922 32.4206 166.899 32.4205 166.875 32.4203L166.857 34.4202C166.887 34.4205 166.916 34.4206 166.946 34.4206V32.4206ZM175.454 42.9998L175.454 42.9998L175.438 40.9999L175.438 40.9999L175.454 42.9998ZM174.446 41.9586L174.446 41.9927L176.446 42.0071L176.446 41.973L174.446 41.9586ZM176.446 41.9927L176.446 41.9587L174.446 41.973L174.446 42.007L176.446 41.9927Z" fill="#FCA081" mask="url(#path-15-inside-2_1028_28505)"/>
<path fill-rule="evenodd" clip-rule="evenodd" d="M157.846 169.635C157.846 169.635 157.846 169.635 157.846 169.635C157.846 169.635 157.846 169.636 157.846 169.636V184.378C157.846 187.14 155.608 189.378 152.846 189.378H133.434C130.672 189.378 128.434 187.14 128.434 184.378V170.222C128.434 169.898 128.696 169.635 129.021 169.635C129.172 169.635 129.317 169.577 129.427 169.472L149.387 150.344C152.566 147.297 157.846 149.55 157.846 153.954V169.635Z" fill="#2A3070"/>
<path fill-rule="evenodd" clip-rule="evenodd" d="M136.895 169.635C136.895 169.635 136.895 169.635 136.895 169.635C136.895 169.635 136.895 169.636 136.895 169.636V184.378C136.895 187.14 134.657 189.378 131.895 189.378H112.482C109.721 189.378 107.482 187.14 107.482 184.378V170.222C107.482 169.898 107.745 169.635 108.069 169.635C108.221 169.635 108.366 169.577 108.476 169.472L128.436 150.344C131.615 147.297 136.895 149.55 136.895 153.954V169.635Z" fill="#2A3070"/>
<path fill-rule="evenodd" clip-rule="evenodd" d="M115.137 169.635C115.137 169.635 115.137 169.635 115.137 169.635C115.137 169.635 115.137 169.636 115.137 169.636V184.378C115.137 187.14 112.899 189.378 110.137 189.378H90.7246C87.9632 189.378 85.7246 187.14 85.7246 184.378V170.222C85.7246 169.898 85.9874 169.635 86.3116 169.635C86.4629 169.635 86.6084 169.577 86.7177 169.472L106.678 150.344C109.857 147.297 115.137 149.55 115.137 153.954V169.635Z" fill="#2A3070"/>
<path d="M79.3395 129.721C80.2155 124.077 88.3452 124.077 89.2212 129.721L97.5996 183.704C98.07 186.735 95.7258 189.471 92.6587 189.471H75.902C72.8349 189.471 70.4908 186.735 70.9612 183.704L79.3395 129.721Z" fill="#6672F8"/>
<circle cx="105.867" cy="57.877" r="15.5" fill="white" stroke="#2A3070"/>
<mask id="path-22-inside-3_1028_28505" fill="white">
<path fill-rule="evenodd" clip-rule="evenodd" d="M105.98 73.877C111.401 70.6007 115.025 64.6508 115.025 57.8544C115.025 51.0892 111.434 45.1626 106.054 41.877C100.633 45.1533 97.0088 51.1032 97.0088 57.8996C97.0088 64.6648 100.6 70.5914 105.98 73.877Z"/>
</mask>
<path d="M105.98 73.877L105.458 74.7305L105.977 75.0471L106.497 74.7329L105.98 73.877ZM106.054 41.877L106.575 41.0235L106.057 40.7069L105.537 41.0211L106.054 41.877ZM114.025 57.8544C114.025 64.2863 110.596 69.9184 105.462 73.0212L106.497 74.7329C112.205 71.283 116.025 65.0153 116.025 57.8544H114.025ZM105.533 42.7304C110.628 45.842 114.025 51.4519 114.025 57.8544H116.025C116.025 50.7264 112.24 44.4832 106.575 41.0235L105.533 42.7304ZM98.0088 57.8996C98.0088 51.4677 101.437 45.8356 106.571 42.7328L105.537 41.0211C99.8285 44.471 96.0088 50.7387 96.0088 57.8996H98.0088ZM106.501 73.0236C101.406 69.912 98.0088 64.3021 98.0088 57.8996H96.0088C96.0088 65.0276 99.7936 71.2708 105.458 74.7305L106.501 73.0236Z" fill="#2A3070" mask="url(#path-22-inside-3_1028_28505)"/>
<line x1="90.166" y1="57.5266" x2="121.867" y2="57.5266" stroke="#2A3070"/>
<line x1="92.9609" y1="49.7507" x2="118.761" y2="49.7507" stroke="#2A3070"/>
<line x1="91.9609" y1="65.3023" x2="119.475" y2="65.3023" stroke="#2A3070"/>
<line x1="106.067" y1="42.176" x2="106.067" y2="73.877" stroke="#2A3070"/>
<path d="M50.8666 139.947C24.5123 158.872 9.74221 175.761 14.0408 184.606C21.3167 199.576 80.469 185.828 146.161 153.9C211.853 121.972 259.209 83.9529 251.933 68.9828C247.765 60.4058 226.567 61.2557 196.867 69.5508M127.367 96.0832C133.725 93.1041 140.003 90.3022 146.161 87.6873" stroke="#FCA081"/>
<path d="M123.353 45.5104C125.455 48.7241 126.08 52.5045 125.985 55.6139C125.937 57.1666 125.71 58.5354 125.407 59.5635C125.256 60.0782 125.089 60.4965 124.923 60.8059C124.749 61.1293 124.604 61.2804 124.524 61.3305C124.437 61.3847 124.23 61.4527 123.86 61.4785C123.505 61.5033 123.051 61.486 122.518 61.417C121.451 61.2791 120.107 60.9402 118.668 60.3656C115.786 59.2148 112.583 57.1425 110.482 53.9291C108.366 50.6944 107.507 47.0803 107.483 44.0769C107.471 42.5752 107.668 41.2414 108.01 40.1946C108.355 39.1379 108.826 38.4363 109.317 38.1049C109.959 37.7066 110.867 37.5301 111.981 37.6235C113.094 37.7168 114.374 38.0771 115.71 38.7053C118.383 39.9616 121.23 42.2648 123.353 45.5104Z" fill="#6672F8" stroke="#6672F8" stroke-linecap="round"/>
<path d="M111.922 42.308C117.837 48.287 121.367 54.3768 124.867 61.3768" stroke="white" stroke-linecap="round"/>
<path d="M115.435 52.8314C116.703 53.1178 119.639 53.9434 121.235 54.9552C121.228 50.8492 121.212 49.1921 121.205 48.8768" stroke="white" stroke-linecap="round"/>
<path d="M111.077 46.8806C112.367 47.0439 115.369 47.5842 117.054 48.4382C116.653 44.3518 116.478 42.7039 116.441 42.3908" stroke="white" stroke-linecap="round"/>
<rect x="162.867" y="84.2666" width="5" height="21" rx="2.5" transform="rotate(-61.3996 162.867 84.2666)" fill="#FCA081"/>
</svg>
