<svg width="202" height="241" viewBox="0 0 202 241" fill="none" xmlns="http://www.w3.org/2000/svg">
<path d="M85.157 149.695C83.1255 133.454 98.5921 130.275 92.7583 111.357C81.6898 75.468 121.442 84.0299 115.389 103.756C113.74 109.137 110.097 118.445 109.987 124.154C109.91 128.089 118.078 135.561 111.465 150.667C104.961 165.521 92.8597 179.364 91.6024 179.499C88.7199 174.132 85.6015 153.24 85.157 149.695Z" fill="#2A3070"/>
<path d="M104.497 94.6628C103.352 111.591 109.368 142.569 91.6156 177.367" stroke="white" stroke-linecap="round"/>
<path d="M80.9079 74.7919C93.6753 62.0245 114.375 62.0245 127.143 74.7919C139.91 87.5594 139.91 108.259 127.143 121.027C114.375 133.794 93.6753 133.794 80.9079 121.027C68.1405 108.259 68.1404 87.5594 80.9079 74.7919Z" fill="#FCFCFC" fill-opacity="0.3" stroke="#2A3070" stroke-width="1.5" stroke-linecap="round" stroke-linejoin="round"/>
<path d="M85.9402 114.774C76.8821 105.716 76.8821 91.03 85.9402 81.9719" stroke="#2A3070" stroke-width="1.5" stroke-linecap="round" stroke-linejoin="round"/>
<line x1="127.255" y1="74.4472" x2="146.938" y2="54.7641" stroke="#2A3070" stroke-width="1.5" stroke-linecap="round" stroke-linejoin="round"/>
<rect x="148" y="59.7422" width="9.38753" height="46.9377" rx="4.69377" transform="rotate(-135 148 59.7422)" fill="#1EBE8E"/>
<path d="M126.922 188.445C104.371 175.377 111.729 136.276 119.461 116.224C120.726 112.942 124.936 113.37 125.746 116.797C131.11 139.502 131.706 162.637 127.441 184.415C132.002 164 140.071 144.66 151.269 127.291C152.725 125.033 154.343 122.731 156.374 120.945C158.558 119.024 161.168 121.277 160.522 124.117C155.273 147.176 145.189 167.698 130.489 186.181C141.324 171.344 156.108 160.527 173.625 153.056C176.526 151.819 179.39 154.414 178.063 157.281C174.632 164.695 168.673 170.883 161.768 175.679C147.336 185.697 136.085 193.755 126.922 188.445Z" fill="#FACF35"/>
<path opacity="0.03" d="M148.555 174.727C132.766 141.697 93.1898 127.721 60.1599 143.51C27.13 159.3 13.1538 198.876 28.9432 231.905" stroke="#2A3070" stroke-width="40"/>
<circle cx="80.5279" cy="178.859" r="16.2887" fill="#FCA081"/>
<circle cx="33.9889" cy="178.859" r="16.2887" fill="#FCA081"/>
<path d="M74.1285 151.518H67.4385L80.5276 178.568" stroke="#2A3070" stroke-width="1.5" stroke-linecap="round"/>
<path d="M40.9697 147.445L54.6406 174.205" stroke="#2A3070" stroke-width="1.5"/>
<path d="M58.7129 174.496L70.6385 157.916" stroke="#2A3070" stroke-width="1.5"/>
<path d="M69.1841 155.299H44.7511L34.2798 178.568" stroke="#2A3070" stroke-width="1.5"/>
<line x1="37.6475" y1="147.277" x2="44.8735" y2="147.277" stroke="#2A3070" stroke-width="1.5" stroke-linecap="round"/>
<circle cx="56.3855" cy="177.986" r="4.36304" stroke="#2A3070" stroke-width="1.5"/>
<path d="M33.9888 178.424H52.3135" stroke="#2A3070" stroke-width="1.5"/>
</svg>
