<svg width="191" height="180" viewBox="0 0 191 180" fill="none" xmlns="http://www.w3.org/2000/svg">
<path fill-rule="evenodd" clip-rule="evenodd" d="M150.081 50.1454C150.121 50.3432 150.175 50.538 150.242 50.7284L149.117 51.9981C149.068 52.0559 149.042 52.1283 149.043 52.2026C149.044 52.2768 149.072 52.348 149.122 52.4036L150.789 54.2638C150.839 54.3186 150.908 54.3542 150.983 54.3643C151.058 54.3743 151.135 54.3582 151.199 54.3187L152.413 53.5456C152.48 53.5032 152.556 53.4777 152.636 53.4711C152.715 53.4646 152.794 53.4773 152.867 53.508C153.094 53.6029 153.328 53.6808 153.568 53.741C153.643 53.76 153.712 53.7968 153.769 53.8482C153.826 53.8996 153.869 53.964 153.894 54.0357L154.359 55.3602C154.386 55.4296 154.437 55.4875 154.504 55.5239C154.57 55.5603 154.648 55.5729 154.723 55.5597L157.228 55.0672C157.302 55.0514 157.368 55.0117 157.416 54.9546C157.464 54.8975 157.491 54.8265 157.492 54.7531L157.421 53.3533C157.417 53.2765 157.433 53.1998 157.467 53.1301C157.501 53.0604 157.552 52.9997 157.616 52.9536C157.815 52.8078 158.001 52.6468 158.174 52.4722C158.229 52.4165 158.298 52.3749 158.373 52.3513C158.449 52.3276 158.529 52.3225 158.607 52.3365L160.023 52.5924C160.097 52.6045 160.174 52.5905 160.24 52.5528C160.306 52.5151 160.356 52.4562 160.382 52.3864L161.22 50.0337C161.245 49.9634 161.244 49.8869 161.217 49.8178C161.19 49.7487 161.138 49.6915 161.071 49.6564L159.785 49.0225C159.714 48.9872 159.654 48.9353 159.609 48.8713C159.565 48.8074 159.538 48.7334 159.53 48.6562C159.517 48.5355 159.5 48.4158 159.477 48.2971C159.454 48.1784 159.425 48.0629 159.391 47.9489C159.37 47.8749 159.368 47.7967 159.385 47.7213C159.402 47.6459 159.439 47.5758 159.491 47.5171L160.441 46.4433C160.489 46.3855 160.514 46.3134 160.513 46.2397C160.512 46.166 160.484 46.0954 160.434 46.0402L158.767 44.1801C158.717 44.1252 158.648 44.0896 158.573 44.0796C158.498 44.0695 158.422 44.0856 158.357 44.1251L157.143 44.8983C157.076 44.9406 157 44.9662 156.92 44.9727C156.841 44.9793 156.762 44.9666 156.689 44.9358C156.462 44.8409 156.228 44.7631 155.988 44.7029C155.913 44.6839 155.844 44.647 155.787 44.5956C155.73 44.5442 155.687 44.4798 155.662 44.4081L155.197 43.0837C155.17 43.0142 155.119 42.9563 155.052 42.92C154.986 42.8836 154.908 42.8709 154.833 42.8841L152.328 43.3767C152.254 43.3924 152.188 43.4321 152.14 43.4892C152.092 43.5463 152.065 43.6174 152.064 43.6907L152.135 45.0906C152.139 45.1674 152.123 45.244 152.089 45.3137C152.055 45.3835 152.004 45.4441 151.94 45.4903C151.741 45.6361 151.555 45.797 151.382 45.9716C151.327 46.0273 151.258 46.0689 151.183 46.0926C151.107 46.1163 151.027 46.1213 150.949 46.1073L149.533 45.8514C149.459 45.8393 149.382 45.8534 149.316 45.8911C149.25 45.9287 149.2 45.9877 149.174 46.0574L148.336 48.4101C148.311 48.4805 148.312 48.557 148.339 48.6261C148.366 48.6952 148.418 48.7523 148.485 48.7874L149.771 49.4214C149.842 49.4564 149.903 49.5082 149.948 49.5722C149.992 49.6361 150.02 49.71 150.027 49.7873C150.041 49.9071 150.058 50.0267 150.081 50.1454ZM155.22 51.4367C156.444 51.1961 157.241 50.0094 157 48.786C156.759 47.5627 155.573 46.7659 154.349 47.0065C153.126 47.247 152.329 48.4338 152.57 49.6571C152.81 50.8805 153.997 51.6772 155.22 51.4367Z" fill="#2A3070"/>
<path d="M70.3112 34.7967C70.3112 34.7967 83.0183 21.0057 107.568 21.9947C122.145 22.5825 134.427 29.5146 144.048 37.3772C152.824 44.5687 159.436 52.4641 162.301 58.4832C167.184 68.7884 175.247 90.6665 159.414 109.541C142.753 129.403 121.66 127.045 97.9449 124.052C74.23 121.06 62.1338 127.487 52.78 138.638" stroke="#000091" stroke-opacity="0.06" stroke-width="43.42" stroke-miterlimit="10" stroke-linecap="round"/>
<path d="M11.138 170.657C17.2893 175.817 26.2775 175.229 31.2138 169.345C36.1501 163.46 35.1651 154.507 29.0138 149.347C22.8626 144.187 13.8743 144.774 8.93807 150.659C4.00179 156.543 4.98675 165.497 11.138 170.657Z" fill="#000091" fill-opacity="0.06"/>
<path d="M96.971 29.8718C98.543 35.9553 94.8856 42.1614 88.802 43.7334C82.7185 45.3054 76.5124 41.648 74.9404 35.5645" stroke="#FACF35" stroke-width="10"/>
<circle cx="14.5817" cy="46.8908" r="6.25291" transform="rotate(-158.203 14.5817 46.8908)" stroke="#1EBE8E" stroke-width="6"/>
<circle cx="55.4918" cy="75.3864" r="5.97665" transform="rotate(-44.4883 55.4918 75.3864)" stroke="#6672F8" stroke-width="6.55251"/>
<path d="M27.3384 125.852C25.2498 129.114 20.9127 130.065 17.651 127.976C14.3894 125.888 13.4383 121.551 15.5269 118.289" stroke="#1EBE8E" stroke-width="6.55251"/>
<path d="M28.8965 98.6063C28.1033 96.0336 30.0268 93.4277 32.719 93.4277H106.535C108.29 93.4277 109.84 94.5719 110.358 96.2492L128.164 153.999C128.957 156.572 127.034 159.178 124.341 159.178H50.5253C48.7701 159.178 47.22 158.034 46.7029 156.357L28.8965 98.6063Z" fill="#2A3070"/>
<path d="M31.2295 95.7782C30.4363 93.2055 32.3598 90.5996 35.052 90.5996H108.868C110.623 90.5996 112.173 91.7438 112.691 93.421L130.497 151.171C131.29 153.744 129.367 156.35 126.674 156.35H52.8583C51.1031 156.35 49.553 155.206 49.0359 153.528L31.2295 95.7782Z" fill="#6672F8"/>
<path d="M41.6362 103.329C40.8369 100.754 42.7608 98.1426 45.4563 98.1426H103.199C104.944 98.1426 106.487 99.2734 107.013 100.937L118.9 138.543C119.715 141.121 117.79 143.749 115.086 143.749H57.1332C55.3809 143.749 53.8327 142.608 53.3131 140.935L41.6362 103.329Z" fill="#F2F2FA"/>
<rect x="42.7832" y="151.189" width="111.775" height="8.7667" rx="4.38335" fill="#2A3070"/>
<path d="M80.774 82.589C86.1435 82.589 90.4963 78.2362 90.4963 72.8668C90.4963 67.4973 86.1435 63.1445 80.774 63.1445C75.4046 63.1445 71.0518 67.4973 71.0518 72.8668C71.0518 78.2362 75.4046 82.589 80.774 82.589Z" fill="#FFA07D"/>
<path d="M72.9139 102.522C73.3543 99.7785 73.5518 97.1264 72.8379 95.2931C72.2303 93.7165 70.9089 92.834 69.314 92.2325L55.2595 87.6849C53.4368 87.0773 51.7341 86.0596 51.6141 84.0486C51.4622 81.4664 53.7406 79.7956 56.019 80.4032C56.019 80.4032 69.3854 85.1331 80.7773 85.1331C92.1691 85.1331 105.384 80.4245 105.384 80.4245C108.118 79.665 109.94 81.7915 109.94 84.038C109.94 86.1963 108.27 86.9558 106.295 87.6742L92.9286 92.5211C91.7134 92.9768 89.7389 93.8881 88.9794 95.2825C88.0681 96.9153 88.2199 99.7678 88.6604 102.511L89.5566 107.012L95.2388 131.907C95.6641 133.904 94.2819 135.771 92.2922 136.12C90.3024 136.469 88.6756 135.111 88.0863 133.179L82.3812 115.571C82.1068 114.726 81.8638 113.872 81.6522 113.008L80.7773 109.442L79.9722 112.73C79.7171 113.778 79.4234 114.815 79.0913 115.841L73.4865 133.164C72.8789 135.116 71.2841 136.468 69.2943 136.12C67.3045 135.772 65.8919 133.752 66.3385 131.907L72.0177 107.022L72.9139 102.522Z" fill="#FACF35"/>
<path d="M101.903 63.8176C101.313 61.307 103.218 58.9023 105.797 58.9023H114.712C116.569 58.9023 118.181 60.1798 118.606 61.9871L123.456 82.6234C124.047 85.134 122.142 87.5387 119.563 87.5387H110.648C108.791 87.5387 107.179 86.2612 106.754 84.4539L101.903 63.8176Z" fill="#6672F8"/>
<path d="M103.142 63.8176C102.552 61.307 104.457 58.9023 107.036 58.9023H115.95C117.807 58.9023 119.419 60.1798 119.844 61.9871L124.695 82.6234C125.285 85.134 123.38 87.5387 120.801 87.5387H111.886C110.029 87.5387 108.417 86.2612 107.992 84.4539L103.142 63.8176Z" fill="#07A58B"/>
<path d="M106.058 62.9545C105.914 62.3281 106.39 61.7305 107.032 61.7305H116.147C116.613 61.7305 117.017 62.0523 117.122 62.5065L121.049 79.5953C121.193 80.2217 120.717 80.8193 120.074 80.8193H110.96C110.494 80.8193 110.089 80.4974 109.985 80.0433L106.058 62.9545Z" fill="#F6F8FC"/>
<ellipse cx="116.569" cy="83.6337" rx="1.32576" ry="1.30165" fill="#FACF35"/>
<rect x="129.814" y="90.7168" width="32.6007" height="49.6592" rx="16.3003" fill="#1EBE8E"/>
<line x1="145.994" y1="151.248" x2="145.994" y2="91.2165" stroke="black" stroke-linecap="round"/>
<path d="M153.388 100.883L146.423 107.847L139.458 100.883" stroke="black" stroke-linecap="round"/>
<path d="M153.388 112.467L146.423 119.431L139.458 112.467" stroke="black" stroke-linecap="round"/>
<path d="M153.388 124.217L146.423 131.181L139.458 124.217" stroke="black" stroke-linecap="round"/>
<circle cx="151" cy="26.5841" r="4.64154" stroke="#6672F8" stroke-width="3.85"/>
<path d="M133.884 16.5136C134.428 15.8467 135.286 15.5208 136.135 15.6584L136.376 15.6974C137.225 15.835 137.937 16.4154 138.242 17.2199L138.328 17.4474C138.634 18.2519 138.487 19.1582 137.943 19.825L137.789 20.0136C137.245 20.6804 136.387 21.0064 135.538 20.8687L135.297 20.8298C134.448 20.6921 133.736 20.1117 133.431 19.3073L133.344 19.0798C133.039 18.2753 133.186 17.3689 133.73 16.7021L133.884 16.5136Z" fill="#1EBE8E"/>
<path d="M130.862 26.661C131.544 26.661 132.174 27.0248 132.515 27.6154L134.715 31.4259C135.056 32.0165 135.056 32.7441 134.715 33.3346L132.515 37.1452C132.174 37.7358 131.544 38.0996 130.862 38.0996L126.462 38.0996C125.78 38.0996 125.15 37.7358 124.809 37.1452L122.609 33.3346C122.268 32.7441 122.268 32.0165 122.609 31.4259L124.809 27.6154C125.15 27.0248 125.78 26.661 126.462 26.661L130.862 26.661Z" stroke="#1EBE8E"/>
<path d="M114.944 75.9603C111.374 62.4885 115.985 48.3204 125.917 55.3377C133.08 60.3982 107.6 62.9002 128.425 46.7895" stroke="black" stroke-linecap="round" stroke-linejoin="round"/>
<path d="M113.903 27.3744C112.824 26.7232 112.476 25.32 113.127 24.2402C113.778 23.1604 115.182 22.8129 116.261 23.4641L127.015 29.9488L124.657 33.8591L113.903 27.3744Z" fill="#FCA081"/>
<path d="M123.636 30.5781L127.015 29.9494L128.405 32.4398C128.782 33.1155 128.281 33.945 127.508 33.9268L124.657 33.8597L123.636 30.5781Z" fill="#2A3070"/>
</svg>
