<svg width="295" height="154" viewBox="0 0 295 154" fill="none" xmlns="http://www.w3.org/2000/svg">
<path d="M170.25 57C176.102 57 180.867 61.712 180.867 67.5C180.867 73.288 176.102 78 170.25 78C164.398 78 159.633 73.288 159.633 67.5C159.633 61.712 164.398 57 170.25 57ZM170.25 45C157.684 45 147.5 55.072 147.5 67.5C147.5 79.928 157.684 90 170.25 90C182.816 90 193 79.928 193 67.5C193 55.072 182.816 45 170.25 45Z" fill="#00BE8C"/>
<path d="M170.25 12C176.102 12 180.867 16.712 180.867 22.5C180.867 28.288 176.102 33 170.25 33C164.398 33 159.633 28.288 159.633 22.5C159.633 16.712 164.398 12 170.25 12ZM170.25 0C157.684 0 147.5 10.072 147.5 22.5C147.5 34.928 157.684 45 170.25 45C182.816 45 193 34.928 193 22.5C193 10.072 182.816 0 170.25 0Z" fill="#FAD214"/>
<path opacity="0.6" d="M177.752 29.9199C175.831 31.8199 173.174 32.9999 170.25 32.9999C167.322 32.9999 164.668 31.8239 162.747 29.9199L154.165 38.4079C158.282 42.4799 163.969 44.9999 170.25 44.9999C176.531 44.9999 182.221 42.4799 186.335 38.4079L177.752 29.9199Z" fill="url(#paint0_linear_2350_63406)"/>
<path opacity="0.6" d="M162.747 60.08C164.668 58.18 167.326 57 170.25 57C173.178 57 175.831 58.176 177.752 60.08L186.335 51.592C182.217 47.52 176.531 45 170.25 45C163.969 45 158.278 47.52 154.165 51.592L162.747 60.08Z" fill="url(#paint1_linear_2350_63406)"/>
<path d="M124.75 57C130.602 57 135.367 61.712 135.367 67.5C135.367 73.288 130.602 78 124.75 78C118.898 78 114.133 73.288 114.133 67.5C114.133 61.712 118.898 57 124.75 57ZM124.75 45C112.184 45 102 55.072 102 67.5C102 79.928 112.184 90 124.75 90C137.316 90 147.5 79.928 147.5 67.5C147.5 55.072 137.316 45 124.75 45Z" fill="#646EFA"/>
<path d="M124.75 12C130.602 12 135.367 16.712 135.367 22.5C135.367 28.288 130.602 33 124.75 33C118.898 33 114.133 28.288 114.133 22.5C114.133 16.712 118.898 12 124.75 12ZM124.75 0C112.184 0 102 10.072 102 22.5C102 34.928 112.184 45 124.75 45C137.316 45 147.5 34.928 147.5 22.5C147.5 10.072 137.316 0 124.75 0Z" fill="#FFA07D"/>
<path opacity="0.6" d="M132.253 15.0798C134.174 16.9798 135.367 19.6078 135.367 22.4998C135.367 25.3958 134.178 28.0198 132.253 29.9198L140.835 38.4078C144.952 34.3358 147.5 28.7118 147.5 22.4998C147.5 16.2878 144.952 10.6598 140.835 6.5918L132.253 15.0798Z" fill="url(#paint2_linear_2350_63406)"/>
<path opacity="0.6" d="M162.748 29.9198C160.826 28.0198 159.633 25.3918 159.633 22.4998C159.633 19.6038 160.822 16.9798 162.748 15.0798L154.165 6.5918C150.048 10.6598 147.5 16.2878 147.5 22.4998C147.5 28.7118 150.048 34.3398 154.165 38.4078L162.748 29.9198Z" fill="url(#paint3_linear_2350_63406)"/>
<path opacity="0.6" d="M132.253 60.0798C134.174 61.9798 135.367 64.6078 135.367 67.4998C135.367 70.3958 134.178 73.0198 132.253 74.9198L140.835 83.4078C144.952 79.3358 147.5 73.7118 147.5 67.4998C147.5 61.2878 144.952 55.6598 140.835 51.5918L132.253 60.0798Z" fill="url(#paint4_linear_2350_63406)"/>
<path opacity="0.6" d="M162.748 74.9198C160.826 73.0198 159.633 70.3918 159.633 67.4998C159.633 64.6038 160.822 61.9798 162.748 60.0798L154.165 51.5918C150.048 55.6638 147.5 61.2878 147.5 67.4998C147.5 73.7118 150.048 79.3398 154.165 83.4078L162.748 74.9198Z" fill="url(#paint5_linear_2350_63406)"/>
<path opacity="0.6" d="M132.252 29.9199C130.331 31.8199 127.674 32.9999 124.75 32.9999C121.822 32.9999 119.168 31.8239 117.247 29.9199L108.665 38.4079C112.782 42.4799 118.469 44.9999 124.75 44.9999C131.031 44.9999 136.721 42.4799 140.835 38.4079L132.252 29.9199Z" fill="url(#paint6_linear_2350_63406)"/>
<path opacity="0.6" d="M117.247 60.08C119.168 58.18 121.826 57 124.75 57C127.678 57 130.331 58.176 132.252 60.08L140.835 51.592C136.721 47.52 131.031 45 124.75 45C118.469 45 112.778 47.52 108.665 51.592L117.247 60.08Z" fill="url(#paint7_linear_2350_63406)"/>
<path d="M136.102 61.4086C134.626 61.4086 133.15 60.8806 131.981 59.8086L109.271 38.9966C106.812 36.7446 106.667 32.9486 108.944 30.5166C111.221 28.0846 115.059 27.9406 117.518 30.1926L140.228 51.0046C142.687 53.2566 142.832 57.0526 140.555 59.4846C139.358 60.7606 137.732 61.4086 136.102 61.4086Z" fill="url(#paint8_linear_2350_63406)"/>
<path d="M136.976 39.7324C135.5 39.7324 134.024 39.2044 132.855 38.1324C130.396 35.8804 130.25 32.0844 132.527 29.6524L153.571 7.19241C155.848 4.76041 159.686 4.61641 162.145 6.86841C164.604 9.12041 164.749 12.9164 162.472 15.3484L141.429 37.8084C140.232 39.0844 138.606 39.7324 136.976 39.7324Z" fill="url(#paint9_linear_2350_63406)"/>
<path d="M136.976 84.7324C135.5 84.7324 134.024 84.2044 132.855 83.1324C130.396 80.8804 130.25 77.0844 132.527 74.6524L153.571 52.1924C155.848 49.7604 159.686 49.6164 162.145 51.8684C164.604 54.1204 164.749 57.9164 162.472 60.3484L141.429 82.8084C140.232 84.0844 138.606 84.7324 136.976 84.7324Z" fill="url(#paint10_linear_2350_63406)"/>
<path d="M181.602 61.4086C180.126 61.4086 178.65 60.8806 177.481 59.8086L154.771 38.9966C152.312 36.7446 152.167 32.9486 154.444 30.5166C156.721 28.0846 160.559 27.9406 163.018 30.1926L185.728 51.0046C188.187 53.2566 188.332 57.0526 186.055 59.4846C184.858 60.7606 183.232 61.4086 181.602 61.4086Z" fill="url(#paint11_linear_2350_63406)"/>
<path d="M6.69867 126H9.53867V115.96L12.6587 121.2H14.6587L17.7787 115.96V126H20.6187V112H17.0787L13.6587 117.88L10.2387 112H6.69867V126ZM25.466 114.16C26.366 114.16 27.106 113.4 27.106 112.5C27.106 111.6 26.366 110.84 25.466 110.84C24.566 110.84 23.806 111.6 23.806 112.5C23.806 113.4 24.566 114.16 25.466 114.16ZM24.186 126H26.726V115.92H24.186V126ZM28.7552 124.54C29.7152 125.68 30.9952 126.4 32.7952 126.4C34.6952 126.4 36.3952 125.24 36.4352 123.12C36.4352 119.64 31.6152 120.24 31.6152 118.52C31.6152 118 31.9952 117.56 32.7952 117.56C33.5752 117.56 34.2352 118.08 34.7552 118.72L36.4352 117.24C35.7152 116.26 34.3152 115.52 32.7752 115.52C30.6752 115.52 29.1752 116.86 29.1752 118.64C29.1752 122.18 33.9952 121.52 33.9952 123.28C33.9952 123.88 33.5752 124.36 32.7552 124.36C31.7952 124.36 31.0552 123.8 30.4352 123.02L28.7552 124.54ZM37.7591 124.54C38.7191 125.68 39.9991 126.4 41.7991 126.4C43.6991 126.4 45.3991 125.24 45.4391 123.12C45.4391 119.64 40.6191 120.24 40.6191 118.52C40.6191 118 40.9991 117.56 41.7991 117.56C42.5791 117.56 43.2391 118.08 43.7591 118.72L45.4391 117.24C44.7191 116.26 43.3191 115.52 41.7791 115.52C39.6791 115.52 38.1791 116.86 38.1791 118.64C38.1791 122.18 42.9991 121.52 42.9991 123.28C42.9991 123.88 42.5791 124.36 41.7591 124.36C40.7991 124.36 40.0591 123.8 39.4391 123.02L37.7591 124.54ZM49.0598 114.16C49.9598 114.16 50.6998 113.4 50.6998 112.5C50.6998 111.6 49.9598 110.84 49.0598 110.84C48.1598 110.84 47.3998 111.6 47.3998 112.5C47.3998 113.4 48.1598 114.16 49.0598 114.16ZM47.7798 126H50.3198V115.92H47.7798V126ZM58.1657 115.52C54.8857 115.52 52.6457 117.94 52.6457 120.96C52.6457 123.98 54.8857 126.4 58.1657 126.4C61.4457 126.4 63.6857 123.98 63.6857 120.96C63.6857 117.94 61.4457 115.52 58.1657 115.52ZM58.2057 124C56.5257 124 55.2857 122.72 55.2857 120.96C55.2857 119.2 56.5257 117.92 58.2057 117.92C59.8257 117.92 61.0457 119.2 61.0457 120.96C61.0457 122.7 59.8257 124 58.2057 124ZM66.0024 126H68.5424V119.42C68.9224 118.78 69.6024 117.92 70.8824 117.92C72.1224 117.92 72.8824 118.76 72.8824 120.1V126H75.4424V120C75.4424 117.02 73.7024 115.52 71.5224 115.52C70.1824 115.52 69.2424 116.04 68.5424 116.72V115.92H66.0024V126ZM82.8173 114.58H87.1373V126H89.9773V114.58H94.2973V112H82.8173V114.58ZM95.143 126H97.683V119.54C98.063 118.9 98.863 118.22 100.103 118.22C100.563 118.22 100.903 118.28 101.223 118.36V115.86C100.983 115.78 100.683 115.72 100.343 115.72C99.203 115.72 98.343 116.24 97.683 116.92V115.92H95.143V126ZM105.62 126.3C106.8 126.3 108 125.8 108.64 125.02V126H111.18V119.48C111.18 117.26 109.68 115.52 106.76 115.52C104.92 115.52 103.44 116.28 102.54 117.52L104.4 118.94C104.94 118.2 105.7 117.74 106.68 117.74C107.84 117.74 108.64 118.42 108.64 119.48V119.74L105.56 120.26C103.4 120.62 102.22 121.76 102.22 123.28C102.22 125.14 103.6 126.3 105.62 126.3ZM104.74 123.16C104.74 122.54 105.18 122.1 106.24 121.92L108.64 121.52V122.94C108.14 123.74 107.3 124.28 106.14 124.28C105.28 124.28 104.74 123.84 104.74 123.16ZM114.088 126H116.628V119.42C117.008 118.78 117.688 117.92 118.968 117.92C120.208 117.92 120.968 118.76 120.968 120.1V126H123.528V120C123.528 117.02 121.788 115.52 119.608 115.52C118.268 115.52 117.328 116.04 116.628 116.72V115.92H114.088V126ZM125.533 124.54C126.493 125.68 127.773 126.4 129.573 126.4C131.473 126.4 133.173 125.24 133.213 123.12C133.213 119.64 128.393 120.24 128.393 118.52C128.393 118 128.773 117.56 129.573 117.56C130.353 117.56 131.013 118.08 131.533 118.72L133.213 117.24C132.493 116.26 131.093 115.52 129.553 115.52C127.453 115.52 125.953 116.86 125.953 118.64C125.953 122.18 130.773 121.52 130.773 123.28C130.773 123.88 130.353 124.36 129.533 124.36C128.573 124.36 127.833 123.8 127.213 123.02L125.533 124.54ZM136.833 114.16C137.733 114.16 138.473 113.4 138.473 112.5C138.473 111.6 137.733 110.84 136.833 110.84C135.933 110.84 135.173 111.6 135.173 112.5C135.173 113.4 135.933 114.16 136.833 114.16ZM135.553 126H138.093V115.92H135.553V126ZM141.779 122.32C141.779 124.78 142.979 126.2 145.499 126.2C146.339 126.2 146.939 126.1 147.439 125.88V123.66C147.099 123.8 146.639 123.88 145.939 123.88C144.939 123.88 144.339 123.44 144.339 122.32V118.2H147.419V115.92H144.339V113.4H141.779V115.92H139.899V118.2H141.779V122.32ZM150.974 114.16C151.874 114.16 152.614 113.4 152.614 112.5C152.614 111.6 151.874 110.84 150.974 110.84C150.074 110.84 149.314 111.6 149.314 112.5C149.314 113.4 150.074 114.16 150.974 114.16ZM149.694 126H152.234V115.92H149.694V126ZM160.08 115.52C156.8 115.52 154.56 117.94 154.56 120.96C154.56 123.98 156.8 126.4 160.08 126.4C163.36 126.4 165.6 123.98 165.6 120.96C165.6 117.94 163.36 115.52 160.08 115.52ZM160.12 124C158.44 124 157.2 122.72 157.2 120.96C157.2 119.2 158.44 117.92 160.12 117.92C161.74 117.92 162.96 119.2 162.96 120.96C162.96 122.7 161.74 124 160.12 124ZM167.916 126H170.456V119.42C170.836 118.78 171.516 117.92 172.796 117.92C174.036 117.92 174.796 118.76 174.796 120.1V126H177.356V120C177.356 117.02 175.616 115.52 173.436 115.52C172.096 115.52 171.156 116.04 170.456 116.72V115.92H167.916V126ZM191.491 114.32L193.891 111H191.131L189.051 114.32H191.491ZM194.911 124.36L193.091 122.92C192.551 123.64 191.591 124.12 190.491 124.12C188.911 124.12 187.751 123.36 187.511 121.48H194.571C194.651 121.14 194.731 120.62 194.731 120.06C194.731 117.42 192.891 115.52 190.091 115.52C186.791 115.52 184.911 117.98 184.911 120.96C184.911 123.9 186.931 126.4 190.511 126.4C192.411 126.4 193.971 125.62 194.911 124.36ZM190.031 117.6C191.451 117.6 192.191 118.62 192.231 119.64H187.591C187.871 118.32 188.731 117.6 190.031 117.6ZM201.975 124C200.275 124 199.055 122.74 199.055 120.96C199.055 119.2 200.275 117.92 201.935 117.92C202.975 117.92 203.775 118.38 204.255 119.08L206.235 117.56C205.295 116.32 203.815 115.52 201.975 115.52C198.495 115.52 196.415 118.02 196.415 120.96C196.415 123.9 198.495 126.4 201.975 126.4C203.815 126.4 205.295 125.6 206.235 124.36L204.255 122.84C203.775 123.54 202.975 124 201.975 124ZM212.541 115.52C209.261 115.52 207.021 117.94 207.021 120.96C207.021 123.98 209.261 126.4 212.541 126.4C215.821 126.4 218.061 123.98 218.061 120.96C218.061 117.94 215.821 115.52 212.541 115.52ZM212.581 124C210.901 124 209.661 122.72 209.661 120.96C209.661 119.2 210.901 117.92 212.581 117.92C214.201 117.92 215.421 119.2 215.421 120.96C215.421 122.7 214.201 124 212.581 124ZM220.377 126H222.917V111H220.377V126ZM230.763 115.52C227.483 115.52 225.243 117.94 225.243 120.96C225.243 123.98 227.483 126.4 230.763 126.4C234.043 126.4 236.283 123.98 236.283 120.96C236.283 117.94 234.043 115.52 230.763 115.52ZM230.803 124C229.123 124 227.883 122.72 227.883 120.96C227.883 119.2 229.123 117.92 230.803 117.92C232.423 117.92 233.643 119.2 233.643 120.96C233.643 122.7 232.423 124 230.803 124ZM237.463 127.76C237.463 129.88 239.363 131 242.583 131C245.723 131 247.863 129.28 247.863 127.04C247.863 125.16 246.483 123.8 243.943 123.8H241.403C240.943 123.8 240.723 123.6 240.723 123.2C240.723 122.98 240.843 122.76 241.063 122.56C241.363 122.62 241.683 122.64 242.023 122.64C244.623 122.64 246.103 121.04 246.103 119.06C246.103 118.72 246.063 118.4 245.963 118.08H247.743V115.92H244.063C243.483 115.66 242.803 115.52 242.023 115.52C239.503 115.52 237.983 117.1 237.983 119.06C237.983 120.18 238.463 121.18 239.343 121.84C238.583 122.4 238.243 123.04 238.243 123.84C238.243 124.36 238.463 124.9 238.863 125.3C237.963 125.96 237.463 126.76 237.463 127.76ZM242.063 120.72C240.963 120.72 240.303 120.06 240.303 119.06C240.303 118.08 240.963 117.42 242.063 117.42C243.123 117.42 243.803 118.06 243.803 119.06C243.803 120.06 243.123 120.72 242.063 120.72ZM239.863 127.4C239.863 126.78 240.163 126.34 240.543 125.98H243.663C244.883 125.98 245.343 126.52 245.343 127.28C245.343 128.28 244.403 128.96 242.563 128.96C240.783 128.96 239.863 128.36 239.863 127.4ZM250.857 114.16C251.757 114.16 252.497 113.4 252.497 112.5C252.497 111.6 251.757 110.84 250.857 110.84C249.957 110.84 249.197 111.6 249.197 112.5C249.197 113.4 249.957 114.16 250.857 114.16ZM249.577 126H252.117V115.92H249.577V126ZM254.443 120.96C254.443 123.9 256.363 126.4 259.563 126.4C260.923 126.4 261.903 125.96 262.683 125.18V130.92H265.243V115.92H262.683V116.74C261.903 115.96 260.923 115.52 259.563 115.52C256.363 115.52 254.443 118.02 254.443 120.96ZM257.083 120.96C257.083 119.2 258.183 117.92 259.903 117.92C261.043 117.92 262.003 118.42 262.683 119.36V122.56C262.063 123.48 261.083 124 259.903 124C258.183 124 257.083 122.72 257.083 120.96ZM274.928 121.64C274.928 123.1 274.168 124 272.788 124C271.388 124 270.628 123.1 270.628 121.64V115.92H268.068V121.52C268.068 124.54 269.808 126.4 272.768 126.4C275.728 126.4 277.488 124.54 277.488 121.52V115.92H274.928V121.64ZM289.579 124.36L287.759 122.92C287.219 123.64 286.259 124.12 285.159 124.12C283.579 124.12 282.419 123.36 282.179 121.48H289.239C289.319 121.14 289.399 120.62 289.399 120.06C289.399 117.42 287.559 115.52 284.759 115.52C281.459 115.52 279.579 117.98 279.579 120.96C279.579 123.9 281.599 126.4 285.179 126.4C287.079 126.4 288.639 125.62 289.579 124.36ZM284.699 117.6C286.119 117.6 286.859 118.62 286.899 119.64H282.259C282.539 118.32 283.399 117.6 284.699 117.6Z" fill="#000091"/>
<path d="M50.0638 150H55.3278V148.88H51.3798V145.562H54.7678V144.456H51.3798V141.32H55.3278V140.2H50.0638V150ZM57.5764 150H58.7664V145.114C59.2144 144.372 59.8584 143.784 60.8804 143.784C61.9724 143.784 62.6864 144.512 62.6864 145.772V150H63.8764V145.73C63.8764 143.728 62.7004 142.664 61.1184 142.664C60.0684 142.664 59.3404 143.112 58.7664 143.742V142.944H57.5764V150ZM65.5157 149.034C66.1597 149.832 67.0417 150.28 68.1617 150.28C69.4777 150.28 70.5277 149.454 70.5417 148.138C70.5417 145.73 66.9997 146.234 66.9997 144.652C66.9997 144.106 67.4057 143.658 68.1617 143.658C68.7777 143.658 69.3097 143.994 69.6877 144.526L70.5137 143.826C70.0237 143.14 69.1557 142.664 68.1477 142.664C66.7897 142.664 65.8517 143.574 65.8517 144.68C65.8517 147.172 69.3797 146.612 69.3797 148.194C69.3797 148.81 68.9317 149.286 68.1477 149.286C67.4337 149.286 66.8457 148.936 66.3557 148.32L65.5157 149.034ZM78.6687 148.838L77.7867 148.152C77.3247 148.782 76.5547 149.202 75.6447 149.202C74.1327 149.202 73.0547 148.18 73.0127 146.486H78.4307C78.4727 146.29 78.5147 146.024 78.5147 145.744C78.5147 144.008 77.2687 142.664 75.3507 142.664C73.1667 142.664 71.7947 144.33 71.7947 146.472C71.7947 148.53 73.2647 150.28 75.6447 150.28C76.9607 150.28 78.0107 149.72 78.6687 148.838ZM75.3227 143.672C76.5687 143.672 77.2827 144.54 77.3247 145.576H73.0967C73.3487 144.358 74.1607 143.672 75.3227 143.672ZM80.5315 150H81.7215V145.114C82.1275 144.386 82.7295 143.784 83.6955 143.784C84.7175 143.784 85.3615 144.456 85.3615 145.632V150H86.5515V145.59C86.5515 145.422 86.5375 145.268 86.5235 145.114C86.9855 144.288 87.6155 143.784 88.5115 143.784C89.5195 143.784 90.1775 144.456 90.1775 145.632V150H91.3675V145.59C91.3675 143.672 90.2615 142.664 88.7495 142.664C87.5315 142.664 86.7895 143.252 86.2295 144.022C85.7955 143.126 84.9555 142.664 83.9335 142.664C82.9535 142.664 82.2535 143.098 81.7215 143.714V142.944H80.5315V150ZM101.088 146.472C101.088 144.414 99.6739 142.664 97.4619 142.664C96.4119 142.664 95.5859 143.07 94.9559 143.784V139.5H93.7659V150H94.9559V149.16C95.5859 149.874 96.4119 150.28 97.4619 150.28C99.6739 150.28 101.088 148.53 101.088 146.472ZM97.3219 143.784C98.8199 143.784 99.8419 144.974 99.8419 146.472C99.8419 147.97 98.8199 149.16 97.3219 149.16C96.3559 149.16 95.5019 148.698 94.9559 147.858V145.086C95.4739 144.26 96.3419 143.784 97.3219 143.784ZM103.022 150H104.212V139.5H103.022V150ZM112.999 148.838L112.117 148.152C111.655 148.782 110.885 149.202 109.975 149.202C108.463 149.202 107.385 148.18 107.343 146.486H112.761C112.803 146.29 112.845 146.024 112.845 145.744C112.845 144.008 111.599 142.664 109.681 142.664C107.497 142.664 106.125 144.33 106.125 146.472C106.125 148.53 107.595 150.28 109.975 150.28C111.291 150.28 112.341 149.72 112.999 148.838ZM109.653 143.672C110.899 143.672 111.613 144.54 111.655 145.576H107.427C107.679 144.358 108.491 143.672 109.653 143.672ZM115.242 152.24L116.684 148.53H115.326L114.136 152.24H115.242ZM122.326 153.444H123.516V149.16C124.146 149.874 124.972 150.28 126.022 150.28C128.234 150.28 129.648 148.53 129.648 146.472C129.648 144.414 128.234 142.664 126.022 142.664C124.972 142.664 124.146 143.07 123.516 143.784V142.944H122.326V153.444ZM125.882 143.784C127.38 143.784 128.402 144.974 128.402 146.472C128.402 147.97 127.38 149.16 125.882 149.16C124.916 149.16 124.062 148.698 123.516 147.844V145.1C124.048 144.26 124.902 143.784 125.882 143.784ZM133.364 150.196C134.274 150.196 135.198 149.79 135.73 149.104V150H136.92V145.268C136.92 143.714 135.856 142.664 134.064 142.664C132.832 142.664 131.838 143.182 131.222 144.022L132.118 144.708C132.552 144.106 133.21 143.728 134.022 143.728C135.03 143.728 135.73 144.288 135.73 145.268V145.758L133.35 146.15C131.852 146.402 131.04 147.158 131.04 148.222C131.04 149.426 131.978 150.196 133.364 150.196ZM132.244 148.18C132.244 147.578 132.678 147.144 133.644 146.976L135.73 146.626V148.012C135.268 148.768 134.498 149.216 133.56 149.216C132.734 149.216 132.244 148.782 132.244 148.18ZM138.551 149.034C139.195 149.832 140.077 150.28 141.197 150.28C142.513 150.28 143.563 149.454 143.577 148.138C143.577 145.73 140.035 146.234 140.035 144.652C140.035 144.106 140.441 143.658 141.197 143.658C141.813 143.658 142.345 143.994 142.723 144.526L143.549 143.826C143.059 143.14 142.191 142.664 141.183 142.664C139.825 142.664 138.887 143.574 138.887 144.68C138.887 147.172 142.415 146.612 142.415 148.194C142.415 148.81 141.967 149.286 141.183 149.286C140.469 149.286 139.881 148.936 139.391 148.32L138.551 149.034ZM144.703 149.034C145.347 149.832 146.229 150.28 147.349 150.28C148.665 150.28 149.715 149.454 149.729 148.138C149.729 145.73 146.187 146.234 146.187 144.652C146.187 144.106 146.593 143.658 147.349 143.658C147.965 143.658 148.497 143.994 148.875 144.526L149.701 143.826C149.211 143.14 148.343 142.664 147.335 142.664C145.977 142.664 145.039 143.574 145.039 144.68C145.039 147.172 148.567 146.612 148.567 148.194C148.567 148.81 148.119 149.286 147.335 149.286C146.621 149.286 146.033 148.936 145.543 148.32L144.703 149.034ZM154.804 142.664C152.522 142.664 150.982 144.414 150.982 146.472C150.982 148.53 152.522 150.28 154.804 150.28C157.072 150.28 158.626 148.53 158.626 146.472C158.626 144.414 157.072 142.664 154.804 142.664ZM154.818 149.16C153.306 149.16 152.228 147.942 152.228 146.472C152.228 145.002 153.306 143.784 154.818 143.784C156.288 143.784 157.366 145.002 157.366 146.472C157.366 147.928 156.288 149.16 154.818 149.16ZM160.539 150H161.729V145.114C162.177 144.372 162.821 143.784 163.843 143.784C164.935 143.784 165.649 144.512 165.649 145.772V150H166.839V145.73C166.839 143.728 165.663 142.664 164.081 142.664C163.031 142.664 162.303 143.112 161.729 143.742V142.944H160.539V150ZM168.479 149.034C169.123 149.832 170.005 150.28 171.125 150.28C172.441 150.28 173.491 149.454 173.505 148.138C173.505 145.73 169.963 146.234 169.963 144.652C169.963 144.106 170.369 143.658 171.125 143.658C171.741 143.658 172.273 143.994 172.651 144.526L173.477 143.826C172.987 143.14 172.119 142.664 171.111 142.664C169.753 142.664 168.815 143.574 168.815 144.68C168.815 147.172 172.343 146.612 172.343 148.194C172.343 148.81 171.895 149.286 171.111 149.286C170.397 149.286 169.809 148.936 169.319 148.32L168.479 149.034ZM181.273 141.824H182.421L180.965 139.5H179.635L181.273 141.824ZM181.133 150.196C182.043 150.196 182.967 149.79 183.499 149.104V150H184.689V145.268C184.689 143.714 183.625 142.664 181.833 142.664C180.601 142.664 179.607 143.182 178.991 144.022L179.887 144.708C180.321 144.106 180.979 143.728 181.791 143.728C182.799 143.728 183.499 144.288 183.499 145.268V145.758L181.119 146.15C179.621 146.402 178.809 147.158 178.809 148.222C178.809 149.426 179.747 150.196 181.133 150.196ZM180.013 148.18C180.013 147.578 180.447 147.144 181.413 146.976L183.499 146.626V148.012C183.037 148.768 182.267 149.216 181.329 149.216C180.503 149.216 180.013 148.782 180.013 148.18ZM190.85 150H192.04V139.5H190.85V150ZM195.072 143.952L196.514 140.2H195.156L193.966 143.952H195.072ZM199.741 150.196C200.651 150.196 201.575 149.79 202.107 149.104V150H203.297V145.268C203.297 143.714 202.233 142.664 200.441 142.664C199.209 142.664 198.215 143.182 197.599 144.022L198.495 144.708C198.929 144.106 199.587 143.728 200.399 143.728C201.407 143.728 202.107 144.288 202.107 145.268V145.758L199.727 146.15C198.229 146.402 197.417 147.158 197.417 148.222C197.417 149.426 198.355 150.196 199.741 150.196ZM198.62 148.18C198.62 147.578 199.055 147.144 200.021 146.976L202.107 146.626V148.012C201.645 148.768 200.875 149.216 199.937 149.216C199.111 149.216 198.62 148.782 198.62 148.18ZM208.932 149.16C207.406 149.16 206.328 147.984 206.328 146.472C206.328 144.974 207.406 143.784 208.918 143.784C209.8 143.784 210.514 144.204 210.948 144.82L211.886 144.106C211.228 143.238 210.192 142.664 208.918 142.664C206.58 142.664 205.082 144.414 205.082 146.472C205.082 148.53 206.58 150.28 208.918 150.28C210.206 150.28 211.228 149.72 211.886 148.838L210.948 148.124C210.514 148.74 209.8 149.16 208.932 149.16ZM213.896 147.634C213.896 149.356 214.778 150.14 216.346 150.14C216.85 150.14 217.228 150.084 217.564 149.944V148.88C217.298 148.992 216.976 149.048 216.514 149.048C215.66 149.048 215.1 148.74 215.1 147.634V144.022H217.55V142.944H215.1V141.18H213.896V142.944H212.566V144.022H213.896V147.634ZM219.971 141.11C220.433 141.11 220.797 140.732 220.797 140.27C220.797 139.822 220.433 139.444 219.971 139.444C219.509 139.444 219.131 139.822 219.131 140.27C219.131 140.732 219.509 141.11 219.971 141.11ZM219.369 150H220.559V142.944H219.369V150ZM226.294 142.664C224.012 142.664 222.472 144.414 222.472 146.472C222.472 148.53 224.012 150.28 226.294 150.28C228.562 150.28 230.116 148.53 230.116 146.472C230.116 144.414 228.562 142.664 226.294 142.664ZM226.308 149.16C224.796 149.16 223.718 147.942 223.718 146.472C223.718 145.002 224.796 143.784 226.308 143.784C227.778 143.784 228.856 145.002 228.856 146.472C228.856 147.928 227.778 149.16 226.308 149.16ZM232.03 150H233.22V145.114C233.668 144.372 234.312 143.784 235.334 143.784C236.426 143.784 237.14 144.512 237.14 145.772V150H238.33V145.73C238.33 143.728 237.154 142.664 235.572 142.664C234.522 142.664 233.794 143.112 233.22 143.742V142.944H232.03V150ZM244.904 147.144H245.814L246.038 140.2H244.68L244.904 147.144ZM245.38 150.154C245.87 150.154 246.262 149.748 246.262 149.258C246.262 148.782 245.87 148.376 245.38 148.376C244.876 148.376 244.47 148.782 244.47 149.258C244.47 149.748 244.876 150.154 245.38 150.154Z" fill="#000091"/>
<defs>
<linearGradient id="paint0_linear_2350_63406" x1="154.163" y1="37.4604" x2="186.336" y2="37.4604" gradientUnits="userSpaceOnUse">
<stop offset="0.2" stop-color="#FF963C"/>
<stop offset="0.8" stop-color="#FF963C" stop-opacity="0"/>
</linearGradient>
<linearGradient id="paint1_linear_2350_63406" x1="186.337" y1="52.5394" x2="154.163" y2="52.5394" gradientUnits="userSpaceOnUse">
<stop stop-color="#149B64"/>
<stop offset="0.7" stop-color="#149B64" stop-opacity="0"/>
</linearGradient>
<linearGradient id="paint2_linear_2350_63406" x1="139.877" y1="38.4097" x2="139.877" y2="6.58996" gradientUnits="userSpaceOnUse">
<stop offset="0.2" stop-color="#FF8C7D"/>
<stop offset="0.8" stop-color="#FF8C7D" stop-opacity="0"/>
</linearGradient>
<linearGradient id="paint3_linear_2350_63406" x1="155.123" y1="6.58984" x2="155.123" y2="38.4096" gradientUnits="userSpaceOnUse">
<stop stop-color="#FF963C"/>
<stop offset="0.7" stop-color="#FF963C" stop-opacity="0"/>
</linearGradient>
<linearGradient id="paint4_linear_2350_63406" x1="139.877" y1="83.4098" x2="139.877" y2="51.59" gradientUnits="userSpaceOnUse">
<stop stop-color="#646EFA"/>
<stop offset="0.7009" stop-color="#646EFA" stop-opacity="0"/>
</linearGradient>
<linearGradient id="paint5_linear_2350_63406" x1="155.123" y1="51.5898" x2="155.123" y2="83.4097" gradientUnits="userSpaceOnUse">
<stop offset="0.2" stop-color="#149B64"/>
<stop offset="0.8" stop-color="#149B64" stop-opacity="0"/>
</linearGradient>
<linearGradient id="paint6_linear_2350_63406" x1="108.663" y1="37.4604" x2="140.836" y2="37.4604" gradientUnits="userSpaceOnUse">
<stop offset="0.2" stop-color="#FF8C7D"/>
<stop offset="0.7" stop-color="#FF8C7D" stop-opacity="0"/>
</linearGradient>
<linearGradient id="paint7_linear_2350_63406" x1="140.836" y1="52.5394" x2="108.663" y2="52.5394" gradientUnits="userSpaceOnUse">
<stop offset="0.2" stop-color="#646EFA"/>
<stop offset="0.8" stop-color="#646EFA" stop-opacity="0"/>
</linearGradient>
<linearGradient id="paint8_linear_2350_63406" x1="139.978" y1="60.0617" x2="109.858" y2="29.6068" gradientUnits="userSpaceOnUse">
<stop offset="0.2" stop-color="#646EFA"/>
<stop offset="0.8" stop-color="#FFA07D"/>
</linearGradient>
<linearGradient id="paint9_linear_2350_63406" x1="162.728" y1="7.43949" x2="132.608" y2="37.8942" gradientUnits="userSpaceOnUse">
<stop offset="0.2" stop-color="#FAD214"/>
<stop offset="0.8" stop-color="#FFA07D"/>
</linearGradient>
<linearGradient id="paint10_linear_2350_63406" x1="162.728" y1="52.4395" x2="132.608" y2="82.8942" gradientUnits="userSpaceOnUse">
<stop offset="0.2" stop-color="#00BE8C"/>
<stop offset="0.8" stop-color="#646EFA"/>
</linearGradient>
<linearGradient id="paint11_linear_2350_63406" x1="185.478" y1="60.0617" x2="155.358" y2="29.6068" gradientUnits="userSpaceOnUse">
<stop offset="0.2" stop-color="#00BE8C"/>
<stop offset="0.8" stop-color="#FAD214"/>
</linearGradient>
</defs>
</svg>
