<svg width="183" height="181" viewBox="0 0 183 181" fill="none" xmlns="http://www.w3.org/2000/svg">
<mask id="path-1-inside-1_2488_70075" fill="white">
<path fill-rule="evenodd" clip-rule="evenodd" d="M74.8663 109.478C74.8663 103.174 78.6423 97.5792 83.0651 93.0862C88.4476 87.6182 91.7238 80.3791 91.7238 72.4395C91.7238 55.3985 76.6309 41.584 58.0128 41.584C39.3947 41.584 24.3018 55.3985 24.3018 72.4395C24.3018 80.3775 27.5767 87.6154 32.9574 93.083C37.3795 97.5766 41.1552 103.172 41.1552 109.477C41.1552 118.786 48.7017 126.436 58.0107 126.436C67.3198 126.436 74.8663 118.787 74.8663 109.478Z"/>
</mask>
<path d="M83.0651 93.0862L82.3524 92.3847L83.0651 93.0862ZM90.7238 72.4395C90.7238 80.0945 87.5669 87.0874 82.3524 92.3847L83.7777 93.7877C89.3283 88.1491 92.7238 80.6637 92.7238 72.4395H90.7238ZM58.0128 42.584C76.1638 42.584 90.7238 56.0322 90.7238 72.4395H92.7238C92.7238 54.7647 77.098 40.584 58.0128 40.584V42.584ZM25.3018 72.4395C25.3018 56.0322 39.8618 42.584 58.0128 42.584V40.584C38.9276 40.584 23.3018 54.7647 23.3018 72.4395H25.3018ZM33.6701 92.3816C28.4574 87.0847 25.3018 80.093 25.3018 72.4395H23.3018C23.3018 80.6621 26.696 88.1461 32.2446 93.7844L33.6701 92.3816ZM40.1552 109.477C40.1552 119.33 48.1414 127.436 58.0107 127.436V125.436C49.2619 125.436 42.1552 118.242 42.1552 109.477H40.1552ZM32.2446 93.7844C36.6084 98.2188 40.1552 103.571 40.1552 109.477H42.1552C42.1552 102.773 38.1506 96.9344 33.6701 92.3816L32.2446 93.7844ZM58.0107 127.436C67.8799 127.436 75.8663 119.332 75.8663 109.478H73.8663C73.8663 118.243 66.7596 125.436 58.0107 125.436V127.436ZM82.3524 92.3847C77.8714 96.9369 73.8663 102.774 73.8663 109.478H75.8663C75.8663 103.573 79.4133 98.2214 83.7777 93.7877L82.3524 92.3847Z" fill="#1EBE8E" mask="url(#path-1-inside-1_2488_70075)"/>
<path d="M58.9603 126.064C53.128 109.041 50.9651 65.4158 45.3643 76.9961C40.0667 87.9495 53.087 99.8577 60.4286 81.3788C67.7702 62.9 44.8643 76.3393 58.9603 86.7547C73.0562 97.1701 73.0562 79.0273 68.9449 76.3393C64.8336 73.6514 60.4286 97.1698 58.9603 126.064Z" stroke="#1EBE8E"/>
<rect x="44.4873" y="119.783" width="28.0358" height="5.40292" rx="2.70146" fill="white" stroke="#1EBE8E"/>
<rect x="44.4873" y="125.201" width="28.0358" height="5.40292" rx="2.70146" fill="white" stroke="#1EBE8E"/>
<rect x="44.4873" y="130.619" width="28.0358" height="5.40292" rx="2.70146" fill="white" stroke="#1EBE8E"/>
<ellipse opacity="0.03" cx="90.8975" cy="90.3173" rx="59.9346" ry="59.9833" stroke="#2A3070" stroke-width="60"/>
<path d="M157.938 104.199C156.655 98.5608 153.985 86.7798 150.566 71.4465C145.706 49.6508 105.45 46.4801 103.602 71.4465C102.069 92.1583 99.6275 123.234 98.84 133.224C98.7024 134.968 100.083 136.438 101.833 136.438H128.006C129.814 136.438 131.212 134.85 130.982 133.056L130.048 125.781C135.933 127.415 142.528 128.209 147.519 128.489C149.193 128.582 150.566 127.229 150.566 125.552V110.86C150.566 109.204 151.909 107.86 153.566 107.86H155.009C156.936 107.86 158.366 106.078 157.938 104.199Z" fill="#FACF35"/>
<path d="M121.604 86.1761C117.214 84.6542 110.737 85.263 119.958 99.8739" stroke="#2A3070" stroke-linecap="round"/>
<ellipse opacity="0.5" rx="20.3208" ry="12.2514" transform="matrix(-0.995064 -0.0992396 -0.0990799 0.995079 127.157 69.5846)" fill="white"/>
<path d="M144.053 56.902C144.053 59.5439 141.914 61.6836 139.277 61.6836C136.64 61.6836 134.5 59.5439 134.5 56.902C134.5 54.26 136.64 52.1203 139.277 52.1203C141.914 52.1203 144.053 54.26 144.053 56.902Z" stroke="#2A3070" stroke-width="2.85"/>
<path d="M112.674 46.6735C112.993 46.2827 113.496 46.0916 113.993 46.1723L115.509 46.4182C116.006 46.4988 116.422 46.8385 116.601 47.3093L117.147 48.7476C117.325 49.2185 117.239 49.749 116.921 50.1395L115.95 51.3305C115.632 51.7213 115.129 51.9123 114.632 51.8317L113.116 51.5858C112.619 51.5052 112.202 51.1655 112.024 50.6946L111.478 49.2563C111.299 48.7855 111.385 48.2549 111.704 47.8645L112.674 46.6735Z" fill="#2A3070"/>
<path d="M130.37 65.7862C131.052 65.7862 131.682 66.1503 132.023 66.7414L133.752 69.7386C134.093 70.3294 134.093 71.057 133.752 71.6476L132.022 74.6463C131.682 75.2368 131.052 75.6006 130.37 75.6006L126.912 75.6006C126.23 75.6006 125.6 75.2365 125.259 74.6454L123.53 71.6482C123.189 71.0574 123.189 70.3298 123.53 69.7392L125.26 66.7405C125.6 66.1499 126.23 65.7862 126.912 65.7862L130.37 65.7862Z" stroke="#6672F8"/>
<path d="M123.96 61.6582C123.96 47.0189 132.318 33.8735 140.385 43.6709C146.203 50.7362 120.079 46.4214 145.155 35.666" stroke="#1EBE8E" stroke-linecap="round" stroke-linejoin="round"/>
<mask id="path-15-inside-2_2488_70075" fill="white">
<path fill-rule="evenodd" clip-rule="evenodd" d="M117.56 32.6138C117.56 32.614 117.56 32.6142 117.56 32.6143L117.612 32.6141C120.736 32.6141 123.269 35.1452 123.275 38.2698C123.281 35.163 125.785 32.643 128.884 32.6143L128.884 32.6138C125.799 32.5853 123.303 30.0876 123.275 27L123.275 27C123.246 30.1054 120.722 32.614 117.612 32.614C117.595 32.614 117.577 32.614 117.56 32.6138ZM123.275 38.3333L123.275 38.3333L123.275 38.2856L123.275 38.3333Z"/>
</mask>
<path fill-rule="evenodd" clip-rule="evenodd" d="M117.56 32.6138C117.56 32.614 117.56 32.6142 117.56 32.6143L117.612 32.6141C120.736 32.6141 123.269 35.1452 123.275 38.2698C123.281 35.163 125.785 32.643 128.884 32.6143L128.884 32.6138C125.799 32.5853 123.303 30.0876 123.275 27L123.275 27C123.246 30.1054 120.722 32.614 117.612 32.614C117.595 32.614 117.577 32.614 117.56 32.6138ZM123.275 38.3333L123.275 38.3333L123.275 38.2856L123.275 38.3333Z" fill="#FCA081"/>
<path d="M117.56 32.6143L116.56 32.6053L116.55 33.619L117.564 33.6143L117.56 32.6143ZM117.56 32.6138L117.569 31.6138L116.569 31.6047L116.56 32.6047L117.56 32.6138ZM117.612 32.6141V31.6141L117.608 31.6141L117.612 32.6141ZM123.275 38.2698L122.275 38.2717H124.275L123.275 38.2698ZM128.884 32.6143L128.893 33.6143L129.894 33.6051L129.884 32.6042L128.884 32.6143ZM128.884 32.6138L129.884 32.6036L129.874 31.6229L128.893 31.6138L128.884 32.6138ZM123.275 27L124.275 26.9909L124.266 26.0046L123.28 26L123.275 27ZM123.275 27L123.279 26L122.284 25.9954L122.275 26.9909L123.275 27ZM123.275 38.3333L122.275 38.3284L122.27 39.3376L123.279 39.3333L123.275 38.3333ZM123.275 38.3333L123.279 39.3333L124.28 39.3291L124.275 38.3288L123.275 38.3333ZM123.275 38.2856L124.275 38.2811L122.275 38.2807L123.275 38.2856ZM118.56 32.6234L118.56 32.6229L116.56 32.6047L116.56 32.6053L118.56 32.6234ZM117.608 31.6141L117.555 31.6144L117.564 33.6143L117.617 33.6141L117.608 31.6141ZM124.275 38.2679C124.268 34.5926 121.288 31.6141 117.612 31.6141V33.6141C120.184 33.6141 122.27 35.6978 122.275 38.2717L124.275 38.2679ZM128.874 31.6144C125.227 31.6481 122.282 34.6135 122.275 38.2679L124.275 38.2717C124.28 35.7125 126.342 33.6379 128.893 33.6143L128.874 31.6144ZM127.884 32.6239L127.884 32.6245L129.884 32.6042L129.884 32.6036L127.884 32.6239ZM122.275 27.0091C122.308 30.6411 125.244 33.5802 128.874 33.6137L128.893 31.6138C126.354 31.5904 124.298 29.5341 124.275 26.9909L122.275 27.0091ZM123.27 28L123.27 28L123.28 26L123.279 26L123.27 28ZM122.275 26.9909C122.251 29.5488 120.172 31.614 117.612 31.614V33.614C121.272 33.614 124.241 30.662 124.274 27.0091L122.275 26.9909ZM117.612 31.614C117.598 31.614 117.583 31.614 117.569 31.6138L117.55 33.6137C117.571 33.6139 117.592 33.614 117.612 33.614V31.614ZM123.279 39.3333L123.279 39.3333L123.271 37.3333L123.27 37.3333L123.279 39.3333ZM122.275 38.2807L122.275 38.3284L124.275 38.3382L124.275 38.2905L122.275 38.2807ZM124.275 38.3288L124.275 38.2811L122.275 38.2902L122.275 38.3379L124.275 38.3288Z" fill="#FCA081" mask="url(#path-15-inside-2_2488_70075)"/>
<path fill-rule="evenodd" clip-rule="evenodd" d="M111.551 123.423C111.551 123.423 111.551 123.423 111.551 123.423C111.551 123.423 111.551 123.423 111.551 123.423V131.585C111.551 134.347 109.312 136.585 106.551 136.585H96.958C94.1966 136.585 91.958 134.347 91.958 131.585V123.814C91.958 123.598 92.133 123.423 92.3489 123.423C92.4498 123.423 92.5467 123.384 92.6195 123.314L103.09 113.273C106.268 110.224 111.551 112.477 111.551 116.881V123.423Z" fill="#2A3070"/>
<path fill-rule="evenodd" clip-rule="evenodd" d="M97.5945 123.423C97.5945 123.423 97.5945 123.423 97.5945 123.423C97.5945 123.423 97.5946 123.423 97.5946 123.423V131.585C97.5946 134.347 95.356 136.585 92.5946 136.585H83.002C80.2405 136.585 78.002 134.347 78.002 131.585V123.814C78.002 123.598 78.177 123.423 78.3929 123.423C78.4937 123.423 78.5907 123.384 78.6635 123.314L89.1335 113.273C92.3122 110.224 97.5945 112.477 97.5945 116.881V123.423Z" fill="#2A3070"/>
<path fill-rule="evenodd" clip-rule="evenodd" d="M83.1013 123.423C83.1013 123.423 83.1013 123.423 83.1014 123.423C83.1014 123.423 83.1014 123.423 83.1014 123.423V131.585C83.1014 134.347 80.8628 136.585 78.1014 136.585H68.5088C65.7474 136.585 63.5088 134.347 63.5088 131.585V123.814C63.5088 123.598 63.6838 123.423 63.8997 123.423C64.0006 123.423 64.0975 123.384 64.1703 123.314L74.6403 113.273C77.819 110.224 83.1013 112.477 83.1013 116.881V123.423Z" fill="#2A3070"/>
<path d="M57.6056 107.451C58.481 101.806 66.612 101.806 67.4874 107.451L71.1208 130.881C71.5907 133.911 69.2467 136.647 66.1798 136.647H58.9132C55.8463 136.647 53.5023 133.911 53.9723 130.881L57.6056 107.451Z" fill="#6672F8"/>
<path d="M85.0858 48.9186C85.0858 53.4293 81.4322 57.0852 76.9262 57.0852C72.4202 57.0852 68.7666 53.4293 68.7666 48.9186C68.7666 44.4079 72.4202 40.752 76.9262 40.752C81.4322 40.752 85.0858 44.4079 85.0858 48.9186Z" fill="white" stroke="#2A3070"/>
<mask id="path-22-inside-3_2488_70075" fill="white">
<path fill-rule="evenodd" clip-rule="evenodd" d="M76.9872 57.5853C79.9212 55.8106 81.8827 52.5878 81.8827 48.9064C81.8827 45.2419 79.9391 42.0317 77.0274 40.252C74.0933 42.0266 72.1318 45.2495 72.1318 48.9308C72.1318 52.5954 74.0754 55.8056 76.9872 57.5853Z"/>
</mask>
<path d="M76.9872 57.5853L76.4657 58.4385L76.9845 58.7556L77.5047 58.441L76.9872 57.5853ZM77.0274 40.252L77.5489 39.3987L77.0301 39.0816L76.5098 39.3963L77.0274 40.252ZM80.8827 48.9064C80.8827 52.2237 79.1165 55.1287 76.4697 56.7296L77.5047 58.441C80.726 56.4926 82.8827 52.9519 82.8827 48.9064H80.8827ZM76.5058 41.1052C79.1326 42.7107 80.8827 45.6043 80.8827 48.9064H82.8827C82.8827 44.8795 80.7457 41.3526 77.5489 39.3987L76.5058 41.1052ZM73.1318 48.9308C73.1318 45.6136 74.8981 42.7086 77.5449 41.1076L76.5098 39.3963C73.2885 41.3447 71.1318 44.8854 71.1318 48.9308H73.1318ZM77.5087 56.7321C74.882 55.1266 73.1318 52.233 73.1318 48.9308H71.1318C71.1318 52.9578 73.2689 56.4846 76.4657 58.4385L77.5087 56.7321Z" fill="#2A3070" mask="url(#path-22-inside-3_2488_70075)"/>
<line x1="68.4287" y1="48.5" x2="85.586" y2="48.5" stroke="#2A3070"/>
<line x1="69.9404" y1="44.2871" x2="83.904" y2="44.2871" stroke="#2A3070"/>
<line x1="69.3994" y1="52.7109" x2="84.2907" y2="52.7109" stroke="#2A3070"/>
<line x1="77.2637" y1="40.4141" x2="77.2637" y2="57.5853" stroke="#2A3070"/>
<path d="M40.2889 103.632C22.7337 116.248 12.895 127.508 15.7583 133.404C20.605 143.384 60.0078 134.219 103.767 112.934C147.526 91.648 179.071 66.3023 174.224 56.3222C171.448 50.6042 157.327 51.1708 137.543 56.7009M91.2474 74.3891C95.4826 72.4031 99.6651 70.5352 103.767 68.7919" stroke="#FCA081"/>
<rect width="3.33271" height="13.9912" rx="1.66636" transform="matrix(0.478399 -0.878143 0.877816 0.478998 114.895 66.5117)" fill="#FCA081"/>
</svg>
