<svg width="193" height="81" viewBox="0 0 193 81" fill="none" xmlns="http://www.w3.org/2000/svg">
<rect y="0.275391" width="192.719" height="80.5917" fill="white"/>
<g clip-path="url(#clip0_2350_63473)">
<path d="M172.959 66.695C171.762 66.523 171.033 65.9653 170.645 64.9247C170.442 64.3801 170.33 63.3001 170.381 62.3664C170.455 60.988 170.712 60.2646 171.34 59.6639C171.946 59.0842 172.383 58.9082 173.31 58.8699C174.569 58.8178 175.401 59.0721 176.027 59.7007C176.577 60.2516 176.814 60.8783 176.899 62.006C176.957 62.7793 176.869 63.0887 176.563 63.1959C176.426 63.2437 175.561 63.2716 174.215 63.2716H172.084L172.128 63.7433C172.184 64.3451 172.407 64.7838 172.795 65.0579C173.072 65.2535 173.146 65.2704 173.805 65.2914C174.195 65.3037 174.907 65.2651 175.387 65.2053C175.866 65.1456 176.283 65.1217 176.314 65.1524C176.345 65.1833 176.405 65.4089 176.448 65.6542C176.525 66.091 176.523 66.1033 176.346 66.2559C176.147 66.4271 175.782 66.521 174.725 66.6726C173.949 66.7838 173.606 66.7882 172.959 66.6952V66.695ZM175.224 61.7163C175.176 61.2542 174.982 60.7751 174.763 60.5763C174.564 60.3959 174.14 60.2648 173.746 60.2618C172.769 60.2545 172.327 60.6938 172.196 61.8027L172.155 62.1504H173.712H175.269L175.224 61.7163Z" fill="#404040" stroke="#404040" stroke-width="0.885708"/>
<path d="M162.373 66.656C162.258 66.626 162.25 66.3891 162.25 62.9291C162.25 60.1488 162.271 59.2134 162.334 59.1502C162.448 59.0361 163.66 59.0361 163.774 59.1502C163.82 59.1964 163.858 59.3698 163.858 59.5355C163.858 59.7013 163.887 59.8369 163.922 59.8369C163.958 59.8369 164.217 59.7142 164.499 59.5643C165.359 59.1064 165.887 58.9609 166.688 58.9609C167.316 58.9609 167.429 58.9815 167.794 59.1613C168.259 59.3904 168.549 59.7389 168.728 60.2863C168.897 60.7985 168.958 66.4197 168.797 66.5537C168.727 66.6121 168.465 66.6329 167.971 66.6192L167.247 66.5991L167.212 63.9712C167.179 61.465 167.17 61.3282 167.026 61.0155C166.829 60.588 166.551 60.4354 165.989 60.4461C165.558 60.4543 164.83 60.6795 164.19 61.0029L163.858 61.1706V63.8649C163.858 66.4569 163.853 66.5619 163.723 66.6317C163.591 66.7024 162.617 66.7199 162.373 66.6559V66.656Z" fill="#404040" stroke="#404040" stroke-width="0.885708"/>
<path d="M154.196 66.6586C154.129 66.6392 154.057 66.5547 154.037 66.4708C154.016 66.3869 154.008 64.7167 154.019 62.7593C154.036 59.687 154.053 59.1914 154.144 59.134C154.275 59.051 155.403 59.0461 155.532 59.1278C155.584 59.1611 155.643 59.334 155.663 59.5122C155.683 59.6904 155.727 59.8362 155.759 59.8362C155.792 59.8362 155.975 59.7397 156.167 59.6219C156.358 59.504 156.79 59.3079 157.128 59.1861C157.671 58.9908 157.829 58.9648 158.477 58.9648C159.309 58.9648 159.554 59.0422 159.998 59.4445C160.363 59.775 160.554 60.2368 160.641 61.0014C160.736 61.8349 160.736 66.3195 160.641 66.4979C160.577 66.6186 160.489 66.6335 159.841 66.6335C159.336 66.6335 159.097 66.6067 159.058 66.5459C159.027 66.4977 158.985 65.2758 158.966 63.8304C158.933 61.3638 158.923 61.188 158.792 60.9647C158.377 60.2595 157.692 60.2528 156.118 60.9384L155.682 61.1287L155.68 63.7935C155.68 65.3491 155.652 66.502 155.613 66.5634C155.563 66.6421 155.392 66.6717 154.933 66.6811C154.595 66.6881 154.264 66.677 154.196 66.6585L154.196 66.6586Z" fill="#404040" stroke="#404040" stroke-width="0.885708"/>
<path d="M148.621 66.7002C147.526 66.5385 146.854 66.0874 146.416 65.2215C146.124 64.6432 146.019 63.9946 146.023 62.7801C146.028 61.0981 146.31 60.2365 147.081 59.5479C147.616 59.069 148.06 58.9139 149.009 58.8728C149.468 58.8531 149.941 58.8728 150.178 58.9222C151.123 59.119 151.959 59.7893 152.258 60.5904C152.452 61.1095 152.61 62.3062 152.538 62.703C152.437 63.2541 152.535 63.2331 149.977 63.2559L147.702 63.276L147.748 63.6411C147.855 64.491 148.144 64.9578 148.708 65.194C149.04 65.3326 149.99 65.3357 151.066 65.2014C151.506 65.1465 151.89 65.1164 151.919 65.1345C152.002 65.1859 152.116 65.6601 152.117 65.9546C152.118 66.2034 152.096 66.2307 151.803 66.3607C151.461 66.5123 149.829 66.7785 149.322 66.7652C149.149 66.7607 148.834 66.7315 148.621 66.6999V66.7002ZM150.894 61.7815C150.867 61.5792 150.784 61.2717 150.709 61.0983C150.441 60.4804 150.083 60.2585 149.35 60.2578C148.413 60.2578 147.997 60.6898 147.818 61.8516L147.772 62.1494H149.357H150.942L150.894 61.7815Z" fill="#404040" stroke="#404040" stroke-width="0.885708"/>
<path d="M141.437 58.0328C141.233 57.9383 141.049 57.8179 141.029 57.7653C140.991 57.6664 142.304 55.0699 142.39 55.0742C142.416 55.0742 142.689 55.2095 142.997 55.372C143.363 55.5655 143.556 55.7087 143.556 55.7873C143.556 55.8993 142.068 58.0026 141.89 58.1415C141.839 58.1818 141.673 58.1415 141.437 58.0328Z" fill="#404040" stroke="#404040" stroke-width="0.885708"/>
<path d="M140.672 66.6948C139.649 66.5478 138.893 66.0334 138.491 65.2105C138.191 64.5956 138.043 63.5625 138.099 62.4655C138.17 61.0809 138.399 60.3588 138.956 59.7611C139.575 59.0981 140.188 58.8588 141.271 58.8574C142.76 58.8533 143.729 59.3569 144.258 60.4037C144.551 60.9844 144.741 62.5042 144.574 62.9429C144.462 63.2401 144.21 63.2714 141.928 63.2714H139.797L139.843 63.7093C139.868 63.952 139.968 64.3106 140.067 64.5135C140.363 65.1216 140.748 65.3036 141.736 65.3036C142.089 65.3036 142.735 65.2562 143.173 65.1983C143.658 65.1342 143.993 65.1183 144.033 65.1576C144.106 65.2312 144.212 65.7326 144.217 66.0257C144.219 66.1925 144.172 66.2435 143.906 66.3618C143.564 66.5134 141.931 66.7795 141.425 66.7661C141.252 66.7616 140.913 66.7295 140.672 66.6948V66.6948ZM142.952 61.7356C142.838 60.897 142.546 60.4805 141.963 60.3222C141.546 60.2091 140.858 60.2783 140.559 60.4636C140.253 60.653 139.986 61.1925 139.923 61.7473L139.877 62.1502H141.443H143.009L142.952 61.7356Z" fill="#404040" stroke="#404040" stroke-width="0.885708"/>
<path d="M130.19 64.2372L130.208 59.0318H130.977H131.746L131.767 59.3997C131.778 59.6021 131.801 59.7676 131.817 59.7676C131.833 59.7676 132.043 59.661 132.285 59.5307C133.114 59.0833 133.719 58.892 134.297 58.8946C134.585 58.8946 134.965 58.9379 135.142 58.988C135.874 59.1955 136.478 59.9236 136.682 60.8423C136.83 61.5105 136.812 64.1537 136.656 64.7253C136.487 65.3398 136.293 65.6909 135.905 66.0797C135.634 66.3518 135.471 66.4464 135.055 66.5749C134.242 66.8262 132.95 66.7765 131.904 66.4536C131.793 66.419 131.782 66.5312 131.765 67.9096L131.746 69.403L130.959 69.4227L130.172 69.4425L130.19 64.2372ZM134.283 65.2051C134.729 64.9723 134.888 64.6684 135.037 63.7619C135.214 62.6809 135.119 61.4346 134.818 60.916C134.461 60.2999 133.566 60.281 132.328 60.8635L131.781 61.1211V63.1045V65.0879L132.043 65.1561C132.703 65.3278 133.993 65.356 134.283 65.2051Z" fill="#404040" stroke="#404040" stroke-width="0.885708"/>
<path d="M124.4 66.7102C123.2 66.5181 122.467 65.9081 122.112 64.8066C121.815 63.8826 121.827 61.7204 122.135 60.8411C122.422 60.021 123.041 59.3649 123.829 59.0462C124.341 58.8389 125.87 58.8261 126.515 59.0236C127.327 59.2723 128.017 59.9713 128.282 60.8138C128.565 61.7165 128.62 63.147 128.417 64.3487C128.226 65.4759 127.483 66.3296 126.453 66.6058C125.993 66.729 124.873 66.7859 124.4 66.71L124.4 66.7102ZM126.022 65.1532C126.668 64.8487 126.931 64.053 126.864 62.606C126.784 60.8704 126.374 60.3578 125.072 60.3675C124.464 60.372 124.21 60.4792 123.894 60.8632C123.589 61.235 123.5 61.6812 123.501 62.8513C123.502 64.7531 123.871 65.2987 125.16 65.3023C125.571 65.3023 125.779 65.2674 126.022 65.1532Z" fill="#404040" stroke="#404040" stroke-width="0.885708"/>
<path d="M116.699 66.5494C116.636 66.4862 116.615 65.5744 116.615 62.8767C116.615 60.9029 116.634 59.2381 116.658 59.1772C116.693 59.0862 116.827 59.0663 117.412 59.0663C117.873 59.0663 118.154 59.0959 118.208 59.1504C118.256 59.198 118.292 59.426 118.292 59.6759C118.292 59.9187 118.304 60.1173 118.318 60.1173C118.332 60.1173 118.544 59.9828 118.79 59.8182C119.326 59.4584 120.301 59.0606 120.688 59.0436C120.942 59.0325 120.974 59.0506 121.024 59.2309C121.054 59.3407 121.1 59.6738 121.126 59.9711L121.173 60.5117L120.552 60.6643C120.211 60.7483 119.579 60.931 119.147 61.0703L118.362 61.3237V63.7989C118.362 65.2375 118.334 66.3493 118.294 66.4537C118.227 66.6306 118.215 66.6335 117.504 66.6335C117.036 66.6335 116.753 66.6039 116.699 66.5494H116.699Z" fill="#404040" stroke="#404040" stroke-width="0.885708"/>
<path d="M109.257 66.6742C108.831 66.5594 108.448 66.2484 108.247 65.8554C107.993 65.3579 107.942 64.6302 107.964 61.7635L107.984 59.1006L108.712 59.0805C109.168 59.0677 109.468 59.0887 109.516 59.1364C109.566 59.1873 109.603 60.1102 109.626 61.9245C109.665 64.9312 109.671 64.9664 110.131 65.205C110.585 65.4404 111.564 65.2516 112.579 64.7326L112.841 64.5987V61.9506C112.841 59.9271 112.862 59.274 112.93 59.1814C113.005 59.0775 113.122 59.0631 113.751 59.0804L114.484 59.1006L114.502 62.8671L114.52 66.6337H113.788C112.967 66.6337 112.911 66.6004 112.911 66.1127C112.911 65.9753 112.898 65.8628 112.881 65.8628C112.865 65.8628 112.668 65.9717 112.444 66.1046C111.762 66.5103 110.859 66.7747 110.175 66.7691C109.854 66.765 109.441 66.7238 109.257 66.6742L109.257 66.6742Z" fill="#404040" stroke="#404040" stroke-width="0.885708"/>
<path d="M102.566 66.7002C101.471 66.5385 100.799 66.0873 100.361 65.2214C100.066 64.6375 99.9619 63.9937 99.967 62.7801C99.9739 61.0966 100.256 60.2358 101.026 59.5479C101.561 59.069 102.004 58.9139 102.954 58.8728C103.413 58.8531 103.886 58.8728 104.123 58.9222C105.068 59.119 105.904 59.7892 106.203 60.5904C106.397 61.1094 106.555 62.3062 106.483 62.703C106.382 63.2541 106.479 63.233 103.922 63.2559L101.647 63.276L101.694 63.6411C101.804 64.5011 102.054 64.922 102.602 65.1719C102.954 65.3321 103.873 65.3434 105.011 65.2015C105.451 65.1467 105.835 65.1166 105.864 65.1346C105.947 65.186 106.061 65.6602 106.062 65.9547C106.063 66.2036 106.041 66.2308 105.748 66.3609C105.406 66.5124 103.774 66.7785 103.267 66.7653C103.094 66.7608 102.779 66.7316 102.566 66.7V66.7002ZM104.834 61.7815C104.809 61.5791 104.727 61.2717 104.653 61.0983C104.388 60.4813 104.028 60.2585 103.295 60.2578C102.358 60.2578 101.942 60.6898 101.763 61.8516L101.717 62.1494H103.298H104.879L104.834 61.7815Z" fill="#404040" stroke="#404040" stroke-width="0.885708"/>
<path d="M87.5691 66.656C87.4546 66.626 87.4468 66.3891 87.4468 62.9291C87.4468 60.1488 87.4677 59.2134 87.5306 59.1502C87.6444 59.0361 88.8565 59.0361 88.9703 59.1502C89.0164 59.1964 89.0542 59.3698 89.0542 59.5355C89.0542 59.7013 89.0833 59.8369 89.1187 59.8369C89.1543 59.8369 89.4136 59.7142 89.6952 59.5643C90.5556 59.1064 91.0833 58.9609 91.8845 58.9609C92.5119 58.9609 92.625 58.9815 92.9903 59.1613C93.4555 59.3904 93.745 59.7389 93.9247 60.2863C94.0928 60.7985 94.1546 66.4197 93.9936 66.5537C93.9234 66.6121 93.6609 66.6329 93.1672 66.6192L92.4436 66.5991L92.4087 63.9712C92.3755 61.465 92.3668 61.3282 92.2227 61.0155C92.0256 60.588 91.7478 60.4354 91.1857 60.4461C90.7544 60.4543 90.0263 60.6795 89.3862 61.0029L89.0542 61.1706V63.8649C89.0542 66.4569 89.0489 66.5619 88.9191 66.6317C88.7873 66.7024 87.8133 66.7199 87.5691 66.6559L87.5691 66.656Z" fill="#404040" stroke="#404040" stroke-width="0.885708"/>
<path d="M81.9957 66.7347C80.9597 66.5569 80.532 66.3601 80.076 65.8516C79.6295 65.3535 79.4104 64.7034 79.3181 63.602C79.1461 61.5498 79.5091 60.2461 80.463 59.49C80.9785 59.0814 81.4828 58.9146 82.3274 58.8732C84.1501 58.784 85.2446 59.4408 85.7152 60.9063C85.8842 61.4327 85.9624 63.21 85.8532 64.0421C85.6796 65.3643 85.0344 66.2354 83.9884 66.5594C83.5561 66.6933 82.3648 66.7981 81.9957 66.7347ZM83.3585 65.171C83.9226 64.9099 84.1213 64.5332 84.2235 63.5315C84.3214 62.5722 84.2194 61.5996 83.9702 61.0989C83.6927 60.543 83.3514 60.3659 82.5548 60.3643C82.0315 60.3643 81.9219 60.3861 81.634 60.5557C81.3805 60.7051 81.263 60.8387 81.1099 61.1514C80.9161 61.547 80.9125 61.5769 80.9125 62.7807C80.9125 63.774 80.9359 64.0746 81.0364 64.3627C81.1661 64.7351 81.4894 65.1071 81.7861 65.225C82.0949 65.3479 83.0469 65.3151 83.3585 65.171Z" fill="#404040" stroke="#404040" stroke-width="0.885708"/>
<path d="M75.8089 66.5489C75.79 66.4994 75.7826 64.8036 75.7925 62.7805L75.8105 59.102L76.5972 59.0822L77.3839 59.0625L77.3659 62.8309L77.3479 66.5993L76.5954 66.619C76.0325 66.6338 75.8343 66.6149 75.8086 66.5489H75.8089Z" fill="#404040" stroke="#404040" stroke-width="0.885708"/>
<path d="M76.0902 57.7778C75.9749 57.7274 75.8455 57.642 75.8028 57.5879C75.6807 57.4337 75.6321 56.9491 75.7102 56.6657C75.8079 56.3108 76.0028 56.1934 76.4936 56.1934C76.9325 56.1934 77.2654 56.3233 77.3809 56.5398C77.4861 56.7369 77.4687 57.2906 77.3502 57.5205C77.1804 57.8496 76.5493 57.9784 76.0902 57.7778Z" fill="#404040" stroke="#404040" stroke-width="0.885708"/>
<path d="M69.9122 66.7004C69.1554 66.628 68.5934 66.4807 68.3642 66.2946C68.2112 66.1704 68.2079 66.1469 68.2868 65.7527C68.3951 65.2122 68.4558 65.1602 68.8918 65.2347C69.084 65.2676 69.6815 65.3162 70.2197 65.3428C71.9357 65.4275 72.3512 65.2335 72.3512 64.3475C72.3512 63.6384 72.2585 63.5814 70.6596 63.3054C69.5206 63.1088 68.842 62.7431 68.5074 62.1456C68.3535 61.8706 68.3327 61.7503 68.3327 61.1328C68.3327 60.4879 68.3491 60.4023 68.5388 60.059C68.9918 59.2391 69.9937 58.7887 71.3728 58.7852C71.9791 58.7852 73.3256 59.0431 73.6095 59.2162C73.8319 59.3518 73.836 59.3633 73.793 59.7299C73.7409 60.174 73.6967 60.3057 73.5862 60.3458C73.5412 60.3623 73.1741 60.3314 72.7705 60.2772C71.9253 60.1639 70.5878 60.1884 70.3147 60.3221C70.2132 60.3718 70.0953 60.4893 70.0526 60.5832C69.9642 60.7777 69.9502 61.3706 70.0309 61.498C70.1257 61.6475 70.5674 61.7901 71.3823 61.9343C72.719 62.1708 73.2863 62.4083 73.6469 62.8823C74.0112 63.3612 74.1375 64.4177 73.9189 65.1561C73.794 65.5776 73.3904 66.0613 72.9491 66.3181C72.3407 66.6722 71.1647 66.8203 69.9121 66.7004H69.9122Z" fill="#404040" stroke="#404040" stroke-width="0.885708"/>
<path d="M63.0919 66.7326C61.7802 66.6026 61.1992 66.4405 61.0992 66.1766C61.0378 66.0148 61.1746 65.3407 61.2929 65.2221C61.3266 65.1884 61.5199 65.1933 61.7315 65.2336C61.9396 65.2731 62.5667 65.3254 63.125 65.3496C64.2815 65.3997 64.8542 65.2953 65.0478 64.999C65.2162 64.7414 65.2539 64.2507 65.1285 63.9497C64.9891 63.6152 64.8045 63.5371 63.6852 63.3389C62.2392 63.0828 61.6766 62.7949 61.3289 62.133C61.1578 61.8072 61.1358 61.6913 61.1389 61.1338C61.143 60.3748 61.2949 59.9982 61.7755 59.554C62.5577 58.831 63.8568 58.6113 65.4408 58.9342C66.5979 59.1701 66.7346 59.2766 66.6106 59.8456C66.5654 60.0531 66.4943 60.2583 66.4525 60.3017C66.3962 60.3601 66.1863 60.3563 65.6427 60.2869C64.7663 60.1749 63.6781 60.1616 63.3295 60.2585C62.9816 60.3554 62.8326 60.5472 62.7942 60.9476C62.733 61.5863 62.8958 61.701 64.1933 61.9337C65.4692 62.1626 65.8927 62.3249 66.3166 62.748C66.6209 63.0516 66.689 63.169 66.7601 63.5123C66.8763 64.074 66.826 65.059 66.664 65.3902C66.5012 65.7233 66.0419 66.1858 65.7008 66.3603C65.1419 66.6462 63.9445 66.817 63.0919 66.7325V66.7326Z" fill="#404040" stroke="#404040" stroke-width="0.885708"/>
<path d="M57.6384 66.5489C57.6196 66.4994 57.6122 64.8036 57.622 62.7805L57.6401 59.102L58.4268 59.0822L59.2135 59.0625L59.1954 62.8309L59.1774 66.5993L58.425 66.619C57.862 66.6338 57.6639 66.6149 57.6382 66.5489H57.6384Z" fill="#404040" stroke="#404040" stroke-width="0.885708"/>
<path d="M57.9082 57.7728C57.5619 57.6217 57.4071 57.1636 57.5378 56.6769C57.6358 56.312 57.8286 56.1934 58.3235 56.1934C58.7625 56.1934 59.0953 56.3233 59.2109 56.5398C59.3161 56.7369 59.2987 57.2906 59.1801 57.5205C59.0084 57.8534 58.3792 57.9782 57.9082 57.7728Z" fill="#404040" stroke="#404040" stroke-width="0.885708"/>
<path d="M44.6768 66.6574C44.6191 66.6335 44.5489 66.5794 44.5206 66.537C44.4377 66.4124 44.4558 59.3593 44.5395 59.2025C44.6028 59.0838 44.6905 59.0669 45.2429 59.0669C46.0453 59.0669 46.1444 59.1173 46.1444 59.5249C46.1444 59.697 46.162 59.8378 46.183 59.8378C46.2043 59.8378 46.4323 59.7102 46.6896 59.5544C47.4055 59.121 47.9729 58.9729 48.7518 59.0163C49.1049 59.0361 49.5189 59.0904 49.6718 59.1373C49.9387 59.2191 50.3321 59.5573 50.5489 59.8912L50.6518 60.0498L50.9663 59.8348C51.474 59.4876 52.1964 59.1413 52.6633 59.0212C53.2078 58.8811 54.0363 58.9259 54.4691 59.1187C55.1473 59.4209 55.4618 59.8577 55.5772 60.658C55.6809 61.3773 55.6702 66.4452 55.5649 66.551C55.5111 66.605 55.2353 66.6351 54.7944 66.6351C54.1217 66.6351 54.1064 66.631 54.0397 66.4553C53.9999 66.3506 53.9715 65.2245 53.9715 63.7588C53.9715 61.5998 53.9555 61.2017 53.858 60.9577C53.5952 60.2991 52.7627 60.2697 51.4382 60.8722L50.8965 61.1186V63.7583C50.8965 65.7752 50.8756 66.4267 50.8082 66.5192C50.7324 66.6231 50.6156 66.6375 49.987 66.6202L49.2542 66.6L49.2194 63.9021C49.1894 61.5845 49.168 61.168 49.068 60.9469C48.769 60.2863 48.0207 60.267 46.7234 60.8863L46.1492 61.1604L46.1295 63.857C46.1184 65.34 46.0835 66.5797 46.0515 66.6118C45.9822 66.6813 44.8275 66.7196 44.677 66.6574H44.6768Z" fill="#404040" stroke="#404040" stroke-width="0.885708"/>
<path d="M31.8001 66.6567C31.6855 66.6267 31.6777 66.3878 31.6777 62.8883C31.6777 59.5458 31.6892 59.1474 31.7883 59.1093C31.9943 59.0301 33.1136 59.063 33.2013 59.1509C33.2474 59.1972 33.2851 59.3706 33.2851 59.5363C33.2851 59.702 33.304 59.8377 33.327 59.8377C33.35 59.8377 33.5491 59.7261 33.7694 59.5898C34.3967 59.2015 35.0461 59 35.6753 58.9982C36.6811 58.9941 37.1609 59.1822 37.587 59.7423L37.8063 60.0307L38.1839 59.7889C39.2306 59.1187 39.9357 58.8918 40.7978 58.9476C41.465 58.9907 41.7866 59.1167 42.1964 59.4956C42.7601 60.0166 42.8549 60.6793 42.8577 64.1164C42.8577 65.8469 42.838 66.4272 42.7711 66.519C42.6954 66.623 42.5785 66.6373 41.95 66.62L41.2171 66.5999L41.1823 63.902C41.1523 61.5844 41.1309 61.1678 41.0309 60.9468C40.7275 60.2764 39.9301 60.2636 38.5092 60.9065L38.0374 61.1199V63.7934C38.0374 65.7793 38.0157 66.4885 37.9535 66.551C37.8993 66.6054 37.6182 66.6351 37.1574 66.6351C36.5723 66.6351 36.4375 66.6153 36.4026 66.5242C36.3792 66.4632 36.3602 65.2864 36.3602 63.9091C36.3602 60.737 36.3245 60.5806 35.5716 60.4404C35.2311 60.377 34.4303 60.5927 33.7715 60.9254L33.2852 61.171V63.8655C33.2852 66.4578 33.2798 66.5628 33.15 66.6326C33.0183 66.7033 32.0443 66.7208 31.8002 66.6568L31.8001 66.6567Z" fill="#404040" stroke="#404040" stroke-width="0.885708"/>
<path d="M25.8885 66.7032C25.0162 66.5806 24.2367 66.0624 23.8867 65.3725C23.5821 64.772 23.4943 64.3322 23.4531 63.2002C23.3803 61.197 23.6673 60.2843 24.6247 59.4744C25.0956 59.076 25.626 58.9072 26.5213 58.8707C28.5834 58.7866 29.7053 59.6669 30.0096 61.6075C30.1084 62.2377 30.0432 64.0697 29.9038 64.5837C29.6011 65.6994 28.9045 66.4013 27.869 66.6339C27.399 66.7395 26.3968 66.7746 25.8885 66.7032ZM27.5199 65.17C28.1376 64.8841 28.3239 64.455 28.3748 63.2002C28.4555 61.2105 28.0738 60.4697 26.9058 60.3488C26.1406 60.2696 25.5257 60.5554 25.2601 61.1135C25.0435 61.5686 24.9409 62.6629 25.0345 63.5174C25.1829 64.8717 25.5805 65.3039 26.6748 65.3009C27.0745 65.3009 27.3224 65.2614 27.5199 65.17Z" fill="#404040" stroke="#404040" stroke-width="0.885708"/>
<path d="M18.1904 66.7287C17.3632 66.5622 16.6523 66.1901 16.1755 65.674C15.2749 64.6991 14.7756 62.5734 14.9683 60.5345C15.1151 58.9822 15.4887 57.9928 16.1987 57.2759C17.0034 56.4634 17.6309 56.2357 19.064 56.2363C20.4015 56.2371 21.9481 56.5154 22.1818 56.7978C22.2514 56.8819 22.2535 57.0031 22.1916 57.3651C22.0758 58.0433 22.1031 58.0316 20.914 57.9103C19.6196 57.7783 18.7953 57.7776 18.3573 57.9062C17.6866 58.106 17.202 58.6978 16.9663 59.6051C16.8187 60.1734 16.76 61.8185 16.8543 62.7401C16.9753 63.9209 17.3742 64.6328 18.1399 65.034C18.5449 65.2463 19.5922 65.2826 20.9173 65.1303C21.7521 65.0344 21.9346 65.0307 22.0122 65.1085C22.1287 65.2253 22.2828 65.9387 22.2244 66.0911C22.0979 66.4218 20.864 66.7061 19.4134 66.7385C18.8369 66.7513 18.2865 66.7464 18.1904 66.727V66.7287Z" fill="#404040" stroke="#404040" stroke-width="0.885708"/>
<path d="M78.0122 35.2411V23.3984H95.6234H113.235V35.2411V47.0838H95.6234H78.0122V35.2411ZM96.1644 44.1336C96.4242 44.3244 96.6446 44.4592 96.6542 44.4332C96.6636 44.4073 96.5965 44.1419 96.5048 43.8437L96.3379 43.3014L96.8344 42.9327L97.3308 42.564L96.7231 42.5438L96.1154 42.5237L95.9302 41.9282C95.8284 41.6006 95.7344 41.3434 95.7213 41.3565C95.7082 41.3696 95.6101 41.6309 95.5032 41.9372L95.3089 42.4941L94.7323 42.5146C94.4152 42.5257 94.1558 42.5581 94.1558 42.5864C94.1558 42.6147 94.3438 42.7789 94.5736 42.9514C94.8034 43.124 94.9921 43.3026 94.9929 43.3485C94.9929 43.3944 94.9158 43.6505 94.8197 43.9176C94.7236 44.1847 94.645 44.4241 94.645 44.4495C94.645 44.475 94.8806 44.3363 95.1685 44.1415L95.692 43.7873L96.1644 44.1336ZM91.2992 43.1581L91.7818 42.8062L92.2461 43.1586C92.5015 43.3525 92.7244 43.4971 92.7414 43.48C92.7664 43.4549 92.589 42.8511 92.428 42.4118C92.4116 42.3666 92.6047 42.1666 92.8575 41.9674C93.1103 41.7682 93.3172 41.5765 93.3172 41.5415C93.3172 41.5066 93.0512 41.4778 92.7261 41.4778H92.135L91.9923 40.9973C91.9138 40.733 91.8495 40.4754 91.8495 40.425C91.8495 40.2516 91.7451 40.4385 91.5618 40.9403L91.3782 41.4428L90.7752 41.4629C90.4436 41.474 90.1733 41.5056 90.1746 41.533C90.1746 41.5606 90.3939 41.7487 90.6592 41.9514L91.1414 42.32L90.9408 42.915C90.8305 43.2422 90.7575 43.5099 90.7785 43.5099C90.7994 43.5099 91.0338 43.3516 91.2992 43.158V43.1581ZM99.1368 43.1068L99.5403 42.7985L100.031 43.163C100.3 43.3635 100.535 43.5138 100.552 43.4968C100.569 43.4799 100.505 43.2158 100.41 42.9099C100.315 42.604 100.237 42.3362 100.237 42.3147C100.236 42.2934 100.44 42.1252 100.69 41.9412C100.94 41.7573 101.144 41.5778 101.144 41.5423C101.144 41.5069 100.883 41.4778 100.564 41.4778H99.9846L99.7794 40.9232C99.6666 40.6182 99.5563 40.3797 99.5344 40.3933C99.5122 40.4069 99.4198 40.6565 99.3287 40.9479L99.163 41.4778H98.5463C98.2071 41.4778 97.931 41.5013 97.9327 41.5304C97.9327 41.5592 98.1544 41.7377 98.4218 41.9268C98.6892 42.116 98.908 42.2918 98.908 42.3175C98.908 42.343 98.8294 42.596 98.7333 42.8793C98.4772 43.6343 98.4596 43.6244 99.1368 43.1068ZM88.4062 40.2249L88.873 39.8831L89.3234 40.2249C89.5712 40.413 89.7986 40.5668 89.8288 40.5668C89.8592 40.5668 89.7952 40.3032 89.6864 39.9811L89.489 39.3953L89.9879 39.0176L90.4868 38.6398L89.8629 38.6048L89.239 38.5699L89.0677 38.0093L88.8963 37.4487L88.7682 37.747C88.6978 37.911 88.6025 38.1712 88.5565 38.3251L88.4729 38.6049H87.89C87.5693 38.6049 87.307 38.6304 87.307 38.6615C87.307 38.6927 87.5114 38.8685 87.7612 39.0525C88.0111 39.2364 88.2155 39.3946 88.2155 39.4041C88.2155 39.4136 88.1369 39.6531 88.0408 39.9364C87.8614 40.4652 87.8391 40.567 87.9027 40.567C87.9228 40.567 88.1495 40.4132 88.4062 40.2252V40.2249ZM101.934 40.2995C102.134 40.1525 102.337 40.0083 102.386 39.9791C102.441 39.9466 102.648 40.0494 102.923 40.2465C103.169 40.4227 103.4 40.5668 103.436 40.5668C103.471 40.5668 103.409 40.3093 103.298 39.9946C103.187 39.6798 103.121 39.4011 103.151 39.3752C103.181 39.3493 103.41 39.1733 103.66 38.984L104.114 38.6398L103.488 38.6048L102.861 38.5699L102.696 38.0189C102.604 37.7158 102.504 37.4951 102.473 37.5283C102.441 37.5617 102.348 37.8163 102.267 38.0943L102.118 38.5997L101.474 38.6199L100.83 38.64L101.284 38.9842C101.534 39.1735 101.763 39.3499 101.794 39.3763C101.825 39.4026 101.756 39.6814 101.642 39.9956C101.527 40.3099 101.464 40.567 101.502 40.567C101.539 40.567 101.733 40.4468 101.934 40.2997V40.2995ZM87.3439 36.1839L87.7651 35.8869L88.2409 36.2354C88.5026 36.4271 88.7291 36.5715 88.7443 36.5563C88.7594 36.541 88.6943 36.2783 88.5995 35.9725C88.5048 35.6666 88.4268 35.4088 88.4262 35.3996C88.4254 35.3906 88.653 35.2169 88.9314 35.0142L89.4376 34.6455L88.818 34.6105L88.1983 34.5756L88.0066 34.0302C87.9012 33.7303 87.7978 33.4676 87.7768 33.4466C87.7559 33.4256 87.6511 33.6777 87.5442 34.0069L87.3497 34.6056L86.7518 34.6257L86.1539 34.6459L86.6081 34.9911C86.858 35.181 87.0735 35.3445 87.0871 35.3545C87.1006 35.3644 87.0299 35.6193 86.9298 35.9205C86.8298 36.2218 86.7479 36.4937 86.7479 36.5248C86.7479 36.595 86.8175 36.5552 87.3439 36.1843V36.1839ZM103.019 36.2696C103.237 36.103 103.453 35.9444 103.5 35.9171C103.548 35.8888 103.785 36.0164 104.059 36.2178C104.32 36.4103 104.544 36.5397 104.555 36.5053C104.567 36.4708 104.492 36.203 104.388 35.9101C104.285 35.6171 104.212 35.3681 104.227 35.3567C104.242 35.3452 104.459 35.1806 104.709 34.9907L105.163 34.6455L104.569 34.6105L103.976 34.5756L103.766 33.9977C103.65 33.6799 103.54 33.4202 103.52 33.4205C103.501 33.421 103.406 33.6809 103.309 33.9984L103.132 34.5756L102.506 34.6105L101.88 34.6455L102.368 34.99C102.637 35.1795 102.868 35.3433 102.882 35.3542C102.905 35.3718 102.674 36.1901 102.568 36.4652C102.504 36.6338 102.593 36.595 103.019 36.2696ZM88.455 32.2506L88.8693 31.9499L89.1015 32.124C89.2292 32.2196 89.4389 32.3768 89.5674 32.4732C89.6959 32.5695 89.8197 32.6483 89.8425 32.6483C89.8651 32.6483 89.7939 32.3815 89.684 32.0554L89.4841 31.4624L89.9831 31.0919L90.4821 30.7213L89.8743 30.7011L89.2666 30.681L89.0815 30.0854C88.9796 29.7579 88.8856 29.5006 88.8725 29.5137C88.8594 29.5269 88.7613 29.7882 88.6544 30.0944L88.4601 30.6513L87.8836 30.6715C87.5664 30.6826 87.3077 30.7142 87.3085 30.7415C87.3085 30.7691 87.4841 30.9164 87.6968 31.0692C87.9096 31.2221 88.1131 31.3827 88.1491 31.4262C88.1912 31.4771 88.1532 31.6884 88.0403 32.019C87.9445 32.3015 87.8661 32.5606 87.8661 32.5946C87.8661 32.6697 87.9246 32.6353 88.455 32.2505V32.2506ZM101.732 32.4865C101.851 32.3975 102.061 32.2395 102.2 32.1355L102.452 31.9463L102.932 32.2973C103.197 32.4904 103.435 32.6483 103.462 32.6483C103.489 32.6483 103.419 32.3749 103.307 32.0407C103.194 31.7064 103.11 31.4277 103.119 31.4213C103.128 31.4147 103.353 31.2469 103.618 31.0479L104.1 30.6862H103.502H102.903L102.698 30.0731L102.494 29.4599L102.294 30.0731L102.094 30.6862H101.469H100.844L101.326 31.0479C101.591 31.2469 101.816 31.4149 101.825 31.4213C101.835 31.4279 101.75 31.7064 101.638 32.0407C101.525 32.3749 101.451 32.6483 101.474 32.6483C101.497 32.6483 101.613 32.5755 101.732 32.4865ZM92.5106 29.1915C92.4161 28.893 92.3388 28.6209 92.3388 28.5869C92.3388 28.5528 92.5432 28.3746 92.793 28.1906C93.0428 28.0067 93.2472 27.8308 93.2472 27.7996C93.2472 27.7684 92.9825 27.7431 92.659 27.7431H92.0707L91.8807 27.171C91.7008 26.6296 91.686 26.608 91.6035 26.7681C91.5555 26.8611 91.4597 27.1185 91.3906 27.3401L91.2649 27.7431H90.6837C90.364 27.7431 90.1024 27.7723 90.1024 27.8076C90.1024 27.8429 90.3077 28.0231 90.5585 28.2078C90.8093 28.3925 91.0026 28.5763 90.988 28.6163C90.8164 29.0873 90.6546 29.6515 90.683 29.68C90.7027 29.6997 90.9166 29.5717 91.1584 29.3952C91.4002 29.2189 91.631 29.0753 91.6714 29.0763C91.7115 29.0763 91.9488 29.2326 92.1983 29.4216C92.4477 29.6105 92.6587 29.7581 92.6671 29.7496C92.6758 29.741 92.6052 29.49 92.5106 29.1915ZM100.059 29.4232C100.348 29.6192 100.585 29.752 100.585 29.7183C100.585 29.6846 100.527 29.4866 100.456 29.2782C100.2 28.5244 100.189 28.5756 100.692 28.2052C100.941 28.022 101.144 27.843 101.144 27.8076C101.144 27.7722 100.884 27.7431 100.567 27.7431H99.9888L99.7902 27.1825C99.6809 26.8741 99.5694 26.6219 99.5423 26.6219C99.5153 26.6219 99.4205 26.8741 99.3316 27.1825L99.17 27.7431H98.5498C98.2087 27.7431 97.931 27.767 97.9327 27.7957C97.9327 27.8244 98.1544 28.003 98.4218 28.1921C98.6892 28.3813 98.908 28.557 98.908 28.5828C98.908 28.6083 98.8294 28.8613 98.7333 29.1446C98.6372 29.4279 98.5586 29.686 98.5586 29.7183C98.5586 29.7503 98.7776 29.6171 99.0453 29.4218L99.532 29.0669L100.059 29.4232ZM95.2203 28.3232C95.6703 27.9794 95.632 27.975 96.2514 28.4413C96.4623 28.6001 96.6441 28.7019 96.6555 28.6676C96.667 28.6334 96.5966 28.3837 96.4993 28.1131C96.4019 27.8425 96.3222 27.5929 96.3222 27.5585C96.3222 27.5244 96.5255 27.3388 96.7739 27.1466C97.0224 26.9544 97.2268 26.7734 97.2282 26.7445C97.2282 26.7157 96.9669 26.692 96.6444 26.692H96.058L95.8594 26.1314C95.7501 25.823 95.6375 25.5708 95.6092 25.5708C95.5809 25.5708 95.4837 25.8152 95.3932 26.1138L95.2287 26.6569L94.6224 26.6771C94.2889 26.6882 94.0167 26.7198 94.0175 26.7472C94.0175 26.7747 94.1916 26.921 94.4025 27.0725C95.0189 27.5152 95.0079 27.4881 94.8147 28.0934C94.5729 28.8504 94.5485 28.8365 95.2203 28.3231V28.3232Z" fill="#0D4F9E" stroke="#0D4F9E" stroke-width="0.885708"/>
<path d="M86.7939 36.4926C86.7939 36.4618 87.0678 35.6117 87.1391 35.4212L87.1592 35.3676L87.1082 35.3248C87.0803 35.3014 86.8805 35.1481 86.6646 34.9843C86.4487 34.8206 86.2735 34.6849 86.2754 34.6828C86.2795 34.6787 86.525 34.6709 86.8259 34.661C87.2903 34.6458 87.374 34.6408 87.3801 34.6297C87.3842 34.6228 87.4483 34.4294 87.5229 34.2006C87.5976 33.9718 87.6829 33.724 87.7126 33.6501L87.7666 33.5156L87.7813 33.5448C87.8129 33.6072 88.1739 34.6019 88.1739 34.6262C88.1739 34.6262 88.2457 34.6304 88.3333 34.6304C88.469 34.6304 88.7087 34.6415 89.224 34.6725L89.3264 34.6786L88.9271 34.9694C88.7074 35.1294 88.4952 35.283 88.4555 35.311L88.3833 35.3617L88.3886 35.3967C88.3927 35.416 88.4235 35.5283 88.4594 35.6463C88.6256 36.1929 88.6979 36.4475 88.6979 36.4864C88.6979 36.4995 88.675 36.4859 88.5145 36.3792C88.4213 36.3171 87.9267 35.9608 87.7931 35.8595L87.7661 35.839L87.4218 36.0812C87.105 36.304 86.8619 36.4693 86.8133 36.4948C86.7977 36.503 86.7936 36.5026 86.7936 36.4948L86.7939 36.4926Z" fill="#FAEA27" stroke="#FAEA27" stroke-width="0.110713"/>
<path d="M87.9224 32.5289C87.929 32.5067 88.0084 32.2584 88.0986 31.9776C88.1889 31.6968 88.2627 31.4637 88.2627 31.4596C88.2627 31.4502 87.9031 31.1679 87.6173 30.9528C87.4977 30.8628 87.3995 30.7812 87.3989 30.7716C87.3989 30.7416 87.5558 30.7309 88.0196 30.7293C88.4646 30.7293 88.4665 30.7293 88.4866 30.6882C88.4977 30.6664 88.5534 30.5148 88.6103 30.3511C88.7737 29.8807 88.8576 29.6514 88.8715 29.6374C88.885 29.6234 88.9547 29.8245 89.1279 30.3773L89.2349 30.7189L89.6703 30.7321C89.9098 30.7395 90.1594 30.7514 90.225 30.7584L90.3443 30.7715L90.1901 30.8852C90.1052 30.9477 89.9008 31.0993 89.7357 31.2221L89.4356 31.4454L89.5743 31.8617C89.7295 32.327 89.7878 32.5246 89.7786 32.5525C89.7745 32.5628 89.5697 32.4194 89.3222 32.2337L88.872 31.8961L88.7988 31.9482C88.7586 31.977 88.5645 32.1169 88.3675 32.2592C88.1705 32.4015 87.9871 32.5295 87.9598 32.5437C87.9114 32.5688 87.9105 32.5684 87.9224 32.5289H87.9224Z" fill="#FAEA27" stroke="#FAEA27" stroke-width="0.221427"/>
<path d="M92.351 29.4812C92.0772 29.2796 91.6738 28.9941 91.6629 28.9941C91.6588 28.9941 91.5191 29.0901 91.3525 29.2074C91.0133 29.4461 90.7402 29.6269 90.7317 29.6183C90.7153 29.6019 90.965 28.7776 91.0488 28.5715C91.0579 28.5497 90.9917 28.4899 90.768 28.3175C90.6071 28.1935 90.4047 28.0335 90.3183 27.962C90.1842 27.8512 90.166 27.83 90.1948 27.8187C90.2133 27.8113 90.4605 27.8048 90.7439 27.8039C91.0273 27.8039 91.2679 27.7965 91.2784 27.7895C91.2891 27.7825 91.3498 27.6142 91.4135 27.4156C91.5316 27.0479 91.6454 26.752 91.6687 26.752C91.6908 26.752 91.7215 26.833 91.8813 27.3113C91.9664 27.5659 92.046 27.7806 92.0582 27.7883C92.0705 27.7962 92.3216 27.8023 92.6164 27.8027C92.9165 27.8029 93.1568 27.8101 93.1623 27.8188C93.1677 27.8274 93.0993 27.8931 93.0105 27.9647C92.8454 28.0975 92.4179 28.4299 92.3255 28.4972L92.2743 28.5346L92.3046 28.6461C92.3214 28.7075 92.3943 28.9529 92.4667 29.1915C92.539 29.4301 92.5956 29.6319 92.5925 29.64C92.5884 29.6482 92.4806 29.5766 92.3509 29.4812H92.351Z" fill="#FAEA27" stroke="#FAEA27" stroke-width="0.221427"/>
<path d="M87.913 40.4837C87.913 40.4726 87.9923 40.2239 88.0892 39.9311C88.235 39.4904 88.2616 39.3942 88.2433 39.3721C88.231 39.3573 88.0791 39.2382 87.9055 39.1071C87.5298 38.8234 87.3855 38.702 87.3988 38.6806C87.4041 38.6719 87.6416 38.6645 87.9359 38.6645C88.226 38.6645 88.4728 38.6584 88.4844 38.651C88.4958 38.6436 88.5378 38.5313 88.5772 38.4016C88.6693 38.0991 88.8773 37.5719 88.8933 37.6007C88.8999 37.6127 88.9701 37.8355 89.0492 38.0956C89.1282 38.3557 89.2038 38.5902 89.2172 38.6167L89.2414 38.6649H89.7815C90.0842 38.6649 90.3258 38.6719 90.3313 38.6805C90.3367 38.6892 90.1406 38.8481 89.8956 39.0336C89.6506 39.2191 89.4502 39.3824 89.4502 39.3965C89.4502 39.4105 89.5049 39.5827 89.5718 39.7788C89.7018 40.1598 89.7907 40.4661 89.7757 40.4812C89.7638 40.4931 89.5109 40.3155 89.1623 40.0501C89.0088 39.9332 88.874 39.8411 88.8628 39.8454C88.8517 39.8499 88.6864 39.9667 88.4956 40.1053C88.1309 40.3703 87.9388 40.5039 87.9226 40.5039C87.9172 40.5039 87.9127 40.4949 87.9127 40.4838L87.913 40.4837Z" fill="#FAEA27" stroke="#FAEA27" stroke-width="0.221427"/>
<path d="M94.7055 28.615C94.7055 28.5891 94.9017 27.9347 95.0043 27.6184L95.0383 27.5133L94.9986 27.4816C94.9768 27.4643 94.9037 27.4045 94.8365 27.3489C94.7692 27.2932 94.5923 27.1563 94.4434 27.0445C94.0718 26.7657 94.0846 26.7768 94.1135 26.7581C94.1271 26.7495 94.3873 26.7396 94.6924 26.7363L95.247 26.7302L95.3182 26.4997C95.4455 26.0875 95.5409 25.798 95.5759 25.7175L95.6104 25.6387L95.6625 25.7525C95.7149 25.867 95.8121 26.1241 95.9506 26.5145L96.0252 26.7247L96.5792 26.7346C96.8839 26.7399 97.1384 26.7498 97.1448 26.7564C97.1612 26.7728 97.0567 26.8634 96.6326 27.2009C96.429 27.363 96.262 27.5074 96.2615 27.5218C96.2607 27.5362 96.3237 27.7333 96.401 27.9597C96.5441 28.3791 96.6141 28.6078 96.5992 28.6078C96.57 28.6078 96.432 28.5206 96.2758 28.4036C95.9662 28.1716 95.6464 27.9593 95.6253 27.9716C95.6143 27.9782 95.4126 28.1267 95.1772 28.3016C94.6811 28.6705 94.7056 28.6542 94.7056 28.6148L94.7055 28.615Z" fill="#FAEA27" stroke="#FAEA27" stroke-width="0.221427"/>
<path d="M100.317 29.5385C100.209 29.4711 99.9883 29.3255 99.8266 29.2148L99.5325 29.0136L99.2021 29.2534C98.8329 29.5214 98.6397 29.6509 98.6277 29.6389C98.6231 29.6343 98.6992 29.3847 98.7963 29.0839C98.8935 28.7832 98.9701 28.535 98.9665 28.5323C98.9624 28.5282 98.7896 28.4038 98.5813 28.2526C98.1356 27.929 98.0254 27.8432 98.0254 27.82C98.0254 27.8093 98.2376 27.8027 98.5997 27.8027C99.0382 27.8027 99.1782 27.7974 99.1916 27.7809C99.2015 27.769 99.2582 27.5896 99.3182 27.3824C99.4391 26.9651 99.5237 26.7168 99.5451 26.7168C99.566 26.7168 99.6702 26.9751 99.8209 27.4C99.8944 27.6071 99.9627 27.7823 99.9726 27.7894C99.9824 27.7964 100.223 27.803 100.506 27.8038C100.789 27.8038 101.036 27.8112 101.054 27.8182C101.082 27.8293 101.066 27.849 100.949 27.9456C100.874 28.0085 100.729 28.1221 100.628 28.198C100.527 28.2739 100.405 28.368 100.357 28.4073C100.309 28.4463 100.251 28.4912 100.229 28.5066L100.189 28.5346L100.236 28.7074C100.261 28.8024 100.337 29.0486 100.403 29.2545C100.47 29.4604 100.523 29.6361 100.52 29.6449C100.516 29.6539 100.426 29.6058 100.318 29.5385L100.317 29.5385Z" fill="#FAEA27" stroke="#FAEA27" stroke-width="0.221427"/>
<path d="M101.558 32.4406C101.577 32.3708 101.659 32.1126 101.739 31.867C101.852 31.5197 101.88 31.4158 101.864 31.4002C101.852 31.3891 101.646 31.2335 101.407 31.0543L100.971 30.7284H101.548H102.124L102.306 30.1686C102.407 29.8607 102.494 29.6144 102.5 29.6212C102.506 29.6278 102.592 29.8799 102.691 30.181L102.87 30.7284H103.42H103.971L103.527 31.0622C103.283 31.2458 103.077 31.4018 103.07 31.4089C103.063 31.4159 103.108 31.5752 103.17 31.7626C103.32 32.2104 103.409 32.5109 103.403 32.5435C103.396 32.5731 103.24 32.4694 102.75 32.1115C102.484 31.9174 102.453 31.8994 102.421 31.9196C102.401 31.932 102.232 32.0576 102.044 32.1988C101.703 32.4552 101.547 32.5676 101.531 32.5676C101.526 32.5676 101.538 32.5105 101.558 32.4406H101.558Z" fill="#FAEA27" stroke="#FAEA27" stroke-width="0.221427"/>
<path d="M102.609 36.4827C102.628 36.433 102.758 36.0116 102.855 35.6869L102.95 35.3641L102.911 35.3279C102.889 35.3077 102.681 35.1577 102.449 34.9939C102.218 34.8302 102.033 34.6915 102.04 34.6857C102.056 34.6725 102.764 34.6344 102.991 34.6346C103.085 34.6346 103.162 34.6305 103.162 34.6272C103.162 34.6107 103.412 33.8132 103.463 33.6662C103.492 33.5813 103.522 33.5183 103.529 33.526C103.546 33.5437 103.702 33.9451 103.835 34.3109C103.89 34.465 103.944 34.601 103.953 34.613C103.964 34.6274 104.018 34.6348 104.112 34.6348C104.315 34.6344 105.003 34.6731 105.016 34.6858C105.023 34.6915 104.84 34.8382 104.61 35.0117C104.372 35.1908 104.188 35.3421 104.183 35.362C104.178 35.3813 104.244 35.6099 104.33 35.87C104.415 36.1301 104.491 36.3692 104.498 36.4014C104.51 36.4575 104.509 36.459 104.472 36.4392C104.394 36.3971 104.226 36.2845 103.925 36.0714C103.755 35.951 103.602 35.8433 103.585 35.8322C103.559 35.8149 103.488 35.8622 103.101 36.1515C102.852 36.3382 102.637 36.4953 102.623 36.5004C102.607 36.5065 102.602 36.5004 102.609 36.4831L102.609 36.4827Z" fill="#FAEA27" stroke="#FAEA27" stroke-width="0.221427"/>
<path d="M101.546 40.4477C101.552 40.4157 101.632 40.165 101.722 39.891C101.812 39.6169 101.884 39.3919 101.882 39.3909C101.882 39.3909 101.839 39.3572 101.791 39.3184C101.743 39.2793 101.537 39.1213 101.333 38.9669L100.963 38.6861L101.069 38.675C101.128 38.6688 101.391 38.6639 101.654 38.6639H102.132L102.149 38.6244C102.159 38.6027 102.217 38.4137 102.28 38.2044C102.342 37.995 102.414 37.7706 102.44 37.7058L102.487 37.5879L102.528 37.6748C102.55 37.7226 102.604 37.876 102.648 38.0157C102.692 38.1554 102.756 38.3584 102.79 38.4668L102.851 38.6638H103.39C103.686 38.6638 103.94 38.6683 103.955 38.6741C103.973 38.6811 103.852 38.7843 103.566 39.0026C103.338 39.1775 103.13 39.3371 103.105 39.3573L103.059 39.3944L103.199 39.8218C103.34 40.2548 103.408 40.4889 103.397 40.5011C103.393 40.5052 103.181 40.3677 102.925 40.1965L102.459 39.8854L102.404 39.9174C102.374 39.9351 102.216 40.0445 102.053 40.1606C101.745 40.3793 101.645 40.4471 101.575 40.4845C101.535 40.5059 101.535 40.5051 101.546 40.4479L101.546 40.4477Z" fill="#FAEA27" stroke="#FAEA27" stroke-width="0.221427"/>
<path d="M98.6193 43.3937C98.6193 43.3735 98.6992 43.1132 98.7969 42.8152C98.8946 42.5171 98.9712 42.2708 98.9673 42.2678C98.9632 42.2636 98.7896 42.1385 98.5813 41.9873C98.1356 41.6637 98.0254 41.5779 98.0254 41.5547C98.0254 41.5441 98.2381 41.5375 98.6012 41.5375C99.1321 41.5375 99.1784 41.5334 99.1928 41.5066C99.2014 41.4898 99.2577 41.3184 99.3177 41.1257C99.4465 40.7124 99.5263 40.4863 99.5433 40.4863C99.5601 40.4863 99.6737 40.7614 99.8252 41.1695C99.8949 41.3573 99.9607 41.5168 99.9713 41.5239C99.982 41.5309 100.223 41.5375 100.506 41.5383C100.789 41.5383 101.036 41.5457 101.055 41.5527C101.083 41.5638 101.065 41.5844 100.94 41.6872C100.859 41.754 100.658 41.9111 100.492 42.0363L100.191 42.2641L100.2 42.3254C100.205 42.3591 100.256 42.5443 100.314 42.737C100.429 43.1192 100.509 43.4141 100.5 43.4235C100.489 43.4346 100.226 43.2541 99.8834 42.9996C99.6587 42.8325 99.5341 42.7503 99.5212 42.7606C99.4176 42.8423 98.7041 43.3761 98.6673 43.3994C98.6205 43.429 98.6192 43.4286 98.6192 43.3932L98.6193 43.3937Z" fill="#FAEA27" stroke="#FAEA27" stroke-width="0.221427"/>
<path d="M94.7232 44.341C94.7232 44.332 94.8028 44.0942 94.9001 43.8125C95.0489 43.3815 95.0729 43.2974 95.0518 43.2816C94.9528 43.2071 94.2505 42.6359 94.243 42.6236C94.2204 42.5875 94.306 42.5792 94.8011 42.5709L95.3245 42.5623L95.3642 42.4572C95.386 42.3994 95.4718 42.1589 95.5547 41.9229C95.6375 41.6869 95.7114 41.4871 95.7189 41.4791C95.7324 41.4647 95.8219 41.7239 95.9975 42.2844L96.086 42.567L96.5532 42.5794C96.8101 42.5859 97.0587 42.597 97.1056 42.6032L97.1908 42.6147L96.7431 42.9467C96.4969 43.1293 96.2954 43.2857 96.2954 43.2944C96.2954 43.303 96.35 43.4886 96.4168 43.7068C96.5549 44.158 96.6017 44.3365 96.5861 44.3522C96.5722 44.3662 96.3966 44.2489 96.0111 43.9676C95.838 43.8414 95.69 43.7452 95.6766 43.7503C95.6635 43.7553 95.5431 43.8346 95.4092 43.9264C95.1066 44.1339 94.7585 44.3576 94.7384 44.3576C94.7302 44.3576 94.7232 44.3501 94.7232 44.3411V44.341Z" fill="#FAEA27" stroke="#FAEA27" stroke-width="0.221427"/>
<path d="M90.8528 43.3453C90.8594 43.3091 90.9381 43.0607 91.0275 42.7932L91.1902 42.3067L91.1179 42.249C91.0781 42.2174 90.9237 42.0978 90.7748 41.9835C90.4381 41.7249 90.2516 41.5671 90.2621 41.5499C90.2667 41.5425 90.5202 41.5368 90.8256 41.5368H91.3809L91.4092 41.4711C91.4248 41.4349 91.5014 41.2322 91.5795 41.0204C91.7344 40.6006 91.7971 40.4611 91.8118 40.5033C91.8167 40.5177 91.8376 40.5926 91.8583 40.6697C91.8788 40.7467 91.9434 40.9734 92.0019 41.1733L92.1083 41.5368H92.6513C92.95 41.5368 93.2095 41.5438 93.2279 41.5512C93.2566 41.5623 93.2373 41.5853 93.0969 41.7082C93.0064 41.7873 92.8051 41.9522 92.6497 42.0748C92.4942 42.1973 92.3665 42.3093 92.3659 42.3238C92.3659 42.3382 92.4185 42.5116 92.4844 42.7091C92.6173 43.1076 92.6903 43.3693 92.6732 43.3864C92.6576 43.402 92.5241 43.3104 92.1425 43.0227C91.962 42.8866 91.805 42.7715 91.7937 42.767C91.7822 42.7625 91.6054 42.8801 91.4006 43.0284C90.9768 43.3352 90.8697 43.4098 90.8528 43.4098C90.8462 43.4098 90.8462 43.3802 90.8528 43.3441L90.8528 43.3453Z" fill="#FAEA27" stroke="#FAEA27" stroke-width="0.221427"/>
<path d="M61.27 20.6552C61.2888 20.2157 61.3085 19.8512 61.3134 19.8451C61.3183 19.8389 62.6776 19.6878 64.3339 19.5092C67.5803 19.1592 79.4447 17.872 82.3927 17.55C86.1359 17.1412 87.3842 16.9544 88.8748 16.5804C91.1487 16.0099 92.8517 15.2268 94.7993 13.8561C96.9378 12.351 98.9628 10.1767 101.091 7.10035L101.517 6.48438V6.81389V7.14336L100.989 7.90055C99.8423 9.54689 99.2636 10.3068 98.4317 11.2591C96.7653 13.1669 95.4288 14.4067 94.0798 15.2962C92.3487 16.4377 90.4536 17.226 88.0642 17.7986C86.8011 18.1013 86.8753 18.0907 75.7215 19.5558C72.0931 20.0323 67.401 20.6461 65.2946 20.9197C63.1883 21.1932 61.4132 21.4254 61.3501 21.4356L61.2354 21.4541L61.27 20.6552Z" fill="#BCBEC0" stroke="#BCBEC0" stroke-width="0.62629"/>
<path d="M61.1924 22.8294C61.1924 22.3804 61.2092 22.0131 61.2297 22.0131C61.2699 22.0131 69.2328 21.2511 71.3228 21.0472C75.6789 20.6224 82.0981 20.0327 84.0105 19.8817C84.7104 19.8264 85.4609 19.7605 85.6783 19.735C85.8958 19.7095 86.296 19.6644 86.5678 19.6345C88.4139 19.431 90.6362 18.8567 92.1962 18.1799C94.3812 17.2319 96.4393 15.7078 98.3346 13.6341C99.4215 12.445 100.193 11.52 101.099 10.3191L101.492 9.79883L101.507 10.0368C101.521 10.2623 101.503 10.3012 101.164 10.7801C100.556 11.6373 99.3696 13.1937 98.9461 13.6886C97.951 14.8511 96.598 16.1882 95.6095 16.9858C95.0359 17.4487 94.0704 18.0701 93.3132 18.4637C91.571 19.3692 89.9758 19.9118 87.9762 20.2789C85.801 20.6783 85.555 20.7119 80.1437 21.3467C73.8582 22.084 61.6957 23.5542 61.3283 23.6211L61.1924 23.6457V22.8294Z" fill="#BCBEC0" stroke="#BCBEC0" stroke-width="0.62629"/>
<path d="M61.2422 24.9404C61.2422 24.2029 61.2487 24.143 61.3319 24.143C61.3813 24.143 63.6884 23.954 66.4589 23.7231C69.2294 23.4921 73.6643 23.1235 76.3142 22.9038C84.3189 22.2404 85.7425 22.1168 86.5929 22.0119C91.0108 21.4671 93.9371 20.3263 96.8164 18.0266C98.2938 16.8466 99.7574 15.3475 101.023 13.7177L101.443 13.1777L101.458 13.4075C101.473 13.6312 101.458 13.6561 100.939 14.3437C98.7585 17.2285 96.1207 19.6314 93.8036 20.8438C91.4757 22.0619 89.2348 22.648 84.8882 23.1759L83.4551 23.3499L80.7001 23.35L77.9451 23.3502V23.6429V23.9355L77.7104 23.966C77.5813 23.9828 73.9288 24.3745 69.5937 24.8365C65.2587 25.2985 61.6061 25.6903 61.477 25.7072L61.2423 25.738L61.2422 24.9404Z" fill="#BCBEC0" stroke="#BCBEC0" stroke-width="0.62629"/>
<path d="M61.2532 27.0321L61.2668 26.2531L69.4205 25.6477C73.9051 25.3147 77.6577 25.0409 77.7596 25.0393L77.9449 25.0352V25.6298C77.9449 26.1236 77.9322 26.2244 77.8712 26.2244C77.8054 26.2244 73.5848 26.6311 64.4904 27.5138C62.8117 27.6767 61.3935 27.81 61.3389 27.81C61.2431 27.81 61.24 27.7829 61.2532 27.031L61.2532 27.0321Z" fill="#BCBEC0" stroke="#BCBEC0" stroke-width="0.62629"/>
<path d="M61.3408 29.2477V28.4549H61.4864C61.6426 28.4549 70.781 27.8243 72.9537 27.6636C73.674 27.6103 74.9749 27.5217 75.8446 27.4666C76.7143 27.4116 77.5427 27.3566 77.6853 27.3445L77.9448 27.3223V27.9123C77.9448 28.4847 77.9407 28.5031 77.8336 28.5245C77.7724 28.5369 77.0331 28.605 76.1905 28.6764C75.3479 28.7478 73.9692 28.8717 73.1267 28.9518C71.0776 29.1467 61.4361 30.0404 61.3829 30.0404C61.3599 30.0404 61.3408 29.6836 61.3408 29.2476V29.2477Z" fill="#BCBEC0" stroke="#BCBEC0" stroke-width="0.62629"/>
<path d="M61.2422 31.3567V30.5917L61.4522 30.5658C61.7351 30.5309 70.0843 30.0939 74.7576 29.8692C76.171 29.8013 77.4663 29.7348 77.6362 29.7215L77.945 29.6973V30.2652C77.945 30.5776 77.9392 30.835 77.9327 30.8371C77.9257 30.8412 76.1191 30.9828 73.9176 31.1563C65.6871 31.8047 61.5836 32.1215 61.4155 32.1215H61.2422L61.2422 31.3567Z" fill="#BCBEC0" stroke="#BCBEC0" stroke-width="0.62629"/>
<path d="M61.1924 33.5064V32.7243L61.6495 32.6939C62.1297 32.6618 66.1006 32.4886 70.2356 32.3196C71.581 32.2646 73.7678 32.1751 75.0952 32.1205C76.4225 32.0661 77.6067 32.0215 77.7266 32.0215H77.9446V32.5878V33.154L77.6851 33.1812C77.5425 33.196 73.8677 33.4427 69.5191 33.729C65.1704 34.0153 61.5179 34.2583 61.4024 34.269L61.1924 34.2884V33.5064Z" fill="#BCBEC0" stroke="#BCBEC0" stroke-width="0.62629"/>
<path d="M61.2422 35.5488V34.7652L63.6018 34.7047C64.8996 34.6714 66.7287 34.623 67.6663 34.597C70.6436 34.5144 72.9674 34.4527 75.0788 34.4003C76.2068 34.3724 77.3131 34.3425 77.5373 34.334L77.945 34.3184V34.8793C77.945 35.3203 77.9306 35.4403 77.8775 35.4403C77.8402 35.4403 74.1212 35.6409 69.6126 35.8862C65.104 36.1314 61.3762 36.3321 61.3286 36.3321C61.2499 36.3322 61.2422 36.2618 61.2422 35.5486V35.5488Z" fill="#BCBEC0" stroke="#BCBEC0" stroke-width="0.62629"/>
<path d="M61.2422 37.7202V36.9274L62.0205 36.927C62.4486 36.927 63.8551 36.9052 65.1461 36.8786C66.4371 36.8523 69.4392 36.7973 71.8173 36.7565C74.1955 36.7158 76.5471 36.6704 77.0431 36.6556L77.945 36.6289V37.1949V37.7608L77.5373 37.7904C77.1941 37.8155 61.4863 38.515 61.304 38.5135C61.2571 38.513 61.2422 38.3211 61.2422 37.7201V37.7202Z" fill="#BCBEC0" stroke="#BCBEC0" stroke-width="0.62629"/>
<path d="M61.2915 39.9086V39.1239L64.2936 39.091C65.9447 39.0729 69.6917 39.0432 72.6203 39.0251L77.9449 38.9922V39.5646V40.1369L77.1666 40.169C76.7385 40.1867 74.9206 40.2452 73.1268 40.2989C69.3053 40.4135 66.1751 40.5177 63.4905 40.6197C62.4305 40.66 61.5021 40.6931 61.4274 40.6931H61.2915V39.9086Z" fill="#BCBEC0" stroke="#BCBEC0" stroke-width="0.62629"/>
<path d="M61.3408 42.0063V41.2383H69.6428H77.9448V41.7791V42.3199L77.5865 42.3475C77.3895 42.3627 76.0385 42.3992 74.5845 42.4289C73.1304 42.4585 69.7392 42.5486 67.0484 42.6287C64.3577 42.7089 61.9727 42.7745 61.7485 42.7745H61.3408V42.0063Z" fill="#BCBEC0" stroke="#BCBEC0" stroke-width="0.62629"/>
<path d="M61.2915 44.164V43.3691H61.6004C61.7702 43.3692 63.5325 43.4024 65.5166 43.443C73.3547 43.6033 76.6636 43.666 77.2901 43.6662H77.9449V44.2283V44.7905L75.7582 44.823C74.5555 44.8406 71.0587 44.8668 67.9874 44.8809C64.9162 44.8948 62.1532 44.9183 61.8474 44.9326L61.2915 44.9585V44.164Z" fill="#BCBEC0" stroke="#BCBEC0" stroke-width="0.62629"/>
<path d="M61.2422 46.3169V45.5488L61.4769 45.5496C61.606 45.5496 65.1695 45.6388 69.3959 45.7476C73.6223 45.8564 77.2748 45.9454 77.5126 45.9455L77.945 45.9463V46.5162V47.086H69.5936H61.2422V46.3169Z" fill="#BCBEC0" stroke="#BCBEC0" stroke-width="0.62629"/>
<path d="M97.6842 23.1282C98.4824 22.7198 99.6177 21.8452 100.824 20.7093L101.59 19.9883L101.607 20.2206L101.623 20.4528L100.74 21.3198C100.254 21.7967 99.5546 22.4488 99.1854 22.769L98.5142 23.3511H97.8814H97.2485L97.6842 23.1282Z" fill="#BCBEC0" stroke="#BCBEC0" stroke-width="0.62629"/>
<path d="M92.2872 23.1987C93.6421 22.7878 95.0894 22.0585 96.3617 21.1455C97.8267 20.0943 99.2405 18.8526 100.48 17.5281C100.837 17.1466 101.217 16.7456 101.323 16.637L101.517 16.4395V16.6999V16.9603L100.765 17.7893C99.8022 18.852 98.9588 19.6978 98.3045 20.2572C97.0576 21.3231 95.6184 22.3598 94.4994 22.998L93.8817 23.3503L92.8439 23.3462L91.8062 23.3421L92.2872 23.1961V23.1987Z" fill="#BCBEC0" stroke="#BCBEC0" stroke-width="0.62629"/>
<path d="M142.704 27.1563C138.944 26.3238 133.672 25.1461 133.194 25.0317C130.024 24.273 128.694 23.4857 127.213 21.492C126.673 20.7647 124.055 16.999 120.45 11.7615L118.663 9.1663L118.669 8.49119C118.672 8.11985 118.689 7.52173 118.706 7.16195L118.737 6.50781L122.382 12.3648C124.386 15.5861 126.376 18.7846 126.804 19.4726C127.81 21.089 128.055 21.4225 128.743 22.1123C129.799 23.1706 131.013 23.8663 132.899 24.4932C133.882 24.8198 134.581 24.9913 137.54 25.6324C140.759 26.3297 143.072 26.8492 143.105 26.8823C143.119 26.8963 143.124 26.9835 143.115 27.0759L143.1 27.2438L142.704 27.1563Z" fill="#BCBEC0" stroke="#BCBEC0" stroke-width="0.62629"/>
<path d="M139.567 28.1112C132.765 26.734 131.634 26.4463 130.081 25.6996C128.679 25.025 127.865 24.3301 126.728 22.8383C126.351 22.3435 124.382 19.7579 122.352 17.0925L118.662 12.2461L118.675 11.0362L118.688 9.82617L119.624 11.1999C126.238 20.9023 127.309 22.4387 128.074 23.3149C129.432 24.8709 131.468 25.9567 134.469 26.726C135.102 26.8882 140.964 28.0847 142.593 28.3843L143.075 28.4729V28.6372C143.075 28.737 143.051 28.8006 143.013 28.7991C142.979 28.7991 141.428 28.4881 139.567 28.1112H139.567Z" fill="#BCBEC0" stroke="#BCBEC0" stroke-width="0.62629"/>
<path d="M141.938 30.2351C141.408 30.1307 139.941 29.8537 138.677 29.6195C134.793 28.8999 134.034 28.7539 133.241 28.5726C130.179 27.8726 128.514 27.0138 127.127 25.4186C126.277 24.4403 125.471 23.4896 122.082 19.4708L118.663 15.4172V14.2705C118.663 13.6398 118.682 13.145 118.705 13.1709C118.728 13.1968 120.632 15.7153 122.937 18.7677C125.242 21.82 127.229 24.44 127.354 24.5899C129.01 26.5897 131.067 27.7293 134.41 28.4995C135.154 28.6709 139.642 29.5259 141.592 29.8677C142.313 29.9939 142.952 30.1071 143.013 30.1193C143.099 30.1362 143.124 30.1756 143.124 30.2891C143.124 30.4746 143.163 30.4763 141.938 30.2351Z" fill="#BCBEC0" stroke="#BCBEC0" stroke-width="0.62629"/>
<path d="M142.853 32.1693C142.744 32.1475 140.487 31.7369 137.837 31.2574C135.187 30.7778 132.707 30.3094 132.327 30.2165C130.482 29.766 129.145 29.1137 127.872 28.0427C127.249 27.5184 125 25.1856 119.859 19.7334L118.715 18.5194L118.716 17.454L118.716 16.3887L118.925 16.6351C119.039 16.7706 119.877 17.7629 120.786 18.8401C127.125 26.3503 128.205 27.5531 129.339 28.3697C130.587 29.2673 132.203 29.8379 135.191 30.4353C137.482 30.8933 142.859 31.8733 143.08 31.8733C143.155 31.8733 143.174 31.9094 143.174 32.0467C143.174 32.233 143.172 32.2338 142.853 32.1693H142.853Z" fill="#BCBEC0" stroke="#BCBEC0" stroke-width="0.62629"/>
<path d="M139.171 33.26C133.359 32.2965 132.51 32.1425 131.388 31.8492C129.839 31.4443 128.887 31.0259 127.865 30.3006C127.355 29.9391 126.192 28.8621 120.257 23.2572L118.712 21.7987L118.714 20.7783L118.715 19.7578L119.172 20.2285C119.701 20.7746 125.736 27.146 126.72 28.1984C128.252 29.8361 129.505 30.6294 131.688 31.3437C133.334 31.8822 134.958 32.2071 141.16 33.2388L143.174 33.5737V33.7391C143.174 33.8655 143.153 33.9034 143.087 33.8997C143.04 33.8956 141.277 33.6091 139.171 33.26H139.171Z" fill="#BCBEC0" stroke="#BCBEC0" stroke-width="0.62629"/>
<path d="M137.713 34.6987C134.859 34.2423 132.28 33.8199 131.981 33.76C130.238 33.4111 128.883 32.9013 127.834 32.1992C127.614 32.0522 127.034 31.6019 126.545 31.1986C126.056 30.7953 124.354 29.3954 122.765 28.0879C121.175 26.7803 119.602 25.4862 119.269 25.212L118.665 24.7135L118.669 24.2676C118.672 24.0223 118.688 23.61 118.706 23.3513L118.737 22.8809L119.874 23.9458C122.435 26.3451 125.978 29.6189 127.113 30.6341C128.919 32.2497 130.359 32.909 133.439 33.5301C135.147 33.8748 139.376 34.6037 142.037 35.0125L143.099 35.1756L143.115 35.358C143.129 35.5213 143.118 35.5397 143.016 35.5345C142.953 35.5304 140.567 35.1552 137.713 34.6987H137.713Z" fill="#BCBEC0" stroke="#BCBEC0" stroke-width="0.62629"/>
<path d="M140.456 38.782C134.406 38.0984 133.346 37.9608 132.038 37.6882C130.045 37.2732 128.667 36.7517 126.792 35.7026C124.615 34.4848 118.939 31.1586 118.8 31.0196C118.724 30.9434 118.712 30.8339 118.712 30.1886C118.712 29.7798 118.722 29.4453 118.734 29.4453C118.746 29.4453 119.841 30.1661 121.169 31.0471C125.265 33.7661 126.687 34.6811 127.821 35.3283C130.114 36.6369 131.856 37.1705 135.377 37.6431C136.557 37.8014 142.161 38.5212 142.754 38.5905C143.16 38.638 143.174 38.6468 143.174 38.8633C143.174 39.0564 143.172 39.0581 142.988 39.0526C142.886 39.0485 141.747 38.9278 140.456 38.782Z" fill="#BCBEC0" stroke="#BCBEC0" stroke-width="0.62629"/>
<path d="M140.008 36.9514C138.416 36.7259 136.403 36.4496 135.535 36.3374C132.381 35.9296 131.56 35.7875 130.509 35.4682C128.641 34.9003 128.005 34.5051 120.85 29.4598L118.712 27.9529V27.0827C118.712 26.3939 118.725 26.2227 118.774 26.2609C118.808 26.2872 120.07 27.2892 121.579 28.487C127.551 33.2299 127.702 33.3471 128.3 33.7074C129.123 34.2036 130.451 34.7382 131.743 35.0937C133.237 35.505 134.476 35.7151 140.505 36.5798C141.851 36.7727 143.001 36.9415 143.062 36.9548C143.155 36.975 143.174 37.012 143.174 37.1764C143.174 37.36 143.164 37.3732 143.038 37.3676C142.963 37.3634 141.599 37.1769 140.008 36.9514Z" fill="#BCBEC0" stroke="#BCBEC0" stroke-width="0.62629"/>
<path d="M141.765 40.5151C140.48 40.3724 137.781 40.099 135.687 39.8996C132.472 39.5933 131.437 39.4517 130.297 39.1618C128.836 38.7901 127.792 38.3463 122.073 35.6642C120.755 35.0461 119.459 34.4387 119.194 34.3145L118.712 34.0887V33.3774C118.712 32.9861 118.724 32.666 118.739 32.666C118.753 32.666 119.37 32.9976 120.11 33.4029C124.711 35.9234 127.314 37.2878 128.423 37.7596C129.831 38.3591 131.331 38.7864 133.068 39.0829C134.085 39.2566 135.037 39.3722 140.134 39.9411L143.099 40.272L143.115 40.4579C143.133 40.6825 143.233 40.6782 141.765 40.5151H141.765Z" fill="#BCBEC0" stroke="#BCBEC0" stroke-width="0.62629"/>
<path d="M142.037 42.2977C141.616 42.2603 140.215 42.1397 138.924 42.0297C133.19 41.5414 131.705 41.3855 130.375 41.1323C129.716 41.007 128.685 40.7486 127.953 40.5259C127.517 40.3929 119.618 37.7065 118.824 37.4208L118.663 37.363L118.67 36.9838C118.673 36.7753 118.69 36.4449 118.707 36.2496L118.737 35.8945L121.085 36.885C127.49 39.5875 128.328 39.912 130.004 40.3375C131.887 40.8153 133.372 41.0161 140.872 41.8069C142.038 41.9298 143.022 42.0305 143.058 42.0305C143.101 42.0305 143.124 42.0923 143.124 42.2039C143.124 42.4081 143.204 42.4013 142.037 42.2977H142.037Z" fill="#BCBEC0" stroke="#BCBEC0" stroke-width="0.62629"/>
<path d="M140.11 43.8619C138.656 43.7585 136.788 43.6263 135.959 43.568C131.21 43.2341 128.934 42.9712 126.94 42.5262C126.166 42.3533 122.298 41.4401 120.887 41.0969C120.329 40.9613 119.625 40.7912 119.321 40.7188L118.769 40.5871L118.737 40.2313C118.72 40.0356 118.712 39.7285 118.721 39.549L118.737 39.2227L120.936 39.8846C123.894 40.7752 126.747 41.5937 127.83 41.8626C129.769 42.3445 132.058 42.7479 134.254 42.9947C134.878 43.0649 142.841 43.7156 143.076 43.7156C143.155 43.7156 143.174 43.7494 143.174 43.8891C143.174 44.1014 143.521 44.1045 140.11 43.8619H140.11Z" fill="#BCBEC0" stroke="#BCBEC0" stroke-width="0.62629"/>
<path d="M138.998 45.4976C133.957 45.2226 127.534 44.808 126.354 44.6815C124.955 44.5313 121.114 44.0833 119.652 43.8995L118.788 43.7909L118.753 43.5927C118.734 43.4837 118.717 43.1994 118.715 42.9609C118.713 42.5997 118.725 42.5273 118.789 42.5273C118.832 42.5273 120.783 42.85 123.126 43.2443C128.945 44.2239 130.086 44.3843 133.34 44.6802C134.519 44.7875 138.357 45.0427 141.963 45.2537C143.206 45.3265 143.174 45.3191 143.174 45.5274V45.6986L142.815 45.6924C142.618 45.6883 140.9 45.6014 138.998 45.4976L138.998 45.4976Z" fill="#BCBEC0" stroke="#BCBEC0" stroke-width="0.62629"/>
<path d="M118.712 46.4918V45.8477L119.021 45.8484C119.191 45.8484 120.197 45.8813 121.257 45.9212C122.317 45.961 124.308 46.0279 125.68 46.0697C129.443 46.1844 141.478 46.6437 142.667 46.718L143.174 46.7497V46.9431V47.1365H130.943H118.712V46.4918Z" fill="#BCBEC0" stroke="#BCBEC0" stroke-width="0.62629"/>
</g>
<defs>
<clipPath id="clip0_2350_63473">
<rect width="162.059" height="63.0717" fill="white" transform="translate(14.8916 6.40625)"/>
</clipPath>
</defs>
</svg>
