<svg width="86" height="114" viewBox="0 0 86 114" fill="none" xmlns="http://www.w3.org/2000/svg">
<path d="M14.0384 82.0361H15.5424V72.8521L18.8064 78.1961H19.9584L23.2224 72.8521V82.0361H24.7264V70.8361H22.8064L19.3824 76.4841L15.9584 70.8361H14.0384V82.0361ZM28.6092 71.8761C29.1372 71.8761 29.5532 71.4441 29.5532 70.9161C29.5532 70.4041 29.1372 69.9721 28.6092 69.9721C28.0812 69.9721 27.6492 70.4041 27.6492 70.9161C27.6492 71.4441 28.0812 71.8761 28.6092 71.8761ZM27.9212 82.0361H29.2812V73.9721H27.9212V82.0361ZM31.2291 80.9321C31.9651 81.8441 32.9731 82.3561 34.2531 82.3561C35.7571 82.3561 36.9571 81.4121 36.9731 79.9081C36.9731 77.1561 32.9251 77.7321 32.9251 75.9241C32.9251 75.3001 33.3891 74.7881 34.2531 74.7881C34.9571 74.7881 35.5651 75.1721 35.9971 75.7801L36.9411 74.9801C36.3811 74.1961 35.3891 73.6521 34.2371 73.6521C32.6851 73.6521 31.6131 74.6921 31.6131 75.9561C31.6131 78.8041 35.6451 78.1641 35.6451 79.9721C35.6451 80.6761 35.1331 81.2201 34.2371 81.2201C33.4211 81.2201 32.7491 80.8201 32.1891 80.1161L31.2291 80.9321ZM38.2603 80.9321C38.9963 81.8441 40.0043 82.3561 41.2843 82.3561C42.7883 82.3561 43.9883 81.4121 44.0043 79.9081C44.0043 77.1561 39.9563 77.7321 39.9563 75.9241C39.9563 75.3001 40.4203 74.7881 41.2843 74.7881C41.9883 74.7881 42.5963 75.1721 43.0283 75.7801L43.9723 74.9801C43.4123 74.1961 42.4203 73.6521 41.2683 73.6521C39.7163 73.6521 38.6443 74.6921 38.6443 75.9561C38.6443 78.8041 42.6763 78.1641 42.6763 79.9721C42.6763 80.6761 42.1643 81.2201 41.2683 81.2201C40.4523 81.2201 39.7803 80.8201 39.2203 80.1161L38.2603 80.9321ZM46.9061 71.8761C47.4341 71.8761 47.8501 71.4441 47.8501 70.9161C47.8501 70.4041 47.4341 69.9721 46.9061 69.9721C46.3781 69.9721 45.9461 70.4041 45.9461 70.9161C45.9461 71.4441 46.3781 71.8761 46.9061 71.8761ZM46.2181 82.0361H47.5781V73.9721H46.2181V82.0361ZM54.1324 73.6521C51.5244 73.6521 49.7644 75.6521 49.7644 78.0041C49.7644 80.3561 51.5244 82.3561 54.1324 82.3561C56.7244 82.3561 58.5004 80.3561 58.5004 78.0041C58.5004 75.6521 56.7244 73.6521 54.1324 73.6521ZM54.1484 81.0761C52.4204 81.0761 51.1884 79.6841 51.1884 78.0041C51.1884 76.3241 52.4204 74.9321 54.1484 74.9321C55.8284 74.9321 57.0604 76.3241 57.0604 78.0041C57.0604 79.6681 55.8284 81.0761 54.1484 81.0761ZM60.6868 82.0361H62.0468V76.4521C62.5588 75.6041 63.2948 74.9321 64.4628 74.9321C65.7108 74.9321 66.5268 75.7641 66.5268 77.2041V82.0361H67.8868V77.1561C67.8868 74.8681 66.5428 73.6521 64.7348 73.6521C63.5348 73.6521 62.7028 74.1641 62.0468 74.8841V73.9721H60.6868V82.0361ZM4.76625 91.9001H8.22225V101.036H10.4942V91.9001H13.9502V89.8361H4.76625V91.9001ZM14.6269 101.036H16.6589V95.8681C16.9629 95.3561 17.6029 94.8121 18.5949 94.8121C18.9629 94.8121 19.2349 94.8601 19.4909 94.9241V92.9241C19.2989 92.8601 19.0589 92.8121 18.7869 92.8121C17.8749 92.8121 17.1869 93.2281 16.6589 93.7721V92.9721H14.6269V101.036ZM23.0082 101.276C23.9522 101.276 24.9122 100.876 25.4242 100.252V101.036H27.4562V95.8201C27.4562 94.0441 26.2562 92.6521 23.9202 92.6521C22.4482 92.6521 21.2642 93.2601 20.5442 94.2521L22.0322 95.3881C22.4642 94.7961 23.0722 94.4281 23.8562 94.4281C24.7842 94.4281 25.4242 94.9721 25.4242 95.8201V96.0281L22.9602 96.4441C21.2322 96.7321 20.2882 97.6441 20.2882 98.8601C20.2882 100.348 21.3922 101.276 23.0082 101.276ZM22.3042 98.7641C22.3042 98.2681 22.6562 97.9161 23.5042 97.7721L25.4242 97.4521V98.5881C25.0242 99.2281 24.3522 99.6601 23.4242 99.6601C22.7362 99.6601 22.3042 99.3081 22.3042 98.7641ZM29.7831 101.036H31.8151V95.7721C32.1191 95.2601 32.6631 94.5721 33.6871 94.5721C34.6791 94.5721 35.2871 95.2441 35.2871 96.3161V101.036H37.3351V96.2361C37.3351 93.8521 35.9431 92.6521 34.1991 92.6521C33.1271 92.6521 32.3751 93.0681 31.8151 93.6121V92.9721H29.7831V101.036ZM38.9385 99.8681C39.7065 100.78 40.7305 101.356 42.1705 101.356C43.6905 101.356 45.0505 100.428 45.0825 98.7321C45.0825 95.9481 41.2265 96.4281 41.2265 95.0521C41.2265 94.6361 41.5305 94.2841 42.1705 94.2841C42.7945 94.2841 43.3225 94.7001 43.7385 95.2121L45.0825 94.0281C44.5065 93.2441 43.3865 92.6521 42.1545 92.6521C40.4745 92.6521 39.2745 93.7241 39.2745 95.1481C39.2745 97.9801 43.1305 97.4521 43.1305 98.8601C43.1305 99.3401 42.7945 99.7241 42.1385 99.7241C41.3705 99.7241 40.7785 99.2761 40.2825 98.6521L38.9385 99.8681ZM47.979 91.5641C48.699 91.5641 49.291 90.9561 49.291 90.2361C49.291 89.5161 48.699 88.9081 47.979 88.9081C47.259 88.9081 46.651 89.5161 46.651 90.2361C46.651 90.9561 47.259 91.5641 47.979 91.5641ZM46.955 101.036H48.987V92.9721H46.955V101.036ZM51.9357 98.0921C51.9357 100.06 52.8957 101.196 54.9117 101.196C55.5837 101.196 56.0637 101.116 56.4637 100.94V99.1641C56.1917 99.2761 55.8237 99.3401 55.2637 99.3401C54.4637 99.3401 53.9837 98.9881 53.9837 98.0921V94.7961H56.4477V92.9721H53.9837V90.9561H51.9357V92.9721H50.4317V94.7961H51.9357V98.0921ZM59.2915 91.5641C60.0115 91.5641 60.6035 90.9561 60.6035 90.2361C60.6035 89.5161 60.0115 88.9081 59.2915 88.9081C58.5715 88.9081 57.9635 89.5161 57.9635 90.2361C57.9635 90.9561 58.5715 91.5641 59.2915 91.5641ZM58.2675 101.036H60.2995V92.9721H58.2675V101.036ZM66.5762 92.6521C63.9522 92.6521 62.1602 94.5881 62.1602 97.0041C62.1602 99.4201 63.9522 101.356 66.5762 101.356C69.2002 101.356 70.9922 99.4201 70.9922 97.0041C70.9922 94.5881 69.2002 92.6521 66.5762 92.6521ZM66.6082 99.4361C65.2642 99.4361 64.2722 98.4121 64.2722 97.0041C64.2722 95.5961 65.2642 94.5721 66.6082 94.5721C67.9042 94.5721 68.8802 95.5961 68.8802 97.0041C68.8802 98.3961 67.9042 99.4361 66.6082 99.4361ZM72.8456 101.036H74.8776V95.7721C75.1816 95.2601 75.7256 94.5721 76.7496 94.5721C77.7416 94.5721 78.3496 95.2441 78.3496 96.3161V101.036H80.3976V96.2361C80.3976 93.8521 79.0056 92.6521 77.2616 92.6521C76.1896 92.6521 75.4376 93.0681 74.8776 93.6121V92.9721H72.8456V101.036Z" fill="#000091"/>
<g clip-path="url(#clip0)">
<path d="M57.8799 38.0361C61.7386 38.0361 64.8799 41.1775 64.8799 45.0361C64.8799 48.8948 61.7386 52.0361 57.8799 52.0361C54.0212 52.0361 50.8799 48.8948 50.8799 45.0361C50.8799 41.1775 54.0212 38.0361 57.8799 38.0361ZM57.8799 30.0361C49.5946 30.0361 42.8799 36.7508 42.8799 45.0361C42.8799 53.3215 49.5946 60.0361 57.8799 60.0361C66.1652 60.0361 72.8799 53.3215 72.8799 45.0361C72.8799 36.7508 66.1652 30.0361 57.8799 30.0361Z" fill="#00BE8C"/>
<path d="M57.8799 8.03613C61.7386 8.03613 64.8799 11.1775 64.8799 15.0361C64.8799 18.8948 61.7386 22.0361 57.8799 22.0361C54.0212 22.0361 50.8799 18.8948 50.8799 15.0361C50.8799 11.1775 54.0212 8.03613 57.8799 8.03613ZM57.8799 0.0361328C49.5946 0.0361328 42.8799 6.7508 42.8799 15.0361C42.8799 23.3215 49.5946 30.0361 57.8799 30.0361C66.1652 30.0361 72.8799 23.3215 72.8799 15.0361C72.8799 6.7508 66.1652 0.0361328 57.8799 0.0361328Z" fill="#FAD214"/>
<path opacity="0.6" d="M62.8264 19.9829C61.5597 21.2496 59.8077 22.0362 57.8797 22.0362C55.9491 22.0362 54.1997 21.2522 52.9331 19.9829L47.2744 25.6416C49.9891 28.3562 53.7384 30.0362 57.8797 30.0362C62.0211 30.0362 65.7731 28.3562 68.4851 25.6416L62.8264 19.9829Z" fill="url(#paint0_linear)"/>
<path opacity="0.6" d="M52.9331 40.0895C54.1997 38.8228 55.9517 38.0361 57.8797 38.0361C59.8104 38.0361 61.5597 38.8201 62.8264 40.0895L68.4851 34.4308C65.7704 31.7161 62.0211 30.0361 57.8797 30.0361C53.7384 30.0361 49.9864 31.7161 47.2744 34.4308L52.9331 40.0895Z" fill="url(#paint1_linear)"/>
<path d="M27.8799 38.0361C31.7386 38.0361 34.8799 41.1775 34.8799 45.0361C34.8799 48.8948 31.7386 52.0361 27.8799 52.0361C24.0212 52.0361 20.8799 48.8948 20.8799 45.0361C20.8799 41.1775 24.0212 38.0361 27.8799 38.0361ZM27.8799 30.0361C19.5946 30.0361 12.8799 36.7508 12.8799 45.0361C12.8799 53.3215 19.5946 60.0361 27.8799 60.0361C36.1652 60.0361 42.8799 53.3215 42.8799 45.0361C42.8799 36.7508 36.1652 30.0361 27.8799 30.0361Z" fill="#646EFA"/>
<path d="M27.8799 8.03613C31.7386 8.03613 34.8799 11.1775 34.8799 15.0361C34.8799 18.8948 31.7386 22.0361 27.8799 22.0361C24.0212 22.0361 20.8799 18.8948 20.8799 15.0361C20.8799 11.1775 24.0212 8.03613 27.8799 8.03613ZM27.8799 0.0361328C19.5946 0.0361328 12.8799 6.7508 12.8799 15.0361C12.8799 23.3215 19.5946 30.0361 27.8799 30.0361C36.1652 30.0361 42.8799 23.3215 42.8799 15.0361C42.8799 6.7508 36.1652 0.0361328 27.8799 0.0361328Z" fill="#FFA07D"/>
<path opacity="0.6" d="M32.8262 10.0896C34.0928 11.3562 34.8795 13.1082 34.8795 15.0362C34.8795 16.9669 34.0955 18.7162 32.8262 19.9829L38.4848 25.6416C41.1995 22.9269 42.8795 19.1776 42.8795 15.0362C42.8795 10.8949 41.1995 7.14291 38.4848 4.43091L32.8262 10.0896Z" fill="url(#paint2_linear)"/>
<path opacity="0.6" d="M52.9332 19.9829C51.6665 18.7162 50.8799 16.9642 50.8799 15.0362C50.8799 13.1056 51.6639 11.3562 52.9332 10.0896L47.2745 4.43091C44.5599 7.14291 42.8799 10.8949 42.8799 15.0362C42.8799 19.1776 44.5599 22.9296 47.2745 25.6416L52.9332 19.9829Z" fill="url(#paint3_linear)"/>
<path opacity="0.6" d="M32.8262 40.0896C34.0928 41.3562 34.8795 43.1082 34.8795 45.0362C34.8795 46.9669 34.0955 48.7162 32.8262 49.9829L38.4848 55.6416C41.1995 52.9269 42.8795 49.1776 42.8795 45.0362C42.8795 40.8949 41.1995 37.1429 38.4848 34.4309L32.8262 40.0896Z" fill="url(#paint4_linear)"/>
<path opacity="0.6" d="M52.9332 49.9829C51.6665 48.7162 50.8799 46.9642 50.8799 45.0362C50.8799 43.1056 51.6639 41.3562 52.9332 40.0896L47.2745 34.4309C44.5599 37.1456 42.8799 40.8949 42.8799 45.0362C42.8799 49.1776 44.5599 52.9296 47.2745 55.6416L52.9332 49.9829Z" fill="url(#paint5_linear)"/>
<path opacity="0.6" d="M32.8264 19.9829C31.5598 21.2496 29.8078 22.0362 27.8798 22.0362C25.9491 22.0362 24.1997 21.2522 22.9331 19.9829L17.2744 25.6416C19.9891 28.3562 23.7384 30.0362 27.8798 30.0362C32.0211 30.0362 35.7731 28.3562 38.4851 25.6416L32.8264 19.9829Z" fill="url(#paint6_linear)"/>
<path opacity="0.6" d="M22.9331 40.0895C24.1997 38.8228 25.9517 38.0361 27.8798 38.0361C29.8104 38.0361 31.5598 38.8201 32.8264 40.0895L38.4851 34.4308C35.7731 31.7161 32.0211 30.0361 27.8798 30.0361C23.7384 30.0361 19.9864 31.7161 17.2744 34.4308L22.9331 40.0895Z" fill="url(#paint7_linear)"/>
<path d="M35.3652 40.9747C34.3918 40.9747 33.4185 40.6227 32.6478 39.9081L17.6745 26.0334C16.0532 24.5321 15.9572 22.0014 17.4585 20.3801C18.9598 18.7587 21.4905 18.6627 23.1118 20.1641L38.0852 34.0387C39.7065 35.5401 39.8025 38.0707 38.3012 39.6921C37.5118 40.5427 36.4398 40.9747 35.3652 40.9747Z" fill="url(#paint8_linear)"/>
<path d="M35.9416 26.5241C34.9683 26.5241 33.995 26.1721 33.2243 25.4574C31.603 23.9561 31.507 21.4254 33.0083 19.8041L46.883 4.83075C48.3843 3.20942 50.915 3.11342 52.5363 4.61475C54.1576 6.11608 54.2536 8.64675 52.7523 10.2681L38.8776 25.2414C38.0883 26.0921 37.0163 26.5241 35.9416 26.5241Z" fill="url(#paint9_linear)"/>
<path d="M35.9416 56.5241C34.9683 56.5241 33.995 56.1721 33.2243 55.4574C31.603 53.9561 31.507 51.4254 33.0083 49.8041L46.883 34.8307C48.3843 33.2094 50.915 33.1134 52.5363 34.6148C54.1576 36.1161 54.2536 38.6468 52.7523 40.2681L38.8776 55.2414C38.0883 56.0921 37.0163 56.5241 35.9416 56.5241Z" fill="url(#paint10_linear)"/>
<path d="M65.3651 40.9747C64.3918 40.9747 63.4185 40.6227 62.6478 39.9081L47.6745 26.0334C46.0532 24.5321 45.9572 22.0014 47.4585 20.3801C48.9598 18.7587 51.4905 18.6627 53.1118 20.1641L68.0851 34.0387C69.7065 35.5401 69.8025 38.0707 68.3011 39.6921C67.5118 40.5427 66.4398 40.9747 65.3651 40.9747Z" fill="url(#paint11_linear)"/>
</g>
<defs>
<linearGradient id="paint0_linear" x1="47.2731" y1="25.0099" x2="68.4863" y2="25.0099" gradientUnits="userSpaceOnUse">
<stop offset="0.2" stop-color="#FF963C"/>
<stop offset="0.8" stop-color="#FF963C" stop-opacity="0"/>
</linearGradient>
<linearGradient id="paint1_linear" x1="68.4864" y1="35.0624" x2="47.2732" y2="35.0624" gradientUnits="userSpaceOnUse">
<stop stop-color="#149B64"/>
<stop offset="0.7" stop-color="#149B64" stop-opacity="0"/>
</linearGradient>
<linearGradient id="paint2_linear" x1="37.8532" y1="25.6429" x2="37.8532" y2="4.42968" gradientUnits="userSpaceOnUse">
<stop offset="0.2" stop-color="#FF8C7D"/>
<stop offset="0.8" stop-color="#FF8C7D" stop-opacity="0"/>
</linearGradient>
<linearGradient id="paint3_linear" x1="47.9062" y1="4.4296" x2="47.9062" y2="25.6428" gradientUnits="userSpaceOnUse">
<stop stop-color="#FF963C"/>
<stop offset="0.7" stop-color="#FF963C" stop-opacity="0"/>
</linearGradient>
<linearGradient id="paint4_linear" x1="37.8532" y1="55.6429" x2="37.8532" y2="34.4297" gradientUnits="userSpaceOnUse">
<stop stop-color="#646EFA"/>
<stop offset="0.7009" stop-color="#646EFA" stop-opacity="0"/>
</linearGradient>
<linearGradient id="paint5_linear" x1="47.9062" y1="34.4296" x2="47.9062" y2="55.6428" gradientUnits="userSpaceOnUse">
<stop offset="0.2" stop-color="#149B64"/>
<stop offset="0.8" stop-color="#149B64" stop-opacity="0"/>
</linearGradient>
<linearGradient id="paint6_linear" x1="17.2731" y1="25.0099" x2="38.4863" y2="25.0099" gradientUnits="userSpaceOnUse">
<stop offset="0.2" stop-color="#FF8C7D"/>
<stop offset="0.7" stop-color="#FF8C7D" stop-opacity="0"/>
</linearGradient>
<linearGradient id="paint7_linear" x1="38.4864" y1="35.0624" x2="17.2732" y2="35.0624" gradientUnits="userSpaceOnUse">
<stop offset="0.2" stop-color="#646EFA"/>
<stop offset="0.8" stop-color="#646EFA" stop-opacity="0"/>
</linearGradient>
<linearGradient id="paint8_linear" x1="37.9205" y1="40.0768" x2="17.8392" y2="19.9954" gradientUnits="userSpaceOnUse">
<stop offset="0.2" stop-color="#646EFA"/>
<stop offset="0.8" stop-color="#FFA07D"/>
</linearGradient>
<linearGradient id="paint9_linear" x1="52.921" y1="4.99547" x2="32.8397" y2="25.0767" gradientUnits="userSpaceOnUse">
<stop offset="0.2" stop-color="#FAD214"/>
<stop offset="0.8" stop-color="#FFA07D"/>
</linearGradient>
<linearGradient id="paint10_linear" x1="52.921" y1="34.9955" x2="32.8397" y2="55.0767" gradientUnits="userSpaceOnUse">
<stop offset="0.2" stop-color="#00BE8C"/>
<stop offset="0.8" stop-color="#646EFA"/>
</linearGradient>
<linearGradient id="paint11_linear" x1="67.9205" y1="40.0768" x2="47.8391" y2="19.9954" gradientUnits="userSpaceOnUse">
<stop offset="0.2" stop-color="#00BE8C"/>
<stop offset="0.8" stop-color="#FAD214"/>
</linearGradient>
<clipPath id="clip0">
<rect width="60" height="60" fill="white" transform="translate(12.8799 0.0361328)"/>
</clipPath>
</defs>
</svg>
