<svg width="259" height="225" viewBox="0 0 259 225" fill="none" xmlns="http://www.w3.org/2000/svg">
<rect width="259" height="225" fill="white"/>
<path d="M95.976 142H98.816V132.04L101.936 137.2H103.936L107.056 132.04V142H109.896V128H106.316L102.936 133.76L99.556 128H95.976V142ZM114.743 130.16C115.643 130.16 116.383 129.4 116.383 128.5C116.383 127.6 115.643 126.84 114.743 126.84C113.843 126.84 113.083 127.6 113.083 128.5C113.083 129.4 113.843 130.16 114.743 130.16ZM113.463 142H116.003V131.92H113.463V142ZM118.033 140.54C118.993 141.68 120.273 142.4 122.073 142.4C123.973 142.4 125.673 141.24 125.713 139.12C125.713 135.54 121.013 136.24 121.013 134.52C121.013 133.96 121.413 133.6 122.173 133.6C122.973 133.6 123.633 134.1 124.153 134.76L125.853 133.24C125.113 132.26 123.713 131.52 122.153 131.52C120.073 131.52 118.573 132.84 118.573 134.62C118.573 138.26 123.273 137.52 123.273 139.28C123.273 139.88 122.833 140.32 122.033 140.32C121.073 140.32 120.333 139.76 119.713 138.98L118.033 140.54ZM127.036 140.54C127.996 141.68 129.276 142.4 131.076 142.4C132.976 142.4 134.676 141.24 134.716 139.12C134.716 135.54 130.016 136.24 130.016 134.52C130.016 133.96 130.416 133.6 131.176 133.6C131.976 133.6 132.636 134.1 133.156 134.76L134.856 133.24C134.116 132.26 132.716 131.52 131.156 131.52C129.076 131.52 127.576 132.84 127.576 134.62C127.576 138.26 132.276 137.52 132.276 139.28C132.276 139.88 131.836 140.32 131.036 140.32C130.076 140.32 129.336 139.76 128.716 138.98L127.036 140.54ZM138.337 130.16C139.237 130.16 139.977 129.4 139.977 128.5C139.977 127.6 139.237 126.84 138.337 126.84C137.437 126.84 136.677 127.6 136.677 128.5C136.677 129.4 137.437 130.16 138.337 130.16ZM137.057 142H139.597V131.92H137.057V142ZM147.443 131.52C144.163 131.52 141.923 133.94 141.923 136.96C141.923 139.98 144.163 142.4 147.443 142.4C150.723 142.4 152.963 139.98 152.963 136.96C152.963 133.94 150.723 131.52 147.443 131.52ZM147.483 140C145.803 140 144.563 138.72 144.563 136.96C144.563 135.2 145.803 133.92 147.483 133.92C149.103 133.92 150.323 135.2 150.323 136.96C150.323 138.7 149.103 140 147.483 140ZM155.28 142H157.82V135.42C158.2 134.78 158.88 133.92 160.16 133.92C161.4 133.92 162.14 134.76 162.14 136.1V142H164.72V136C164.72 133.02 162.98 131.52 160.8 131.52C159.46 131.52 158.52 132.04 157.82 132.72V131.92H155.28V142ZM26.538 154.58H30.858V166H33.698V154.58H38.018V152H26.538V154.58ZM38.8638 166H41.4038V159.68C41.7838 159.06 42.5838 158.38 43.8238 158.38C44.2838 158.38 44.6238 158.44 44.9438 158.52V155.86C44.7038 155.78 44.4038 155.72 44.0638 155.72C42.9238 155.72 42.0638 156.24 41.4038 156.92V155.92H38.8638V166ZM49.3805 166.4C50.5605 166.4 51.7405 165.86 52.3805 165.06V166H54.9405V159.48C54.9405 157.26 53.4405 155.52 50.5205 155.52C48.7005 155.52 47.2005 156.28 46.3005 157.52L48.1805 158.94C48.6405 158.16 49.4605 157.74 50.4405 157.74C51.5805 157.74 52.3805 158.42 52.3805 159.48V159.74L49.3405 160.26C47.1605 160.62 45.9805 161.8 45.9805 163.34C45.9805 165.24 47.3605 166.4 49.3805 166.4ZM48.5005 163.24C48.5005 162.6 48.9205 162.16 50.0005 161.98L52.3805 161.56V162.94C51.8605 163.76 51.0405 164.36 49.9005 164.36C49.0405 164.36 48.5005 163.88 48.5005 163.24ZM57.8481 166H60.3881V159.42C60.7681 158.78 61.4481 157.92 62.7281 157.92C63.9681 157.92 64.7081 158.76 64.7081 160.1V166H67.2881V160C67.2881 157.02 65.5481 155.52 63.3681 155.52C62.0281 155.52 61.0881 156.04 60.3881 156.72V155.92H57.8481V166ZM69.2923 164.54C70.2523 165.68 71.5323 166.4 73.3323 166.4C75.2323 166.4 76.9323 165.24 76.9723 163.12C76.9723 159.54 72.2723 160.24 72.2723 158.52C72.2723 157.96 72.6723 157.6 73.4323 157.6C74.2323 157.6 74.8923 158.1 75.4123 158.76L77.1123 157.24C76.3723 156.26 74.9723 155.52 73.4123 155.52C71.3323 155.52 69.8323 156.84 69.8323 158.62C69.8323 162.26 74.5323 161.52 74.5323 163.28C74.5323 163.88 74.0923 164.32 73.2923 164.32C72.3323 164.32 71.5923 163.76 70.9723 162.98L69.2923 164.54ZM80.593 154.16C81.493 154.16 82.233 153.4 82.233 152.5C82.233 151.6 81.493 150.84 80.593 150.84C79.693 150.84 78.933 151.6 78.933 152.5C78.933 153.4 79.693 154.16 80.593 154.16ZM79.313 166H81.853V155.92H79.313V166ZM85.5389 162.32C85.5389 164.78 86.7389 166.2 89.2589 166.2C90.0989 166.2 90.6989 166.1 91.1989 165.88V163.66C90.8589 163.8 90.3989 163.88 89.6989 163.88C88.6989 163.88 88.0989 163.44 88.0989 162.32V158.24H91.1789V155.92H88.0989V153.4H85.5389V155.92H83.6589V158.24H85.5389V162.32ZM94.7336 154.16C95.6336 154.16 96.3736 153.4 96.3736 152.5C96.3736 151.6 95.6336 150.84 94.7336 150.84C93.8336 150.84 93.0736 151.6 93.0736 152.5C93.0736 153.4 93.8336 154.16 94.7336 154.16ZM93.4536 166H95.9936V155.92H93.4536V166ZM103.84 155.52C100.56 155.52 98.3195 157.94 98.3195 160.96C98.3195 163.98 100.56 166.4 103.84 166.4C107.12 166.4 109.36 163.98 109.36 160.96C109.36 157.94 107.12 155.52 103.84 155.52ZM103.88 164C102.2 164 100.96 162.72 100.96 160.96C100.96 159.2 102.2 157.92 103.88 157.92C105.5 157.92 106.72 159.2 106.72 160.96C106.72 162.7 105.5 164 103.88 164ZM111.676 166H114.216V159.42C114.596 158.78 115.276 157.92 116.556 157.92C117.796 157.92 118.536 158.76 118.536 160.1V166H121.116V160C121.116 157.02 119.376 155.52 117.196 155.52C115.856 155.52 114.916 156.04 114.216 156.72V155.92H111.676V166ZM129.931 166H138.091V163.58H132.771V160.08H137.291V157.66H132.771V154.42H138.091V152H129.931V166ZM145.696 164C143.996 164 142.776 162.74 142.776 160.96C142.776 159.2 143.996 157.92 145.656 157.92C146.696 157.92 147.456 158.4 147.936 159.1L149.956 157.56C149.016 156.32 147.536 155.52 145.696 155.52C142.216 155.52 140.136 158.02 140.136 160.96C140.136 163.9 142.216 166.4 145.696 166.4C147.536 166.4 149.016 165.6 149.956 164.36L147.936 162.82C147.456 163.52 146.676 164 145.696 164ZM156.261 155.52C152.981 155.52 150.741 157.94 150.741 160.96C150.741 163.98 152.981 166.4 156.261 166.4C159.541 166.4 161.781 163.98 161.781 160.96C161.781 157.94 159.541 155.52 156.261 155.52ZM156.301 164C154.621 164 153.381 162.72 153.381 160.96C153.381 159.2 154.621 157.92 156.301 157.92C157.921 157.92 159.141 159.2 159.141 160.96C159.141 162.7 157.921 164 156.301 164ZM164.098 166H166.638V151H164.098V166ZM174.484 155.52C171.204 155.52 168.964 157.94 168.964 160.96C168.964 163.98 171.204 166.4 174.484 166.4C177.764 166.4 180.004 163.98 180.004 160.96C180.004 157.94 177.764 155.52 174.484 155.52ZM174.524 164C172.844 164 171.604 162.72 171.604 160.96C171.604 159.2 172.844 157.92 174.524 157.92C176.144 157.92 177.364 159.2 177.364 160.96C177.364 162.7 176.144 164 174.524 164ZM181.184 167.76C181.184 169.88 183.084 171 186.304 171C189.564 171 191.584 169.34 191.584 167.04C191.584 165.16 190.204 163.8 187.664 163.8H185.124C184.664 163.8 184.444 163.6 184.444 163.2C184.444 162.98 184.564 162.76 184.784 162.56C185.084 162.62 185.404 162.64 185.744 162.64C188.344 162.64 189.824 161.04 189.824 159.06C189.824 158.72 189.784 158.4 189.684 158.08H191.464V155.92H187.784C187.204 155.66 186.524 155.52 185.744 155.52C183.224 155.52 181.704 157.1 181.704 159.06C181.704 160.18 182.184 161.18 183.064 161.84C182.304 162.4 181.964 163.04 181.964 163.84C181.964 164.36 182.184 164.9 182.584 165.32C181.684 165.96 181.184 166.76 181.184 167.76ZM185.784 160.72C184.684 160.72 184.024 160.06 184.024 159.06C184.024 158.08 184.684 157.42 185.784 157.42C186.844 157.42 187.524 158.06 187.524 159.06C187.524 160.06 186.844 160.72 185.784 160.72ZM183.584 167.4C183.584 166.76 183.904 166.32 184.504 165.98H187.384C188.604 165.98 189.064 166.52 189.064 167.28C189.064 168.28 188.124 168.96 186.284 168.96C184.504 168.96 183.584 168.36 183.584 167.4ZM194.577 154.16C195.477 154.16 196.217 153.4 196.217 152.5C196.217 151.6 195.477 150.84 194.577 150.84C193.677 150.84 192.917 151.6 192.917 152.5C192.917 153.4 193.677 154.16 194.577 154.16ZM193.297 166H195.837V155.92H193.297V166ZM198.163 160.96C198.163 163.9 200.083 166.4 203.283 166.4C204.603 166.4 205.603 166 206.403 165.28V170.92H208.963V155.92H206.403V156.64C205.603 155.92 204.603 155.52 203.283 155.52C200.083 155.52 198.163 158.02 198.163 160.96ZM200.803 160.96C200.803 159.2 201.903 157.92 203.623 157.92C204.803 157.92 205.723 158.44 206.403 159.44V162.48C205.723 163.48 204.803 164 203.623 164C201.903 164 200.803 162.72 200.803 160.96ZM218.648 161.64C218.648 163.1 217.888 164 216.508 164C215.108 164 214.348 163.1 214.348 161.64V155.92H211.788V161.52C211.788 164.54 213.528 166.4 216.488 166.4C219.448 166.4 221.208 164.54 221.208 161.52V155.92H218.648V161.64ZM233.3 164.36L231.48 162.92C230.94 163.64 230.04 164.12 228.94 164.12C227.22 164.12 226.06 163.14 225.9 161.48H232.96C233.04 161.14 233.12 160.6 233.12 160.04C233.12 157.4 231.28 155.52 228.48 155.52C225.18 155.52 223.3 157.98 223.3 160.96C223.3 163.9 225.32 166.4 228.9 166.4C230.8 166.4 232.36 165.62 233.3 164.36ZM228.48 157.64C229.82 157.64 230.56 158.56 230.6 159.56H226.06C226.4 158.24 227.24 157.64 228.48 157.64Z" fill="#161616"/>
<path d="M151 77.6667C156.145 77.6667 160.333 81.8551 160.333 87C160.333 92.1449 156.145 96.3333 151 96.3333C145.855 96.3333 141.667 92.1449 141.667 87C141.667 81.8551 145.855 77.6667 151 77.6667ZM151 67C139.953 67 131 75.9529 131 87C131 98.0471 139.953 107 151 107C162.047 107 171 98.0471 171 87C171 75.9529 162.047 67 151 67Z" fill="#00BE8C"/>
<path d="M151 37.6667C156.145 37.6667 160.333 41.8551 160.333 47C160.333 52.1449 156.145 56.3333 151 56.3333C145.855 56.3333 141.667 52.1449 141.667 47C141.667 41.8551 145.855 37.6667 151 37.6667ZM151 27C139.953 27 131 35.9529 131 47C131 58.0471 139.953 67 151 67C162.047 67 171 58.0471 171 47C171 35.9529 162.047 27 151 27Z" fill="#FAD214"/>
<path opacity="0.6" d="M157.595 53.5957C155.906 55.2846 153.57 56.3335 151 56.3335C148.426 56.3335 146.093 55.2881 144.404 53.5957L136.859 61.1406C140.479 64.7601 145.478 67.0001 151 67.0001C156.522 67.0001 161.524 64.7601 165.14 61.1406L157.595 53.5957Z" fill="url(#paint0_linear_2397_70527)"/>
<path opacity="0.6" d="M144.404 80.4044C146.093 78.7156 148.429 77.6667 151 77.6667C153.574 77.6667 155.906 78.712 157.595 80.4044L165.14 72.8596C161.521 69.24 156.522 67 151 67C145.478 67 140.475 69.24 136.859 72.8596L144.404 80.4044Z" fill="url(#paint1_linear_2397_70527)"/>
<path d="M111 77.6667C116.145 77.6667 120.333 81.8551 120.333 87C120.333 92.1449 116.145 96.3333 111 96.3333C105.855 96.3333 101.667 92.1449 101.667 87C101.667 81.8551 105.855 77.6667 111 77.6667ZM111 67C99.9529 67 91 75.9529 91 87C91 98.0471 99.9529 107 111 107C122.047 107 131 98.0471 131 87C131 75.9529 122.047 67 111 67Z" fill="#646EFA"/>
<path d="M111 37.6667C116.145 37.6667 120.333 41.8551 120.333 47C120.333 52.1449 116.145 56.3333 111 56.3333C105.855 56.3333 101.667 52.1449 101.667 47C101.667 41.8551 105.855 37.6667 111 37.6667ZM111 27C99.9529 27 91 35.9529 91 47C91 58.0471 99.9529 67 111 67C122.047 67 131 58.0471 131 47C131 35.9529 122.047 27 111 27Z" fill="#FFA07D"/>
<path opacity="0.6" d="M117.594 40.4043C119.283 42.0932 120.332 44.4292 120.332 46.9998C120.332 49.574 119.286 51.9065 117.594 53.5954L125.139 61.1403C128.758 57.5207 130.998 52.5216 130.998 46.9998C130.998 41.478 128.758 36.4754 125.139 32.8594L117.594 40.4043Z" fill="url(#paint2_linear_2397_70527)"/>
<path opacity="0.6" d="M144.404 53.5954C142.716 51.9065 141.667 49.5705 141.667 46.9998C141.667 44.4256 142.712 42.0932 144.404 40.4043L136.86 32.8594C133.24 36.4754 131 41.478 131 46.9998C131 52.5216 133.24 57.5243 136.86 61.1403L144.404 53.5954Z" fill="url(#paint3_linear_2397_70527)"/>
<path opacity="0.6" d="M117.594 80.4043C119.283 82.0931 120.332 84.4291 120.332 86.9998C120.332 89.574 119.286 91.9065 117.594 93.5954L125.139 101.14C128.758 97.5207 130.998 92.5216 130.998 86.9998C130.998 81.478 128.758 76.4754 125.139 72.8594L117.594 80.4043Z" fill="url(#paint4_linear_2397_70527)"/>
<path opacity="0.6" d="M144.404 93.5954C142.716 91.9065 141.667 89.5705 141.667 86.9998C141.667 84.4256 142.712 82.0931 144.404 80.4043L136.86 72.8594C133.24 76.4789 131 81.478 131 86.9998C131 92.5216 133.24 97.5243 136.86 101.14L144.404 93.5954Z" fill="url(#paint5_linear_2397_70527)"/>
<path opacity="0.6" d="M117.595 53.5957C115.906 55.2846 113.57 56.3335 111 56.3335C108.426 56.3335 106.093 55.2881 104.404 53.5957L96.8594 61.1406C100.479 64.7601 105.478 67.0001 111 67.0001C116.522 67.0001 121.524 64.7601 125.14 61.1406L117.595 53.5957Z" fill="url(#paint6_linear_2397_70527)"/>
<path opacity="0.6" d="M104.404 80.4044C106.093 78.7156 108.429 77.6667 111 77.6667C113.574 77.6667 115.906 78.712 117.595 80.4044L125.14 72.8596C121.524 69.24 116.522 67 111 67C105.478 67 100.475 69.24 96.8594 72.8596L104.404 80.4044Z" fill="url(#paint7_linear_2397_70527)"/>
<path d="M120.98 81.5848C119.683 81.5848 118.385 81.1155 117.357 80.1626L97.3928 61.663C95.231 59.6612 95.103 56.287 97.1048 54.1252C99.1066 51.9635 102.481 51.8355 104.643 53.8372L124.607 72.3368C126.769 74.3386 126.897 77.7128 124.895 79.8746C123.843 81.0088 122.413 81.5848 120.98 81.5848Z" fill="url(#paint8_linear_2397_70527)"/>
<path d="M121.75 62.3173C120.453 62.3173 119.155 61.8479 118.127 60.895C115.965 58.8933 115.837 55.519 117.839 53.3573L136.339 33.3928C138.341 31.231 141.715 31.103 143.877 33.1048C146.038 35.1066 146.166 38.4808 144.165 40.6426L125.665 60.607C124.613 61.7413 123.183 62.3173 121.75 62.3173Z" fill="url(#paint9_linear_2397_70527)"/>
<path d="M121.75 102.317C120.453 102.317 119.155 101.848 118.127 100.895C115.965 98.8933 115.837 95.5191 117.839 93.3573L136.339 73.3928C138.341 71.231 141.715 71.103 143.877 73.1048C146.038 75.1066 146.166 78.4808 144.165 80.6426L125.665 100.607C124.613 101.741 123.183 102.317 121.75 102.317Z" fill="url(#paint10_linear_2397_70527)"/>
<path d="M160.98 81.5848C159.683 81.5848 158.385 81.1155 157.357 80.1626L137.393 61.663C135.231 59.6612 135.103 56.287 137.105 54.1252C139.107 51.9635 142.481 51.8355 144.643 53.8372L164.607 72.3368C166.769 74.3386 166.897 77.7128 164.895 79.8746C163.843 81.0088 162.413 81.5848 160.98 81.5848Z" fill="url(#paint11_linear_2397_70527)"/>
<defs>
<linearGradient id="paint0_linear_2397_70527" x1="136.858" y1="60.2984" x2="165.142" y2="60.2984" gradientUnits="userSpaceOnUse">
<stop offset="0.2" stop-color="#FF963C"/>
<stop offset="0.8" stop-color="#FF963C" stop-opacity="0"/>
</linearGradient>
<linearGradient id="paint1_linear_2397_70527" x1="165.142" y1="73.7017" x2="136.858" y2="73.7017" gradientUnits="userSpaceOnUse">
<stop stop-color="#149B64"/>
<stop offset="0.7" stop-color="#149B64" stop-opacity="0"/>
</linearGradient>
<linearGradient id="paint2_linear_2397_70527" x1="124.296" y1="61.142" x2="124.296" y2="32.8577" gradientUnits="userSpaceOnUse">
<stop offset="0.2" stop-color="#FF8C7D"/>
<stop offset="0.8" stop-color="#FF8C7D" stop-opacity="0"/>
</linearGradient>
<linearGradient id="paint3_linear_2397_70527" x1="137.702" y1="32.8576" x2="137.702" y2="61.1419" gradientUnits="userSpaceOnUse">
<stop stop-color="#FF963C"/>
<stop offset="0.7" stop-color="#FF963C" stop-opacity="0"/>
</linearGradient>
<linearGradient id="paint4_linear_2397_70527" x1="124.296" y1="101.142" x2="124.296" y2="72.8578" gradientUnits="userSpaceOnUse">
<stop stop-color="#646EFA"/>
<stop offset="0.7009" stop-color="#646EFA" stop-opacity="0"/>
</linearGradient>
<linearGradient id="paint5_linear_2397_70527" x1="137.702" y1="72.8576" x2="137.702" y2="101.142" gradientUnits="userSpaceOnUse">
<stop offset="0.2" stop-color="#149B64"/>
<stop offset="0.8" stop-color="#149B64" stop-opacity="0"/>
</linearGradient>
<linearGradient id="paint6_linear_2397_70527" x1="96.8576" y1="60.2984" x2="125.142" y2="60.2984" gradientUnits="userSpaceOnUse">
<stop offset="0.2" stop-color="#FF8C7D"/>
<stop offset="0.7" stop-color="#FF8C7D" stop-opacity="0"/>
</linearGradient>
<linearGradient id="paint7_linear_2397_70527" x1="125.142" y1="73.7017" x2="96.8577" y2="73.7017" gradientUnits="userSpaceOnUse">
<stop offset="0.2" stop-color="#646EFA"/>
<stop offset="0.8" stop-color="#646EFA" stop-opacity="0"/>
</linearGradient>
<linearGradient id="paint8_linear_2397_70527" x1="124.388" y1="80.3875" x2="97.6124" y2="53.6124" gradientUnits="userSpaceOnUse">
<stop offset="0.2" stop-color="#646EFA"/>
<stop offset="0.8" stop-color="#FFA07D"/>
</linearGradient>
<linearGradient id="paint9_linear_2397_70527" x1="144.389" y1="33.6124" x2="117.614" y2="60.3875" gradientUnits="userSpaceOnUse">
<stop offset="0.2" stop-color="#FAD214"/>
<stop offset="0.8" stop-color="#FFA07D"/>
</linearGradient>
<linearGradient id="paint10_linear_2397_70527" x1="144.389" y1="73.6124" x2="117.614" y2="100.387" gradientUnits="userSpaceOnUse">
<stop offset="0.2" stop-color="#00BE8C"/>
<stop offset="0.8" stop-color="#646EFA"/>
</linearGradient>
<linearGradient id="paint11_linear_2397_70527" x1="164.388" y1="80.3875" x2="137.612" y2="53.6124" gradientUnits="userSpaceOnUse">
<stop offset="0.2" stop-color="#00BE8C"/>
<stop offset="0.8" stop-color="#FAD214"/>
</linearGradient>
</defs>
</svg>
