<svg width="55" height="54" viewBox="0 0 55 54" fill="none" xmlns="http://www.w3.org/2000/svg">
<path d="M3.68831 12.5316L2 16.9357C16.2338 21.1844 14.8571 38.4815 12.3896 46.5989C19.3506 45.1481 27.4978 49.1896 30.7013 51.3917C30.7013 43.2051 36.8485 43.9219 39.9221 45.3036C47.9221 48.7233 50.355 44.3968 50.5714 41.8062C41.2208 27.1948 47.6277 16.2017 52 12.5316C40.4675 10.3554 32.9957 4.19823 30.7013 1.39166H28.1039C26.6753 6.57301 21.6478 9.98523 15.3766 11.2362C8.88312 12.5316 4.51082 12.0566 3.68831 12.5316Z" stroke="#1EBE8E" stroke-width="2" stroke-linecap="round" stroke-dasharray="4 4"/>
<path fill-rule="evenodd" clip-rule="evenodd" d="M34.499 15.1417C34.499 17.2171 34.0276 19.1968 33.1848 20.9749H33.25L33 21.3499C32.5135 22.3005 31.9194 23.1893 31.2337 23.9993L20.7501 39.7249L10.3868 24.1801C9.6057 23.2853 8.93858 22.2884 8.40813 21.212L8.25001 20.9749H8.29406C7.46327 19.204 6.99902 17.2271 6.99902 15.1417C6.99902 7.54775 13.1551 1.39166 20.749 1.39166C28.3429 1.39166 34.499 7.54775 34.499 15.1417ZM20.7503 23.058C25.1225 23.058 28.667 19.5136 28.667 15.1414C28.667 10.7691 25.1225 7.22471 20.7503 7.22471C16.378 7.22471 12.8336 10.7691 12.8336 15.1414C12.8336 19.5136 16.378 23.058 20.7503 23.058Z" fill="#FACF35"/>
</svg>
