<svg width="181" height="181" viewBox="0 0 181 181" fill="none" xmlns="http://www.w3.org/2000/svg">
<ellipse opacity="0.03" cx="85.5631" cy="101.689" rx="50.4606" ry="49.2046" stroke="#2A3070" stroke-width="60"/>
<mask id="path-2-inside-1_2485_69272" fill="white">
<path fill-rule="evenodd" clip-rule="evenodd" d="M68.8528 133.603C89.5682 112.626 120.039 81.7708 120.039 53.0239C120.039 23.7396 96.6066 0 67.7016 0C38.7965 0 15.3643 23.7396 15.3643 53.0239C15.3643 81.7735 47.9425 114.761 66.6714 133.726C67.0197 134.078 67.3632 134.426 67.7016 134.769C68.0817 134.384 68.4655 133.995 68.8528 133.603ZM67.7016 82.6003C84.5629 82.6003 98.2317 68.9756 98.2317 52.1686C98.2317 35.3617 84.5629 21.7369 67.7016 21.7369C50.8403 21.7369 37.1715 35.3617 37.1715 52.1686C37.1715 68.9756 50.8403 82.6003 67.7016 82.6003Z"/>
</mask>
<path d="M68.8528 133.603L69.7778 134.516L69.7778 134.516L68.8528 133.603ZM66.6714 133.726L67.5964 132.812L67.5963 132.812L66.6714 133.726ZM67.7016 134.769L66.7764 135.682L67.7016 136.62L68.6268 135.682L67.7016 134.769ZM118.739 53.0239C118.739 66.9711 111.328 81.5896 101.166 95.4588C91.0241 109.298 78.2963 122.19 67.9278 132.69L69.7778 134.516C80.1248 124.039 92.9899 111.015 103.263 96.9956C113.514 83.0061 121.339 67.8235 121.339 53.0239H118.739ZM67.7016 1.3C95.8727 1.3 118.739 24.4415 118.739 53.0239H121.339C121.339 23.0376 97.3405 -1.3 67.7016 -1.3V1.3ZM16.6643 53.0239C16.6643 24.4415 39.5304 1.3 67.7016 1.3V-1.3C38.0626 -1.3 14.0643 23.0376 14.0643 53.0239H16.6643ZM67.5963 132.812C58.2239 123.322 45.4624 110.397 35.0406 96.2724C24.5877 82.1057 16.6643 66.9598 16.6643 53.0239H14.0643C14.0643 67.8375 22.4299 83.5604 32.9484 97.8161C43.4979 112.114 56.39 125.165 65.7464 134.639L67.5963 132.812ZM68.6268 133.856C68.2882 133.513 67.9446 133.165 67.5964 132.812L65.7464 134.639C66.0947 134.992 66.4381 135.34 66.7764 135.682L68.6268 133.856ZM67.9278 132.69C67.5406 133.082 67.1566 133.47 66.7763 133.856L68.6268 135.682C69.0068 135.297 69.3905 134.909 69.7778 134.516L67.9278 132.69ZM96.9317 52.1686C96.9317 68.2537 83.8489 81.3003 67.7016 81.3003V83.9003C85.2769 83.9003 99.5317 69.6975 99.5317 52.1686H96.9317ZM67.7016 23.0369C83.8489 23.0369 96.9317 36.0836 96.9317 52.1686H99.5317C99.5317 34.6397 85.2769 20.4369 67.7016 20.4369V23.0369ZM38.4715 52.1686C38.4715 36.0836 51.5543 23.0369 67.7016 23.0369V20.4369C50.1263 20.4369 35.8715 34.6397 35.8715 52.1686H38.4715ZM67.7016 81.3003C51.5543 81.3003 38.4715 68.2537 38.4715 52.1686H35.8715C35.8715 69.6975 50.1263 83.9003 67.7016 83.9003V81.3003Z" fill="#6672F8" mask="url(#path-2-inside-1_2485_69272)"/>
<mask id="path-4-inside-2_2485_69272" fill="white">
<path fill-rule="evenodd" clip-rule="evenodd" d="M153.661 130.317C164.725 119.114 181 102.634 181 87.2805C181 71.64 168.485 58.9609 153.047 58.9609C137.609 58.9609 125.094 71.64 125.094 87.2805C125.094 102.635 142.494 120.254 152.496 130.383C152.682 130.571 152.866 130.757 153.047 130.94C153.25 130.734 153.455 130.527 153.661 130.317ZM153.046 103.077C162.052 103.077 169.352 95.7999 169.352 86.8234C169.352 77.847 162.052 70.5701 153.046 70.5701C144.041 70.5701 136.741 77.847 136.741 86.8234C136.741 95.7999 144.041 103.077 153.046 103.077Z"/>
</mask>
<path fill-rule="evenodd" clip-rule="evenodd" d="M153.661 130.317C164.725 119.114 181 102.634 181 87.2805C181 71.64 168.485 58.9609 153.047 58.9609C137.609 58.9609 125.094 71.64 125.094 87.2805C125.094 102.635 142.494 120.254 152.496 130.383C152.682 130.571 152.866 130.757 153.047 130.94C153.25 130.734 153.455 130.527 153.661 130.317ZM153.046 103.077C162.052 103.077 169.352 95.7999 169.352 86.8234C169.352 77.847 162.052 70.5701 153.046 70.5701C144.041 70.5701 136.741 77.847 136.741 86.8234C136.741 95.7999 144.041 103.077 153.046 103.077Z" fill="#1EBE8E"/>
<path d="M153.661 130.317L154.373 131.02H154.373L153.661 130.317ZM152.496 130.383L151.785 131.085L151.785 131.085L152.496 130.383ZM153.047 130.94L152.335 131.642L153.047 132.363L153.758 131.642L153.047 130.94ZM180 87.2805C180 94.6294 176.09 102.371 170.673 109.764C165.272 117.134 158.49 124.004 152.95 129.614L154.373 131.02C159.897 125.426 166.784 118.455 172.286 110.946C177.772 103.46 182 95.2851 182 87.2805H180ZM153.047 59.9609C167.92 59.9609 180 72.18 180 87.2805H182C182 71.1001 169.049 57.9609 153.047 57.9609V59.9609ZM126.094 87.2805C126.094 72.18 138.173 59.9609 153.047 59.9609V57.9609C137.044 57.9609 124.094 71.1001 124.094 87.2805H126.094ZM153.208 129.68C148.2 124.609 141.4 117.721 135.849 110.198C130.274 102.642 126.094 94.6204 126.094 87.2805H124.094C124.094 95.2956 128.614 103.761 134.239 111.385C139.889 119.042 146.79 126.027 151.785 131.085L153.208 129.68ZM153.758 130.237C153.577 130.054 153.394 129.868 153.208 129.68L151.785 131.085C151.971 131.274 152.154 131.459 152.335 131.642L153.758 130.237ZM152.95 129.614C152.743 129.824 152.538 130.032 152.335 130.237L153.758 131.642C153.961 131.437 154.166 131.229 154.373 131.02L152.95 129.614ZM168.352 86.8234C168.352 95.2446 161.503 102.077 153.046 102.077V104.077C162.601 104.077 170.352 96.3552 170.352 86.8234H168.352ZM153.046 71.5701C161.503 71.5701 168.352 78.4023 168.352 86.8234H170.352C170.352 77.2917 162.601 69.5701 153.046 69.5701V71.5701ZM137.741 86.8234C137.741 78.4023 144.59 71.5701 153.046 71.5701V69.5701C143.492 69.5701 135.741 77.2917 135.741 86.8234H137.741ZM153.046 102.077C144.59 102.077 137.741 95.2446 137.741 86.8234H135.741C135.741 96.3552 143.492 104.077 153.046 104.077V102.077Z" fill="#1EBE8E" mask="url(#path-4-inside-2_2485_69272)"/>
<path d="M3.43962 46.2518C2.85917 43.7446 4.76304 41.3496 7.33655 41.3496H16.8951C18.7567 41.3496 20.3722 42.6338 20.7921 44.4474L25.9211 66.6016C26.5015 69.1088 24.5977 71.5038 22.0242 71.5038H12.4656C10.604 71.5038 8.98852 70.2196 8.56865 68.406L3.43962 46.2518Z" fill="#6672F8"/>
<path d="M6.18962 46.2518C5.60917 43.7446 7.51304 41.3496 10.0865 41.3496H19.6451C21.5067 41.3496 23.1222 42.6338 23.5421 44.4474L28.6711 66.6016C29.2515 69.1088 27.3477 71.5038 24.7742 71.5038H15.2156C13.354 71.5038 11.7385 70.2196 11.3186 68.406L6.18962 46.2518Z" fill="#2A3070"/>
<ellipse cx="20.1807" cy="67.3921" rx="1.37507" ry="1.37064" fill="#FACF35"/>
<path d="M131.696 93.3365C131.061 88.9044 127.265 85.6133 122.787 85.6133H58.9336C53.9631 85.6133 49.9336 89.6427 49.9336 94.6133V119.537C49.9336 124.507 53.9631 128.537 58.9336 128.537H126.359C131.838 128.537 136.046 123.683 135.268 118.26L131.696 93.3365Z" fill="#2A3070"/>
<path d="M111.89 128.643C111.89 131.749 114.416 134.269 117.536 134.269C120.656 134.269 123.182 131.749 123.182 128.643C123.182 125.538 120.656 123.018 117.536 123.018C114.416 123.018 111.89 125.538 111.89 128.643Z" fill="white" stroke="#2A3070"/>
<path d="M61.9567 128.643C61.9567 131.749 64.4828 134.269 67.6024 134.269C70.7219 134.269 73.248 131.749 73.248 128.643C73.248 125.538 70.7219 123.018 67.6024 123.018C64.4828 123.018 61.9567 125.538 61.9567 128.643Z" fill="white" stroke="#2A3070"/>
<path d="M131.547 92.4258H49.9343V110.14H134.076L131.547 92.4258Z" fill="#6672F8"/>
<line y1="-0.5" x2="17.7144" y2="-0.5" transform="matrix(4.37114e-08 1 1 -4.37114e-08 122.388 92.4258)" stroke="#2A3070"/>
<line y1="-0.5" x2="17.7144" y2="-0.5" transform="matrix(5.70844e-08 1 1 -3.34713e-08 100.515 92.4258)" stroke="#2A3070"/>
<line y1="-0.5" x2="17.7144" y2="-0.5" transform="matrix(5.70844e-08 1 1 -3.34713e-08 78.6426 92.4258)" stroke="#2A3070"/>
<line y1="-0.5" x2="17.7144" y2="-0.5" transform="matrix(5.70844e-08 1 1 -3.34713e-08 56.7695 92.4258)" stroke="#2A3070"/>
<ellipse rx="1.70881" ry="1.7033" transform="matrix(-1 0 0 1 53.6935 120.02)" fill="#6672F8"/>
<path fill-rule="evenodd" clip-rule="evenodd" d="M135.684 120.968C135.377 121.423 134.856 121.723 134.264 121.723C133.32 121.723 132.555 120.96 132.555 120.02C132.555 119.079 133.32 118.316 134.264 118.316C134.658 118.316 135.021 118.449 135.31 118.673L135.684 120.968Z" fill="#6672F8"/>
<path d="M56.7186 122.929C56.7186 129.168 51.6446 134.228 45.3811 134.228C39.1176 134.228 34.0436 129.168 34.0436 122.929C34.0436 116.691 39.1176 111.63 45.3811 111.63C51.6446 111.63 56.7186 116.691 56.7186 122.929Z" fill="#FACF35" stroke="#FACF35" stroke-width="1.3"/>
<path d="M23.3251 122.929C23.3251 129.168 18.2511 134.228 11.9875 134.228C5.72401 134.228 0.65 129.168 0.65 122.929C0.65 116.691 5.72401 111.63 11.9875 111.63C18.2511 111.63 23.3251 116.691 23.3251 122.929Z" fill="#FACF35" stroke="#FACF35" stroke-width="1.3"/>
<path d="M13.0017 122.704L20.0584 107.361H37.0376L29.1439 122.704H13.0017Z" stroke="#2A3070" stroke-width="1.3" stroke-linejoin="bevel"/>
<path d="M40.6715 103.299H35.748L45.3809 123.143" stroke="#2A3070" stroke-width="1.3" stroke-linecap="round"/>
<path d="M16.2686 100.311L29.3264 122.928" stroke="#2A3070" stroke-width="1.3"/>
<line x1="13.9215" y1="100.088" x2="19.0434" y2="100.088" stroke="#2A3070" stroke-width="1.3" stroke-linecap="round"/>
<ellipse cx="169.328" cy="130.626" rx="4.04708" ry="4.03406" fill="#FCA081"/>
<path d="M169.062 124.09C165.66 124.451 163.008 127.394 163.008 130.971H149.646" stroke="#2A3070" stroke-width="1.3"/>
<path d="M169.41 130.64L166.005 107.262L162.413 106.158" stroke="#2A3070" stroke-width="1.3"/>
<ellipse cx="149.238" cy="130.626" rx="4.04707" ry="4.03406" fill="#FCA081"/>
<path d="M18.0527 52.3576C78.3571 22.494 141.35 51.3031 153.257 85.3782" stroke="#6672F8" stroke-width="2" stroke-linecap="round" stroke-dasharray="1 5"/>
</svg>
