<svg width="824" height="457" viewBox="0 0 824 457" fill="none" xmlns="http://www.w3.org/2000/svg">
<path d="M228.213 201.413H247.113L252.813 184.913H277.613L283.313 201.413H302.213L276.813 131.413H253.613L228.213 201.413ZM258.013 169.913L265.213 149.313L272.413 169.913H258.013ZM349.255 175.013C349.255 182.213 345.155 186.713 337.855 186.713C330.455 186.713 326.355 182.213 326.355 175.013V131.413H308.555V173.313C308.555 191.913 319.355 203.413 337.755 203.413C356.255 203.413 367.055 191.913 367.055 173.313V131.413H349.255V175.013ZM416.958 186.713C405.758 186.713 397.758 178.213 397.758 166.413C397.758 154.713 405.758 146.113 416.958 146.113C423.958 146.113 429.258 149.513 432.558 154.313L446.658 143.513C440.158 135.013 429.758 129.413 416.958 129.413C394.658 129.413 379.458 146.413 379.458 166.413C379.458 186.413 394.658 203.413 416.958 203.413C429.758 203.413 440.158 197.813 446.658 189.213L432.558 178.513C429.258 183.313 423.858 186.713 416.958 186.713ZM496.814 175.013C496.814 182.213 492.714 186.713 485.414 186.713C478.014 186.713 473.914 182.213 473.914 175.013V131.413H456.114V173.313C456.114 191.913 466.914 203.413 485.314 203.413C503.814 203.413 514.614 191.913 514.614 173.313V131.413H496.814V175.013ZM532.04 201.413H549.84V158.213L574.94 201.413H597.54V131.413H579.74V174.613L554.64 131.413H532.04V201.413ZM177.157 327.413H194.957V300.913H199.157L216.557 327.413H237.857L216.357 297.613C223.257 294.013 227.157 287.713 227.157 279.213C227.157 265.513 217.057 257.413 200.657 257.413H177.157V327.413ZM201.757 272.513C206.257 272.513 208.857 275.013 208.857 279.013C208.857 283.313 206.257 285.813 201.757 285.813H194.957V272.513H201.757ZM246.2 327.413H289.4V312.313H264V299.313H285.4V284.213H264V272.513H289.4V257.413H246.2V327.413ZM298.866 317.613C305.266 324.913 313.366 329.413 326.266 329.413C339.466 329.413 350.466 321.413 350.666 307.413C350.666 282.913 319.466 286.413 319.466 276.013C319.466 273.113 321.966 270.913 325.566 270.913C330.266 270.913 334.666 274.413 338.766 279.213L351.666 267.413C345.166 260.213 336.566 255.413 325.466 255.413C311.266 255.413 301.466 265.113 301.466 276.813C301.466 300.813 332.666 297.313 332.666 308.013C332.666 312.013 330.166 313.813 326.066 313.813C320.966 313.813 315.466 310.613 311.766 305.713L298.866 317.613ZM403.455 301.013C403.455 308.213 399.355 312.713 392.055 312.713C384.655 312.713 380.555 308.213 380.555 301.013V257.413H362.755V299.313C362.755 317.913 373.555 329.413 391.955 329.413C410.455 329.413 421.255 317.913 421.255 299.313V257.413H403.455V301.013ZM438.68 327.413H481.88V311.313H456.48V257.413H438.68V327.413ZM480.511 273.513H500.911V327.413H518.711V273.513H539.111V257.413H480.511V273.513ZM535.538 327.413H554.438L560.138 310.913H584.938L590.638 327.413H609.538L584.138 257.413H560.938L535.538 327.413ZM565.338 295.913L572.538 275.313L579.738 295.913H565.338ZM605.902 273.513H626.302V327.413H644.102V273.513H664.502V257.413H605.902V273.513Z" fill="#282D73"/>
<path d="M728.626 168.744C728.37 165.822 730.673 163.308 733.607 163.308H806.722C809.314 163.308 811.477 165.29 811.702 167.872L820.277 265.908C820.533 268.83 818.229 271.344 815.296 271.344H742.181C739.589 271.344 737.426 269.362 737.2 266.78L728.626 168.744Z" fill="#2A3070"/>
<path d="M731.338 168.749C731.079 165.825 733.383 163.308 736.318 163.308H809.432C812.022 163.308 814.184 165.286 814.412 167.867L822.975 264.499C823.235 267.424 820.931 269.941 817.995 269.941H744.881C742.291 269.941 740.129 267.962 739.901 265.382L731.338 168.749Z" fill="white"/>
<path d="M745.375 179.98C745.112 177.054 747.417 174.533 750.355 174.533H798.27C800.858 174.533 803.018 176.508 803.25 179.086L806.131 211.177C806.394 214.104 804.089 216.625 801.151 216.625H753.237C750.648 216.625 748.488 214.65 748.257 212.072L745.375 179.98Z" fill="#F2F2FA"/>
<line x1="751.148" y1="231.408" x2="808.777" y2="231.408" stroke="#6672F8" stroke-width="1.3" stroke-linecap="round"/>
<line x1="752.551" y1="242.633" x2="810.18" y2="242.633" stroke="#6672F8" stroke-width="1.3" stroke-linecap="round"/>
<line x1="753.955" y1="253.857" x2="797.553" y2="253.857" stroke="#6672F8" stroke-width="1.3" stroke-linecap="round"/>
<mask id="mask0" mask-type="alpha" maskUnits="userSpaceOnUse" x="745" y="175" width="62" height="43">
<path d="M745.56 180.47C745.298 177.543 747.602 175.022 750.54 175.022H798.455C801.043 175.022 803.204 176.998 803.435 179.575L806.317 211.667C806.58 214.593 804.275 217.114 801.337 217.114H753.422C750.834 217.114 748.674 215.139 748.442 212.561L745.56 180.47Z" fill="#F2F2FA"/>
</mask>
<g mask="url(#mask0)">
<circle cx="787.042" cy="205.119" r="10.906" stroke="#1EBE8E" stroke-width="1.3"/>
<circle cx="754.025" cy="205.119" r="10.906" stroke="#1EBE8E" stroke-width="1.3"/>
<path d="M782.501 185.722H777.755L787.041 204.913" stroke="#2A3070" stroke-width="1.3" stroke-linecap="round"/>
<path d="M758.977 182.833L768.675 201.817" stroke="#2A3070" stroke-width="1.3"/>
<path d="M771.564 202.024L780.025 190.261" stroke="#2A3070" stroke-width="1.3"/>
<path d="M778.994 188.404H761.66L754.231 204.913" stroke="#2A3070" stroke-width="1.3"/>
<line x1="756.738" y1="182.595" x2="761.629" y2="182.595" stroke="#2A3070" stroke-width="1.3" stroke-linecap="round"/>
<circle cx="769.914" cy="204.5" r="3.09535" stroke="#2A3070" stroke-width="1.3"/>
<path d="M754.024 204.81H767.025" stroke="#2A3070" stroke-width="1.3"/>
</g>
<path d="M607.866 19.4649C611.682 34.2352 602.803 49.3028 588.032 53.1194C573.262 56.936 558.195 48.0564 554.378 33.2861" stroke="#FACF35" stroke-width="18"/>
<circle cx="413.5" cy="46.209" r="18.4651" transform="rotate(-158.203 413.5 46.209)" stroke="#1EBE8E" stroke-width="8"/>
<path d="M298.486 434.622C290.977 421.343 295.654 404.49 308.933 396.981C322.212 389.471 339.065 394.149 346.574 407.428" stroke="#FACF35" stroke-width="18"/>
<circle cx="508.783" cy="363.93" r="18.4651" transform="rotate(6.79713 508.783 363.93)" stroke="#1EBE8E" stroke-width="8"/>
<circle cx="704.269" cy="415.153" r="16.6901" transform="rotate(-44.4883 704.269 415.153)" stroke="#6672F8" stroke-width="11.55"/>
<circle cx="202.109" cy="363.647" r="16.6901" transform="rotate(-44.4883 202.109 363.647)" stroke="#6672F8" stroke-width="11.55"/>
<path d="M211.29 178.576C206.22 186.494 195.689 188.803 187.771 183.733C179.852 178.662 177.543 168.132 182.613 160.213" stroke="#1EBE8E" stroke-width="12.55"/>
<path d="M612.895 310.589C622.571 306.471 635.516 295.724 638.746 280.744C650.448 281.475 659.821 281.377 667.299 280.687C664.58 289.763 662.378 296.976 656.24 301.908C655.025 302.951 653.907 303.757 652.874 304.363C649.533 306.562 646.495 307.875 644.74 308.076C639.267 308.704 629.364 309.818 612.895 310.589Z" fill="#FCA081"/>
<path d="M644.732 307.954C639.26 308.581 629.356 309.696 612.887 310.466C620.86 309.156 634.898 306.062 639.716 301.541C643.22 304.022 646.406 308.029 652.866 304.24C653.967 303.516 655.101 302.694 656.233 301.785C655.017 302.829 653.9 303.634 652.866 304.24C649.525 306.44 646.488 307.752 644.732 307.954Z" fill="#DE6D47"/>
<path d="M389.498 216.004C378.713 220.313 360.205 221.975 346.011 212.755C337.414 222.44 329.996 229.661 323.601 234.943C332.798 239.935 340.139 243.871 348.786 242.955C350.551 242.825 352.054 242.586 353.335 242.257C357.664 241.378 361.066 240.041 362.598 238.832C367.373 235.062 375.998 228.224 389.498 216.004Z" fill="#FCA081"/>
<path d="M362.509 238.73C367.284 234.961 375.909 228.122 389.409 215.903C382.144 221.084 368.739 229.591 361.445 229.801C360.632 234.473 361.257 240.093 353.246 242.155C351.82 242.444 350.292 242.684 348.698 242.853C350.463 242.724 351.965 242.485 353.246 242.155C357.576 241.276 360.978 239.939 362.509 238.73Z" fill="#DE6D47"/>
<path d="M573.223 151.267C584.007 155.575 602.516 157.237 616.709 148.017C625.307 157.702 632.725 164.924 639.12 170.205C629.923 175.197 622.582 179.133 613.934 178.217C612.17 178.088 610.667 177.849 609.386 177.519C605.056 176.64 601.655 175.303 600.123 174.094C595.348 170.324 586.723 163.486 573.223 151.267Z" fill="#FCA081"/>
<path d="M600.211 173.992C595.436 170.222 586.811 163.384 573.311 151.164C580.577 156.346 593.981 164.852 601.276 165.063C602.088 169.735 601.464 175.354 609.474 177.417C610.901 177.706 612.428 177.946 614.023 178.115C612.258 177.985 610.756 177.746 609.474 177.417C605.145 176.538 601.743 175.201 600.211 173.992Z" fill="#DE6D47"/>
<path d="M127.79 271.719C138.575 276.027 157.083 277.689 171.277 268.469C179.874 278.154 187.292 285.376 193.687 290.657C184.491 295.649 177.149 299.585 168.502 298.669C166.737 298.54 165.235 298.301 163.953 297.971C159.624 297.092 156.222 295.755 154.69 294.546C149.915 290.777 141.29 283.939 127.79 271.719Z" fill="#FCA081"/>
<path d="M154.779 294.444C150.004 290.674 141.379 283.836 127.879 271.616C135.144 276.798 148.549 285.304 155.843 285.515C156.656 290.187 156.031 295.807 164.042 297.869C165.468 298.158 166.996 298.398 168.59 298.567C166.826 298.437 165.323 298.199 164.042 297.869C159.712 296.99 156.311 295.653 154.779 294.444Z" fill="#DE6D47"/>
<path d="M1.4637 177.855C1.20812 174.933 3.51133 172.419 6.44469 172.419H73.5483C76.1409 172.419 78.3034 174.401 78.5293 176.984L86.4208 267.21C86.6764 270.132 84.3732 272.645 81.4398 272.645H14.3362C11.7436 272.645 9.58108 270.664 9.35519 268.081L1.4637 177.855Z" fill="#2A3070"/>
<path d="M4.07398 177.861C3.81485 174.937 6.11884 172.419 9.05446 172.419H76.1571C78.7475 172.419 80.909 174.398 81.1376 176.978L89.0176 265.902C89.2767 268.827 86.9727 271.344 84.0371 271.344H16.9344C14.3441 271.344 12.1826 269.365 11.954 266.785L4.07398 177.861Z" fill="white"/>
<path d="M17.0975 188.28C16.8348 185.354 19.1395 182.833 22.0775 182.833H65.8028C68.3909 182.833 70.5513 184.808 70.7827 187.385L73.3912 216.434C73.654 219.361 71.3492 221.882 68.4113 221.882H24.686C22.0979 221.882 19.9375 219.907 19.706 217.329L17.0975 188.28Z" fill="#F2F2FA"/>
<line x1="22.4645" y1="235.55" x2="75.8331" y2="235.55" stroke="#6672F8" stroke-width="1.3" stroke-linecap="round"/>
<line x1="23.7662" y1="245.963" x2="77.1349" y2="245.963" stroke="#6672F8" stroke-width="1.3" stroke-linecap="round"/>
<line x1="25.068" y1="256.376" x2="65.4203" y2="256.376" stroke="#6672F8" stroke-width="1.3" stroke-linecap="round"/>
<mask id="path-39-inside-1" fill="white">
<path fill-rule="evenodd" clip-rule="evenodd" d="M49.5136 178.257C49.0646 174.828 50.7213 171.519 52.8085 168.761C55.3496 165.404 56.6178 161.233 56.0525 156.914C54.8393 147.646 45.6406 141.208 35.5065 142.535C25.3725 143.861 18.1407 152.45 19.3539 161.718C19.9191 166.036 22.2175 169.739 25.5363 172.33C28.2629 174.458 30.7152 177.229 31.1642 180.659C31.8274 185.726 36.4794 189.347 41.5464 188.683C46.6135 188.02 50.1768 183.324 49.5136 178.257Z"/>
</mask>
<path fill-rule="evenodd" clip-rule="evenodd" d="M49.5136 178.257C49.0646 174.828 50.7213 171.519 52.8085 168.761C55.3496 165.404 56.6178 161.233 56.0525 156.914C54.8393 147.646 45.6406 141.208 35.5065 142.535C25.3725 143.861 18.1407 152.45 19.3539 161.718C19.9191 166.036 22.2175 169.739 25.5363 172.33C28.2629 174.458 30.7152 177.229 31.1642 180.659C31.8274 185.726 36.4794 189.347 41.5464 188.683C46.6135 188.02 50.1768 183.324 49.5136 178.257Z" fill="#FACF35"/>
<path d="M52.8085 168.761L51.7719 167.977L52.8085 168.761ZM54.7635 157.083C55.2807 161.034 54.125 164.867 51.7719 167.977L53.8451 169.546C56.5741 165.94 57.9549 161.431 57.3415 156.745L54.7635 157.083ZM35.6753 143.824C45.2082 142.576 53.6574 148.633 54.7635 157.083L57.3415 156.745C56.0213 146.659 46.073 139.84 35.3378 141.246L35.6753 143.824ZM20.6429 161.549C19.5368 153.099 26.1423 145.071 35.6753 143.824L35.3378 141.246C24.6027 142.651 16.7447 151.801 18.0649 161.887L20.6429 161.549ZM26.3362 171.305C23.2629 168.906 21.16 165.5 20.6429 161.549L18.0649 161.887C18.6782 166.572 21.1722 170.573 24.7364 173.354L26.3362 171.305ZM29.8752 180.827C30.6304 186.597 35.927 190.73 41.7152 189.972L41.3777 187.394C37.0319 187.963 33.0245 184.854 32.4532 180.49L29.8752 180.827ZM24.7364 173.354C27.378 175.416 29.4937 177.913 29.8752 180.827L32.4532 180.49C31.9368 176.545 29.1478 173.499 26.3362 171.305L24.7364 173.354ZM41.7152 189.972C47.5033 189.215 51.5578 183.858 50.8026 178.089L48.2245 178.426C48.7958 182.79 45.7237 186.825 41.3777 187.394L41.7152 189.972ZM51.7719 167.977C49.6196 170.821 47.7082 174.481 48.2245 178.426L50.8026 178.089C50.4211 175.174 51.823 172.218 53.8451 169.546L51.7719 167.977Z" fill="#FACF35" mask="url(#path-39-inside-1)"/>
<path d="M42.6108 185.602C38.0784 178.406 33.0181 158.667 31.1952 164.534C29.471 170.083 37.2256 174.209 39.3162 165.01C41.4068 155.81 30.8793 164.284 39.0503 167.618C47.2212 170.952 45.5779 162.652 43.2264 161.839C40.8749 161.027 40.7465 172.234 42.6108 185.602Z" stroke="#2A3070" stroke-width="1.3"/>
<path d="M44.6408 220.915C36.5137 214.649 21.5867 201.262 26.8955 197.838C32.2042 194.414 40.9376 211.796 44.6408 220.915Z" stroke="#2A3070" stroke-width="1.3"/>
<line x1="43.5974" y1="220.256" x2="32.0529" y2="204.733" stroke="#2A3070" stroke-width="1.3" stroke-linecap="round"/>
<path d="M42.3867 185.544C47.8469 206.594 47.3916 217.975 44.1217 229.372" stroke="#2A3070" stroke-width="1.3"/>
<circle cx="804.842" cy="184.187" r="11" transform="rotate(3.95425 804.842 184.187)" fill="#FFA07D"/>
<circle cx="805.768" cy="170.795" r="11" transform="rotate(3.95425 805.768 170.795)" fill="#FFA07D"/>
<circle cx="806.668" cy="157.775" r="11" transform="rotate(3.95425 806.668 157.775)" fill="#FFA07D"/>
<line x1="802.598" y1="212.124" x2="806.669" y2="153.231" stroke="#101552" stroke-linecap="round"/>
<path d="M813.741 156.513L806.434 162.875L800.072 155.568" stroke="#101552" stroke-linecap="round"/>
<path d="M812.557 168.226L805.25 174.589L798.888 167.282" stroke="#101552" stroke-linecap="round"/>
<path d="M811.952 182.388L804.645 188.75L798.283 181.443" stroke="#101552" stroke-linecap="round"/>
</svg>
