<svg width="60" height="52" viewBox="0 0 60 52" fill="none" xmlns="http://www.w3.org/2000/svg">
<path d="M0.50664 5.57595C0.234738 2.64472 2.54145 0.114136 5.48527 0.114136H37.711C40.2935 0.114136 42.4511 2.08086 42.6896 4.65232L46.5653 46.4337C46.8372 49.3649 44.5305 51.8955 41.5867 51.8955H9.36092C6.77842 51.8955 4.62082 49.9287 4.38229 47.3573L0.50664 5.57595Z" fill="#FCA081"/>
<path d="M3.98169 5.55547C3.72257 2.63131 6.02655 0.114136 8.96218 0.114136H37.7434C40.3337 0.114136 42.4952 2.09252 42.7238 4.67279L46.2491 44.4548C46.5082 47.379 44.2043 49.8962 41.2686 49.8962H12.4874C9.89706 49.8962 7.7356 47.9178 7.50695 45.3375L3.98169 5.55547Z" fill="white"/>
<path d="M10.5389 10.8016C10.2762 7.87537 12.5809 5.35437 15.5189 5.35437H32.5353C35.1234 5.35437 37.2838 7.32943 37.5152 9.90719L38.3819 19.558C38.6446 22.4842 36.3398 25.0052 33.4019 25.0052H16.3855C13.7974 25.0052 11.637 23.0301 11.4055 20.4524L10.5389 10.8016Z" fill="#F2F2FA"/>
<line x1="13.3199" y1="31.5603" x2="39.5311" y2="31.5603" stroke="#6672F8" stroke-width="1.3" stroke-linecap="round"/>
<line x1="13.9747" y1="36.8007" x2="40.1858" y2="36.8007" stroke="#6672F8" stroke-width="1.3" stroke-linecap="round"/>
<line x1="14.63" y1="42.0409" x2="34.2908" y2="42.0409" stroke="#6672F8" stroke-width="1.3" stroke-linecap="round"/>
<circle cx="45.5147" cy="13.7744" r="10" transform="rotate(30 45.5147 13.7744)" fill="#FACF35"/>
<path d="M49.7853 11.9779C49.4436 11.1469 48.8467 10.4284 48.026 9.95454C45.9646 8.76438 43.2719 9.56898 42.0117 11.7517C40.7515 13.9343 41.4011 16.6686 43.4625 17.8587C44.2832 18.3326 45.2039 18.4902 46.0944 18.3707" stroke="white" stroke-width="1.3" stroke-linecap="round"/>
<line x1="41.9626" y1="10.0946" x2="45.4476" y2="12.1066" stroke="white" stroke-width="1.3" stroke-linecap="round"/>
<line x1="40.7024" y1="12.2774" x2="44.1873" y2="14.2894" stroke="white" stroke-width="1.3" stroke-linecap="round"/>
</svg>
