<?xml version="1.0" encoding="UTF-8" standalone="no"?>
<svg
   width="901.3844"
   height="420.72876"
   viewBox="0 0 901.3844 420.72876"
   fill="none"
   version="1.1"
   id="svg291"
   sodipodi:docname="search_default.svg"
   inkscape:version="1.1 (ce6663b3b7, 2021-05-25)"
   xmlns:inkscape="http://www.inkscape.org/namespaces/inkscape"
   xmlns:sodipodi="http://sodipodi.sourceforge.net/DTD/sodipodi-0.dtd"
   xmlns="http://www.w3.org/2000/svg"
   xmlns:svg="http://www.w3.org/2000/svg">
  <defs
     id="defs295">
    <clipPath
       clipPathUnits="userSpaceOnUse"
       id="clipPath550">
      <rect
         style="fill:#0000ff;fill-rule:evenodd"
         id="rect552"
         width="904.0672"
         height="425.49377"
         x="269.40945"
         y="424.32376" />
    </clipPath>
  </defs>
  <sodipodi:namedview
     id="namedview293"
     pagecolor="#ffffff"
     bordercolor="#666666"
     borderopacity="1.0"
     inkscape:pageshadow="2"
     inkscape:pageopacity="0.0"
     inkscape:pagecheckerboard="0"
     showgrid="false"
     inkscape:zoom="1.3302433"
     inkscape:cx="442.40026"
     inkscape:cy="290.92422"
     inkscape:window-width="3440"
     inkscape:window-height="1370"
     inkscape:window-x="0"
     inkscape:window-y="34"
     inkscape:window-maximized="1"
     inkscape:current-layer="svg291" />
  <mask
     id="mask0"
     mask-type="alpha"
     maskUnits="userSpaceOnUse"
     x="1094"
     y="715"
     width="62"
     height="44">
    <path
       d="m 1094.41,721.428 c -0.26,-2.927 2.04,-5.448 4.98,-5.448 h 47.91 c 2.59,0 4.75,1.976 4.98,4.553 l 2.89,32.092 c 0.26,2.926 -2.05,5.447 -4.98,5.447 h -47.92 c -2.59,0 -4.75,-1.975 -4.98,-4.552 z"
       fill="#f2f2fa"
       id="path197" />
  </mask>
  <mask
     id="path-39-inside-1"
     fill="#ffffff">
    <path
       fill-rule="evenodd"
       clip-rule="evenodd"
       d="m 318.526,536.413 c -0.449,-3.43 1.207,-6.739 3.295,-9.497 2.541,-3.357 3.809,-7.528 3.243,-11.847 -1.213,-9.268 -10.411,-15.706 -20.546,-14.379 -10.134,1.326 -17.365,9.915 -16.152,19.183 0.565,4.318 2.864,8.022 6.182,10.612 2.727,2.128 5.179,4.899 5.628,8.329 0.663,5.067 5.315,8.688 10.382,8.025 5.067,-0.664 8.631,-5.359 7.968,-10.426 z"
       id="path262" />
  </mask>
  <g
     id="g428"
     clip-path="url(#clipPath550)"
     transform="translate(-270.45569,-424.32376)">
    <path
       d="m 404.473,670 h 43.2 v -16.1 h -25.4 V 600 h -17.8 z m 50.666,0 h 18.9 l 5.7,-16.5 h 24.8 l 5.7,16.5 h 18.9 l -25.4,-70 h -23.2 z m 29.8,-31.5 7.2,-20.6 7.2,20.6 z m 54.495,31.5 h 17.8 v -43.2 l 25.1,43.2 h 22.6 v -70 h -17.8 v 43.2 l -25.1,-43.2 h -22.6 z m 116.364,-14.7 c -11.2,0 -19.2,-8.5 -19.2,-20.3 0,-11.7 8,-20.3 19.2,-20.3 7,0 12.3,3.4 15.6,8.2 l 14.1,-10.8 c -6.5,-8.5 -16.9,-14.1 -29.7,-14.1 -22.3,0 -37.5,17 -37.5,37 0,20 15.2,37 37.5,37 12.8,0 23.2,-5.6 29.7,-14.2 l -14.1,-10.7 c -3.3,4.8 -8.7,8.2 -15.6,8.2 z m 41.156,14.7 h 43.2 v -15.1 h -25.4 v -13 h 21.4 v -15.1 h -21.4 v -11.7 h 25.4 V 600 h -43.2 z m 56.466,0 h 58.6 v -16.1 h -36.2 l 35.2,-37.8 V 600 h -56.6 v 16.1 h 34.3 l -35.3,37.8 z m 67.084,-33.2 v 15.4 h 27 v -15.4 z m 24.576,-36.8 25.4,70 h 23.2 l 25.4,-70 h -18.9 l -18.1,49.9 -18.1,-49.9 z m 114.331,-2 c -22.3,0 -37.5,17 -37.5,37 0,20 15.2,37 37.5,37 22.2,0 37.4,-17 37.4,-37 0,-20 -15.2,-37 -37.4,-37 z m 0,57.3 c -11.2,0 -19.2,-8.5 -19.2,-20.3 0,-11.7 8,-20.3 19.2,-20.3 11.1,0 19.1,8.5 19.1,20.3 0,11.7 -8,20.3 -19.1,20.3 z m 90.499,-11.7 c 0,7.2 -4.1,11.7 -11.4,11.7 -7.4,0 -11.5,-4.5 -11.5,-11.7 V 600 h -17.8 v 41.9 c 0,18.6 10.8,30.1 29.2,30.1 18.5,0 29.3,-11.5 29.3,-30.1 V 600 h -17.8 z m 28.13,16.6 c 6.4,7.3 14.5,11.8 27.4,11.8 13.2,0 24.2,-8 24.4,-22 0,-24.5 -31.2,-21 -31.2,-31.4 0,-2.9 2.5,-5.1 6.1,-5.1 4.7,0 9.1,3.5 13.2,8.3 l 12.9,-11.8 c -6.5,-7.2 -15.1,-12 -26.2,-12 -14.2,0 -24,9.7 -24,21.4 0,24 31.2,20.5 31.2,31.2 0,4 -2.5,5.8 -6.6,5.8 -5.1,0 -10.6,-3.2 -14.3,-8.1 z"
       fill="#282d73"
       id="path183" />
    <path
       d="m 1077.48,709.701 c -0.26,-2.922 2.04,-5.435 4.98,-5.435 h 73.11 c 2.59,0 4.76,1.981 4.98,4.564 l 8.58,98.036 c 0.25,2.922 -2.05,5.435 -4.98,5.435 h -73.12 c -2.59,0 -4.75,-1.981 -4.98,-4.564 z"
       fill="#2a3070"
       id="path185" />
    <path
       d="m 1080.19,709.707 c -0.26,-2.924 2.04,-5.441 4.98,-5.441 h 73.11 c 2.59,0 4.75,1.978 4.98,4.558 l 8.56,96.633 c 0.26,2.924 -2.04,5.441 -4.98,5.441 h -73.11 c -2.59,0 -4.75,-1.978 -4.98,-4.558 z"
       fill="#ffffff"
       id="path187" />
    <path
       d="m 1094.22,720.937 c -0.26,-2.926 2.05,-5.447 4.98,-5.447 h 47.92 c 2.59,0 4.75,1.975 4.98,4.553 l 2.88,32.092 c 0.26,2.926 -2.04,5.447 -4.98,5.447 h -47.91 c -2.59,0 -4.75,-1.975 -4.98,-4.553 z"
       fill="#f2f2fa"
       id="path189" />
    <line
       x1="1100"
       y1="772.36603"
       x2="1157.63"
       y2="772.36603"
       stroke="#6672f8"
       stroke-width="1.3"
       stroke-linecap="round"
       id="line191" />
    <line
       x1="1101.4"
       y1="783.59003"
       x2="1159.03"
       y2="783.59003"
       stroke="#6672f8"
       stroke-width="1.3"
       stroke-linecap="round"
       id="line193" />
    <line
       x1="1102.8"
       y1="794.815"
       x2="1146.4"
       y2="794.815"
       stroke="#6672f8"
       stroke-width="1.3"
       stroke-linecap="round"
       id="line195" />
    <g
       mask="url(#mask0)"
       id="g218">
      <circle
         cx="1135.89"
         cy="746.07599"
         r="10.906"
         stroke="#1ebe8e"
         stroke-width="1.3"
         id="circle200" />
      <circle
         cx="1102.87"
         cy="746.07599"
         r="10.906"
         stroke="#1ebe8e"
         stroke-width="1.3"
         id="circle202" />
      <path
         d="m 1131.35,726.679 h -4.75 l 9.29,19.191"
         stroke="#2a3070"
         stroke-width="1.3"
         stroke-linecap="round"
         id="path204" />
      <path
         d="m 1107.83,723.79 9.69,18.985"
         stroke="#2a3070"
         stroke-width="1.3"
         id="path206" />
      <path
         d="m 1120.41,742.981 8.46,-11.762"
         stroke="#2a3070"
         stroke-width="1.3"
         id="path208" />
      <path
         d="m 1127.84,729.361 h -17.33 l -7.43,16.509"
         stroke="#2a3070"
         stroke-width="1.3"
         id="path210" />
      <line
         x1="1105.59"
         y1="723.552"
         x2="1110.48"
         y2="723.552"
         stroke="#2a3070"
         stroke-width="1.3"
         stroke-linecap="round"
         id="line212" />
      <circle
         cx="1118.76"
         cy="745.45801"
         r="3.09535"
         stroke="#2a3070"
         stroke-width="1.3"
         id="circle214" />
      <path
         d="m 1102.87,745.767 h 13"
         stroke="#2a3070"
         stroke-width="1.3"
         id="path216" />
    </g>
    <path
       d="m 918.866,425.465 c 3.817,14.77 -5.063,29.838 -19.833,33.654 -14.77,3.817 -29.838,-5.063 -33.655,-19.833"
       stroke="#facf35"
       stroke-width="18"
       id="path220" />
    <circle
       cx="724.5"
       cy="452.20801"
       r="18.465099"
       transform="rotate(-158.203,724.5,452.208)"
       stroke="#1ebe8e"
       stroke-width="8"
       id="circle222" />
    <path
       d="m 609.486,840.622 c -7.51,-13.279 -2.832,-30.132 10.447,-37.641 13.279,-7.51 30.131,-2.832 37.641,10.447"
       stroke="#facf35"
       stroke-width="18"
       id="path224" />
    <circle
       cx="819.784"
       cy="769.93103"
       r="18.465099"
       transform="rotate(6.79713,819.784,769.931)"
       stroke="#1ebe8e"
       stroke-width="8"
       id="circle226" />
    <circle
       cx="1015.27"
       cy="821.15302"
       r="16.6901"
       transform="rotate(-44.4883,1015.27,821.153)"
       stroke="#6672f8"
       stroke-width="11.55"
       id="circle228" />
    <circle
       cx="513.10901"
       cy="769.64697"
       r="16.6901"
       transform="rotate(-44.4883,513.109,769.647)"
       stroke="#6672f8"
       stroke-width="11.55"
       id="circle230" />
    <path
       d="m 522.291,584.576 c -5.071,7.918 -15.601,10.227 -23.52,5.157 -7.919,-5.071 -10.228,-15.601 -5.157,-23.52"
       stroke="#1ebe8e"
       stroke-width="12.55"
       id="path232" />
    <path
       d="m 923.896,716.589 c 9.675,-4.118 22.621,-14.865 25.85,-29.845 11.703,0.731 21.076,0.633 28.554,-0.057 -2.72,9.076 -4.921,16.289 -11.059,21.221 -1.216,1.043 -2.333,1.849 -3.366,2.455 -3.341,2.199 -6.379,3.512 -8.135,3.713 -5.472,0.628 -15.375,1.742 -31.844,2.513 z"
       fill="#fca081"
       id="path234" />
    <path
       d="m 955.732,713.954 c -5.472,0.627 -15.376,1.742 -31.845,2.512 7.973,-1.31 22.011,-4.404 26.829,-8.925 3.504,2.481 6.69,6.488 13.15,2.699 1.101,-0.724 2.235,-1.546 3.367,-2.455 -1.216,1.044 -2.333,1.849 -3.367,2.455 -3.341,2.2 -6.378,3.512 -8.134,3.714 z"
       fill="#de6d47"
       id="path236" />
    <path
       d="m 678.773,583.936 c -10.785,4.309 -29.293,5.971 -43.487,-3.249 -8.597,9.685 -16.015,16.907 -22.41,22.188 9.197,4.992 16.538,8.928 25.186,8.012 1.764,-0.13 3.267,-0.368 4.548,-0.698 4.329,-0.879 7.731,-2.216 9.263,-3.425 4.775,-3.77 13.4,-10.608 26.9,-22.828 z"
       fill="#fca081"
       id="path238" />
    <path
       d="m 651.784,606.662 c 4.775,-3.77 13.4,-10.608 26.9,-22.828 -7.265,5.182 -20.67,13.688 -27.964,13.899 -0.813,4.672 -0.188,10.291 -8.199,12.354 -1.427,0.289 -2.954,0.529 -4.548,0.698 1.764,-0.13 3.267,-0.369 4.548,-0.698 4.329,-0.879 7.731,-2.216 9.263,-3.425 z"
       fill="#de6d47"
       id="path240" />
    <path
       d="m 884.224,557.267 c 10.784,4.308 29.293,5.97 43.486,-3.25 8.598,9.685 16.015,16.907 22.411,22.188 -9.197,4.992 -16.538,8.928 -25.186,8.012 -1.765,-0.129 -3.267,-0.368 -4.549,-0.698 -4.329,-0.879 -7.731,-2.216 -9.263,-3.425 -4.775,-3.77 -13.4,-10.608 -26.899,-22.827 z"
       fill="#fca081"
       id="path242" />
    <path
       d="m 911.212,579.992 c -4.775,-3.77 -13.4,-10.608 -26.9,-22.828 7.266,5.182 20.67,13.688 27.965,13.899 0.812,4.672 0.188,10.291 8.198,12.354 1.427,0.289 2.954,0.529 4.549,0.698 -1.765,-0.13 -3.267,-0.369 -4.549,-0.698 -4.329,-0.879 -7.731,-2.216 -9.263,-3.425 z"
       fill="#de6d47"
       id="path244" />
    <path
       d="m 438.79,677.719 c 10.785,4.308 29.293,5.97 43.487,-3.25 8.597,9.685 16.015,16.907 22.41,22.188 -9.196,4.992 -16.538,8.928 -25.185,8.012 -1.765,-0.129 -3.267,-0.368 -4.549,-0.698 -4.329,-0.879 -7.731,-2.216 -9.263,-3.425 -4.775,-3.769 -13.4,-10.607 -26.9,-22.827 z"
       fill="#fca081"
       id="path246" />
    <path
       d="m 465.779,700.444 c -4.775,-3.77 -13.4,-10.608 -26.9,-22.828 7.265,5.182 20.67,13.688 27.964,13.899 0.813,4.672 0.188,10.292 8.199,12.354 1.427,0.289 2.954,0.529 4.548,0.698 -1.764,-0.13 -3.267,-0.368 -4.548,-0.698 -4.329,-0.879 -7.731,-2.216 -9.263,-3.425 z"
       fill="#de6d47"
       id="path248" />
    <path
       d="m 270.475,536.01 c -0.255,-2.922 2.048,-5.436 4.981,-5.436 h 67.104 c 2.593,0 4.755,1.982 4.981,4.565 l 7.892,90.226 c 0.255,2.922 -2.048,5.435 -4.981,5.435 h -67.104 c -2.593,0 -4.755,-1.981 -4.981,-4.564 z"
       fill="#2a3070"
       id="path250" />
    <path
       d="m 273.086,536.016 c -0.259,-2.925 2.045,-5.442 4.98,-5.442 h 67.103 c 2.59,0 4.752,1.979 4.98,4.559 l 7.88,88.924 c 0.259,2.924 -2.045,5.442 -4.98,5.442 h -67.103 c -2.59,0 -4.752,-1.979 -4.98,-4.559 z"
       fill="#ffffff"
       id="path252" />
    <path
       d="m 286.109,546.434 c -0.263,-2.926 2.042,-5.447 4.98,-5.447 h 43.725 c 2.588,0 4.749,1.975 4.98,4.553 l 2.609,29.049 c 0.262,2.926 -2.042,5.447 -4.98,5.447 h -43.726 c -2.588,0 -4.748,-1.975 -4.98,-4.552 z"
       fill="#f2f2fa"
       id="path254" />
    <line
       x1="291.47601"
       y1="593.70398"
       x2="344.845"
       y2="593.70398"
       stroke="#6672f8"
       stroke-width="1.3"
       stroke-linecap="round"
       id="line256" />
    <line
       x1="292.77802"
       y1="604.11798"
       x2="346.147"
       y2="604.11798"
       stroke="#6672f8"
       stroke-width="1.3"
       stroke-linecap="round"
       id="line258" />
    <line
       x1="294.07999"
       y1="614.53101"
       x2="334.43201"
       y2="614.53101"
       stroke="#6672f8"
       stroke-width="1.3"
       stroke-linecap="round"
       id="line260" />
    <path
       fill-rule="evenodd"
       clip-rule="evenodd"
       d="m 318.526,536.413 c -0.449,-3.43 1.207,-6.739 3.295,-9.497 2.541,-3.357 3.809,-7.528 3.243,-11.847 -1.213,-9.268 -10.411,-15.706 -20.546,-14.379 -10.134,1.326 -17.365,9.915 -16.152,19.183 0.565,4.318 2.864,8.022 6.182,10.612 2.727,2.128 5.179,4.899 5.628,8.329 0.663,5.067 5.315,8.688 10.382,8.025 5.067,-0.664 8.631,-5.359 7.968,-10.426 z"
       fill="#facf35"
       id="path265" />
    <path
       d="m 323.775,515.238 c 0.518,3.951 -0.638,7.785 -2.991,10.894 l 2.073,1.569 c 2.729,-3.606 4.11,-8.115 3.496,-12.8 z m -19.088,-13.259 c 9.533,-1.248 17.982,4.809 19.088,13.259 l 2.578,-0.337 c -1.32,-10.086 -11.268,-16.905 -22.003,-15.5 z m -15.032,17.725 c -1.106,-8.45 5.499,-16.477 15.032,-17.725 l -0.337,-2.578 c -10.735,1.405 -18.593,10.555 -17.273,20.641 z m 5.693,9.756 c -3.073,-2.399 -5.176,-5.805 -5.693,-9.756 l -2.578,0.338 c 0.613,4.685 3.107,8.686 6.671,11.468 z m 3.539,9.523 c 0.755,5.769 6.052,9.902 11.84,9.145 l -0.337,-2.578 c -4.346,0.568 -8.354,-2.54 -8.925,-6.905 z m -5.139,-7.473 c 2.642,2.061 4.758,4.558 5.139,7.473 l 2.578,-0.338 c -0.516,-3.945 -3.305,-6.99 -6.117,-9.185 z m 16.979,16.618 c 5.788,-0.758 9.843,-6.114 9.088,-11.884 l -2.578,0.337 c 0.571,4.365 -2.501,8.4 -6.847,8.969 z m 10.057,-21.996 c -2.152,2.844 -4.064,6.505 -3.547,10.449 l 2.578,-0.337 c -0.382,-2.914 1.02,-5.871 3.042,-8.543 z"
       fill="#facf35"
       mask="url(#path-39-inside-1)"
       id="path267" />
    <path
       d="m 311.622,543.758 c -4.532,-7.196 -9.592,-26.935 -11.415,-21.069 -1.724,5.549 6.03,9.676 8.121,0.476 2.091,-9.199 -8.437,-0.725 -0.266,2.609 8.171,3.334 6.528,-4.966 4.176,-5.779 -2.351,-0.812 -2.48,10.395 -0.616,23.763 z"
       stroke="#2a3070"
       stroke-width="1.3"
       id="path269" />
    <path
       d="m 313.653,579.07 c -8.127,-6.266 -23.054,-19.653 -17.745,-23.077 5.308,-3.425 14.042,13.958 17.745,23.077 z"
       stroke="#2a3070"
       stroke-width="1.3"
       id="path271" />
    <line
       x1="312.60999"
       y1="578.41101"
       x2="301.065"
       y2="562.888"
       stroke="#2a3070"
       stroke-width="1.3"
       stroke-linecap="round"
       id="line273" />
    <path
       d="m 311.399,543.699 c 5.46,21.049 5.005,32.43 1.735,43.828"
       stroke="#2a3070"
       stroke-width="1.3"
       id="path275" />
    <circle
       cx="1153.6899"
       cy="725.14398"
       r="11"
       transform="rotate(3.95425,1153.69,725.144)"
       fill="#ffa07d"
       id="circle277" />
    <circle
       cx="1154.62"
       cy="711.75201"
       r="11"
       transform="rotate(3.95425,1154.62,711.752)"
       fill="#ffa07d"
       id="circle279" />
    <circle
       cx="1155.52"
       cy="698.73199"
       r="11"
       transform="rotate(3.95425,1155.52,698.732)"
       fill="#ffa07d"
       id="circle281" />
    <line
       x1="1151.45"
       y1="753.08197"
       x2="1155.52"
       y2="694.18903"
       stroke="#101552"
       stroke-linecap="round"
       id="line283" />
    <path
       d="m 1162.59,697.47 -7.31,6.362 -6.36,-7.307"
       stroke="#101552"
       stroke-linecap="round"
       id="path285" />
    <path
       d="m 1161.41,709.184 -7.31,6.362 -6.36,-7.307"
       stroke="#101552"
       stroke-linecap="round"
       id="path287" />
    <path
       d="m 1160.8,723.346 -7.31,6.362 -6.36,-7.307"
       stroke="#101552"
       stroke-linecap="round"
       id="path289" />
  </g>
</svg>
