<svg width="360" height="192" viewBox="0 0 360 192" fill="none" xmlns="http://www.w3.org/2000/svg">
<g clip-path="url(#clip0_971_10155)">
<rect width="360" height="192" fill="#E8EDFF"/>
<path fill-rule="evenodd" clip-rule="evenodd" d="M343.722 57.4085H218.146C217.402 55.0189 217 52.47 217 49.8238C217 36.197 227.66 25.1503 240.81 25.1503C245.104 25.1503 249.133 26.3283 252.611 28.3894C256.957 15.3587 268.899 6.00003 282.951 6.00003C294.494 6.00003 304.614 12.3154 310.268 21.7937C313.422 20.5232 316.887 19.8211 320.524 19.8211C335.146 19.8211 347 31.1738 347 45.1781C347 49.6129 345.811 53.7819 343.722 57.4085Z" fill="white"/>
<path d="M324.731 66.3699C328.691 75.8143 334.415 99.5268 325.629 118.821C314.646 142.939 291.44 163.969 291.513 193.741" stroke="#2A3070" stroke-width="1.5"/>
<path fill-rule="evenodd" clip-rule="evenodd" d="M320.852 60.9867C321.706 62.4864 323.848 62.1352 324.178 60.4412C325.868 51.7722 326.047 42.0136 324.39 31.912C322.734 21.8104 319.447 12.6202 315.076 4.94523C314.222 3.44551 312.08 3.79678 311.75 5.49073C310.06 14.1598 309.881 23.9183 311.537 34.02C313.194 44.1216 316.481 53.3117 320.852 60.9867Z" fill="#FCA081"/>
<path fill-rule="evenodd" clip-rule="evenodd" d="M324.368 60.5173C322.561 60.4227 321.755 62.558 323.174 63.6813C329.872 68.9856 338.125 73.683 347.466 77.21C356.807 80.7372 366.105 82.6665 374.637 83.1133C376.445 83.2079 377.251 81.0726 375.832 79.9493C369.134 74.645 360.881 69.9475 351.54 66.4205C342.199 62.8934 332.901 60.964 324.368 60.5173Z" fill="#6672F8"/>
<path fill-rule="evenodd" clip-rule="evenodd" d="M275.452 96.5904C274.403 98.0648 275.773 99.8905 277.482 99.2957C285.551 96.487 293.942 92.0411 301.929 86.049C309.915 80.0567 316.53 73.244 321.484 66.282C322.533 64.8076 321.163 62.9819 319.454 63.5767C311.385 66.3854 302.994 70.8313 295.007 76.8234C287.021 82.8157 280.405 89.6284 275.452 96.5904Z" fill="#1EBE8E"/>
<circle cx="322.832" cy="62.5401" r="5.24425" transform="rotate(-9.31403 322.832 62.5401)" fill="#2A3070" stroke="#2A3070"/>
<path d="M83.9371 110.455C81.3173 110.455 79.1935 108.332 79.1935 105.712C79.1935 103.092 81.3173 100.968 83.9371 100.968C86.5569 100.968 88.6807 103.092 88.6807 105.712C88.6807 108.332 86.5569 110.455 83.9371 110.455Z" fill="#6672F8"/>
<path d="M99.2715 150.313C98.4117 144.959 98.0263 139.782 99.4197 136.204C100.606 133.127 103.185 131.404 106.298 130.23L133.731 121.354C137.288 120.168 140.612 118.181 140.846 114.256C141.143 109.216 136.695 105.955 132.248 107.141C132.248 107.141 106.159 116.373 83.923 116.373C61.6875 116.373 35.8942 107.182 35.8942 107.182C30.5577 105.7 27 109.85 27 114.235C27 118.448 30.2612 119.931 34.1154 121.333L60.2051 130.793C62.5769 131.683 66.431 133.462 67.9134 136.183C69.6923 139.37 69.3958 144.938 68.536 150.292L66.7868 159.077L55.6957 207.669C54.8656 211.568 57.5635 215.211 61.4473 215.893C65.3311 216.575 68.5064 213.925 69.6567 210.154L80.7923 175.783C81.3279 174.135 81.8022 172.468 82.2153 170.782L83.923 163.821L85.4943 170.239C85.9924 172.285 86.5656 174.309 87.2139 176.311L98.1538 210.124C99.3397 213.934 102.453 216.572 106.336 215.893C110.22 215.214 112.977 211.271 112.106 207.669L101.021 159.098L99.2715 150.313Z" fill="#1EBE8E"/>
<mask id="path-9-inside-1_971_10155" fill="white">
<path fill-rule="evenodd" clip-rule="evenodd" d="M144.839 75.1473C146.984 71.6469 146.788 67.2594 145.859 63.2607C144.728 58.3925 145.37 53.2579 148.071 48.8499C153.867 39.3901 166.951 36.8592 177.295 43.1969C187.638 49.5347 191.325 62.3412 185.528 71.801C182.828 76.2081 178.546 79.1114 173.696 80.3146C169.712 81.3032 165.714 83.1216 163.569 86.6221C160.4 91.7939 153.607 93.4697 148.435 90.3008C143.263 87.1319 141.671 80.3192 144.839 75.1473Z"/>
</mask>
<path fill-rule="evenodd" clip-rule="evenodd" d="M144.839 75.1473C146.984 71.6469 146.788 67.2594 145.859 63.2607C144.728 58.3925 145.37 53.2579 148.071 48.8499C153.867 39.3901 166.951 36.8592 177.295 43.1969C187.638 49.5347 191.325 62.3412 185.528 71.801C182.828 76.2081 178.546 79.1114 173.696 80.3146C169.712 81.3032 165.714 83.1216 163.569 86.6221C160.4 91.7939 153.607 93.4697 148.435 90.3008C143.263 87.1319 141.671 80.3192 144.839 75.1473Z" fill="#FACF35"/>
<path d="M173.696 80.3146L174.058 81.7705L173.696 80.3146ZM145.859 63.2607L144.398 63.6002L145.859 63.2607ZM149.35 49.6336C146.872 53.6772 146.27 58.403 147.32 62.9212L144.398 63.6002C143.185 58.382 143.868 52.8386 146.792 48.0663L149.35 49.6336ZM176.511 44.4759C166.764 38.5036 154.649 40.9853 149.35 49.6336L146.792 48.0663C153.085 37.7949 167.138 35.2147 178.078 41.9179L176.511 44.4759ZM184.249 71.0174C189.548 62.369 186.258 50.4483 176.511 44.4759L178.078 41.9179C189.018 48.6211 193.101 62.3133 186.807 72.5847L184.249 71.0174ZM173.335 78.8588C177.836 77.742 181.772 75.0601 184.249 71.0174L186.807 72.5847C183.884 77.3561 179.256 80.4807 174.058 81.7705L173.335 78.8588ZM164.848 87.4057C161.252 93.2747 153.538 95.1872 147.651 91.5798L149.218 89.0218C153.675 91.7522 159.548 90.3131 162.29 85.8384L164.848 87.4057ZM174.058 81.7705C170.194 82.7291 166.679 84.4165 164.848 87.4057L162.29 85.8384C164.748 81.8267 169.23 79.8773 173.335 78.8588L174.058 81.7705ZM147.651 91.5798C141.764 87.9726 139.964 80.2328 143.56 74.3636L146.118 75.931C143.377 80.4056 144.762 86.2913 149.218 89.0218L147.651 91.5798ZM147.32 62.9212C148.277 67.0411 148.576 71.9193 146.118 75.931L143.56 74.3636C145.392 71.3745 145.299 67.4777 144.398 63.6002L147.32 62.9212Z" fill="#FACF35" mask="url(#path-9-inside-1_971_10155)"/>
<path d="M148.77 86.4462C157.163 80.8373 172.192 61.8876 171.331 69.1281C170.517 75.9767 160.116 76.7 162.298 65.7174C164.48 54.7347 171.794 69.0101 161.325 68.6735C150.856 68.3369 156.65 60.1341 159.592 60.3905C162.534 60.6469 157.255 72.8568 148.77 86.4462Z" stroke="#2A3070" stroke-width="1.5"/>
<path d="M130.434 111.796C125.941 100.475 115.544 79.0675 109.902 84.0057C104.26 88.944 121.239 104.59 130.434 111.796Z" stroke="#2A3070" stroke-width="1.5"/>
<line x1="0.75" y1="-0.75" x2="23.7548" y2="-0.75" transform="matrix(-0.607086 -0.794636 -0.794636 0.607086 129.878 111.47)" stroke="#2A3070" stroke-width="1.5" stroke-linecap="round"/>
<path d="M148.732 86.5292C131.834 108.739 112.039 139.156 112.039 187.847" stroke="#2A3070" stroke-width="1.5"/>
<ellipse rx="22.1457" ry="22.7525" transform="matrix(0.857149 -0.54595 0.5255 0.8284 246.326 86.9906)" fill="#1EBE8E"/>
<path d="M234.87 90.7033L253.891 78.7628L257.632 84.7006C260.822 89.7638 259.15 96.5413 253.897 99.8386C248.645 103.136 241.801 101.704 238.611 96.6411L234.87 90.7033Z" stroke="#2A3070" stroke-width="1.5"/>
<line x1="0.75" y1="-0.75" x2="8.42903" y2="-0.75" transform="matrix(-0.508346 -0.837617 0.851017 -0.553725 239.375 87.6906)" stroke="#2A3070" stroke-width="1.5" stroke-linecap="round"/>
<line x1="0.75" y1="-0.75" x2="8.429" y2="-0.75" transform="matrix(-0.508347 -0.837616 0.851018 -0.553723 250.769 80.7766)" stroke="#2A3070" stroke-width="1.5" stroke-linecap="round"/>
<line y1="-0.75" x2="23.5775" y2="-0.75" transform="matrix(0.869588 -0.527749 0.535596 0.822487 236.943 95.3036)" stroke="#2A3070" stroke-width="1.5"/>
<path d="M282.966 158.214C269.725 154.648 244.46 145.686 249.326 138.372C254.191 131.058 273.78 148.553 282.966 158.214Z" stroke="#2A3070" stroke-width="1.5"/>
<line x1="0.75" y1="-0.75" x2="27.2441" y2="-0.75" transform="matrix(-0.840525 -0.533005 0.481936 -0.875174 282.492 157.985)" stroke="#2A3070" stroke-width="1.5" stroke-linecap="round"/>
<path d="M253.553 99.981C303.135 155.014 273.607 182.457 314.795 245.57" stroke="#2A3070" stroke-width="1.5"/>
</g>
<defs>
<clipPath id="clip0_971_10155">
<rect width="360" height="192" fill="white"/>
</clipPath>
</defs>
</svg>
