<svg width="372" height="209" viewBox="0 0 372 209" fill="none" xmlns="http://www.w3.org/2000/svg">
<g clip-path="url(#clip0_180_10484)">
<rect width="372" height="209" fill="#E8EDFF"/>
<path fill-rule="evenodd" clip-rule="evenodd" d="M343.722 57.4085H218.146C217.402 55.0189 217 52.47 217 49.8238C217 36.197 227.66 25.1502 240.81 25.1502C245.104 25.1502 249.133 26.3282 252.611 28.3894C256.957 15.3587 268.899 6 282.951 6C294.494 6 304.614 12.3154 310.268 21.7937C313.422 20.5232 316.887 19.821 320.524 19.821C335.146 19.821 347 31.1738 347 45.1781C347 49.6129 345.811 53.7818 343.722 57.4085Z" fill="white"/>
<path d="M324.731 66.3699C328.691 75.8143 334.415 99.5268 325.629 118.821C314.646 142.939 291.44 163.969 291.513 193.741" stroke="#2A3070" stroke-width="1.5"/>
<path fill-rule="evenodd" clip-rule="evenodd" d="M320.852 60.9866C321.706 62.4863 323.847 62.135 324.178 60.4411C325.868 51.7721 326.047 42.0135 324.39 31.9119C322.733 21.8103 319.447 12.6201 315.076 4.94511C314.222 3.44539 312.08 3.79667 311.75 5.49061C310.06 14.1596 309.881 23.9182 311.537 34.0198C313.194 44.1215 316.481 53.3116 320.852 60.9866Z" fill="#FCA081"/>
<path fill-rule="evenodd" clip-rule="evenodd" d="M324.368 60.5173C322.561 60.4227 321.755 62.558 323.174 63.6814C329.872 68.9856 338.125 73.6831 347.466 77.2101C356.807 80.7372 366.105 82.6666 374.637 83.1133C376.445 83.2079 377.251 81.0726 375.832 79.9493C369.134 74.645 360.881 69.9476 351.54 66.4206C342.199 62.8935 332.901 60.9641 324.368 60.5173Z" fill="#6672F8"/>
<path fill-rule="evenodd" clip-rule="evenodd" d="M275.452 96.5904C274.403 98.0648 275.773 99.8905 277.482 99.2957C285.551 96.487 293.942 92.0411 301.929 86.049C309.915 80.0568 316.53 73.2441 321.484 66.282C322.533 64.8076 321.163 62.9819 319.454 63.5767C311.385 66.3854 302.994 70.8313 295.007 76.8235C287.021 82.8157 280.405 89.6284 275.452 96.5904Z" fill="#1EBE8E"/>
<circle cx="322.832" cy="62.5401" r="5.24425" transform="rotate(-9.31403 322.832 62.5401)" fill="#2A3070" stroke="#2A3070"/>
<path d="M83.937 110.455C81.3171 110.455 79.1934 108.332 79.1934 105.712C79.1934 103.092 81.3171 100.968 83.937 100.968C86.5568 100.968 88.6805 103.092 88.6805 105.712C88.6805 108.332 86.5568 110.455 83.937 110.455Z" fill="#6672F8"/>
<path d="M99.2715 150.313C98.4117 144.959 98.0263 139.782 99.4197 136.204C100.606 133.127 103.185 131.404 106.298 130.23L133.731 121.354C137.288 120.168 140.612 118.181 140.846 114.256C141.143 109.216 136.695 105.955 132.248 107.141C132.248 107.141 106.159 116.373 83.923 116.373C61.6875 116.373 35.8942 107.182 35.8942 107.182C30.5577 105.7 27 109.85 27 114.235C27 118.448 30.2612 119.931 34.1154 121.333L60.2051 130.793C62.5769 131.683 66.431 133.462 67.9134 136.183C69.6923 139.37 69.3958 144.938 68.536 150.292L66.7868 159.077L55.6957 207.669C54.8656 211.568 57.5635 215.211 61.4473 215.893C65.3311 216.575 68.5064 213.925 69.6567 210.154L80.7923 175.783C81.3279 174.135 81.8022 172.468 82.2153 170.782L83.923 163.821L85.4943 170.239C85.9924 172.285 86.5656 174.309 87.2139 176.311L98.1538 210.124C99.3397 213.934 102.453 216.572 106.336 215.893C110.22 215.214 112.977 211.271 112.106 207.669L101.021 159.098L99.2715 150.313Z" fill="#1EBE8E"/>
<mask id="path-9-inside-1_180_10484" fill="white">
<path fill-rule="evenodd" clip-rule="evenodd" d="M144.839 75.1474C146.984 71.647 146.788 67.2595 145.859 63.2608C144.728 58.3926 145.37 53.258 148.071 48.8501C153.867 39.3902 166.951 36.8593 177.295 43.1971C187.638 49.5348 191.325 62.3413 185.528 71.8012C182.828 76.2083 178.546 79.1115 173.696 80.3148C169.712 81.3034 165.714 83.1217 163.569 86.6222C160.4 91.794 153.607 93.4698 148.435 90.301C143.263 87.1321 141.671 80.3193 144.839 75.1474Z"/>
</mask>
<path fill-rule="evenodd" clip-rule="evenodd" d="M144.839 75.1474C146.984 71.647 146.788 67.2595 145.859 63.2608C144.728 58.3926 145.37 53.258 148.071 48.8501C153.867 39.3902 166.951 36.8593 177.295 43.1971C187.638 49.5348 191.325 62.3413 185.528 71.8012C182.828 76.2083 178.546 79.1115 173.696 80.3148C169.712 81.3034 165.714 83.1217 163.569 86.6222C160.4 91.794 153.607 93.4698 148.435 90.301C143.263 87.1321 141.671 80.3193 144.839 75.1474Z" fill="#FACF35"/>
<path d="M173.696 80.3148L174.058 81.7706L173.696 80.3148ZM149.35 49.6337C146.872 53.6773 146.27 58.4031 147.32 62.9213L144.398 63.6003C143.185 58.3821 143.868 52.8387 146.792 48.0664L149.35 49.6337ZM176.511 44.4761C166.764 38.5037 154.649 40.9854 149.35 49.6337L146.792 48.0664C153.085 37.795 167.138 35.2148 178.078 41.918L176.511 44.4761ZM184.249 71.0175C189.548 62.3692 186.258 50.4484 176.511 44.4761L178.078 41.918C189.018 48.6213 193.101 62.3135 186.807 72.5848L184.249 71.0175ZM173.335 78.8589C177.836 77.7422 181.772 75.0603 184.249 71.0175L186.807 72.5848C183.884 77.3562 179.256 80.4809 174.058 81.7706L173.335 78.8589ZM164.848 87.4059C161.252 93.2748 153.538 95.1873 147.651 91.58L149.218 89.0219C153.675 91.7524 159.548 90.3132 162.29 85.8385L164.848 87.4059ZM174.058 81.7706C170.194 82.7293 166.679 84.4166 164.848 87.4059L162.29 85.8385C164.748 81.8269 169.23 79.8775 173.335 78.8589L174.058 81.7706ZM147.651 91.58C141.764 87.9727 139.964 80.2329 143.56 74.3638L146.118 75.9311C143.377 80.4057 144.762 86.2914 149.218 89.0219L147.651 91.58ZM147.32 62.9213C148.277 67.0413 148.576 71.9194 146.118 75.9311L143.56 74.3638C145.392 71.3746 145.299 67.4778 144.398 63.6003L147.32 62.9213Z" fill="#FACF35" mask="url(#path-9-inside-1_180_10484)"/>
<path d="M148.77 86.4463C157.163 80.8374 172.192 61.8876 171.331 69.1281C170.517 75.9767 160.116 76.7001 162.298 65.7174C164.48 54.7348 171.794 69.0101 161.325 68.6736C150.856 68.337 156.65 60.1342 159.592 60.3905C162.534 60.6469 157.255 72.8569 148.77 86.4463Z" stroke="#2A3070" stroke-width="1.5"/>
<path d="M130.434 111.796C125.941 100.475 115.544 79.0675 109.902 84.0058C104.26 88.9441 121.239 104.59 130.434 111.796Z" stroke="#2A3070" stroke-width="1.5"/>
<line x1="0.75" y1="-0.75" x2="23.7548" y2="-0.75" transform="matrix(-0.607086 -0.794636 -0.794636 0.607086 129.878 111.47)" stroke="#2A3070" stroke-width="1.5" stroke-linecap="round"/>
<path d="M148.732 86.5293C131.834 108.739 112.039 139.156 112.039 187.847" stroke="#2A3070" stroke-width="1.5"/>
<ellipse rx="22.5104" ry="22.5227" transform="matrix(0.854633 -0.519861 0.519499 0.854088 246.326 86.9906)" fill="#1EBE8E"/>
<path d="M234.863 90.4421L254.072 78.7654L257.579 84.532C260.802 89.8326 259.114 96.7435 253.81 99.9679C248.505 103.192 241.592 101.509 238.369 96.2086L234.863 90.4421Z" stroke="#2A3070" stroke-width="1.5"/>
<line x1="0.75" y1="-0.75" x2="8.24661" y2="-0.75" transform="matrix(-0.518653 -0.8546 0.854377 -0.520279 239.375 87.6907)" stroke="#2A3070" stroke-width="1.5" stroke-linecap="round"/>
<line x1="0.75" y1="-0.75" x2="8.24659" y2="-0.75" transform="matrix(-0.518655 -0.854599 0.854378 -0.520277 250.769 80.7766)" stroke="#2A3070" stroke-width="1.5" stroke-linecap="round"/>
<line y1="-0.75" x2="23.9752" y2="-0.75" transform="matrix(0.855161 -0.518993 0.519974 0.8538 236.943 95.3035)" stroke="#2A3070" stroke-width="1.5"/>
<path d="M282.92 158.569C269.653 154.616 244.376 144.986 249.399 138.09C254.422 131.194 273.839 148.869 282.92 158.569Z" stroke="#2A3070" stroke-width="1.5"/>
<line x1="0.75" y1="-0.75" x2="27.1142" y2="-0.75" transform="matrix(-0.844471 -0.535507 0.533074 -0.846125 282.492 157.985)" stroke="#2A3070" stroke-width="1.5" stroke-linecap="round"/>
<path d="M254.52 99.981C303.122 155.786 273.616 182.029 313.828 245.57" stroke="#2A3070" stroke-width="1.5"/>
</g>
<defs>
<clipPath id="clip0_180_10484">
<rect width="372" height="209" fill="white"/>
</clipPath>
</defs>
</svg>
