<svg width="251" height="206" viewBox="0 0 251 206" fill="none" xmlns="http://www.w3.org/2000/svg">
<mask id="path-1-inside-1" fill="white">
<path fill-rule="evenodd" clip-rule="evenodd" d="M173.058 70.9035C174.153 67.0352 177.442 64.2629 180.937 62.2763C185.192 59.8578 188.462 55.9861 189.841 51.1149C192.801 40.6611 185.935 29.5627 174.504 26.3259C163.074 23.0892 151.408 28.9398 148.447 39.3936C147.068 44.2637 147.822 49.2736 150.176 53.5634C152.111 57.088 153.457 61.1735 152.361 65.0418C150.743 70.7571 154.048 76.7599 159.763 78.3783C165.478 79.9966 171.44 76.6188 173.058 70.9035Z"/>
</mask>
<path fill-rule="evenodd" clip-rule="evenodd" d="M173.058 70.9035C174.153 67.0352 177.442 64.2629 180.937 62.2763C185.192 59.8578 188.462 55.9861 189.841 51.1149C192.801 40.6611 185.935 29.5627 174.504 26.3259C163.074 23.0892 151.408 28.9398 148.447 39.3936C147.068 44.2637 147.822 49.2736 150.176 53.5634C152.111 57.088 153.457 61.1735 152.361 65.0418C150.743 70.7571 154.048 76.7599 159.763 78.3783C165.478 79.9966 171.44 76.6188 173.058 70.9035Z" fill="#FACF35"/>
<path d="M180.937 62.2763L180.196 60.9722L180.937 62.2763ZM188.398 50.7062C187.135 55.1662 184.139 58.7313 180.196 60.9722L181.678 63.5804C186.246 60.9844 189.789 56.806 191.284 51.5236L188.398 50.7062ZM174.096 27.7692C184.853 30.8153 191.099 41.1681 188.398 50.7062L191.284 51.5236C194.504 40.154 187.016 28.31 174.913 24.8827L174.096 27.7692ZM149.891 39.8023C152.592 30.2642 163.338 24.723 174.096 27.7692L174.913 24.8827C162.809 21.4554 150.224 27.6154 147.004 38.985L149.891 39.8023ZM151.491 52.8418C149.31 48.8669 148.628 44.2613 149.891 39.8023L147.004 38.985C145.509 44.2661 146.334 49.6804 148.861 54.2851L151.491 52.8418ZM150.918 64.6331C149.077 71.135 152.832 77.9745 159.354 79.8215L160.172 76.935C155.264 75.5453 152.409 70.3791 153.805 65.4505L150.918 64.6331ZM148.861 54.2851C150.736 57.7005 151.85 61.3416 150.918 64.6331L153.805 65.4505C155.063 61.0054 153.485 56.4754 151.491 52.8418L148.861 54.2851ZM159.354 79.8215C165.877 81.6685 172.66 77.8143 174.501 71.3122L171.615 70.4948C170.219 75.4233 165.08 78.3248 160.172 76.935L159.354 79.8215ZM180.196 60.9722C176.592 63.0203 172.873 66.0496 171.615 70.4948L174.501 71.3122C175.433 68.0209 178.291 65.5055 181.678 63.5804L180.196 60.9722Z" fill="#FACF35" mask="url(#path-1-inside-1)"/>
<path d="M162.316 75.5771C160.78 65.8118 164.44 42.4105 159.8 47.8379C155.41 52.9716 161.796 60.9384 168.253 52.075C174.709 43.2117 159.577 47.4263 166.771 54.7383C173.965 62.0504 176.022 52.4326 173.884 50.4854C171.746 48.5382 166.463 60.4462 162.316 75.5771Z" stroke="#2A3070" stroke-width="1.5"/>
<path d="M148.679 127.438C141.853 117.656 129.97 97.6069 137.051 95.6613C144.131 93.7156 147.753 116.035 148.679 127.438Z" stroke="#2A3070" stroke-width="1.5"/>
<line x1="147.759" y1="126.346" x2="140.368" y2="105.097" stroke="#2A3070" stroke-width="1.5" stroke-linecap="round"/>
<path d="M162.125 75.0685C164.953 138.713 132.532 127.264 125.564 191.625" stroke="#2A3070" stroke-width="1.5"/>
<g opacity="0.4">
<path d="M186.407 136.24L186.407 136.24C195.039 131.131 199.054 125.994 200.19 121.54C201.319 117.113 199.633 113.246 196.587 110.569C193.53 107.882 189.129 106.424 184.936 106.854C180.766 107.282 176.794 109.575 174.523 114.427L174.523 114.427C173.947 115.657 173.307 117.12 172.613 118.709C172.538 118.88 172.462 119.053 172.386 119.226C171.605 121.012 170.76 122.932 169.868 124.827C168.09 128.603 166.104 132.331 164.037 134.704L163.658 134.382L164.037 134.704C163.634 135.166 163.085 135.549 162.461 135.901C161.835 136.253 161.099 136.59 160.302 136.947C160.178 137.003 160.052 137.059 159.924 137.116C158.404 137.794 156.652 138.576 154.826 139.713C150.891 142.165 146.584 146.286 143.812 154.579C141.064 162.801 139.606 171.843 138.95 178.962C138.621 182.52 138.494 185.59 138.504 187.828C138.51 188.949 138.549 189.853 138.614 190.502C138.64 190.755 138.668 190.963 138.698 191.126C140.157 190.521 142.174 189.336 144.476 187.814C147.025 186.127 149.883 184.053 152.644 181.965C158.166 177.79 163.28 173.576 164.728 172.333C170.625 167.268 171.845 161.783 173.097 156.153C173.23 155.553 173.364 154.951 173.504 154.348C174.228 151.225 175.12 148.068 177.005 145.005C178.895 141.935 181.764 138.988 186.407 136.24Z" fill="#6672F8" stroke="#6672F8"/>
<path d="M188.217 116.102C176.872 130.456 149.632 150.849 138.615 191.505" stroke="white" stroke-linecap="round"/>
</g>
<ellipse cx="46.2479" cy="109.832" rx="32.3222" ry="50.1537" transform="rotate(-17.2604 46.2479 109.832)" fill="#1EBE8E"/>
<path d="M61.7307 191.518C62.2025 170.504 55.6261 120.595 40.9686 91.2796" stroke="#2A3070" stroke-linecap="round"/>
<path d="M41.0969 116.968C43.9415 118.667 50.3964 122.995 53.4584 126.71C56.6972 116.762 57.9719 112.736 58.2044 111.967" stroke="#2A3070" stroke-linecap="round"/>
<path d="M35.2944 101.682C38.289 103.1 45.1292 106.788 48.5335 110.193C50.803 99.9795 51.6856 95.8502 51.8433 95.0622" stroke="#2A3070" stroke-linecap="round"/>
<path d="M65.3302 111.114C65.078 108.194 67.3805 105.684 70.3116 105.684H129.103C131.698 105.684 133.861 107.669 134.085 110.254L141.043 190.841C141.295 193.761 138.992 196.271 136.061 196.271H77.2697C74.675 196.271 72.5114 194.286 72.2882 191.701L65.3302 111.114Z" fill="#2A3070"/>
<path d="M67.6658 111.126C67.4067 108.202 69.7107 105.684 72.6463 105.684H131.436C134.026 105.684 136.188 107.663 136.416 110.243L143.352 188.507C143.611 191.431 141.307 193.948 138.371 193.948H79.5816C76.9912 193.948 74.8298 191.97 74.6011 189.39L67.6658 111.126Z" fill="#F7F7FA"/>
<line x1="78.1359" y1="117.959" x2="125.913" y2="117.959" stroke="#6672F8" stroke-linecap="round"/>
<line x1="79.2973" y1="127.25" x2="127.075" y2="127.25" stroke="#6672F8" stroke-linecap="round"/>
<line x1="80.4587" y1="136.541" x2="128.236" y2="136.541" stroke="#6672F8" stroke-linecap="round"/>
<line x1="81.6201" y1="145.832" x2="129.397" y2="145.832" stroke="#6672F8" stroke-linecap="round"/>
<line x1="82.7814" y1="155.123" x2="130.559" y2="155.123" stroke="#6672F8" stroke-linecap="round"/>
<path d="M38.9065 164.308C40.022 164.308 40.9263 163.404 40.9263 162.288C40.9263 161.173 40.022 160.269 38.9065 160.269C37.791 160.269 36.8867 161.173 36.8867 162.288C36.8867 163.404 37.791 164.308 38.9065 164.308Z" fill="#FCA081"/>
<path d="M33.8725 176.672C34.1443 174.98 34.2661 173.344 33.8257 172.213C33.4509 171.24 32.6357 170.696 31.6518 170.325L22.9818 167.519C21.8574 167.145 20.807 166.517 20.733 165.276C20.6393 163.683 22.0448 162.653 23.4503 163.027C23.4503 163.027 31.6959 165.945 38.7234 165.945C45.7509 165.945 53.9028 163.041 53.9028 163.041C55.5894 162.572 56.7139 163.884 56.7139 165.27C56.7139 166.601 55.6831 167.07 54.465 167.513L46.2194 170.503C45.4698 170.784 44.2517 171.346 43.7832 172.206C43.221 173.214 43.3147 174.973 43.5864 176.665L44.1393 179.442L47.6446 194.799C47.907 196.031 47.0543 197.183 45.8268 197.399C44.5993 197.614 43.5958 196.776 43.2323 195.584L39.7129 184.722C39.5436 184.201 39.3937 183.674 39.2631 183.141L38.7234 180.941L38.2268 182.97C38.0694 183.616 37.8882 184.256 37.6833 184.889L34.2258 195.575C33.851 196.779 32.8671 197.613 31.6397 197.399C30.4122 197.184 29.5408 195.938 29.8163 194.799L33.3197 179.448L33.8725 176.672Z" fill="#FCA081"/>
</svg>
