<svg width="15" height="15" viewBox="0 0 15 15" fill="none" xmlns="http://www.w3.org/2000/svg">
<path d="M0.833496 12.8333H14.1668V14.1666H0.833496V12.8333ZM2.16683 7.49992H3.50016V12.1666H2.16683V7.49992ZM5.50016 7.49992H6.8335V12.1666H5.50016V7.49992ZM8.16683 7.49992H9.50016V12.1666H8.16683V7.49992ZM11.5002 7.49992H12.8335V12.1666H11.5002V7.49992ZM0.833496 4.16659L7.50016 0.833252L14.1668 4.16659V6.83325H0.833496V4.16659ZM2.16683 4.99059V5.49992H12.8335V4.99059L7.50016 2.32392L2.16683 4.99059ZM7.50016 4.83325C7.32335 4.83325 7.15378 4.76301 7.02876 4.63799C6.90374 4.51297 6.8335 4.3434 6.8335 4.16659C6.8335 3.98977 6.90374 3.82021 7.02876 3.69518C7.15378 3.57016 7.32335 3.49992 7.50016 3.49992C7.67698 3.49992 7.84654 3.57016 7.97157 3.69518C8.09659 3.82021 8.16683 3.98977 8.16683 4.16659C8.16683 4.3434 8.09659 4.51297 7.97157 4.63799C7.84654 4.76301 7.67698 4.83325 7.50016 4.83325Z" fill="#444B59"/>
</svg>
