<svg width="15" height="14" viewBox="0 0 15 14" fill="none" xmlns="http://www.w3.org/2000/svg">
<path d="M7.50016 13.6666C3.81816 13.6666 0.833496 10.6819 0.833496 6.99992C0.833496 3.31792 3.81816 0.333252 7.50016 0.333252C11.1822 0.333252 14.1668 3.31792 14.1668 6.99992C14.1668 10.6819 11.1822 13.6666 7.50016 13.6666ZM7.50016 12.3333C8.91465 12.3333 10.2712 11.7714 11.2714 10.7712C12.2716 9.77096 12.8335 8.41441 12.8335 6.99992C12.8335 5.58543 12.2716 4.22888 11.2714 3.22868C10.2712 2.22849 8.91465 1.66659 7.50016 1.66659C6.08568 1.66659 4.72912 2.22849 3.72893 3.22868C2.72873 4.22888 2.16683 5.58543 2.16683 6.99992C2.16683 8.41441 2.72873 9.77096 3.72893 10.7712C4.72912 11.7714 6.08568 12.3333 7.50016 12.3333ZM6.20016 6.33325H9.50016V7.66659H6.20016C6.25792 7.95014 6.3885 8.21377 6.57907 8.43153C6.76963 8.6493 7.01361 8.8137 7.287 8.90855C7.56039 9.0034 7.85376 9.02544 8.13825 8.97249C8.42274 8.91954 8.68854 8.79344 8.9095 8.60659L10.0428 9.36192C9.65339 9.78587 9.1502 10.0888 8.5933 10.2346C8.03639 10.3804 7.4493 10.3629 6.90208 10.1842C6.35486 10.0054 5.87061 9.67305 5.50713 9.22664C5.14365 8.78023 4.91629 8.23867 4.85216 7.66659H4.16683V6.33325H4.8515C4.9154 5.76088 5.14271 5.21899 5.50627 4.77232C5.86984 4.32565 6.35429 3.99307 6.90178 3.8143C7.44926 3.63553 8.03663 3.61813 8.59373 3.76418C9.15084 3.91023 9.65413 4.21355 10.0435 4.63792L8.9095 5.39325C8.68854 5.2064 8.42274 5.08029 8.13825 5.02735C7.85376 4.9744 7.56039 4.99644 7.287 5.09129C7.01361 5.18614 6.76963 5.35054 6.57907 5.5683C6.3885 5.78607 6.25792 6.0497 6.20016 6.33325Z" fill="#F6F8FC"/>
</svg>
