<svg width="13" height="15" viewBox="0 0 13 15" fill="none" xmlns="http://www.w3.org/2000/svg">
<path d="M13 7.2571C13 6.52103 12.342 5.91746 11.5395 5.91746C11.2346 5.91746 10.9457 6.00578 10.705 6.153C10.4964 5.65247 9.96674 5.31388 9.35688 5.31388C9.05195 5.31388 8.76306 5.40221 8.52233 5.54942C8.31369 5.0489 7.78408 4.71031 7.17421 4.71031C6.90138 4.71031 6.66065 4.76919 6.43596 4.88696V1.83964C6.43596 1.48633 6.29152 1.14774 6.00264 0.897476C5.7298 0.647213 5.36068 0.5 4.9755 0.5C4.17305 0.5 3.51504 1.10358 3.51504 1.83964V8.71451L2.50395 7.78707C2.00644 7.3307 1.22003 7.27182 0.64227 7.62513C0.305241 7.83123 0.0645063 8.16982 0.0163593 8.55258C-0.0478367 8.93533 0.0805553 9.31809 0.337339 9.61251L3.32245 12.9248C4.2212 13.9259 5.55326 14.5 6.96558 14.5H8.82726C9.95069 14.5 10.9939 14.1025 11.7803 13.3812C12.5667 12.6598 13 11.7029 13 10.6725V7.2571ZM11.2667 12.8954C10.6087 13.4989 9.74205 13.8228 8.82726 13.8228H6.96558C5.77795 13.8228 4.65452 13.337 3.88417 12.4979L0.899054 9.17087C0.770662 9.02366 0.706466 8.83228 0.738564 8.6409C0.770662 8.44953 0.883005 8.27287 1.05954 8.16982C1.18794 8.09621 1.33238 8.05205 1.47682 8.05205C1.66941 8.05205 1.86199 8.12566 2.00644 8.25815L3.21011 9.34753C3.38665 9.50946 3.65948 9.55363 3.88417 9.4653C4.10885 9.37697 4.26934 9.17087 4.26934 8.93533V1.83964C4.2533 1.47161 4.57428 1.16246 4.9755 1.16246C5.16809 1.16246 5.36068 1.23607 5.48907 1.35384C5.63351 1.48633 5.69771 1.64827 5.69771 1.82492V6.71241C5.69771 6.90379 5.8582 7.051 6.06683 7.051C6.27547 7.051 6.43596 6.90379 6.43596 6.71241V6.04995C6.43596 5.68191 6.75694 5.38749 7.17421 5.38749C7.57544 5.38749 7.91247 5.68191 7.91247 6.04995V7.31598C7.91247 7.50736 8.07296 7.65457 8.28159 7.65457C8.49023 7.65457 8.65072 7.50736 8.65072 7.31598V6.65352C8.65072 6.28549 8.9717 5.99106 9.38898 5.99106C9.7902 5.99106 10.1272 6.28549 10.1272 6.65352V7.93428C10.1272 8.12566 10.2877 8.27287 10.4964 8.27287C10.705 8.27287 10.8655 8.12566 10.8655 7.93428V7.31598C10.8655 7.30126 10.8655 7.28654 10.8655 7.27182C10.8655 6.90379 11.1865 6.60936 11.5877 6.60936C11.9889 6.60936 12.3099 6.90379 12.3099 7.27182V10.6577C12.2778 11.4968 11.9247 12.2918 11.2667 12.8954Z" fill="white"/>
</svg>
