<svg width="14" height="15" viewBox="0 0 14 15" fill="none" xmlns="http://www.w3.org/2000/svg">
<path d="M6.39075 0.5L12.9901 1.44333L13.9328 8.04333L7.80475 14.1713C7.67973 14.2963 7.51019 14.3665 7.33342 14.3665C7.15664 14.3665 6.9871 14.2963 6.86209 14.1713L0.262086 7.57133C0.137105 7.44632 0.0668945 7.27678 0.0668945 7.1C0.0668945 6.92322 0.137105 6.75369 0.262086 6.62867L6.39075 0.5ZM6.86209 1.91467L1.67609 7.1L7.33342 12.7567L12.5188 7.57133L11.8121 2.62133L6.86209 1.91467ZM8.27542 6.15733C8.02532 5.90715 7.88485 5.56785 7.88491 5.2141C7.88494 5.03894 7.91948 4.86549 7.98654 4.70368C8.0536 4.54186 8.15187 4.39484 8.27575 4.271C8.39963 4.14716 8.54669 4.04894 8.70853 3.98194C8.87037 3.91493 9.04383 3.88046 9.21899 3.88049C9.57274 3.88056 9.91199 4.02115 10.1621 4.27133C10.4122 4.52152 10.5527 4.86081 10.5526 5.21457C10.5525 5.56833 10.4119 5.90757 10.1618 6.15767C9.91156 6.40777 9.57227 6.54823 9.21852 6.54817C8.86476 6.54811 8.52552 6.40752 8.27542 6.15733Z" fill="#F6F8FC"/>
</svg>
