<svg width="19" height="20" viewBox="0 0 19 20" fill="none" xmlns="http://www.w3.org/2000/svg">
<path d="M9.49225 2.08337C5.12225 2.08337 1.5835 5.63004 1.5835 10C1.5835 14.37 5.12225 17.9167 9.49225 17.9167C13.8702 17.9167 17.4168 14.37 17.4168 10C17.4168 5.63004 13.8702 2.08337 9.49225 2.08337ZM9.50016 16.3334C6.001 16.3334 3.16683 13.4992 3.16683 10C3.16683 6.50087 6.001 3.66671 9.50016 3.66671C12.9993 3.66671 15.8335 6.50087 15.8335 10C15.8335 13.4992 12.9993 16.3334 9.50016 16.3334Z" fill="#444B59"/>
<path d="M9.896 6.04163H8.7085V10.7916L12.8647 13.2854L13.4585 12.3116L9.896 10.1979V6.04163Z" fill="#444B59"/>
</svg>
