<svg width="15" height="13" viewBox="0 0 15 13" fill="none" xmlns="http://www.w3.org/2000/svg">
<path d="M1.46341 0C0.659012 0 0 0.650469 0 1.44444V11.7361C0 12.4301 0.577427 13 1.28049 13H13.7195C14.4226 13 15 12.4301 15 11.7361V3.43055C15 2.73661 14.4226 2.16666 13.7195 2.16666H12.8049V0.361111C12.8049 0.172033 12.6306 1.80555e-05 12.439 0H1.46341ZM1.46341 0.722222H12.0732V2.16666H1.46341C1.05172 2.16666 0.731707 1.8508 0.731707 1.44444C0.731707 1.03809 1.05172 0.722222 1.46341 0.722222ZM0.731707 2.6914C0.94736 2.81537 1.19737 2.88889 1.46341 2.88889C5.58368 2.88528 10.1782 2.88889 13.7195 2.88889C14.0299 2.88889 14.2683 3.12422 14.2683 3.43055V5.23611H8.96342C8.46304 5.23611 8.04878 5.645 8.04878 6.13888V9.02778C8.04878 9.52167 8.46304 9.93056 8.96342 9.93056H14.2683V11.7361C14.2683 12.0424 14.0299 12.2778 13.7195 12.2778H1.28049C0.970134 12.2778 0.731707 12.0424 0.731707 11.7361V2.6914ZM8.96342 5.95833H14.2683V9.20834H8.96342C8.85574 9.20834 8.78049 9.13406 8.78049 9.02778V6.13888C8.78049 6.03262 8.85574 5.95833 8.96342 5.95833ZM10.7927 6.86111C10.3886 6.86111 10.061 7.18446 10.061 7.58333C10.061 7.98221 10.3886 8.30555 10.7927 8.30555C11.1968 8.30555 11.5244 7.98221 11.5244 7.58333C11.5244 7.18446 11.1968 6.86111 10.7927 6.86111Z" fill="#444B59"/>
</svg>
